<svg xmlns="http://www.w3.org/2000/svg" width="322.8" height="379.8" viewBox="0 0 322.793 379.84"><path fill="#9C824A" stroke="#9C824A" stroke-width=".8" stroke-miterlimit="282" d="M161.4.4C123 .4 52 10.4 16 31.4c-47.5 168.4 17 283 145.4 348 128.3-65 193-180.2 145.4-348-36-21-107-31-145.4-31z"/><path fill="#023474" stroke="#023474" stroke-width=".8" stroke-miterlimit="282" d="M161.4 11.2c-37.8 0-80.3 5-136 27.6-41.4 147 6.7 265 136 329.2 129.3-64.3 177.4-182.2 136-329.2-55.8-22.7-98.2-27.6-136-27.6z"/><path fill="#FFF" stroke="#FFF" stroke-width=".8" stroke-miterlimit="282" d="M161.2 11c-37.6 0-78 5.7-114.3 19.4C9 181 37 291 161.3 368l-.2-357zm.2 357C286 291 313.7 181 276 30.3 239.5 16.7 199.2 11 161.6 11l-.2 357z"/><path fill="#EF0107" stroke="#EF0107" stroke-width=".8" stroke-miterlimit="282" d="M161.4 11c-37.8 0-76 5.8-107 16.6C15 185.4 46.5 292 161.3 364.8V11z"/><path fill="#DB0007" stroke="#DB0007" stroke-width=".8" stroke-miterlimit="282" d="M161.5 11c37.8 0 76 5.8 107.2 16.6 39 157.8 7.7 264.4-107.2 337.2V11z"/><path fill="#FFF" d="M112.6 249.2c-16.7 11.4-30 15.6-45.4 19.6L58 254.4c14-7.2 28.8-17.2 43.5-31.6 1.3 14 7.8 24 11 26.4z"/><path fill="#9C824A" d="M110.3 248.6c-15.8 11-37.8 18.4-63 22L42 263c21.7-8.2 42.6-20.3 58.7-37.2 2.5 10.8 6.2 18 9.6 22.8z"/><path fill="#FFF" d="M68.2 182.2c0 6-5 11-11 11s-11-5-11-11 5-11 11-11 11 5 11 11z"/><path fill="#FFF" d="M67 160.6V202h32.6c2-14 10-28.6 28-41.4H67"/><path fill="#FFF" d="M68.3 202C61 202 55 193 55 181.6c0-11.5 5.7-21 13-21h.2"/><path fill="#9C824A" d="M63.6 182.2c0 4.7-3.5 8.5-7.6 8.5-4.2 0-7.6-3.8-7.6-8.5s3.4-8.4 7.6-8.4c4 0 7.6 3.7 7.6 8.4zM68 162.8V200H100c2.6-12.4 9-25.5 24.6-37.2h-57"/><path fill="#9C824A" d="M69 200c-6.8 0-12.4-8-12.5-18.4 0-10.2 5.5-18.7 12.3-18.8h.2"/><path fill="#FFF" d="M223.3 211.7c0 34.6-28 62.5-62.5 62.5s-62.5-28-62.5-62.5c0-34.6 28-62.5 62.5-62.5 34.6 0 62.5 28 62.5 62.5z"/><path fill="#9C824A" d="M220 211.7c0 32.7-26.4 59.3-59.2 59.3-32.7 0-59.2-26.6-59.2-59.3 0-32.7 26.5-59.3 59.2-59.3 32.8 0 59.3 26.6 59.3 59.3z"/><path fill="#FFF" d="M210.2 211.7c0 27.3-22 49.4-49.4 49.4-27.2 0-49.3-22-49.3-49.3 0-27.3 22-49.4 49.3-49.4 27.3 0 49.4 22 49.4 49.4z"/><path fill="#9C824A" d="M207 211.7c0 25.5-20.7 46-46.2 46-25.4 0-46-20.5-46-46s20.6-46 46-46c25.5 0 46.2 20.5 46.2 46z"/><path fill="#FFF" d="M180 211.7c0 10.6-8.5 19.3-19 19.3-10.8 0-19.4-8.6-19.4-19.3 0-10.6 8.6-19.2 19.2-19.2S180 201 180 211.7z"/><path fill="#9C824A" d="M177.8 211.7c0 9.4-7.6 17-17 17-9.3 0-17-7.6-17-17s7.7-17 17-17 17 7.6 17 17z"/><path fill="#FFF" d="M169.6 211.7c0 4.8-4 8.7-8.8 8.7-4.8 0-8.7-4-8.7-8.7 0-4.8 4-8.7 8.8-8.7 5 0 8.8 4 8.8 8.7z"/><path fill="#9C824A" d="M167 211.7c0 3.5-2.7 6.3-6.2 6.3-3.4 0-6.3-2.8-6.3-6.3s3-6.3 6.3-6.3c3.5 0 6.3 2.8 6.3 6.3z"/><path fill="#FFF" d="M154.2 164.5h13V195h-13z"/><path fill="#9C824A" d="M156.3 160h9v39h-9z"/><path fill="#FFF" d="M197.4 181.8l7.2 11-25.7 16.7-7.2-11"/><path fill="#9C824A" d="M202.2 181l5 7.7-32.7 21.3-5-7.7"/><path fill="#FFF" d="M142.4 214.2l7 11-25.8 16.5-7-11"/><path fill="#9C824A" d="M146.8 213.5l5 7.7-33 21-5-7.8"/><path fill="#FFF" d="M154.2 229.3h13V260h-13z"/><path fill="#9C824A" d="M156.3 225h9v38.8h-9z"/><path fill="#EF0107" stroke="#EF0107" stroke-width=".3" stroke-miterlimit="282" d="M148 226c1.8 1.5 3.7 3 6.2 4V257c-12.5-1.6-21.8-7.7-29-16.4l23-14.8"/><path fill="#DB0007" stroke="#DB0007" stroke-width=".3" stroke-miterlimit="282" d="M173.6 226c-1.8 1.6-3.7 3-6.2 4v27.3c12.4-1.6 21.8-7.7 29-16.4l-22.8-15"/><path fill="#DB0007" d="M179.8 214.6l27-3.2c.3 6.8-1.3 12.7-3.6 18.4l-23.5-15.2"/><path fill="#FFF" stroke="#FFF" stroke-width=".3" stroke-miterlimit="282" d="M180 214.5v-2l27-3.5v2.3l-27 3.2z"/><path fill="#FFF" d="M219.5 192h35c-1 4-2 8.4-7 10.3-8.2 3-25 6-25 6-.2-4.7-1.3-11-3-16.3z"/><path fill="#FFF" d="M195 160h91.7l-3.2 33.6-62.7 3.3c-3.3-15-14.7-29.4-25.8-37z"/><path fill="#9C824A" d="M198.3 162.4h117L311 190l-91 4.5c-3.6-13.6-11.8-23.5-21.7-32z"/><path fill="#9C824A" d="M219.5 192h32.3c-1 3.7-1.8 7-6.6 8.7-7.5 2.7-22.8 5-22.8 5-.6-4.6-1.5-9-3-13.7zM184 111.3c0 1.5-.4 5.6-.5 6.7h18c-1-4.8-1.5-11.5-1.6-16.7l-.4-10.4c0-1 .3-2 .8-2.4.6-.7 1.2-.7 2-.7.8-.5 2.2-.5 2.4 2.5l.5 11c0 5.4 0 12.4-.5 16.5h17.5c0-1.5-.6-5.2-.8-6.3 2.2 4.8 7 7.4 13.3 7.4 3.8 0 6.6-1.3 8.8-2.8 0 .3 1 1.8 1 1.8H277c-1.4-4.8-2.3-11.5-2.8-16.7L269.6 65 253 62c1.3 4.7 2.3 11.8 3 16.6l2.5 23.4c.4 4 .7 8.6.7 13.4v.4l-.6-1.5c-1.3-3-2-6.7-2.4-12.3l-.6-7.4c-1-12-7.4-17-21.6-17-2.4 0-8.4.2-12 1.4l1 13.3 3.7-2.2c3.2-1.7 5.5-2.5 8.4-2.5 2.3 0 3.7.8 4.4 2.2-2.7.4-5.7 1.2-9 2.6-5 2.3-8.2 5.6-9.7 9.3v-.3l-.5-12.3c-.2-7.8-5.3-13-13-13-3.5 0-6.7 1-9.5 3l-.5-1.2-.6-1.4-14.5-.8c.7 2.6 1.6 10 1.8 12.7-.8-3.7-2.8-7.8-6.6-10.8-3-2-6.8-3-10.8-3-5.3 0-11 2.2-14.5 6-4 3.7-5.8 9-6 14.8-1.4-1.5-3.2-3-5.4-3.7l-6.7-3.3h-.4c-1.6-.8-1.7-1-1.7-1.5 0-.7 1.6-1.5 3.7-1.5 2.8 0 6.7 1.5 10 3.3l.2-12c-2.5-1-5.8-1.7-10.5-1.7-2.5 0-7.3.3-11.4 2.5l-3 2.2.3-3.3c-3.8-.8-8-.8-13 4 0-.3-.4-2.2-.7-3l-15.7.8c1 4.5 1.2 10.8 1 16.4l-.4 6v.7c-.2 3-.3 6.3-.7 9.3-1.3-4-2.7-9.7-4-14l-7.6-35-22 3.3.6 2.4c0 1.5 0 4.5-2 10.8-3.6 10-8.6 25.3-13.5 36-.6 1.6-2 3.8-2 3.8H59c.3-2.6 1.4-7 2.5-10.4 2.4 0 8.5 0 11.4-.4.6 2.6 1.2 6 1.4 8.2l.4 2.6h34.4c-.7-5.6-.4-13 0-17 .2-5 1-8.3 3.2-10 1.6-2 3.3-2.4 4.6-2.4-.2 6.7 4 9.7 8 11.5l6.6 3.5c2.4 1.5 2.4 2 2.4 2.6 0 1.2-2 1.6-3.8 1.6-3.6 0-8.5-2.2-14-8.2l-.2 15.6c4.3 2.3 9.6 3.4 14.4 3.4 8 0 16.2-3.7 18.4-10.8 4 7.4 11.7 10.8 19.3 10.8 6.8 0 11.8-2.2 16.3-7zM65.4 96l3.2-8.8c1 4 1.4 6.6 2 8.5-2 .4-3 .4-5.2.4zm96.6-4c0-5.2 2-7.4 3.8-7.4.6 0 2-.4 2.7 2.2l.5 2.2c0 1.5-.8 2-1.8 2v.2s-2.6.8-5.2 2V92zm18 10.8c-3.3 3-5.7 4.8-9.6 4.8-3.2-.4-5-2.2-6.2-4.8l19.8-7.5V108l-4-5.2zm59 5.2c-3 0-3.7-2.3-4-3.7.3-1.5.7-3.8 5.5-5.2 0 2 .3 3.4.3 3.4v1.5c0 1 0 2 .3 3.2-.5.4-1.3.4-2 .8"/><path fill="#FFF" d="M143.2 78.6c-1.5-.4-4-1-7.7-1-3 0-7 .6-10 2-3.4 2.4-6 5.3-6 8.7-.4 5.2 2.3 7.4 6.2 9.3 2.7 1.5 5.2 3 6.8 3.7 2 1 4 2.2 3.8 4.8-.2 2.7-2.6 4.6-6.5 4.6-3.3 0-8-2.2-11.3-5.2l-.2 7.8c3 1.5 7.4 2.2 11.7 2.2 7.2 0 16.2-3.3 16.4-11.5.2-6.4-4.3-8.7-7-10-2.6-1.3-5.3-2.8-6.6-3-1.3-1-3.8-1.6-3.6-4.6.3-2.6 3.3-3.7 6.5-3.7 2.6 0 5.3.7 7.4 2M78.4 65l-16.8 2c.4 2.3-.3 6.8-2 12-3.5 10-9 26.7-13.6 36.4h10.5c.6-3.4 1.3-6.3 3-10.4l15.4-.4c.5 3 1.6 7.8 1.8 10.8h14c-1.7-4-4-12.6-5.3-18.6l-7-32zM61.6 98.6l7.6-22 4.6 21.6M118.5 78.6L118 86c-2.4-.3-5.5.4-8 3-2.3 2.2-3.7 5.6-4 11.5-.3 5-.5 10.5-.2 15H94c.8-4.5 1-9.7 1.2-14.6l.4-6c.3-5 .3-9.7-.5-14.2l10.5-.3c.5 1.5.8 4 .6 6.7 4.7-7 9.2-8.6 12.5-8.6M267.3 67l-10.8-1.8c1 5 1.5 8.2 2 13l2.6 23.4c.6 5 1 9.4 1 13.8h11.6c-1-4.5-1.6-9-2-13.8M219 115.4c-.5-4.4-.8-9-1-13.8l-.4-12.2c-.3-6.7-4-10.4-10.5-10.4-3.3 0-7.4 1-11 5.6 0-1.2-.5-4-1.2-5.6l-9.4-.4c.8 4.5 1 9 1.2 13.7l.2 9.3c0 5 0 9.4-.3 13.8h11.8c-.6-4.4-1-9-1-13.8l-.4-10.4c-.3-3.7 2.6-6.3 5.4-6.3 3.3 0 5 2.2 5 5.5l.6 11c0 5 0 9.4-.2 14M256 115.4c-1.3-3.7-2-8.2-2.4-13L253 95c-.7-9-4.5-15-19-15-2.5 0-6.2.5-9 1.2l.3 6.7c3-2 6-3.4 9.8-3.4 4 0 7.3 1.8 7.7 7.4-3.8.4-7.3 1-11.2 3-4.4 1.8-9 5.5-8.6 11.5.4 6.7 5.5 9.7 11.8 9.7 5 0 8.2-2.3 10-4.5.4 1.5 1 2.6 1.3 3.7h10zm-17-4.8c-3.6 0-6.4-2-6.6-6 0-4 2.5-7.4 10.6-8.5l.4 6.4c.2 2.2.2 3.7.5 5.6-1.2 1.5-3 2.2-5 2.6M175.6 79.7c-2.7-1.8-6-2.6-9.2-2.6-7.7 0-18 5.7-17.6 19.8 0 14.5 11.2 19 19 19 6.7 0 10.8-2.6 14-6l-2.3-3.3c-1.7 1.5-4.5 3.7-9 3.7-5-.4-8-3.7-10-9l21.6-7.7c-.6-7-3-11.2-6.4-13.8zm-7.4 13.8l-8.5 3.3c-.2-1.5-.4-3-.4-4.8 0-8.6 4.8-10 6.4-10 2.5-.4 4.7 1 5.5 4 1 3.4.6 6.4-3 7.5M117.7 190.3l7.2-11 25.5 16.8-7.2 11"/><path fill="#9C824A" d="M115.3 186.5l5-7.6 32.5 21.3-5 7.6"/><path fill="#FFF" d="M172.4 225.2l7.2-11 25.6 16.8-7.2 11"/><path fill="#9C824A" d="M170 221.5l5-7.6 32.5 21.2-5 7.6"/></svg>