<?xml version="1.0" encoding="utf-8"?>
<!-- Generator: Adobe Illustrator 19.2.1, SVG Export Plug-In . SVG Version: 6.00 Build 0)  -->
<svg version="1.1" id="Layer_1"
	 xmlns="http://www.w3.org/2000/svg" xmlns:xlink="http://www.w3.org/1999/xlink" x="0px" y="0px" width="170.9px" height="200px"
	 viewBox="0 0 170.9 200" style="enable-background:new 0 0 170.9 200;" xml:space="preserve">
<style type="text/css">
	.st0{fill:url(#SVGID_1_);}
	.st1{fill-rule:evenodd;clip-rule:evenodd;fill:#8CD2F4;}
	.st2{fill-rule:evenodd;clip-rule:evenodd;fill:#FFF203;}
	.st3{fill-rule:evenodd;clip-rule:evenodd;fill:#6A003A;}
	.st4{fill-rule:evenodd;clip-rule:evenodd;fill:#000426;}
	.st5{fill:#FDBB30;}
	.st6{fill:#FFF203;}
	.st7{fill-rule:evenodd;clip-rule:evenodd;fill:#FFF200;}
	.st8{fill:#FFF200;}
	.st9{fill-rule:evenodd;clip-rule:evenodd;fill:#FFF203;stroke:#002B5C;stroke-width:0.2989;}
	.st10{fill-rule:evenodd;clip-rule:evenodd;fill:#FFF200;stroke:#002B5C;stroke-width:0.2987;}
	.st11{fill:#002B5C;}
	.st12{fill-rule:evenodd;clip-rule:evenodd;fill:#002B5C;}
	.st13{fill:#6A003A;}
	.st14{fill:#8CD2F4;}
	.st15{fill-rule:evenodd;clip-rule:evenodd;fill:#FDB927;}
	.st16{fill:url(#SVGID_2_);}
	.st17{fill:url(#SVGID_3_);}
</style>
<g>
	<linearGradient id="SVGID_1_" gradientUnits="userSpaceOnUse" x1="27.8278" y1="-41.8398" x2="134.2913" y2="153.2507">
		<stop  offset="0" style="stop-color:#141006"/>
		<stop  offset="1" style="stop-color:#FFF203"/>
	</linearGradient>
	<path class="st0" d="M3.8,5.2v96.9c0,21.2,8.6,41.6,24.8,58.9c14.7,15.6,34.6,27.5,55.9,33.3l1.6,0.4l1.8-0.2l0.1,0
		c6.3-0.9,14.4-4.4,16.8-5.5c8.7-3.9,16.9-8.9,24.4-14.7c21.7-17,34.8-39.9,37.8-66.2l0-102.8H3.8z"/>
	<path class="st1" d="M10.7,12h149.5v95.2c-6.8,58.5-64.2,79.1-73.9,80.5c-40.2-11-75.6-44.7-75.6-85.6V12z"/>
	<g>
		<path class="st2" d="M47.6,78.2V112c0,0,2.8,12.7,5,14.9c2.2,2.2,11.6,13.1,15.2,14.7c3.6,1.6,18.7,8.2,18.7,8.2l19.8-9.3
			l10.6-9.7l5.9-8.8l1.6-6.5l0.2-12.8l0.4-25.7l-77.4-0.1L47.6,78.2z"/>
		<path class="st3" d="M48.4,115.1h3.5v-4.9h3.8v-4.6h5.4v-5.4h5.3v-4.8h5.4v-5H78v-5.3h5.9l2.8-4.3l3.3,4.3h5.4l0.1,5.6h5.3V95h5v5
			h4.6v5.6h5.1v4.8h5.4v5.8h3.1c0,0-0.3,2.7-1,4.4c-0.7,1.7-1.9,2.5-1.9,2.5h-4.7V117h-6.5v-5.5h-5.2v-5.1h-5.3v-5.2h-5.1V96h-4.8
			v-5.2H88h-4.7v5H78v5.4h-5.6v5.2h-5.3v5.4h-5.7v5.4h-5v5.3h-4.7c0,0-2-2.4-2.5-4.1C48.7,116.6,48.4,115.1,48.4,115.1z"/>
		<rect x="47.9" y="55.9" class="st4" width="76.8" height="23.1"/>
		<path class="st4" d="M93.2,105.2c-0.6,1.7,1.6,2.4,0.7,4c-0.3,0.6-0.6,1.3-0.7,2c-0.4,0.6-0.3,1.4-0.3,2.2c0.1,0.1,0,0.2,0.1,0.4
			c-0.3,0.2-0.8-0.4-1,0.2c0.2,0.4,0.1,0.9,0.3,1.3l-0.8,0.2c0,0.5,0.3,0.9-0.1,1.4c-1,0-1-1.1-1.6-1.6c-0.4,0-0.5,0.6-0.9,0.7
			c-0.2,0.2-0.5,0.4-0.8,0.5c-0.1-0.5,0.2-1.2-0.5-1.4c-0.5,0.2-0.9,0.6-1.5,0.7c-0.1,0.2-0.2,0.1-0.3,0.1c-0.1-0.5,0.5-1,0.3-1.5
			c-0.2-0.2-0.3-0.3-0.5-0.3c-0.2,0.1-0.5,0.2-0.8,0.2c-0.1,0.3-0.4,0.1-0.6,0.2c-0.1-0.9,0.7-1.4,1.2-2.1c0.8-0.4,1.7-0.7,2.7-0.8
			c0.6-0.2,1.3-0.5,1.4-1.2c0-0.2,0-0.4-0.2-0.5c-0.3,0.1-0.5,0.4-0.5,0.7c-0.4,0.4-0.8,0.7-1.3,0.5c-0.2-0.1-0.5-0.2-0.7-0.3v-0.1
			c0.4-0.1,0.9-0.1,1.1-0.5c0.3-0.5-0.1-0.9-0.1-1.5c0-0.2,0-0.4-0.2-0.5c-0.8,0-1.4,0.6-2.3,0.1c-0.2-0.3-0.1-0.7-0.1-1.1
			c0.5-0.2,1-0.7,1.6-0.7c0.6,0.2,1,1,1.6,0.7c0.4-0.2,0.8-0.6,1.3-0.7c0-0.3-0.5-0.5-0.7-0.6c-0.5,0.1-0.9,0.4-1.4,0.2
			c0-0.3,0.4-0.4,0.5-0.6c0.7,0.1,1.2,0.3,1.9,0.1c0.4-0.1,0.8-0.1,1.3-0.2c0.2-0.2,0.5-0.1,0.8-0.3C92.5,104.9,92.9,105,93.2,105.2
			z"/>
		<path class="st4" d="M96.5,125.9c0.5,1.1,0.8,2.3,0.3,3.5c-0.2,0.9-0.7,1.8-1.6,2.2c-0.6,0.7-2.1,0-2.3,1.1
			c-0.3,0.6-0.4,1.4-0.3,2.2c0.1,0.5,0.7,0.6,1.1,0.8c0.2,0,0.5,0.1,0.7,0.4c-0.1,0.7,0.3,1.4,0.1,2c-0.5,0.3-0.8-0.7-1.3,0
			c-0.2,0.9,0.2,1.6,0.5,2.4c-0.4,0.2-0.8-0.2-1.1,0.2c-0.1,0.9,0.2,1.5,0.3,2.3c-0.6,0.3-1.1-0.6-1.4,0.2c0.1,0.4-0.1,0.9,0.1,1.2
			c0.1,0.4-0.3,0.5-0.6,0.4c-0.3-0.2-0.7-0.1-1-0.1c-0.4,0.1-0.5,0.6-0.9,0.6c-0.2,0.4-0.7,0.2-1,0.5l-1.2-0.1
			c-0.1-0.7,0.7-0.9,1-1.3c-0.2-0.3-0.5-0.1-0.8-0.2c-0.5,0.2-0.8,0.8-1.4,0.5c-0.3-0.1-0.5-0.3-0.3-0.6c0.4-0.8,1.3-0.8,2-0.8
			c-0.2-0.4-0.7-0.2-0.9-0.5c-0.5,0.2-1,0.3-1.6,0.3c-0.1,0-0.2-0.1-0.2-0.3c0.2-0.6,0.8-0.7,1.3-1.1c1.4-0.3,2.1,0.9,3.4,0.5l1-0.9
			c0.2-1.9,0.8-4.3-0.9-5.6c-1.1-1-3.1-1.7-3.1-3.5c-0.1-1.4,1.4-2.6,0.5-4c0-0.4-0.3-0.7-0.4-1c-0.1-0.3-0.4-0.6-0.7-0.8
			c-0.3,0.2-0.2,0.5-0.1,0.8V127c-0.5-0.4-0.9-0.7-1.4-1.1H90c0.4,0.8,1.1,1.6,1.7,2.3c0.7,0.7,0.8,1.9,1.7,2.4
			c0.4-0.1,1.1,0.1,1.4-0.2c0.5-0.1,1-0.4,1.3-0.8c0.6-0.8,0.3-2.2-0.2-3.1c-0.6-0.8-1.5-0.2-2.2-0.5c-0.1,0-0.3-0.1-0.4-0.1H96.5z"
			/>
		<path class="st4" d="M84.4,125.9c-0.6-0.5-1.1-1-1.3-1.8c0-0.2,0.2-0.3,0.3-0.4c0.4,0,0.5-0.3,0.9-0.3c0.3-0.6,0.5-1.3,0.6-2
			c-0.1-0.1-0.2-0.3-0.4-0.3c-0.2,0.5-0.2,1.4-0.8,1.8c-0.4,0.1-0.9,0.5-1.4,0.5c-0.7,0.1-0.5,2-1.6,1.1c-0.3,0.1-0.8-0.5-0.8,0.2
			c-0.1,0.3,0.2,0.8-0.2,0.9c-0.7,0.1-0.8-1.1-1.5-1c-0.4,0.3-0.2,1.3-0.9,0.9c-0.3-0.2-0.5-0.7-1.1-0.7c-0.7,0.3-1.1,0.6-1.8,0.3
			c0.2-0.5,0.2-0.8,0.5-1.1c0.1-0.3-0.2-0.3-0.4-0.2c-0.3,0.3-0.7,0.6-1.1,0.5c-0.2-0.6,0.5-1.1,0.6-1.7c-0.1-0.2-0.3-0.2-0.5-0.1
			c-0.4,0.3-0.4,1.1-1.1,0.8c-0.2-0.2,0-0.5,0-0.8c0.4-0.3,0.7-0.9,1.3-0.9c0.1-0.3,0.5-0.1,0.6-0.3c0.2,0.2,0.6,0,0.9,0.2
			c0.8,0.4,2,1.1,2.8,0.5c0.5-0.1,0.9-0.7,1.4-1c0.9-0.8,2-1.6,2.9-2.4c0.1-0.3-0.2-0.2-0.4-0.3c-1.3,0.5-2.5-0.1-3.6-0.5
			c0-0.7,0.8-0.5,0.9-1.1c-0.1-0.7-0.9-0.5-1.4-0.8c0.1-0.5,1.1-1,0.5-1.6c-0.3,0-0.7-0.1-0.9-0.3V114c0.2-0.1,0.5-0.4,0.6-0.6
			c0.5-0.6,0.5-1.4,0.4-2.2c-0.7-0.9-2.4-1.4-2.4-2.7c0.6-0.3,1.3,0.2,1.9,0.3c0-0.8-1.7-0.8-0.8-1.5c0.5-0.1,1-0.3,1.5-0.1l0.2-0.2
			c-0.2-0.5-1.2-0.3-0.9-1c0.9-0.7,2-0.3,2.9,0.3c0.1,0.3,0.5,0.8,0.3,1.2c0.3,0.5-0.1,1.1-0.1,1.6c-0.8,1.5-0.1,3.2,0.6,4.6
			c0.5,0.8-0.5,1.5-0.7,2.3c-0.1,0.3-0.4,0.7-0.1,0.9l0.3,0.2c0.4-0.1,0.9-0.1,1.4,0l0.1-0.1c0.2,0.3-0.2,0.8,0.3,0.9
			c0.5-0.1,0.9-0.1,1.3-0.3c0.2,0.1,0.4,0.2,0.4,0.4c0,0.5,0.2,1,0.5,1.4c0.1,0.2,0.3,0.1,0.4,0.1c0.4-0.2,0.8-1.2,1.3-0.8
			c0.5,0.5,0.9,1.5,1.7,1.6c0.2-0.4,0.2-0.9,0.4-1.3c0.4,0,0.5,0.3,0.8,0.3c0.3,0.8-0.2,1.5-0.3,2.2c0.1,0.7-0.3,1.5,0,2.2
			c-0.1,0.8,0.1,1.5,0.4,2.1H84.4z"/>
		<path class="st4" d="M93.2,125.9c-0.5-0.1-0.9-0.4-1.2-0.9c0.3,0,0.5,0,0.8,0.2c0.3-0.2,0.6,0.2,0.9,0c0.2-0.1,0.3-0.1,0.4-0.2
			c-0.8-0.9-2.3-1.2-2.5-2.6c0.5,0.5,1.3,0.8,2.1,0.7c0.2-0.2-0.1-0.4-0.1-0.5c-0.5-0.3-0.8-0.9-1.1-1.4c-0.2-0.3-0.3-0.8-0.3-1.1
			c0.3,0.2,0.7,0.6,1.1,0.5c0.3-0.7,0.1-1.4,0.4-2c-0.3-0.9,0.6-1.6,0.5-2.6c0.6-0.9,0.8-2,1.5-2.8c0.8-0.9,1.8-1.7,3-1.6
			c0.2,0.1,0.4-0.2,0.5,0c1,0.4,1.1,1.5,1.3,2.3c0.2,0.5,0.1,1.1,0.1,1.6c-0.2,1.8-1,3.2-1.6,4.8c-0.2,0.5-0.3,0.9-0.5,1.4
			c-0.5-0.2-0.3-0.9-0.4-1.4c-0.2-0.3-0.6-0.2-0.8-0.1c-0.1-1.2,0.8-2.1,1.4-3.1c0.1-0.1-0.1-0.3-0.2-0.3c-0.5,0-0.8,0.1-1.1,0.5
			l-0.1-0.1c0.4-1.1,1.7-1.5,2.3-2.4c0.1-0.4,0.3-0.9,0.1-1.3c-0.1-0.6-0.8-0.8-1.2-1c-1.8,0.3-3,2.1-3.6,3.8
			c-0.1,0.9-0.6,1.7-0.6,2.7c-0.2,1.1,0.1,2.5,0.3,3.6c0.5,1,0.9,2,1.6,2.8c0.1,0.2,0.2,0.5,0.4,0.7H93.2z"/>
		<path class="st4" d="M83.5,113.9c0,0.4-0.4,0.8-0.3,1.1c0.4,0.7,0.9-0.1,1.4,0.1c0.1-0.2,0.5-0.2,0.5-0.1
			c-0.2,0.4-0.5,0.8-0.5,1.2c0.8,0.5,1.6,0.1,2.5-0.2c0.2,0.3-0.4,0.9,0.3,1.1c0.8-0.1,1.5-0.3,2.1-0.8c0.6-0.2,0.9,0.7,1.4,0.8
			c0,0.2,0.2,0.3,0,0.5c-0.3-0.1-0.8-0.2-0.9,0.3c0.1,0.2,0,0.5,0.1,0.7c-0.5-0.1-0.8-0.7-1.4-0.7c-0.5,0.3-0.2,1.2-0.8,1.3
			c-0.6-0.4-0.3-1.4-1.1-1.4c-0.5,0.2-0.8,0.8-1.3,0.9c-0.3-0.5,0-1.3-0.5-1.8c-0.5,0-0.8,0.5-1.3,0.2c-0.2-0.5,0.4-1-0.3-1.2
			c-0.5,0.2-1,0.5-1.6,0.5l-0.1-0.3c0.4-0.9,0.8-1.8,1.7-2.3L83.5,113.9z"/>
		<path class="st4" d="M83.8,127.9c0.5,0.2,1.1,0.2,1.6,0.2c0.5,0.6-0.3,1.9,1,1.8c-0.4,0.9-0.6,2-0.8,2.9c-1.1,0.2-2.4-1-3.2,0.2
			c-0.1,0.4,0.1,0.6,0.2,0.9c0.4,0.6,0.5,1.4,0.6,2.1c0,0.1,0,0.4-0.2,0.3c-0.5-0.2-0.8-0.6-1.4-0.4c-0.4,0.7,0.5,1.4,0.1,2.2
			c-0.2,0.3-0.5,0.1-0.6-0.1c-0.1-0.2-0.4-0.2-0.6-0.3c-0.6,0.3-0.2,0.9-0.4,1.3c-0.4,0.2-0.8-0.4-1.1,0c-0.6,0.9-1.7,1.2-2.7,1
			c-0.2-0.5,0.3-1,0.7-1.3c0.1,0,0.1-0.1,0.1-0.2c-0.1-0.1-0.2-0.2-0.4-0.2c-0.5,0.2-0.9,0.8-1.5,0.6c-0.2-0.5,0.3-0.8,0.5-1.1
			c0.2-0.2,0.5-0.1,0.5-0.5c-0.6-0.4-1,0.2-1.5,0.3c-0.2-0.7,0.8-0.8,1.2-1.1c0.3,0,0.8,0,1,0.2c1,0.3,2.1-0.4,2.7-1.2
			c0.7-1.9,0.2-3.5,0.4-5.6c0.4-0.7,0.6-1.7,1.5-2.1H83.8z"/>
		<path class="st2" d="M87.2,61.4l-0.1,0.2c-0.2,1.4,0.2,2.7-0.1,3.9c-0.1,0.3-0.6,0.3-0.9,0.2c-0.4-0.8,0.1-1.5-0.3-2.3
			c0.2-1.1-0.4-2.6,0.5-3.7C87.3,59.8,87,60.9,87.2,61.4z"/>
		<path class="st2" d="M85.2,60.7c0.3,1.4,0.1,3.2,0.2,4.9c0,0.2-0.2,0.4-0.4,0.4c-0.1-0.1-0.4,0-0.5,0.1c-0.7-1.2-0.3-2.8-0.4-4.2
			c0.1-0.6,0.2-1,0.7-1.3C85,60.5,85.1,60.5,85.2,60.7z"/>
		<path class="st2" d="M88.5,60.7c0.3,1.4-0.1,2.7,0.1,4.4c-0.2,0.2-0.1,0.6-0.4,0.7c-0.3,0.1-0.5-0.1-0.6-0.3
			c-0.1-1.4-0.2-2.8,0-4.4C87.8,60.8,88.1,60.4,88.5,60.7z"/>
		<path class="st2" d="M83.7,62.6c0,1.2,0,2.4-0.2,3.6c-0.1,0.3-0.6,0.1-0.7,0.5c0.1,0.3,0.4,0.5,0.6,0.6c0.6,0.1,1-0.2,1.6-0.2
			c0.5-0.2,1.1,0.1,1.5-0.2c0.7,0.1,1.7-0.3,2.2,0.3c-0.2,0.8-1.2,0.5-1.8,0.9c-0.4,0.2-0.9,0.2-1.3,0.5c0,1-0.3,2,0.2,2.9
			c0.2-0.1,0.4-0.4,0.2-0.6l0.1-1.6c0.4-0.6,1.2-0.7,1.8-0.9c0.4-0.2,1.2-0.1,1.5-0.5c0.1-1.1-0.5-2.1,0.4-2.9c0.6,0,0.3,1.1,1.1,1
			c0.1,0.3,0,0.8-0.1,1.1c0,1.1,0,2.4,0.1,3.5c-0.4,1-1.1,2.3-2.4,2.4c-0.2,0.1-0.4,0.3-0.5,0.5c0.1,0.3,0.6,0.1,0.6,0.6
			c0.1,0.6,0.1,1.2-0.3,1.7c-0.6,0-1.2,0.2-1.8,0.4c-0.5-0.3-1.1-0.2-1.7-0.4c-0.3,0-0.5,0.2-0.8,0.1c0-0.6,0-1.5-0.2-2.2
			c-0.3-0.4-0.7-0.7-1.1-0.9c-0.7-2.9-0.5-5.9-0.1-8.7c0-0.7,0.1-1.6,0.5-2.1C83.8,61.6,83.5,62.4,83.7,62.6z"/>
		<polygon class="st4" points="58.6,82.4 54.7,88.9 58.7,96.3 62.5,88.8 		"/>
		<polygon class="st4" points="115.3,82 111.4,88.5 115.4,95.9 119.2,88.4 		"/>
		<path class="st4" d="M23.6,114.1c0,0-0.7-4.4,0-6.3c0.7-1.9,3.2-4.7,5.5-4.7c2.3,0,5.1,3,5.6,4.8c0.5,1.8-0.4,4.3-0.5,6.3
			c-0.1,2,0.1,5.4,0.1,5.4l-10-2.5L23.6,114.1z"/>
		<path class="st5" d="M23,114.2c0,0-0.7-4.6,0-6.6l0,0v0c0.1-0.3,0.3-0.6,0.4-0.9c0.2-0.3,0.4-0.6,0.6-0.9c1.2-1.6,3.2-3.2,5-3.2h0
			v0c0.4,0,0.8,0.1,1.2,0.2c0.4,0.1,0.8,0.3,1.1,0.5c1.8,1,3.5,3.1,3.9,4.5l0,0c0.3,1.3,0.1,2.8-0.2,4.3c-0.1,0.8-0.3,1.5-0.3,2.2
			c-0.1,2,0.1,5.3,0.1,5.3l0.1,0.8l-0.8-0.2l-10-2.5l-0.4-0.1l-0.1-0.4L23,114.2L23,114.2L23,114.2z M24.2,108c-0.6,1.7,0,5.7,0,6
			l0.6,2.6l8.8,2.2c-0.1-1.1-0.2-3.2-0.1-4.6c0-0.7,0.2-1.5,0.3-2.3c0.2-1.4,0.5-2.8,0.2-3.8l0,0c-0.3-1.2-1.8-2.9-3.3-3.8
			c-0.3-0.2-0.6-0.3-0.9-0.4c-0.3-0.1-0.5-0.1-0.8-0.1v0h0c-1.4,0-3,1.3-4,2.7c-0.2,0.3-0.4,0.5-0.5,0.8
			C24.4,107.5,24.3,107.8,24.2,108L24.2,108z"/>
		<path class="st4" d="M34.4,111.8c0,0-4.1-0.1-5.5,1.3c-1.4,1.4-2.3,2.3-2,3.2c0.2,1,2.7,1.2,3.8,1.4c1.1,0.2,3.6,0.4,3.6,0.4
			s-0.1-3-0.1-4.3C34.2,112.5,34.4,111.8,34.4,111.8z"/>
		<path class="st5" d="M33.7,112.4c-1.2,0-3.4,0.2-4.3,1.1l0,0c-0.7,0.7-1.2,1.3-1.6,1.7c-0.3,0.4-0.4,0.7-0.3,0.9v0l0,0
			c0.1,0.4,1.6,0.7,2.6,0.8c0.3,0,0.5,0.1,0.7,0.1c0.7,0.2,2,0.3,2.8,0.3c0-1-0.1-2.7-0.1-3.6C33.6,113.2,33.6,112.7,33.7,112.4
			L33.7,112.4z M28.5,112.6c1.6-1.6,5.9-1.5,5.9-1.5l0.8,0l-0.3,0.8c0,0-0.2,0.6-0.2,1.8c0,1.4,0.1,4.3,0.1,4.3l0,0.7l-0.7,0
			c0,0-2.6-0.1-3.7-0.4c-0.1,0-0.4-0.1-0.7-0.1c-1.4-0.2-3.3-0.6-3.6-1.7v0l0,0c-0.2-0.7,0-1.3,0.5-1.9
			C27.2,113.9,27.8,113.4,28.5,112.6L28.5,112.6z"/>
		<path class="st4" d="M25.4,128c0,0-2.4-4.7-2.6-8.1c-0.2-3.5,0.6-6.7,0.6-6.7s2.9,2.7,4.8,3.6c1.9,0.8,9.8,1.9,11.1,2.4
			c1.3,0.5,4.4,2.3,4.6,4.1c0.2,1.8-0.4,7.2-1,8.1c-0.6,1-1.5,1.6-1.5,1.6l-15.7-3.1L25.4,128z"/>
		<path class="st5" d="M24.8,128.2c-0.3-0.7-2.4-5-2.6-8.3c-0.2-3.6,0.6-6.9,0.6-6.9l0.3-1l0.8,0.7c0,0,2.8,2.7,4.6,3.5v0l0,0l0,0
			c1.1,0.5,4.2,1,6.9,1.5c1.9,0.3,3.6,0.6,4.2,0.9l0,0c0.2,0.1,0.5,0.2,0.7,0.3c0.2,0.1,0.5,0.3,0.8,0.4c1.5,0.9,3.3,2.3,3.5,3.8
			l0,0c0,0.3,0.1,0.6,0.1,1c0,0.4,0,0.8,0,1.3c-0.1,2.4-0.6,5.5-1.1,6.2c-0.7,1.1-1.7,1.8-1.7,1.8l-0.2,0.1l-0.2,0l-15.7-3.1
			l-0.4-0.1l-0.1-0.4L24.8,128.2L24.8,128.2z M23.4,119.8c0.2,3.3,2.5,7.9,2.6,7.9l0.1,0.2l0.2,1.4l15,3c0.3-0.2,0.8-0.6,1.2-1.2
			c0.4-0.6,0.8-3.4,0.9-5.6c0-0.4,0-0.8,0-1.2c0-0.3,0-0.6,0-0.9v0c-0.1-1.1-1.6-2.2-2.9-2.9c-0.2-0.1-0.5-0.3-0.7-0.4
			c-0.2-0.1-0.4-0.2-0.6-0.3l0,0c-0.5-0.2-2.1-0.5-4-0.8c-2.7-0.5-5.9-1.1-7.1-1.6l0,0l0,0l0,0c-1.4-0.6-3.1-2.1-4.1-3
			C23.5,115.6,23.2,117.6,23.4,119.8z"/>
		<path class="st4" d="M148.4,114.5c0,0,0.7-4.4,0-6.3c-0.7-1.9-3.2-4.7-5.5-4.7c-2.3,0-5.1,3-5.6,4.8c-0.5,1.8,0.4,4.3,0.5,6.3
			c0.1,2-0.1,5.4-0.1,5.4l10-2.5L148.4,114.5z"/>
		<path class="st5" d="M147.8,114.3c0.1-0.4,0.7-4.3,0-6h0c-0.1-0.2-0.2-0.5-0.4-0.8c-0.2-0.3-0.3-0.5-0.5-0.8c-1-1.4-2.6-2.7-4-2.7
			h0v0c-0.3,0-0.5,0.1-0.8,0.1c-0.3,0.1-0.6,0.2-0.9,0.4c-1.6,0.9-3,2.6-3.3,3.8l0,0c-0.3,1,0,2.4,0.2,3.8c0.1,0.8,0.3,1.6,0.3,2.3
			c0.1,1.4,0,3.5-0.1,4.6l8.8-2.2L147.8,114.3L147.8,114.3z M149,107.9c0.8,2.1,0,6.6,0,6.6c0,0,0,0,0,0l-0.7,2.9
			c0,0.2-0.2,0.4-0.5,0.5l-10,2.5v0c-0.1,0-0.1,0-0.2,0c-0.3,0-0.6-0.3-0.6-0.7c0,0,0.2-3.3,0.1-5.3c0-0.7-0.2-1.4-0.3-2.2
			c-0.3-1.5-0.5-3-0.2-4.3l0,0c0.4-1.4,2.1-3.5,3.9-4.5c0.4-0.2,0.7-0.4,1.1-0.5c0.4-0.1,0.8-0.2,1.2-0.2v0h0c1.8,0,3.8,1.5,5,3.2
			c0.2,0.3,0.4,0.6,0.6,0.9C148.7,107.3,148.9,107.6,149,107.9L149,107.9L149,107.9L149,107.9z"/>
		<path class="st4" d="M137.6,112.1c0,0,4.1-0.1,5.5,1.3c1.4,1.4,2.3,2.3,2,3.2c-0.2,1-2.7,1.2-3.8,1.4c-1.1,0.2-3.6,0.4-3.6,0.4
			s0.1-3,0.1-4.3C137.8,112.8,137.6,112.1,137.6,112.1z"/>
		<path class="st5" d="M137.5,111.4c0,0,4.3-0.1,5.9,1.5c0.7,0.7,1.3,1.3,1.7,1.9c0.5,0.7,0.6,1.3,0.5,1.9v0l0,0h0
			c-0.3,1.2-2.2,1.5-3.6,1.7c-0.3,0.1-0.6,0.1-0.7,0.1c-1.1,0.3-3.7,0.4-3.7,0.4c-0.3,0-0.6-0.2-0.6-0.6c0,0,0,0,0-0.1
			c0-0.2,0.1-3,0.1-4.3c0-1.2-0.2-1.8-0.2-1.8c-0.1-0.3,0.1-0.7,0.4-0.8C137.4,111.5,137.5,111.4,137.5,111.4L137.5,111.4
			L137.5,111.4z M142.6,113.8c-0.9-0.9-3.1-1.1-4.3-1.1c0.1,0.4,0.1,0.8,0.1,1.4c0,0.9-0.1,2.7-0.1,3.6c0.8-0.1,2.1-0.2,2.8-0.3
			c0.3-0.1,0.5-0.1,0.7-0.1c1-0.2,2.5-0.4,2.6-0.8l0,0v0c0.1-0.3,0-0.6-0.3-0.9C143.8,115.1,143.3,114.5,142.6,113.8L142.6,113.8
			L142.6,113.8z"/>
		<path class="st4" d="M146.6,128.3c0,0,2.4-4.7,2.6-8.1c0.2-3.5-0.6-6.7-0.6-6.7s-2.9,2.7-4.8,3.6c-1.9,0.8-9.8,1.9-11.1,2.4
			c-1.3,0.5-4.4,2.3-4.6,4.1c-0.2,1.8,0.4,7.2,1,8.1c0.6,1,1.6,1.6,1.6,1.6l15.7-3.1L146.6,128.3z"/>
		<path class="st5" d="M146.1,128c0.2-0.4,2.3-4.7,2.5-7.9c0.2-2.2-0.1-4.3-0.4-5.5c-1,0.9-2.8,2.4-4.1,3l0,0l0,0l0,0l0,0l0,0
			c-1.2,0.5-4.4,1.1-7.1,1.6c-1.9,0.3-3.5,0.6-4,0.8l0,0c-0.2,0.1-0.4,0.1-0.6,0.3c-0.2,0.1-0.5,0.2-0.7,0.4
			c-1.3,0.7-2.8,1.9-2.9,2.9l0,0c0,0.2,0,0.5,0,0.9c0,0.3,0,0.8,0,1.2c0.1,2.2,0.5,5,0.9,5.6c0.4,0.6,0.9,1,1.2,1.2l15-3l0.2-1.4
			C146,128.2,146,128.1,146.1,128L146.1,128z M149.8,120.2c-0.2,3.3-2.3,7.6-2.6,8.3l-0.2,1.6c0,0.3-0.2,0.5-0.5,0.6l-15.7,3.1l0,0
			c-0.1,0-0.3,0-0.4-0.1c0,0-1.1-0.7-1.7-1.8c-0.5-0.8-0.9-3.9-1.1-6.2c0-0.4,0-0.9,0-1.3c0-0.4,0-0.7,0.1-1v0c0.2-1.5,2-3,3.5-3.8
			c0.3-0.2,0.6-0.3,0.8-0.4c0.2-0.1,0.5-0.2,0.7-0.3l0,0c0.6-0.2,2.3-0.5,4.2-0.9c2.6-0.5,5.8-1,6.8-1.5l0,0l0,0l0,0
			c1.7-0.8,4.3-3.2,4.5-3.4c0.1-0.1,0.2-0.1,0.3-0.2c0.3-0.1,0.7,0.1,0.8,0.5C149.2,113.4,150.1,116.7,149.8,120.2z"/>
		<path class="st4" d="M25,127.1c0,0,17.4,1.2,28.5,10.4c11.1,9.2,24.6,18.5,33.6,18.2c7.4-0.2,20.3-7.4,27.2-13.1
			c6.8-5.7,14.5-11.6,20.5-13.1c6.1-1.6,11.3-1,11.3-1c0,0,1.8,2.5,1.2,6.3c-0.6,3.7-2,7.1-3.1,8.2c-1.2,1.2-6.3,0.6-10.6,3.1
			c-4.3,2.5-12.9,8.8-17.8,13.3c-4.9,4.5-14,10.4-29.3,10.5c-16.6,0.1-31.4-11.4-36.2-15.4c-6.4-5.3-14.1-9.4-17.8-10.8
			c-3.7-1.4-5.3-1-6.4-2.7c-1.2-1.8-2.7-8.8-2-11.4C25,127.1,25,127.1,25,127.1z"/>
		<path class="st5" d="M25,126.5c0.1,0,17.6,1.2,28.9,10.5c5.5,4.6,11.7,9.2,17.5,12.6c5.8,3.4,11.3,5.6,15.7,5.5l0,0l0,0
			c1,0,2.1-0.2,3.3-0.5c1.2-0.3,2.5-0.7,3.8-1.1c6.8-2.5,14.8-7.3,19.7-11.4c3.4-2.9,7.1-5.8,10.6-8.1c3.6-2.4,7.1-4.3,10.2-5.1
			c6.2-1.6,11.5-1,11.6-1c0.2,0,0.4,0.1,0.5,0.3c0.1,0.2,1.9,2.9,1.3,6.7v0c-0.1,0.6-0.2,1.1-0.3,1.6c-0.1,0.5-0.2,1-0.4,1.5
			c-0.7,2.5-1.7,4.6-2.6,5.5v0l0,0c0,0,0,0,0,0c-0.6,0.6-1.9,0.8-3.5,1c-2.1,0.3-4.7,0.7-7.1,2.1v0c-0.6,0.4-1.3,0.8-2,1.3
			c-0.7,0.5-1.5,1-2.4,1.6c-4.4,3-9.8,7.1-13.3,10.4c-2.5,2.3-6,4.9-10.9,7c-4.9,2.1-11,3.6-18.8,3.6c-8.4,0.1-16.4-2.8-22.8-6.2
			c-6.4-3.4-11.3-7.3-13.7-9.3l0,0l0,0c-0.9-0.7-1.8-1.5-2.7-2.1c-0.9-0.7-1.9-1.3-2.8-2c-4.8-3.2-9.4-5.6-12.1-6.6
			c-1.3-0.5-2.3-0.7-3.1-0.9c-1.7-0.4-2.7-0.7-3.6-2h0l0,0l0,0l0,0c-0.2-0.3-0.4-0.7-0.6-1.1c-0.2-0.4-0.4-1-0.5-1.5
			c-0.9-2.9-1.5-7.3-0.9-9.2l0.8-2.5C24.5,126.6,24.7,126.4,25,126.5L25,126.5L25,126.5z M53.1,137.9c-9.9-8.2-24.8-9.9-27.7-10.2
			l-0.6,2.1c-0.5,1.7,0.1,5.7,0.9,8.5c0.2,0.5,0.3,1,0.5,1.4c0.2,0.4,0.3,0.7,0.4,0.9l0,0c0.6,0.9,1.5,1.2,2.9,1.5
			c0.9,0.2,1.9,0.5,3.2,1c2.7,1,7.5,3.4,12.3,6.7c1,0.6,1.9,1.3,2.8,2c1,0.7,1.9,1.4,2.8,2.2l0,0c2.4,2,7.2,5.8,13.5,9.1
			c6.3,3.3,14.1,6.2,22.3,6.1c7.6,0,13.6-1.5,18.3-3.5c4.7-2,8.1-4.6,10.5-6.8c3.5-3.3,9-7.4,13.4-10.5c0.9-0.6,1.7-1.1,2.4-1.6
			c0.8-0.5,1.5-0.9,2.1-1.3l0,0c2.6-1.5,5.4-2,7.6-2.3c1.4-0.2,2.5-0.4,2.8-0.7l0,0l0,0l0,0v0c0.8-0.8,1.7-2.6,2.3-5
			c0.1-0.4,0.2-0.9,0.4-1.4c0.1-0.5,0.2-1,0.3-1.5l0,0c0.4-2.8-0.5-4.9-0.9-5.6c-1.2-0.1-5.7-0.3-10.8,1c-2.9,0.8-6.3,2.6-9.8,4.9
			c-3.5,2.4-7.1,5.2-10.5,8.1c-5,4.1-13.1,9.1-20,11.6c-1.4,0.5-2.7,0.9-3.9,1.2c-1.3,0.3-2.4,0.5-3.5,0.5l0,0h0h0
			c-4.7,0.1-10.4-2.2-16.4-5.6C64.9,147.2,58.7,142.6,53.1,137.9z"/>
		<path class="st6" d="M60.1,60.4c-0.1-0.2,0-0.4,0.2-0.6c0.2-0.1,0.4,0,0.6,0.2l7.9,13.9c0.1,0.2,0,0.4-0.2,0.6
			c-0.2,0.1-0.4,0-0.6-0.2L60.1,60.4z"/>
		<path class="st6" d="M60.3,74.6c-0.1,0.2-0.4,0.3-0.6,0.2c-0.2-0.1-0.3-0.4-0.2-0.6l7.9-13.9c0.1-0.2,0.4-0.3,0.6-0.2
			c0.2,0.1,0.3,0.4,0.2,0.6L60.3,74.6z"/>
		<ellipse class="st7" cx="64.1" cy="67.9" rx="2.7" ry="7.7"/>
		<path class="st4" d="M61.4,68.9c0,0,1.8,0.3,2.7,0.3c0.9,0,2.7-0.4,2.7-0.4s0.1,0.3,0,0.7c0,0.4-0.1,1-0.1,1s-2.2,0.4-2.7,0.4
			c-0.4,0-2.5-0.2-2.5-0.2L61.4,68.9z"/>
		<path class="st4" d="M61.6,71.5c0,0,1.6,0.4,2.5,0.4c0.9,0,2.4-0.4,2.4-0.4s-0.2,1.3-0.4,1.5c-0.1,0.3-1.7,0.3-2,0.3
			c-0.3,0-2-0.1-2-0.2C62,73.1,61.6,71.7,61.6,71.5z"/>
		<path class="st4" d="M62.4,74c0,0,1.4,0.4,1.8,0.3c0.4-0.1,1.4-0.2,1.5-0.3c0,0-0.5,0.8-0.6,1c-0.1,0.1-1.1,0.1-1.3,0.1
			c-0.2,0-0.8,0-1-0.2C62.7,74.7,62.4,74.1,62.4,74L62.4,74z"/>
		<path class="st4" d="M62.5,62.9c0,0,0.4-1.2,0.8-1.5c0.5-0.3,0.9-0.5,1.4,0c0.5,0.5,0.6,0.7,0.7,1.1c0.1,0.4,0.1,0.6,0.1,0.6h-3.1
			L62.5,62.9z"/>
		<path class="st2" d="M73.5,69.5c-0.4,1.3-4.9,1.1-10.1-0.4c-5.2-1.5-9.2-3.7-8.8-5c0.4-1.3,4.9-1.1,10.1,0.4
			C69.9,66,73.9,68.2,73.5,69.5z"/>
		<path class="st2" d="M74,64.1c-0.2-1.3-4.7-1-10.2,0.6c-5.5,1.6-9.7,3.9-9.6,5.2c0.2,1.3,4.7,1,10.2-0.6
			C69.9,67.7,74.2,65.4,74,64.1z"/>
		<path class="st6" d="M61.1,67.9L61.1,67.9L61.1,67.9c0-2.2,0.3-4.1,0.8-5.5c0.5-1.5,1.3-2.4,2.1-2.4v0l0,0h0v0
			c0.9,0,1.6,0.9,2.1,2.4c0.5,1.4,0.8,3.4,0.8,5.5h0v0v0h0c0,2.2-0.3,4.1-0.8,5.5c-0.5,1.5-1.3,2.4-2.1,2.4v0h0l0,0v0
			c-0.3,0-0.6-0.1-0.9-0.3c-0.2-0.2-0.4-0.4-0.6-0.6C61.7,73.5,61.1,70.9,61.1,67.9L61.1,67.9z M61.5,67.9L61.5,67.9L61.5,67.9
			c0,2.9,0.6,5.5,1.4,6.8c0.2,0.2,0.3,0.4,0.5,0.6c0.2,0.2,0.4,0.2,0.6,0.2v0l0,0h0v0c0.7,0,1.3-0.8,1.7-2.1
			c0.5-1.4,0.8-3.3,0.8-5.4h0v0v0h0c0-2.1-0.3-4-0.8-5.4c-0.5-1.3-1.1-2.1-1.7-2.1v0h0l0,0v0c-0.7,0-1.3,0.8-1.7,2.1
			C61.8,63.9,61.5,65.8,61.5,67.9z"/>
		<path class="st6" d="M104.9,60.4c-0.1-0.2,0-0.4,0.2-0.6c0.2-0.1,0.4,0,0.6,0.2l7.9,13.9c0.1,0.2,0,0.4-0.2,0.6
			c-0.2,0.1-0.4,0-0.6-0.2L104.9,60.4z"/>
		<path class="st6" d="M105.2,74.6c-0.1,0.2-0.4,0.3-0.6,0.2c-0.2-0.1-0.3-0.4-0.2-0.6l7.9-13.9c0.1-0.2,0.4-0.3,0.6-0.2
			c0.2,0.1,0.3,0.4,0.2,0.6L105.2,74.6z"/>
		<ellipse class="st2" cx="108.9" cy="67.9" rx="2.7" ry="7.7"/>
		<path class="st4" d="M106.2,68.9c0,0,1.8,0.3,2.7,0.3c0.9,0,2.7-0.4,2.7-0.4s0.1,0.3,0,0.7c0,0.4-0.1,1-0.1,1s-2.2,0.4-2.6,0.4
			c-0.4,0-2.5-0.2-2.5-0.2L106.2,68.9z"/>
		<path class="st4" d="M111.3,71.5c0,0-0.2,1.3-0.4,1.5c-0.1,0.3-1.7,0.3-2,0.3c-0.3,0-2-0.1-2-0.2c-0.1-0.1-0.4-1.4-0.4-1.6
			c0,0,1.6,0.4,2.5,0.4"/>
		<path class="st4" d="M107.3,74c0,0,1.4,0.4,1.8,0.3c0.4-0.1,1.4-0.2,1.5-0.3c0,0-0.5,0.8-0.6,1c-0.1,0.1-1.1,0.1-1.3,0.1
			c-0.2,0-0.8,0-1-0.2C107.6,74.7,107.2,74.1,107.3,74L107.3,74z"/>
		<path class="st4" d="M107.4,62.9c0,0,0.4-1.2,0.8-1.5c0.5-0.3,0.9-0.5,1.4,0c0.5,0.5,0.6,0.7,0.7,1.1c0.1,0.4,0.1,0.6,0.1,0.6
			h-3.1L107.4,62.9z"/>
		
			<ellipse transform="matrix(0.2708 -0.9626 0.9626 0.2708 15.1237 153.5761)" class="st2" cx="108.9" cy="66.8" rx="2.4" ry="9.8"/>
		<path class="st2" d="M118.9,64.1c-0.2-1.3-4.7-1-10.2,0.6c-5.5,1.6-9.7,3.9-9.6,5.2c0.2,1.3,4.7,1,10.2-0.6
			C114.8,67.7,119.1,65.4,118.9,64.1z"/>
		<path class="st8" d="M106,67.9L106,67.9L106,67.9c0-2.2,0.3-4.1,0.8-5.5c0.5-1.5,1.3-2.4,2.1-2.4v0l0,0h0v0c0.9,0,1.6,0.9,2.1,2.4
			c0.5,1.4,0.8,3.4,0.8,5.5l0,0v0v0l0,0c0,2.2-0.3,4.1-0.8,5.5c-0.5,1.5-1.3,2.4-2.1,2.4v0h0l0,0v0c-0.3,0-0.6-0.1-0.9-0.3
			c-0.2-0.2-0.4-0.4-0.6-0.6C106.6,73.5,106,70.9,106,67.9L106,67.9z M106.4,67.9L106.4,67.9L106.4,67.9c0,2.9,0.6,5.5,1.4,6.8
			c0.2,0.2,0.3,0.4,0.5,0.6c0.2,0.2,0.4,0.2,0.6,0.2v0l0,0h0v0c0.7,0,1.3-0.8,1.7-2.1c0.5-1.4,0.8-3.3,0.8-5.4h0v0v0h0
			c0-2.1-0.3-4-0.8-5.4c-0.5-1.3-1.1-2.1-1.7-2.1v0h0l0,0v0c-0.7,0-1.3,0.8-1.7,2.1C106.7,63.9,106.4,65.8,106.4,67.9z"/>
		<path class="st9" d="M84.3,14.3c0,0,0.2,1.1,0,1.9c-0.2,0.8-0.3,1.1-0.3,1.1s1.2-0.6,1.8-0.8c0.6-0.2,1.5-0.3,1.9-0.4
			c0.3-0.1-1.9,0.9-2.7,1.4c-0.8,0.4-1.6,0.9-1.9,1.4c-0.3,0.5-1.5,2.1-1.5,2.6c0,0.6,0.7,1.2,0.5,2c-0.1,0.8-0.4,1.3-0.5,1.4
			c-0.2,0.2-0.2-0.1-0.3-0.8c-0.1-0.7-0.2-1-0.2-1s-0.3,0.3-0.5,0.7c-0.2,0.4-0.2,0.8-0.7,1.4c-0.5,0.6-0.9,0.9-0.9,0.9
			s0.2-2.6,0.7-3.3c0.6-0.7,0.9-1.2,0.9-1.2s0.6-1.5,0.6-2.3c-0.1-0.8,0.3-2.5,0.9-3.3C82.5,15.4,83.8,14.5,84.3,14.3z"/>
		<path class="st10" d="M95.2,37.2c0.3-0.1,0.7-0.1,0.7-0.1l-0.4-0.6c0,0,1.3,0.7,1.4,0.7c0.2,0.1,0.3-0.2,0.3-0.2s0.2,0.2,0.5,0.2
			c0.3,0.1,0.6-0.3,0.8-0.7c0.3-0.3,0.6-0.7,0.1-0.8c-0.6-0.1-0.8-0.3-1.3-0.4c-0.4-0.2-0.5-0.4-0.5-0.4l0.7-0.1
			c0,0-1.7-1.2-2.1-1.9c-0.4-0.7-1.5-1.9-2.6-2.8c-1.2-0.9-2.3-1.8-3.3-2c-1-0.2-1.6-0.4-1.6-0.4s0.1-2.1,0.3-3c0.2-0.8,1-2.8,1-3.4
			c0-0.6,0.1-1.4-0.7-2.1c-0.8-0.8-1.4-1-2.3-1c-0.8,0-1.8,0.6-2.4,0.8c-0.6,0.3-1,0.6-1.6,1c-0.7,0.3-0.9,0.4-1.1,0.6
			c-0.2,0.2-0.1,0.2-0.1,0.2l0.2,0.1c0,0,0.7-0.2,1.3-0.3c0.6-0.1,1.1,0.3,1.8,0.7c0.7,0.4,1,0.8,1,1.6c0,0.8-0.8,2.4-1.3,3.3
			c-0.5,0.8-1.3,1.7-1.5,2.5c-0.2,0.9-0.4,1.8-0.3,2.7c0.1,0.9,0.7,2.3,1.4,3.1c0,0,0.7,1.2,1.3,1.6c0.6,0.3,1.9,0.2,2.3,0.2
			c0.4,0,0.6,0.4,1.5,0.9c1.1,0.8,3.3,1.4,3.6,1c0.4-0.2,0.6-0.5,1.3-0.7C94.4,37.4,95.2,37.2,95.2,37.2z"/>
		<path class="st3" d="M83.5,19.1c-0.7,0.3-0.9,0.5-1.6,0.9c-0.7,0.4-1.2,0.9-1.4,1c-0.2,0.2-0.3,0.4-0.3,0.4l0.2-0.1
			c0,0,1.2-0.3,1.8-0.4c0.7-0.1,1.2,0,2,0.5c0,0-0.6-1.1-0.7-1.7C83.5,19.2,83.5,19.1,83.5,19.1z"/>
		<path class="st11" d="M86.2,29.2c0,0,0,2,0.6,3.1v0l0,0l0,0c0.1,0.1,0.2,0.3,0.3,0.5c0.1,0.2,0.2,0.3,0.4,0.5
			c0.7,0.8,1.6,1.5,2.2,1.7c0.2,0.1,0.3,0.1,0.4,0.1L90,34.8l0.3-0.3c0,0,0.5,0.5,1,0.6l0.1,0l-0.2-0.4l0,0l0,0l0.3-0.2l0,0l0,0
			l0,0.1c0.1,0.2,0.5,0.7,0.7,0.6c0.4-0.2,0.4-0.4,0.4-0.4L93,35c0,0-0.1,0.2-0.6,0.5c-0.1,0.1-0.2,0.1-0.2,0.1l0.1,0.1l-0.5-0.1
			l-0.6-0.1c-0.1,0-0.1,0-0.2,0l0,0.1h-0.4c0,0-0.2,0-1.1-0.3c-0.6-0.2-1.6-0.9-2.4-1.8c-0.1-0.2-0.3-0.3-0.4-0.5
			c-0.1-0.2-0.2-0.3-0.3-0.5l0,0v0l0,0c-0.6-1.2-0.7-3.2-0.7-3.2L86.2,29.2z"/>
		<path class="st12" d="M85.3,19.2c0,0,0.3-0.2,0.6-0.2c0.3,0,0.8,0.2,0.8,0.2s-0.3,0.3-0.6,0.3C85.7,19.5,85.3,19.2,85.3,19.2z"/>
		<path class="st3" d="M85.1,36.1c0,0,0.7,0.6,0.9,1.1c0.3,0.5,0.7,1.2,0.8,1.4c0.1,0.2,0.1,0.3-0.1,0.3c-0.2,0-0.7-0.1-1.5-0.2
			c-0.8-0.1-1.9-0.8-2.1-1c-0.2-0.2-0.9-0.6-1.5-0.7c-0.6-0.1-1-0.1-1-0.1s1.4,1.6,1.8,1.9c0.4,0.3,1.3,1.1,2.1,1.5
			c0.8,0.4,1.6,1.1,2.7,1.3c1,0.1,1.1,0.2,1.5-0.2c0.4-0.4,0.8-1.1,0.8-1.1s0.1,0.1,0.1,0.8c0,0.7-0.5,1.8-0.6,2.1
			c-0.1,0.3-0.8,1.9-1,2.2c-0.1,0.3-0.4,0.6-0.4,0.6s0.1,0.2,0.5,0.2s0.4,0,1,0c0.6,0,0.8-0.1,0.8-0.1s-0.1-0.5,0.2-1.3
			c0.3-0.8,1.7-2.7,2-2.9c0.3-0.2,1.1-0.9,1.1-1c0-0.1-0.2-0.6-0.2-1c-0.1-0.4-0.3-1.5-0.3-1.5s0.2-0.1-0.8-0.2
			c-0.9-0.1-1.1-0.2-2.3-0.7c-1.9-1.3-2.3-1.3-2.3-1.3s-0.8,0-1.1,0C86,36.2,85.1,36.1,85.1,36.1z"/>
		<ellipse transform="matrix(0.9528 -0.3035 0.3035 0.9528 -8.2844 25.8952)" class="st9" cx="79.2" cy="39.6" rx="3.8" ry="2.5"/>
		<path class="st13" d="M68.4,50c0,0-0.6-0.6,0.8-1.2c1.4-0.6,2.3-0.6,2.6-0.9c0.3-0.3,0.6-2.3,0.6-2.1c0,0.2,2.9,1.9,2.9,1.9
			l2.7-2.5l3.6,1.9c0,0,0.7-0.2,0.9-0.4c0.2-0.2,0.5-2.6,0.5-2.6s2.1,2.5,2.4,2.3c0.3-0.3,1.6-2.1,1.6-2.1s0.2,1.8,0.3,1.7
			c0.1-0.1,0.9-0.8,0.9-0.8l0.5,0.8l1.6-1.4l0.9,1.6l4-1.3c0,0,0.9,1.6,1.9,1.9c0.9,0.3,2-0.1,2-0.1l0.6-0.6c0,0,1.2,1.9,1.9,2.3
			c0.7,0.4,1.5,1.6,1.5,1.6L68.4,50z"/>
		<path class="st3" d="M106.5,48L106.5,48l-40.5,0c-1.8,0-3.3,1.5-3.3,3.3c0,1.8,1.5,3.3,3.3,3.3v0h40.5c1.8,0,3.3-1.5,3.3-3.3
			C109.8,49.4,108.3,48,106.5,48z"/>
		<path class="st1" d="M86.1,53.7v0.8c-1.7,0.1-2.6-1.9-4.1-0.7l0.5,0.6c-2.2,0.5-3.1-1.7-4.6-2.5c-0.3-1.1-2.4-1.5-2.4-2.9
			c1-1.1,3.1-0.8,4.4-0.6C82.7,49.6,84.7,51.6,86.1,53.7z"/>
		<path class="st1" d="M100.9,53.5v1c-3-0.6-3.9-2.1-6.3-3c-2,1.5,1.5,1.8,1.5,3c-2.3,0.6-2.6-1.2-4.2-1.7c-0.4-1.4-2.4-1.8-3.4-3
			C88.1,48.6,90,49,91,48.7C96.2,48.1,97.3,51.9,100.9,53.5z"/>
		<path class="st1" d="M72.1,51.8c0.3,0.9,2.8,1.6,1.5,2.5C70.4,54.6,71,51,68,52.5c-0.4,0.8,0.7,0.8,1.3,1.2v0.5
			c-1.7,0.7-2.1-0.8-3.2-1.2c-0.4-1.5-0.4-2.6,1-3.8C70.3,48.5,70.1,51.2,72.1,51.8z"/>
		<path class="st1" d="M106.5,50.4v0.8c-0.9,0.5-1.5-0.6-1.8-1.4C104.9,48.3,106.2,49.7,106.5,50.4z"/>
		<g>
			<path class="st14" d="M34.4,133.4l3.2,1.3c1.6,0.6,1.5,1.6,1.3,2.2c-0.2,0.6-0.7,0.8-1.2,0.9c0.5,0.4,0.8,1,0.4,1.9
				c-0.5,1.2-1.7,1.4-2.8,1l-3.4-1.3L34.4,133.4z M34.4,138.7l1.1,0.4c0.4,0.2,0.8,0.2,0.9-0.3c0.1-0.3,0-0.6-0.4-0.8l-1.1-0.5
				L34.4,138.7z M35.3,136.5l1,0.4c0.4,0.2,0.7,0.1,0.8-0.2c0.1-0.3-0.1-0.5-0.5-0.7l-1-0.4L35.3,136.5z"/>
			<path class="st14" d="M44,141.8c-0.7,1.6-2,2-3.7,1.2c-1.8-0.8-2.3-2-1.5-3.6l1.7-3.6l1.8,0.8l-1.5,3.2c-0.3,0.6-0.6,1.3,0.2,1.7
				c0.8,0.4,1.2-0.3,1.5-0.9l1.5-3.2l1.8,0.8L44,141.8z"/>
			<path class="st14" d="M46.5,138.7l3.2,1.9c1,0.6,1.5,1.6,0.9,2.6c-0.3,0.6-0.9,1-1.6,0.9c0.4,0.4,0.4,1.1,0,1.8
				c-0.1,0.3-0.5,0.9-0.5,1.3l-1.7-1c0.1-0.3,0.2-0.6,0.4-0.9c0.3-0.6,0.5-1.1-0.1-1.5l-0.9-0.5l-1.1,1.9l-1.7-1L46.5,138.7z
				 M46.8,142.1l0.9,0.5c0.3,0.2,0.8,0.4,1.1-0.1c0.2-0.3,0.1-0.7-0.5-1l-0.8-0.5L46.8,142.1z"/>
			<path class="st14" d="M52.7,142.4l1.6,1.3l-0.7,3.8l0,0l2.2-2.7l1.4,1.2l-4,5l-1.5-1.2l0.7-3.9l0,0l-2.2,2.7l-1.4-1.2L52.7,142.4
				z"/>
			<path class="st14" d="M57.6,146.4l1.6,1.2l-2.9,3.8l2.2,1.7l-1,1.3l-3.8-2.9L57.6,146.4z"/>
			<path class="st14" d="M61.6,149.5l4.4,3l-0.9,1.4l-2.7-1.9l-0.4,0.7l2.5,1.7l-0.9,1.3l-2.5-1.7l-0.4,0.7l2.8,1.9l-0.9,1.4l-4.5-3
				L61.6,149.5z"/>
			<path class="st14" d="M65.6,156.9l0-4.6l1.9,1.1l-0.2,2.6l2.1-1.5l1.9,1l-4,2.4l-1.1,2.1l-1.7-1L65.6,156.9z"/>
			<path class="st14" d="M73.1,156.2l4.6,1.7l-0.6,1.5l-2.8-1l-0.3,0.8l2.4,0.9l-0.5,1.4l-2.4-0.9l-0.8,2.3l-1.9-0.7L73.1,156.2z"/>
			<path class="st14" d="M80.7,158.3c1.9,0.4,2.9,2,2.5,3.9c-0.4,1.9-1.9,3-3.8,2.7c-1.9-0.4-2.9-2-2.5-3.9
				C77.2,159.1,78.8,157.9,80.7,158.3z M79.7,163.3c0.5,0.1,1.3-0.1,1.6-1.5c0.3-1.4-0.4-1.9-0.9-2c-0.5-0.1-1.3,0.1-1.6,1.5
				C78.5,162.8,79.2,163.2,79.7,163.3z"/>
			<path class="st14" d="M86.8,159c1.9,0,3.2,1.5,3.2,3.4c0,2-1.4,3.3-3.3,3.3c-1.9,0-3.2-1.5-3.2-3.4
				C83.6,160.3,84.9,158.9,86.8,159z M86.7,164.1c0.5,0,1.3-0.3,1.3-1.7c0-1.4-0.7-1.8-1.2-1.8c-0.5,0-1.3,0.3-1.3,1.7
				C85.5,163.7,86.2,164.1,86.7,164.1z"/>
			<path class="st14" d="M91.8,160.5l-1.8,0.3l-0.3-1.6l5.5-0.9l0.3,1.6l-1.8,0.3l0.8,4.7l-1.9,0.3L91.8,160.5z"/>
			<path class="st14" d="M95.4,158.2l3.3-1.2c1.6-0.6,2.2,0.2,2.5,0.8c0.2,0.6,0,1-0.3,1.4c0.6,0,1.3,0.2,1.6,1.1
				c0.4,1.2-0.4,2.2-1.4,2.6l-3.4,1.2L95.4,158.2z M98.1,159.9l1-0.3c0.4-0.1,0.6-0.3,0.5-0.7c-0.1-0.3-0.4-0.3-0.8-0.2l-1,0.3
				L98.1,159.9z M98.9,162.1l1.1-0.4c0.4-0.1,0.7-0.4,0.5-0.8c-0.1-0.4-0.4-0.5-0.8-0.3l-1.2,0.4L98.9,162.1z"/>
			<path class="st14" d="M102.2,155.5l1.7-0.9l5,4.6l-1.8,0.9l-0.7-0.7l-1.8,0.9l0.2,0.9l-1.7,0.9L102.2,155.5z M105.4,158.4
				l-1.4-1.5l0,0l0.4,2L105.4,158.4z"/>
			<path class="st14" d="M105.7,153.6l1.6-1.1l2.6,4l2.4-1.6l0.9,1.4l-4,2.6L105.7,153.6z"/>
			<path class="st14" d="M109.8,150.8l1.6-1.2l2.9,3.8l2.3-1.7l1,1.3l-3.8,2.9L109.8,150.8z"/>
			<path class="st14" d="M120.5,145.5c-0.2-0.2-0.8-0.6-1.4-0.1c-0.7,0.6-0.4,1.5,0.1,2.1c0.5,0.7,1.3,1.2,2,0.6
				c0.5-0.4,0.4-0.9,0.1-1.5l1.5-1.2c0.8,1,0.8,2.7-0.6,3.9c-1.6,1.3-3.4,0.9-4.6-0.6c-1.3-1.6-1.1-3.4,0.4-4.6
				c1.4-1.1,2.7-1,3.8,0.2L120.5,145.5z"/>
			<path class="st14" d="M120.9,142.2l1.6-1.2l2.9,3.8l2.2-1.7l1,1.3l-3.8,2.9L120.9,142.2z"/>
			<path class="st14" d="M132.4,139c0.9,1.5,0.5,2.7-1.1,3.7c-1.7,1-2.9,0.8-3.8-0.8l-2-3.4l1.7-1l1.8,3c0.3,0.6,0.8,1.3,1.6,0.8
				c0.8-0.5,0.4-1.2,0-1.7l-1.8-3l1.7-1L132.4,139z"/>
			<path class="st14" d="M131.8,135.1l3.3-1.2c1.6-0.6,2.2,0.2,2.5,0.8c0.2,0.6,0,1-0.3,1.4c0.6,0,1.3,0.2,1.6,1.1
				c0.4,1.2-0.4,2.2-1.4,2.6l-3.4,1.2L131.8,135.1z M134.5,136.7l1-0.4c0.4-0.1,0.6-0.3,0.5-0.7c-0.1-0.3-0.4-0.3-0.8-0.2l-1,0.4
				L134.5,136.7z M135.3,139l1.1-0.4c0.4-0.1,0.7-0.4,0.5-0.8c-0.1-0.4-0.4-0.5-0.8-0.3l-1.2,0.4L135.3,139z"/>
		</g>
		<g>
			<path class="st15" d="M68.5,139.5c-11.9-7.4-18.3-16.8-19-28c-0.1-1.9-0.2-8.7-0.2-16.9c0-14.2,0-32.6,0-37.5l74.1,0l0,54.5
				c-0.6,11.2-7.3,20.5-19.3,27.9c-8.2,5-16.3,7.3-17.9,7.8C84.7,146.9,76.6,144.6,68.5,139.5L68.5,139.5z M46.9,55.8
				c0,2-0.4,50,0,55.9c0.7,11.9,7.8,22.2,20.3,30c9.4,5.8,18.4,8.1,18.7,8.2l0.3,0.1l0.3-0.1c0.4-0.1,9.5-2.3,18.8-8.1
				c12.6-7.7,19.6-18.1,20.2-30c0.5-9.2,0.6-55.2,0.6-55.7l0-1.3l-79.3-0.2L46.9,55.8z"/>
		</g>
	</g>
	<g>
		<linearGradient id="SVGID_2_" gradientUnits="userSpaceOnUse" x1="157.3951" y1="204.6127" x2="69.3254" y2="83.0992">
			<stop  offset="0" style="stop-color:#141006"/>
			<stop  offset="1" style="stop-color:#FFF203"/>
		</linearGradient>
		<path class="st16" d="M165.7,108c-7.2,61.6-66.9,84.5-79.2,86.7C46,183.4,5.2,148.2,5.2,102.4V82.3c-1.8-0.5-3.5-1-5.2-1.5v21.7
			c0,22.1,9,43.4,25.9,61.7c15.6,16.8,36.8,29.5,59.8,35.7l0.5,0.1l0.5-0.1c6.3-0.9,25.1-7.3,43.4-21.4
			c16.3-12.6,36.7-34.9,40.7-70.1l0-27.5c-1.7,0.5-3.5,1-5.2,1.5V108z"/>
		<linearGradient id="SVGID_3_" gradientUnits="userSpaceOnUse" x1="188.2838" y1="182.224" x2="100.2143" y2="60.7108">
			<stop  offset="0" style="stop-color:#141006"/>
			<stop  offset="1" style="stop-color:#FFF203"/>
		</linearGradient>
		<path class="st17" d="M0,0v80.7c1.7,0.5,3.5,1,5.2,1.5v-77h160.5v77.2c1.8-0.5,3.5-1,5.2-1.5l0-81H0z"/>
	</g>
</g>
</svg>
