<svg id="Layer_1" xmlns="http://www.w3.org/2000/svg" width="100" height="100" viewBox="0 0 100 100"><style>.st0{fill:#FFFFFF;} .st1{fill:#264589;}</style><path class="st0" d="M99 63h-.2l-6-2.5c0-.4.2-1 .6-1.6l3 1.3h.4c.3 0 .6 0 .7-.3l.5-1c.3-1 .4-1.6.2-2.2-.2-.7-.7-1-1.3-1.5l-8.4-3.8c-.4-.2-1-.4-1.8 0v-1-2l-.3-2c-.5-4.2-1.5-7.4-2-8.5v-.4c-1.7-4.6-3-8.2-3-12.6 0-3.3 4-8 5.7-9.3l1.5-1.4L73.3.3 72 1C69.4 3 65.7 4 62 4c-4 0-8-1.2-10.7-3.3L50 0l-1 .8c-3 2-6.7 3-10.7 3C34.5 4 30.8 3 28 1L26.8.2 12.8 13 11 14.4l1.5 1.4c1.5 1.5 5.6 6 5.7 9.3 0 4.4-1.3 8-3 12.7v.3c-.5 1-1.5 4.2-2 8.5l-.2 2.2v2.8c-.8-.3-1.4 0-1.7 0l-8.5 4c-.7.2-1 .7-1.3 1.3-.2.6 0 1.3.2 2 0 .6.4 1 .4 1.2 0 .2.4.4.7.4h.4l3.2-1.5c.4.5.6 1 .8 1.5l-6 2.5H1v.3l.4 1C5.4 73.6 12 81.8 20.3 87.6c8 5.4 17 8.6 26.5 9.2l3 3h.4l3-3.2c9.5-.6 18.7-3.8 26.5-9.2 8.5-6 15-14 18.7-23.5l.4-.8V63"/><path class="st1" d="M11 55.8c-.4-.8-.5-1.6-.4-2.3V53l-7 3.2c-.5.2-.8.4-1 .8 0 .8.4 1.8.6 2v.3L11 56v-.2zm78.2 0c.3-.8.4-1.6.3-2.3V53l7 3.3c.5.2.8.4 1 .8 0 1-.3 2-.6 2.2l-.2.2L89 56l.2-.2zm-64 27l-1 1 1 .6.3-1.3v-.3l-.2.2m39 4c-.6.3-1 1-.6 2s.8 1.3 1.5 1c.5 0 .8-.7.4-1.7-.2-1-.8-1.3-1.4-1.2m4.4-1.5l-.3.2.6 1.3s.2 0 .3-.2c.5-.2.6-.6.4-1-.2-.5-.6-.6-1-.3M58 46l-1.5-.3c-.8 0-1.3-.2-1.4-.2-.2 0-.6 0-.6-.3 0-.2.2-.2.4-.2h1.6l1.7.4V44l-3-.6H53s-.3 0-.3-.3c0 0 .2 0 .3-.2h3c1 0 2.3.5 2.3.5V42c-.5-.2-1-.5-1.7-.5l-1.8-.2s-.2 0-.2-.2H58.2v-1c-1-.5-2.6-.8-3.7-1-1.5-.2-3-.2-3.2-.2 0 0-.3 0-.3-.2s0-.2.3-.2l3.3.2c1 0 2.8.4 3.6.6v-1c-1-.6-2.4-1-4.5-1.2-2.5-.4-7.5-.2-7.7-.2-.4 0-.4 0-.5-.2 0-.2 0-.2.4-.3.2 0 3.5-.3 6.3-.2 2 .2 5 .8 6 1v-1c-1.7-.8-4.3-1-4.4-1-.3 0-.4 0-.4-.2s0-.2.2-.2H55c.8 0 2.5.4 3 .5v-.7c-1-.7-3.7-1-5.8-1.3h-.7v.5c0 .2-.2.3-.3.3h-3s-.2 0-.2-.3V33c-1 0-2.4.3-3.8.4h-.5c0-.2 0-.3.3-.3l3.8-.4h.2l-.2-3.6v-.2h.3c1.6-.2 2-.2 3.5 0h.2v.2h2l4.4.6v-.8l-.4-.2c-.7-.3-3.6-.8-7.7-.8-4.2 0-6.6.5-7 .6-.4 0-1 .3-.8.5v12.8c0 1 1.6 1.5 5 2.7 3.3 1.2 7.7 2.6 11 3.5v-2m-3 2l-1.6-.5v3.2l1.8.6v-3-.3m-2.8-.8l-1.7-.5h-.2v3l1.8.7v-3-.2M47 45.4l-1.7-.6v3l1.7.6v-2.8-.2M56.6 25l-.2-.3c-.6-.2-2.3-.7-3.5-.8-.3 0-.7 0-.7-.3 0-.2.2-.2.5-.2 1 0 2.5.2 3.2.4l-.7-1.5c-1.3-.5-3.7-.6-4-.7-.6 0-.7 0-.7-.2s.3 0 1-.2c1 0 2.8 0 3.4.2l-.5-1.2c-.7-.5-2-.6-2.5-.6-.4 0-.5-.2-.5-.3l.4-.2h1.7s.2 0 0-.2l-.3-.8-.8-.2h-1.4c-.2 0-.2-.2-.2-.2s0-.2.2-.2h1.6s.3 0 .2-.2l-.3-.6-.8-.2-1.6-.2c-.2 0-.2 0-.2-.2 0 0 0-.2.2-.2h1.4c.2 0 .5-.2.4-.3l-.4-1h-1s-.2 0-.2-.2c0 0 .2 0 .3-.2l.5-.2-.2-.5H50c-.3 0-.4-.2-.4-.3l.3-.2c.2 0 .7 0 1-.2l-.8-1.8c-2 4.4-6 12.6-6.5 14 2-.6 5-.8 6.4-.8 1.3.3 4.4.5 6.6 1M44 44l-1.6-.5v3l1.7.6h.2v-2.8-.2m5.5 2l-1.7-.6v3l1.7.6v-3c.2 0 0 0 0 0m-5.4 14c0-.8-.5-1.3-1.2-1.3-1 0-1.3.7-1.4 2h1.8c.6 0 1-.3 1-.8m18-1.2c-1.2 0-1.7 1-1.7 3 0 2.2.7 3.3 2 3.3 1 0 1.7-1 1.7-3s-.7-3.4-2-3.3"/><path class="st1" d="M54.3 31H56c.7 0 1.6.3 2 .4v-.8c-.8-.4-3-.7-4-1h-2.3v3h2.1c2 .2 3.6.6 4.4.7v-1c-1-1-3.7-1-3.8-1s-.4 0-.4-.3h.3m-12-3.2c.2 0 2.8-1 7.6-1 4.7 0 7.5 1 7.8 1.2.4.2.7.3 1 0 0-.3-.2-.7-.4-.8-1-.6-4.7-1.5-8.5-1.4-4 0-7.8.8-8.3 1-.6.3-.8.6-.6 1 .4.3 1 0 1.2 0m16 21c-.7 0-1-.2-1.8-.4v3.3l1.7.6h.2V49M49 33.2h2l.2-3.8h-2.4l.2 3.8z"/><path class="st1" d="M70.7 85.3c.5 1 0 1.8-1 2.2l-.4.2.6 1.3s0 .2-.2.3l-.6.2H69l-2-4v-.3l1-.5c.8-.3 1.4-.4 2-.2l.7.8M88 67v-.3l.2-.5h.2l4 2v.3l-.4.6c0 .2-.2.2-.4 0l-2-1 1.6 2.2v.3l-.2.3s0 .2-.3.2l-2.7-.3 2 1.3c.2 0 0 .2 0 .3l-.3.5c0 .2-.2.2-.3 0l-3.6-2.4V70l.2-.3c0-.2.2-.2.3-.2l3.5.3L88 67zm-2 6.8l-1.7-1.5V72l.4-.5s.2-.2.3 0l2 1.5c1 1 1 2 .3 3-1 1.2-2 1.2-3 .3l-2-1.5v-.3l.5-.5h.3l2 1.5c.7.7 1.2.6 1.6 0 .4-.5.4-1-.5-1.7m-5.3 2.6V76l.4-.3h.4l3.2 3v.4l-.5.6h-.3L82 77.7l1 2.5v.3h-.3c0 .2-.2.2-.3.2l-2.6-1 1.6 1.8c.2.2 0 .2 0 .3l-.5.3c-.2 0-.3.2-.4 0L77.8 79v-.3l.4-.3h.3l3.2 1.2-1-3.2zm-2 6.8l.3-.2h.2l.2.3v.2L78 84.7h-.3l-.2-.3V84h.3l-2-2.8-.3.3h-.2L75 81l1.5-1.2h.2l.2.3v.4l-.4.2 2 2.6zm-3.6 3c.2.3.2.3 0 .3l-.6.3h-.2l-2-3.2-1 .6H71l-.3-.5v-.2l3-1.8.3-.2h.2l.2.6v.4L73 83l2 3.3zm-11 0c1.3-.4 2.3.4 2.8 1.7.5 1.4 0 2.6-1.3 3-1.3.4-2.4-.3-3-1.7-.4-1.3 0-2.6 1.4-3M58.6 92h.5v.7l-2 .3-.2-.5s0-.2.2-.2h.3l-.5-3.5h-.4-.2v-.5-.2l2-.2.2.5s0 .2-.2.2H58l.7 3.5zM53 89.8c0 .2.3.3.5.4l.8.3c.5.2 1 .5 1 1.2 0 1-.7 1.6-1.6 1.7h-1.5L52 93l.2-.6h1.4c.3 0 .6 0 .6-.5 0-.3-.2-.4-.5-.5l-1-.3c-.5-.2-.8-.6-1-1.2 0-1 1-1.5 1.7-1.5.5 0 1 0 1.4.2h.2v.2l-.2.4v.2h-.2c-.3-.2-.7-.3-1-.3-.3 0-.6.2-.6.5M10.7 68l-2.3 1.5H8l-.2-.6v-.4l3.8-2.3h.4l.3.6v.2L11 70.5l2.3-1.4s.2 0 .3.2l.3.6c0 .2 0 .2-.2.3L10 72c0 .2-.2.2-.2 0l-.3-.5v-.3l1.2-3zm2 7l-.4.3H12l-1-1.5v-.2l.3-.2h.3l.2.3 2.7-2-.2-.4V71h.4c0-.2.2-.2.2 0l1 1.4v.2l-.3.2h-.2l-.2-.3-2.7 2v.4zm3.4 3.4c.2 0 .2.2 0 .3l-.3.3h-.3l-1.8-2V77l3.3-3h.2l.4.6v.3L15 77.2l1 1.2zm5 3l-.6-1c-.3-.4-.2-1 0-1.4.7-.7 1.7-.5 2.3 0l1 1v.3h-.2l-.5.4h-.2l-.7-1s-.4-.2-.6 0v.6l.5.8c0 .6.2 1-.2 1.6-.6.8-1.6.7-2.4.2l-1-1v-.3h.2l.5-.4h.3v.2l.8.8c.3.2.7.3 1 0v-.6m3.7 4l-1-.8h-.2l-.7.4h-.3l-.6-.4c-.2 0-.2 0-.2-.2l4-3h.2l.6.5s.2 0 0 0l-1 4.6c0 .2 0 .2 0 0l-.7-.3c-.3 0-.3-.2-.3-.3l.2-.8-.3-.2v.3zm3.2-1.6c-.2 0-.3-.2-.2-.3l.2-.4h.2l3 1.6.3.2s.2 0 0 .2l-.2.5H31l-1-.5-1.8 3.3H28l-.7-.3c-.2 0-.2 0 0-.2l1.6-3.3-1-.7zm5 6s.2 0 0 .2v.4h-.2l-1.6-.5c0-.2-.2-.3 0-.3v-.4H32L33 86h-.3c-.2-.2-.2-.3 0-.3v-.4h.3l1.8.6v.4c-.2.2-.3.2-.3 0H34l-1.3 3h.3v.4zm4-1.2l.6.6c.5.4.7.8.5 1.5 0 1-1 1.3-2 1-.4-.2-1-.4-1.3-.7v-.2l.3-.6h.2l1 .5c.3 0 .7 0 .8-.3 0-.2 0-.4-.3-.6l-.7-.6c-.4-.4-.6-1-.5-1.5.3-.8 1.3-1 2-.8.5 0 1 .2 1.2.5 0 0 .2.2 0 .2l-.4.5H38l-.8-.5c-.2 0-.6 0-.7.3 0 .3.3.5.4.6m9.8.4l-.5 4.3c0 .2-.2.2-.2.2h-.5l-.3-.3-1.7-3L43 93H42V93l.5-4.3c0-.2 0-.2.2-.2h.6l.2.3 1.7 3 .4-2.7c0-.3 0-.3.2-.3h.7c.2 0 .2.2.3.3M98 64c-3.8 9.5-10.2 17.6-18.5 23.4-7.7 5.4-17 8.6-26.3 9.2H53l-3 3-3-3h-.2c-9.5-.6-18.6-3.8-26.4-9.2C12 81.6 5.6 73.4 1.8 64l-.3-.7L13 59c.3-.2.7 0 .8 0 0 .2.2.5.5.7 0 .3.2.6.3.8-.6-.2-1-.8-1.2-1H13l-.8.2-.3.3v.2l.2.2 1 2.5c.2 0 .3 0 .3.2h.4l1.4-.6.3.5-1.5.6h-.4c0 .2 0 .3.2.4 3 5.7 7.4 10.7 12.8 14.5 6 4.2 13.2 6.7 20.7 7l.7.7C40.4 86 33 83.4 26.6 79 20 74 14.8 67.7 11.8 60.2V60l-9.2 3.5v.2C6.5 73 12.7 81 21 86.7c7.7 5.5 17 8.7 26.3 9.2l2.7 2.6v.2l3-2.8c9.4-.5 18.5-3.6 26.2-9C87.5 81 93.8 73 97.6 63.7v-.2L88.5 60v.2c-3 7.6-8.3 14-15 18.6-6.3 4.5-13.8 7-21.6 7.3l.6-.5c7.6-.5 14.6-3 20.8-7.2 5.4-3.8 9.8-8.7 12.8-14.5l.2-.4h-.4l-1.5-.6.2-.5 1.5.5.4.2.2-.3c.4-.8.8-1.7 1-2.5l.2-.2-.3-.3-.8-.3h-.2c-.3.3-.7 1-1.3 1.2l.3-1 .5-.6c.2-.3.5-.4.8-.2l11.6 4.4-.3.7zM7 58.7l-.2-.2L3.4 60c-.2 0-.4 0-.5-.2-.2 0-.4-.5-.6-1-.2-.5-.4-1.3-.2-2 .2-.4.5-.8 1-1l8.5-4h1.7v.8c-.2-.2-.5-.2-.8-.2H12v.2c-.3.2-.6.6-.7 1.2-.2.7 0 1.4.3 2.2v.2c.2.2 0 .4 0 .5l-4 1.8v.2l1 1.8-.7.2-1-2M47 85c-7.2-.4-14-2.8-20-7-5.3-3.7-9.6-8.6-12.6-14.2l1.5-.5v.2l1.2 1.8.2.2C24 75.5 34 82 45.4 83.3L47 85zm3.2 8h.2v.5s0 .2-.2.2h-1.8l-.2-.3V93c0-.2 0-.3.2-.3h.3v-3.4h-.2c-.2 0-.2 0-.2-.2v-.3s0-.2.2-.2h2V89.4H50v3.4h.3v.2zm34-29.8l1.4.6c-3 5.7-7.4 10.5-12.7 14.2-6 4-13 6.6-20 7l1.7-1.7C66 82 76 75.7 82.7 65.6c0-.2.2-.3.2-.3.3-.5.7-1 1-1.8v-.3M14 48.7v-2c.6-4.3 1.6-7.4 2-8.5v-.4c1.7-4.7 3-8.3 3-12.8 0-3.4-4.2-8.2-6-9.8l-1-1 1-1L26.8 1l1 .5c2.8 2 6.6 3 10.6 3s8-1.2 11-3.3l.7-.5.8.5c3 2 7 3.3 11 3.3s7.7-1 10.7-3l.8-.6L88 14.3l-1 1c-1.6 1.5-5.8 6.3-6 9.7 0 4.5 1.4 8.2 3 12.8v.4c.5 1 1.5 4 2 8.4v2l.2 2c0 5-1 9.2-2.8 12.6l-1 1.7s-.2 0-.3.2c-6.7 10-16.4 16.2-27.6 17.5L49.7 87l-4.4-4.4C34 81.3 24.3 75 17.5 65h-.2l-1-1.8c-2-3.4-3-7.7-3-12.5 0-.7 0-1.3.2-2M86.8 52l.8-.3c.3 0 .6 0 .8.2l8.5 3.7c.5.3 1 .7 1 1.2.2.6 0 1.3-.2 1.8l-.5 1c-.2.2-.4.2-.6.2l-3.4-1.5c-.6.8-1 1.5-1 2l-.5-.3c0-.5.4-1 .8-1.8l.2-.2-4-1.8s-.2-.3 0-.5v-.3c.3-.8.4-1.5.3-2.2 0-.6-.3-1-.7-1.2H87V52m12 11l-6.2-2.6c0-.4.3-1 .7-1.6l3 1.4h.4c.2 0 .4 0 .6-.3 0-.3.3-.6.5-1.2.4-.8.5-1.5.3-2-.2-.8-.7-1.3-1.4-1.6l-8.4-3.7c-.4-.2-1-.4-1.8 0v-1-2l-.3-2c-.5-4.2-1.5-7.4-2-8.5v-.4c-1.7-4.6-3-8.3-3-12.5 0-3.2 4-7.8 5.7-9.3l1.5-1.4L73.3.3 72 1C69.3 3 65.7 4 62 4 57.8 4 54 2.6 51 .6L50 0l-1 .8c-3 2-6.7 3-10.7 3C34.5 4 30.8 3 28 1L26.8.2 12.8 13l-1.5 1.3 1.5 1.4c1.5 1.5 5.6 6 5.7 9.4 0 4.3-1.3 8-3 12.6v.4c-.4 1-1.4 4.2-2 8.5v2c-.2.8-.2 1.5-.2 2.2v.8c-.7-.3-1.3 0-1.6 0l-8.4 4c-.7.4-1 1-1.3 1.5-.2.6-.2 1.3.2 2 .2.7.5 1 .6 1.2 0 .3.4.4.6.4h.4l3-1.5 1 1.7L1.2 63H1v.3l.5 1c3.8 9.4 10.3 17.6 18.7 23.4 8 5.4 17 8.7 26.5 9.2l3 3h.4l3.2-3c9.5-.7 18.7-4 26.5-9.4 8.4-5.8 14.8-14 18.6-23.5l.4-.8.2-.3"/><path class="st1" d="M47.4 72.8c.4-.2.8-.5.8-1 0-.6-.4-1-1-1-.4 0-.8.4-.8 1 0 .4.5.7 1 1"/><path class="st1" d="M76 19.7c-.6.3-1 .5-1.5.4 0-.3.5-.7 1-1 .5-.3 1-.4 1.4-.3l-1 1m-1 1.8c-.5.3-1 .4-1.4.3 0-.4.5-.8 1-1 .4-.4 1-.5 1.3-.4-.2.4-.5.8-1 1m-1 1.7c-.5.2-1 0-1.4 0 .2-.4.7-.7 1.2-.8.6 0 1 0 1.4.2-.2.3-.6.6-1.2.7m-.4 43h-1.3c.2-.8.2-1.8.2-3v-1.4c0-1 0-2-1.4-2-.4 0-.8.2-1.2.5-.4.5-.5.8-.5 1.8V63c0 1.5 0 2.3.3 3H67c.2-.8.3-1.8.3-3v-2c0-.7 0-1.8-.3-2.6h2.3v1.3l.6-.5c.7-.7 1.3-1 2-1 2 0 2.5 1 2.5 3V63c0 1.5 0 2.3.3 3h-1.2m-11.3.3c-2.4 0-3.8-1.5-3.8-4 0-2.3 1.5-4 4.2-4 2.4 0 3.8 1.3 3.8 3.7 0 2.6-1.6 4.2-4.2 4.3m-4-8l-.3 1.2H56v3.3c0 1 0 2 1 2 .3 0 .6 0 1-.2 0 0 .2 0 0 .2l-.2 1c-1 .3-1.3.4-1.8.4-1.4 0-2.2-.6-2.2-2.5v-4.2h-1-.2l.3-1h1V57l2-1s.2 0 0 .3v2H58s.2 0 0 0m-3 18.3c-1 0-1.8-.6-1.8-1.5 0-.7.5-1 1.3-1.6-.5-.3-1-.7-1-1.5 0-1 .7-1.6 1.7-1.6s1.6.6 1.6 1.4c0 .8-.5 1-1 1.4.6.4 1 .8 1 1.7 0 .8-.7 1.6-1.8 1.6m-4.3-.3h-1.3l2.8-5h-1.8c-.3 0-.7 0-1 .2h-.2v-.2l.2-1h3.5v.7L52 73.3c-.6 1.5-1 2.2-1 3m-1.3-10.5H47c.2-1 .2-1.7.2-2.7v-1.8c0-.7 0-2-.3-3h2V60l.5-.8c.7-1 1.2-1.2 2-1.2l.6.2-.5 2c0 .2 0 .3-.2.2-.3-.3-.4-.5-.7-.5-.5 0-.8 0-1 .6-.3.4-.4.7-.4 1.4v1.3c0 1.4 0 2 .3 2.5M47 76.5c-1 0-1.7-.6-1.7-1.5 0-.8.5-1.2 1.3-1.7-.5-.3-1-.7-1-1.4 0-1 .8-1.6 1.7-1.6 1 0 1.6.5 1.6 1.4 0 .7-.6 1-1.2 1.4.7.3 1.2.8 1.2 1.6 0 1-.8 1.7-2 1.7m-2.5-.2h-1V72c0-.7 0-.8-.2-.8h-.7l-.3.2v-.6h.8l1-.3h.7V76h-.2zm-5-14.2c0-2.3 1.4-4 3.7-4 2 0 3 1 3 3 0 0 0 .8-.2.8h-4.2c0 2 1 3 2.6 3 .7 0 1-.3 1.6-.6 0 0 .2 0 .2.2l-.3 1c-.8.3-1.7.6-2.5.6-2.4 0-4-1.6-4-4m-2.3 2.3c-.3.6-.4 1-.5 1.6h-2c0-.8 0-1.2-.4-2l-1-3c-.3-1-.7-2-1.4-2.7h2.7c0 .7.2 1.4.4 2l.7 2L36 64l.4-1 1-2.4c0-.4.3-1 .3-1.7V58H40c-.6.8-1 1.7-1.5 2.7l-1.3 3.3zm-4.7 0L32 66h-6.7l.2-3v-4.8c0-.8 0-2.3-.3-3H32l-.5 1.8c0 .3-.2 0-.2 0-.5-.7-1.4-.7-2.3-.7h-1v3.3h3.5l-.3 1.4H28v2c0 1.5 0 2 1.8 2 1 0 1.5 0 2.5-.8 0-.3.3-.2.2 0m-7.7-42c.3 0 .8-.2 1.4 0 .5 0 1 .3 1.2.7-.3 0-.8.2-1.4 0-.5 0-1-.3-1.2-.7m-.6-2c.3 0 .8 0 1.3.4.5.3.8.8 1 1.2-.4 0-1-.2-1.4-.5-.4-.3-.7-.7-.8-1m-1-2c.4 0 1 0 1.4.4.5.2.8.7 1 1-.4 0-1 0-1.4-.3-.5-.2-1-.7-1-1.2m.2-4.2c.4.2.8.5 1 1 .3.7.4 1.2.3 1.6-.4-.2-.8-.6-1-1.2-.3-.5-.4-1-.3-1.5m1-1.5c.4.3.6.8.7 1.4.2.6 0 1.2 0 1.5-.4-.2-.6-.8-.7-1.4 0-.5 0-1 .2-1.5m.6-.3c0-.6.3-1.2.6-1.5.2.4.4 1 .3 1.6 0 .6-.3 1-.6 1.4-.2-.3-.4-1-.3-1.5m.7 5c.3.3.5.8.6 1.4 0 .5 0 1-.2 1.4-.2-.2-.5-.8-.6-1.4 0-.6 0-1.2.3-1.5M25 19c-.3-.2-.7-.5-1-1-.4-.4-.6-1-.6-1.4.4 0 .8.3 1 .8.5.5.7 1 .7 1.5m-.2-1.5c0-.4 0-1 .3-1.4.4-.4.7-.7 1-.8.2.4 0 1-.2 1.4l-1 1m1.3-3.8l1.2-.5c0 .4-.3.8-.7 1-.4.5-.8.6-1 .6 0-.3.2-.8.6-1.2m.5-2l1-1c.2.6 0 1-.3 1.6-.3.5-.7.8-1 1 0-.4 0-1 .3-1.5m1 10.6l-1-1c0-.6-.2-1.2 0-1.6.2 0 .6.5 1 1 0 .6.2 1.2 0 1.6m1.3 1c-.3.2-.8.5-1.3.5-.5.2-1 0-1.4-.2.3-.3.8-.5 1.4-.6.5 0 1 0 1.4.3m.5-1c.5.4.8.8 1 1.2-.5 0-1 0-1.5-.4-.5-.3-.8-.8-1-1.2.5 0 1 .2 1.5.5m1 1.5l.6.2.4-.2c.3 0 .7-.2 1.2 0 .5 0 1 .4 1.2.8-.4.2-1 .3-1.5 0-.5 0-1-.3-1-.6H31l1.5 1.5c-.2.3-.2.5-.5.7-.4-.8-.7-1.4-1.2-2-.5.6-1 1.2-1.3 2l-.4-.8c.6-.6 1-1 1.7-1.4l-.2-.2c-.2.3-.6.6-1 .8-.6.2-1.2.2-1.5 0 .2-.3.7-.6 1.2-.8.5-.2 1 0 1.2 0m2-1.5c.5-.3 1-.5 1.4-.4 0 .5-.4 1-1 1.3-.4.4-1 .5-1.2.4 0-.4.4-.8.8-1.2m2 .7c.4 0 1 .3 1.2.6-.3.3-.8.4-1.4.3-.5 0-1-.2-1.2-.5.3-.2.7-.3 1.3-.3m0-2.2c.4-.5.7-1 1-1 .2.3 0 1-.2 1.4 0 .5-.5 1-1 1 0-.3 0-.8.4-1.4M34 11c.5 0 1 .4 1.2 1 .3.4.5 1 .4 1.4-.4 0-.8-.5-1-1-.4-.5-.5-1-.5-1.5m2.4 4c-.3 0-.8-.2-1.2-.5l-.7-1c.3 0 .8 0 1.2.4.4.2.7.6.7 1m-.2-4c.3.3.5.8.5 1.5 0 .6 0 1-.3 1.5-.3-.3-.5-.8-.5-1.4 0-.7 0-1.3.2-1.6m1 1.8c.3.3.4 1 .3 1.5 0 .6-.4 1-.6 1.4-.3-.3-.4-1-.3-1.5 0-.6.3-1 .6-1.4m1 1.5c.2.4 0 1-.2 1.5 0 .6-.5 1-1 1 0-.4 0-1 .3-1.5s.7-1 1-1m-2 5.7c0-.4.4-.8.8-1 .6-.4 1-.5 1.5-.4 0 .4-.5.8-1 1-.4.4-1 .5-1.3.4m-.2-2.6c.2.4.3 1 .2 1.5 0 .5-.3 1-.6 1.3-.2-.4-.3-1-.2-1.5 0-.6.3-1 .6-1.4m1 0c.5-.5 1-.8 1.3-.8 0 .4-.2 1-.5 1.4-.4.5-.8.8-1.2.8 0-.4.2-1 .5-1.4m-.2 0c-.3 0-.7-.5-1-1-.2-.4-.3-1-.2-1.3l1 1c.2.6.3 1 .2 1.4m0 5c0 .2-.6.5-1 .7-.7.2-1.2 0-1.5 0 .2-.4.7-.7 1.2-.8.6-.2 1 0 1.4 0m-.4-.7c-.5.3-1 .4-1.4.3 0-.4.5-.8 1-1 .4-.4 1-.5 1.3-.4 0 .3-.4.8-1 1m4.8 4.5L49 9.3c-.2-.6.3-1.4 1-1.4.5 0 1 .8.8 1.4l8 16.3c1.2.7 1.8 1.5 1.7 2 0 .6-.5 1-1 1v19.6c.6.2.6.8.5 3 0 2.3.2 3-1.3 3H58v-.8-.6l-2-.8-15.4-5.4s-.7-.2-.7-.8v-3c0-.4.2-.6.6-.6V29c-.7-.2-1-.7-1-.7 0-.6.2-1.7 1.7-2.4m21.5-7c.5.2.8.6 1 1-.4 0-1 0-1.4-.3-.5-.3-.8-.8-1-1.2.4 0 1 0 1.4.4m-1-4.7l1 1c.2.7.3 1.2.2 1.6-.4-.2-.8-.6-1-1.2-.3-.5-.4-1-.3-1.5m1-1.5c.3.3.6.8.7 1.4 0 .6 0 1.2-.2 1.5-.3-.2-.5-.8-.6-1.4v-1.5m.7-.3c0-.6.2-1.2.5-1.5.3.4.4 1 .4 1.6 0 .6-.2 1-.5 1.4-.3-.3-.4-1-.4-1.5m1 1.4c.4-.4.8-.6 1.2-.6 0 .4-.4.8-.7 1-.4.5-.8.6-1.2.6 0-.3.3-.8.7-1m.5-2c.3-.6.8-1 1-1 .2.4 0 1-.3 1.4-.3.5-.7.8-1 1 0-.4 0-1 .3-1.5m1 10.6l-1-1c-.2-.6-.2-1.2 0-1.6.3 0 .6.5 1 1 .2.6.2 1.2 0 1.6m-1.4-.5c.5.3 1 .5 1.2 1-.3 0-.8.2-1.4 0-.5 0-1-.3-1.3-.6.4-.3 1-.3 1.4-.3m.4-.2c-.4 0-1 0-1.4-.3-.5-.3-.8-.8-1-1 .5-.2 1 0 1.4.2l1 1m-1-4.2c.4.3.6.8.7 1.4 0 .5 0 1-.2 1.4-.3-.2-.6-.8-.6-1.4 0-.6 0-1.2.2-1.5m-.7 1.5c-.3 0-.8-.4-1-.8-.5-.5-.6-1-.6-1.5.4 0 .8.3 1 .8.4.5.6 1 .6 1.5m-.3-1.5c0-.4 0-1 .3-1.4s.6-.7 1-.8c0 .4 0 1-.3 1.4-.3.4-.6.8-1 1m4 6c-.2.2-.7.5-1.3.6-.6 0-1 0-1.4-.3.3-.4.7-.7 1.3-.8.6 0 1 0 1.4.3m.5-1c.5.4.8.8.8 1.2-.4 0-.8 0-1.3-.4-.5-.3-.8-.8-.8-1.2.4 0 1 .2 1.3.5m1.6 1.7c.2 0 .4 0 .5-.2.5-.2 1-.2 1.3 0 .6 0 1 .4 1.3.7-.3.2-.8.3-1.3 0-.5 0-1-.3-1.2-.7 0 0 0 .2-.2.2.7.4 1.2.8 1.6 1.5l-.6.7c-.4-.8-.8-1.4-1.3-2-.4.6-.8 1.2-1 2l-.6-.7 1.5-1.4c-.2 0-.3 0-.3-.2-.2.4-.6.7-1.2.8-.5.2-1 0-1.4 0 .3-.4.8-.7 1.3-1h1.2l.6.4m1.6-1.6c.5-.3 1-.5 1.4-.4 0 .4-.4 1-.8 1.2-.5.4-1 .5-1.4.4 0-.4.3-1 .8-1.2m2 .7c.4 0 1 .3 1.2.6-.3.2-.8.3-1.4.2-.6 0-1-.3-1.3-.6.4-.2 1-.4 1.5-.3m0-2.2l1-1c.2.4 0 1 0 1.5-.4.5-.8 1-1 1-.3-.3-.2-1 0-1.4m-.2-10c.4 0 .8.4 1 1 .4.4.6 1 .5 1.4-.4 0-.8-.5-1-1-.4-.5-.5-1-.5-1.5m2.3 4c-.3 0-.8 0-1-.4-.5-.4-.8-.8-.8-1 .3 0 .7 0 1 .4.5.3.8.7.8 1m-.2-4c.3.3.5.8.5 1.5 0 .6-.2 1-.4 1.5-.3-.3-.5-.8-.5-1.4 0-.7.2-1.2.4-1.6m1 2c.3.2.4.8.3 1.4 0 .6-.3 1-.6 1.4 0-.3-.2-1 0-1.5s0-1 .5-1.4m-.2 4.5c.4-.5.8-.8 1.2-.8 0 .4-.2 1-.6 1.4-.4.6-1 1-1.2 1 0-.5 0-1 .5-1.5m-1 1.5c0 .6-.2 1-.5 1.4-.2-.4-.3-1-.2-1.5 0-.7.3-1.2.6-1.5.2.3.3 1 .2 1.5m-.3-2.4c-.2-.5-.3-1-.2-1.3.3 0 .6.5 1 1 .2.4.3 1 .2 1.3l-1-1m2.4-2.3c0 .4 0 1-.3 1.5 0 .6-.5 1-.8 1 0-.4 0-1 .2-1.5.3-.5.7-.8 1-1m9.5 0L73 2.5c-3 2-7 3.2-11.4 3.2-4.5 0-8.7-1.3-11.8-3.4-3 2-7.3 3.5-11.8 3.5-4.4 0-8.3-1.3-11.3-3.2L14 14.4s6.2 6 6.3 10.7c0 5-1.4 8.8-3.2 13.7-.5 1.8-1.3 4.7-1.7 8l-.2 2v2c0 4 .7 8.2 2.7 12l1 1.5c1 1.5 9.5 15.4 27.4 17.3h.2l3.8 3.8 3.8-3.8c18-2 26.5-16 27.5-17.4l1-1.5c2-3.7 2.7-8 2.7-12v-1.8c0-.7-.2-1.4-.3-2-.4-3.3-1-6.2-1.8-8-2-5-3.3-8.8-3.2-13.6 0-4.8 6.2-10.7 6-10.7"/><path class="st1" d="M55.5 73c.4-.3.8-.6.8-1.2 0-.5-.4-1-1-1-.4 0-.8.5-.8 1s.4.8 1 1m-.3 1c-.7.3-1 .7-1 1.3 0 .7.5 1.2 1 1.2.8 0 1.2-.5 1.2-1 0-.8-.4-1-1.2-1.5m-8-.2c-.7.4-1 .8-1 1.4 0 .5.5 1 1 1 .7 0 1.2-.5 1.2-1 0-.7-.5-1-1.2-1.5"/></svg>