<?xml version="1.0" encoding="utf-8"?>
<!-- Generator: Adobe Illustrator 19.2.1, SVG Export Plug-In . SVG Version: 6.00 Build 0)  -->
<svg version="1.1" id="Layer_1"
	 xmlns="http://www.w3.org/2000/svg" xmlns:xlink="http://www.w3.org/1999/xlink" x="0px" y="0px" width="170.8px" height="200px"
	 viewBox="0 0 170.8 200" style="enable-background:new 0 0 170.8 200;" xml:space="preserve">
<style type="text/css">
	.st0{opacity:0.24;fill:#1B1204;enable-background:new    ;}
	.st1{opacity:0.95;fill:#291C07;enable-background:new    ;}
	.st2{fill:#F5A12D;}
	.st3{fill:#FFFFFF;}
	.st4{fill:#E19429;}
	.st5{fill:#F4A12D;}
	.st6{fill:#010000;}
	.st7{fill:#010100;}
	.st8{fill:#DE9229;}
	.st9{fill:#F3A02D;}
	.st10{fill:#F4A02D;}
	.st11{fill:#020100;}
</style>
<g id="_x23_1b12043c">
	<path class="st0" d="M0,0.8C0,0.5,0.1,0.3,0.1,0l0,0.2c0.1,0.9,0.1,1.7,0,2.6c0,38.7,0,77.3,0,116c-0.1-0.5-0.2-1.1-0.2-1.6
		C0,78.4,0,39.6,0,0.8z"/>
</g>
<g id="_x23_291c07f1">
	<path class="st1" d="M0.1,0c55.8,0.1,111.5,0,167.3,0c1.1,0,2.3-0.1,3.4,0.1l-0.2,0c-1.1,0.2-2.2,0.1-3.3,0.1
		c-55.7,0-111.4,0-167.1,0L0.1,0z"/>
</g>
<g id="_x23_000000ff">
	<path d="M0.1,0.2c55.7,0,111.4,0,167.1,0c1.1,0,2.2,0.1,3.3-0.1c0,0.8,0.1,1.6,0,2.5c0,38.6,0,77.2,0,115.7
		c0,12.4-3,25.2-10.3,35.4c-5.4,7.7-12.9,13.7-21,18.4c-10.1,6.9-21.7,11.1-32.9,16c-7.4,3.2-14.8,6.7-21,11.8
		c-4.9-4.1-10.7-7.1-16.5-9.8c-10.9-5-22.4-9-32.8-15.1c-2.3-1.4-4.5-2.9-6.9-4.3c-9.6-5.9-18.1-14-23-24.3c-4.2-8.6-6-18.2-6-27.8
		c0-38.7,0-77.3,0-116C0.2,1.9,0.2,1.1,0.1,0.2 M10.1,9.6c0,34.1,0,68.3,0,102.4c0,4.3-0.1,8.6,0.4,12.9c0.8,8.8,3.7,17.5,9.1,24.5
		c4.4,5.8,10.2,10.3,16.5,14c10.4,6.1,21.8,10,32.7,15c5.8,2.7,11.6,5.7,16.6,9.8c7.5-6.2,16.6-9.9,25.5-13.7
		c10.9-4.6,22.1-9,31.5-16.4c4.9-3.8,9.2-8.6,12.2-14.1c3.3-6,5.1-12.8,5.7-19.6c0.4-4,0.3-8.1,0.3-12.1c0-34.3,0-68.5,0-102.8
		C110.5,9.6,60.3,9.6,10.1,9.6z"/>
	<path d="M73.7,25.5c1.6-1.7,4.2-1.7,6.4-1.7c5.6,0.4,11.1,1.5,16.7,1.3c0.4,0.5,0.8,0.9,1.1,1.4c-1.8,0.6-3.8,0.6-5.7,0.5
		c-0.6,0-1.3-0.1-1.9,0.3c-0.3,0.7-0.4,1.3-0.7,2c0.8,0.5,1.8,0.4,2.7,0.8c1.4,0.8,2.3,2.4,2.4,4c0.6,0.8,0.4,1.9,1.2,2.6
		c0.6,0.5,0.5,1.3,0.4,2c0.4,0.4,0.7,0.9,1,1.5c-0.5,0.2-1.1,0.2-1.6,0c-1.6-0.7-3.6-0.2-5-1.4c0.2-0.4,0.5-0.8,0.9-1.2
		c-1.1-0.7-2.4-1.3-3.4-2.1c0.4-0.5,0.9-0.9,1.5-1.2c-1.6-1-3.3-1.9-4.7-3.2c0.5-1.5,2.3-1.1,3.5-1.2c-0.8-0.7-1.7-1.4-2.5-2.1
		c-2.2-0.5-4.4-1.3-6.6-1.8C77.5,25.6,75.6,26.1,73.7,25.5z"/>
	<path d="M70.1,25.8c0.7-0.2,1.3-0.1,2,0.1c-0.5,1.1-0.8,2.5-1.9,3.2c-1.8,1-3.8,0.7-5.8,1c-0.9,0-1.3,1-2.2,1
		c-2.8,0.2-4.6,3.3-7.6,3c-0.1-0.3-0.3-0.5-0.4-0.8C59,29.8,64.4,27.2,70.1,25.8z"/>
	<path d="M98.8,25.9c4,0.5,7.8,1.9,11.5,3.2c1.2,0.4,2.3,1.2,3.4,1.8c0.9,0.5,2,0.3,2.9,0.8c1.8,0.8,3.6,1.6,5.4,2.5
		c-0.5,0.4-1,1.1-1.7,0.9c-1.5-0.3-3-0.9-4.5-1.3c1.1,1.7,2.9,3.7,5.2,3.2c5-1.1,9.8-3.1,14.8-4.1c1.6-0.3,3.4-0.3,4.8,0.8
		c1.7,1.3,2.3,3.6,2.4,5.7c0,2.3-0.2,4.5-0.2,6.8c0,0.4,0.2,0.7,0.4,1c2,2.3,4.3,4.4,5.9,7c0.4,0.8,0.9,2.6-0.5,2.6
		c0.8,0.7,1.7,1.5,2.4,2.3c-0.2,0.2-0.4,0.5-0.6,0.7c1.1,0.9,2.1,1.9,3,3.1c-0.3,0.2-0.6,0.5-0.9,0.7c0.8,0.9,1.9,1.6,2.9,2.4
		c-0.9,0.5-2,0.1-2.8-0.3c-1.4-0.8-2.6-1.9-3.9-2.9c-0.1,0.1-0.2,0.2-0.3,0.3c0.4,0.6,0.8,1.3,1.1,2c-1.6,0.3-2.5-1.3-3.3-2.4
		c-0.5-0.8-1.2-1.5-1.3-2.5c0.7-0.4,1.4-0.8,2-1.3c-1.1-1-3.2-1.7-3.3-3.4c0.4-0.1,0.9-0.2,1.3-0.4c-1.4-0.7-2.9-1.2-4.4-1.6
		c-0.5,0.7-1.1,1.4-1.7,2c1.1,0.6,2.3,1,3.4,1.7c-0.1,1.1,0.5,2,1.3,2.7c-0.7,0.4-1.4,0.2-2.1,0c0.4,0.5,0.8,1.1,1.1,1.6
		c-1,0.4-2.1-0.1-3.1-0.3c1,1.1,2.3,1.9,3.5,2.8c-0.2,0.3-0.4,0.7-0.6,1c0.3,0.5,0.6,1,0.8,1.4c-0.4,0-0.9,0.1-1.3,0.1
		c0.4,0.3,0.7,0.7,1.1,1c-0.4,0.4-0.9,0.7-1.3,1.1c1,1,1.9,2.1,2.6,3.4c-1,0.2-2.1,0.1-2.9,0.7c-0.8,0.5-1.4-0.7-1.8-1.2
		c-0.2,0.1-0.5,0.2-0.7,0.3c0.6,0.8,1.2,1.7,2.1,2.2c0.2-0.2,0.3-0.4,0.5-0.6c1.3,0.6,2,1.9,2.4,3.1c-0.9,0.2-1.7-0.2-2.2-0.9
		c-0.2,0.2-0.4,0.5-0.6,0.7c1.1,1.4,0,3.2,0.5,4.8c0.4,1.7,0.8,3.4,1.1,5.2c-0.7-0.3-1.6-0.6-1.8-1.4c-0.5-1.2-0.3-2.7-0.9-3.8
		c-0.6,0.3-1.3,0.7-2,0.7c0,2.3-0.6,4.9,0.5,7c0.5-0.4,1.1-0.7,1.7-0.7c0,0.9,0.2,1.9-0.1,2.7c-0.4,0.7-1.4,1.6-2.2,1
		c-0.7-0.4-1.4-0.9-1.7-1.6c-0.3-1,0.1-2.1-0.1-3.1c-0.1-0.9-0.4-1.7-0.7-2.5c-0.2,0.1-0.4,0.2-0.5,0.3c-0.9-1.5-0.1-3.2,0.4-4.7
		c-0.1-0.1-0.3-0.3-0.5-0.4c-1.5,0.3-1.3,1.9-1,3c-0.1,0.1-0.3,0.2-0.4,0.3c-1-2.3-0.7-5.4-3.1-6.9c0-1.5,0.2-3.1,0.7-4.6
		c0.5-1,1.9-2,2.8-0.9c-0.1-1.5-0.9-2.8-1.3-4.2c0.4-0.1,0.9-0.2,1.3-0.2c0.5,1,0.6,2.1,1.2,3.1c1-2.7,0.3-5.5,0.3-8.2
		c0.1-0.9-0.3-1.8-0.7-2.6c-0.6,0.5-1.2,0.9-1.7,1.5c-0.5,0.6-0.1,1.3,0,1.9c-1.1,0.1-1.7-0.9-2.5-1.5c-1.6-1.1-0.2-3.7,1.4-3.8
		c3.3,0.3,5.9-2.4,7.4-5c1.5-2.3,1.5-5.2,1.9-7.9c0.4-2.5,0.3-5.2-1-7.4c-1.1-2.2-4.2-2.8-6.2-1.4c0.3,0.3,0.6,0.6,1,0.8
		c-0.9,1.5-2.6,2-4.1,2.6c-1.5,0.5-2,2.3-3.6,2.6c-0.3,0.6-0.4,1.5-1.2,1.8c-0.9,0.4-2,0.4-3,0.6c0.6,0.8,0.5,2.5,1.9,2.5
		c2.1,0,3.5-1.6,5.2-2.6c1.4-0.9,3.4-1.2,4.9-0.3c-0.8,1-2.2,0.4-3.1,1.1c-0.8,0.6-1.3,1.6-2.3,2.1c-0.9,0.4-0.9,1.5-1.4,2.2
		c-0.5,0.3-1,0.1-1.5,0c-1.2-0.5-2.5,0-3.8-0.1c-1.4-0.1-2.2-1.5-3.6-1.5c-1.2,0-1.9-1.1-2.8-1.6c-1.3-0.3-2.8-0.2-3.7,0.9
		c-0.9,0-1.9-0.1-2.8,0c0.6,0.3,1.4,0.6,1.8,1.3c1,1.9,2.1,3.7,2.8,5.7c-0.2,0.2-0.4,0.4-0.6,0.7c0.3,0.4,0.5,0.8,0.8,1.2
		c-0.4,0.3-0.8,0.7-1.3,1c-1-1.3-1.9-2.7-2.7-4.1c-0.5,0.3-1.1,0.5-1.7,0.8c0.1,0.2,0.1,0.5,0.2,0.7c0.6-0.5,1.2-0.9,2-0.5
		c-0.1,0.9-0.7,1.9-0.1,2.7c0.7,0.9,1.7,1.6,2.6,2.3c-0.5,0.3-1,0.5-1.5,0.7c0.9,0.4,2.2,0.4,2.7,1.4c0.8,1.5,1.7,3,2.6,4.4
		c0.3,0.4,0.3,0.9,0.3,1.3c-1.9,0.3-2.6-1.9-3.7-3c-0.1,1,0.3,2.2,1.2,2.7c1.3,0.8,2.9,1.5,3.4,3.1c-1.5,0.4-2.8-0.8-4.1-1.2
		c-1.6-1-3.1,0.7-3.8,2c0.1,1.1,1.2,2,1,3.2c-0.3,1.9-0.2,3.8,0.6,5.6c0.2-1.2,0.3-2.4,0.3-3.6c0-1.1-0.6-2.1-0.6-3.2
		c0.4-0.8,1-1.5,1.5-2.3c1-0.3,1.8,0.5,2.7,0.8c0.9,0.2,1.2,1.1,1.6,1.8c-0.8,0.3-1.5,0.1-2.2-0.2c-0.8,1.1-0.7,2.5-0.7,3.8
		c0,1.4-0.7,2.6-1,3.9c0,1.1,0.6,2.1,0.6,3.2c-0.1,0.7-0.7,1.1-1.4,1.1c-0.2-0.2-0.4-0.5-0.5-0.7c-0.1,0.7,0.1,1.5,0.3,2.2
		c0.3,1-0.3,2.1-1.3,2.4c0,0.3,0.1,0.6,0.1,1c0.1,0.1,0.3,0.3,0.3,0.3c0.6,0,1.1,0,1.7,0c0.4-1.5,0.3-4,2.4-4
		c1.2-1.8,0.6-4.1,0.3-6.1c0.3-1,1.6-0.3,2.3-0.2c0.1,1.6-0.8,3.5,0.4,4.9c0.2-0.3,0.6-0.6,0.5-1.1c-0.1-1.6-0.5-3.2-0.6-4.8
		c-0.1-0.8,0.6-1.5,0.6-2.4c-0.1-1.1-1-2.1-0.8-3.3c0.1-1.2,0.9-2.2,1.6-3.2c0.7,0.6,1.6,0.7,2.5,0.5c0.5,1.3,0.7,2.7,1.3,3.9
		c0.6-1.3-0.3-3,1-4c0.6,1.2,1.3,2.4,1.6,3.7c0,1.5-2.2,1.5-2.3,3c-0.3,2.7,0.1,5.4,0.1,8.1c-0.1,0.9,0.2,1.7,0.8,2.4
		c0.5,0,1,0,1.4,0c0.2-1.6,0.2-3.2,1.1-4.6c0.4,0.4,1.4,0.9,0.8,1.6c-0.7,0.9-0.4,2.1-0.4,3.1c0.4-0.1,1.1,0,1.2-0.5
		c0.3-1.2,0-2.5,0-3.7c0.1-0.7,0.9-1.4,0.3-2c-0.7-0.7-0.2-1.7-0.1-2.6c0.5,0.2,1,0.4,1.1,1c1.7,4.7,3.1,9.7,2.9,14.7
		c-0.5,3.2,0.1,6.4-0.4,9.6c-0.4,1.9,0.1,3.9,0.4,5.8c-1.5-0.8-1.5-2.7-1.8-4.2c-0.2-0.2-0.6-0.4-0.5-0.7c-0.1-1.6,0-3.2,0-4.9
		c-1.8-0.6-0.9-2.8-1.8-4.1c-0.5,0.6-1,1.1-1.7,1.5c-1-1.1-0.1-2.5,0-3.8c0.2-1.6,0.4-3.3-0.1-4.8c-1,0.9-1.2,2.2-1.1,3.5
		c-0.8-0.6-1.4-1.5-1.9-2.4c-0.6,1.5-1.1,2.9-1.5,4.5c-0.2,0.6,0.3,1,0.4,1.6c-0.2,0.9-0.6,2-1.7,2.2c-0.2-0.6-0.4-1.2-0.6-1.7
		c0.4,2.2-1,4.6-3,5.4c0.3,1.3-0.7,2.3-1.1,3.4c-0.1,0.7-0.9,0.9-1.4,1.1c-0.2,0.8-0.5,1.6-0.8,2.4c-1.8,0.5-0.9,2.7-1.9,3.9
		c-0.4,0-0.7,0-1.1,0c0-0.9,0-1.7,0-2.6c-0.3,1.4-0.5,2.8-0.3,4.2c0.2,2.3,0,4.7,0.7,6.9c0.4,1.2,1.1,2.3,1.7,3.4
		c1.4-2.8,2.4-5.8,4.6-8.1c0.2-0.4,1.1-0.6,1.2,0c0,1.3-0.6,2.5-1.1,3.6c-1.5,3.5-3.7,6.7-5.4,10.1c-1.4,0.4-1.3,1.9-1.6,3.1
		c-0.5-0.4-1.2-0.8-1.2-1.5c0.5-1.5,1.2-3.2,0.5-4.7c-0.5-0.9,1.1-1.7,0.3-2.5c-0.4-0.4-0.7-1.2-1.3-1.3c-1.2,1.8,1.2,3.8,0.2,5.6
		c-0.6,1.3-0.7,2.8-0.8,4.2c-0.2,0.2-0.5,0.3-0.7,0.5c-0.2-0.1-0.5-0.1-0.7-0.2c0-1.5,0.2-3,0.4-4.5c0.1-0.9-0.5-1.7-0.6-2.6
		c0-1.5,0.5-3,0.4-4.5c-0.4-0.7-1.2-1.2-1.3-2.1c-0.1-1.2,0.2-2.4,0.1-3.6c-0.9,0.2-1.7,0.7-2.6,1.1c-0.2,0.6-0.3,1.1-0.5,1.7
		c-0.4,0-0.7,0-1.1,0c-0.1-1.1-0.1-2.1,0-3.2c-2.5,0.1-2.1-3-2.9-4.5c-0.5,1.2-0.7,2.6-1.7,3.6c-0.7,0.6-1.5,0-2.2-0.2
		c0.1,1.3,0.9,2.5,1.1,3.9c0.3-0.3,0.6-0.6,1-0.9c1.3,1,0.6,2.9,0.5,4.4c0.1,0.1,0.3,0.3,0.4,0.4c0.6-1.1,1-2.2,1.7-3.2
		c1,0.1,0.9,1.5,1.1,2.3c0.1,0.8,0.9,1.1,1.6,1.2c0,1.8-0.2,3.6,0,5.4c1.3-1.4,0.5-3.4,0.3-5.1c0.1-1.7,0.6-3.4,1.3-4.9
		c0.4,0,0.7,0,1.1,0c1.3,2.9,0.8,6.2,1.2,9.3c0.1,1.7,0.6,3.5,0,5.2c-0.7,0.4-1.4,0.8-2,1.3c-0.4,0-0.9-0.1-1.3-0.1
		c-0.2,0.4-0.3,0.9-0.5,1.3c-1.2,0.5-2.5,0.8-3.8,0.9c0-0.7,0.1-1.5,0.8-2c1.2-0.9,1.2-3.7-0.7-3.8c-0.1-1.5-0.5-2.9-1.1-4.2
		c-0.2,1.8,0.8,3.5,0.5,5.3c-0.5,1.2-1.9,0.2-2.7-0.2c-0.1,0.5,0.1,1.2-0.3,1.7c-1,0.3-1.7-0.9-1.5-1.7c0.1-0.7,0.7-1.1,1.2-1.5
		c-0.2-2.1-0.2-4.2-0.3-6.3c0-0.4-0.2-0.8-0.4-1.1c-0.2,0.2-0.5,0.4-0.5,0.7c-0.1,1.7,0.2,3.5,0,5.2c-0.4,0.1-1-0.1-1.4,0.2
		c-0.1,0.6-0.1,1.2-0.2,1.8c-1.2-1.2-1.4-2.9-2.1-4.4c-0.6,0.5-2,1.2-2.3,0.1c-0.6-1.1,0.4-1.9,0.7-2.9c-0.1-0.8-0.7-1.5-1.1-2.2
		c-0.6,1.7-1.4,3.5-1.3,5.4c-0.4,0-0.8,0-1.2,0c0-2.2,0.2-4.5-0.9-6.5c-0.3,0.5-0.6,1.1-0.9,1.6c-1.8-1.2-0.5-3.6-0.9-5.4
		c-0.5-0.1-1-0.2-1.4,0.2c-0.9,1-1.3,2.4-1.8,3.6c-0.3,0-0.6,0-0.9,0c-0.4-1,0.2-1.9,0.6-2.8c1-2,2-4.1,3.5-5.7c1-0.1,1.4,1.1,1.4,2
		c1.9-0.4,2.3-3,1.7-4.6c-0.6-0.4-1.3-0.7-1.7-1.4c0.2-1.3,1.1-2.3,1.5-3.5c0.3-0.6-0.7-0.9-0.5-1.5c0.4-0.8,1.2-1.4,1.5-2.3
		c0.4-1.2,0.1-2.5-0.3-3.6c-0.3,0.3-0.6,0.6-0.9,0.8c-0.3,0-0.7,0-1,0c-0.2-2,0-4-0.1-5.9c-0.4-1.1-0.8-2.3-0.6-3.6
		c-0.3,0-0.7,0-1-0.1c-0.2,0.7-0.3,1.4-0.4,2.2c-0.1,0-0.2,0.1-0.3,0.2c-1.7,0.6-2.8,2.1-3.7,3.5c-0.2,0.9-0.1,1.9-0.6,2.7
		c-1.2,2.1-2.1,4.6-4.3,5.9c0.2,0.9,0.2,2-0.5,2.7c-1.2,1.2-3,1.4-4.7,1.6c0,0.7,0,1.3,0.1,2c-1.8,1-3.6-0.6-4.9-1.7
		c-0.7,1.8,0.6,3.6,1.3,5.2c-0.9,0.3-1.6-0.4-2.2-1c-1.6-0.1-3.3,0.1-4.9-0.1c-0.9-0.7-1.6-1.7-2.8-1.7c-0.1-2.9-4.2-2-4.9-4.4
		c0.6-0.4,1.3-0.9,1.3-1.7c0.5-2.5-0.1-4.9-0.7-7.3c-0.2-1.1-1.4-1.6-2.1-2.2c0.2-0.6,0.3-1.1,0.5-1.7c-0.3,0.4-0.6,0.8-0.9,1.2
		c-0.6,0.2-1.3,0-1.9,0.3c-0.4,0.5-0.3,1.2-0.1,1.8c0.4,1.4,1,2.7,1.4,4.1c-3.3,0.6-7.1-2-7.3-5.6c-0.7-0.6-1.5-1.2-2.1-1.8
		c1.1-0.4,2.9-0.5,3.2-1.8c-0.2-1.6-1.7-2.6-2.7-3.8c0.6-0.8,1.9-1.1,1.6-2.3c-1,0-1.5,0.8-1.9,1.6c-0.7,0.2-1.2-0.4-1.6-0.9
		c-0.8-1.3-0.7-2.8-1.2-4.2c-0.3-0.9-1.5-1.5-1.2-2.6c0.3-1.8,0-4,1.4-5.4c-1,0-1.6-0.9-2-1.6c-0.3,0.8,0,1.6-0.2,2.3
		C33,72.6,33.3,75,33.7,77c0.1,1,1,1.6,1.4,2.4c0,0.6-0.5,1.1-0.4,1.7c0.3,0.4,0.8,0.7,1.2,1.1c0.3,1.3-0.5,2.7,0.4,3.8
		c0.4,0.7,1.2,0.8,1.9,1.1c0.3,0.4,0.2,0.9,0,1.4c-0.7,0.7-1.6,1.2-2.2,2.1c-1.1,1.8-1.4,3.9-2.3,5.8c-0.4,0-0.7,0-1.1,0
		c-0.2-0.7-0.3-1.4,0-2c0.7-2,1.8-3.9,3-5.6c-0.2-0.3-0.4-0.5-0.5-0.8c-1.3,1.1-2.4,2.3-3.6,3.4c-0.3,0-0.6,0-0.9,0
		c0-1.8,1.8-2.7,2.8-3.9c0.4-0.5,1.3-1.1,0.8-1.8c-0.7-0.7-1.7-0.1-2.4,0.3c-2.7,2.1-4.4,5.2-6.4,7.8c0.6-1.7,1.1-3.5,2.3-5
		c1.4-1.6,3.3-2.8,4.5-4.6c0.4-0.6,0.7-1.4,0.6-2.2c-0.4-2.6-0.8-5.1-1.2-7.7c0-0.6-0.7-0.8-1.1-1.1c-2-1-4.1-1.7-6.2-2.3
		c-1.9-0.6-3.8,0.2-5.7,0.1c0.4-0.2,0.9-0.4,1.3-0.7c-1.5-0.1-3,0-4.5,0c1.7-1.6,4.2-0.8,6.3-0.7c1.6,0.4,3.1-0.7,4.6-0.2
		c-0.2,0.3-0.4,0.6-0.6,0.9c1.9,0.7,3.8,1.5,5.7,2.2c0.5-0.9,0.7-2.4-0.5-2.8c-1.4-0.2-2.7,0-4.1-0.1c0.6-1,1.7-0.8,2.7-0.9
		c-4.7-1.9-9.9-1.8-14.9-1.4c1.7-0.5,3.4-0.8,5.1-1.1c3-0.3,6,0.9,9,0.3c-0.1-0.4-0.3-0.9-0.5-1.3c0.1-0.1,0.2-0.4,0.3-0.5
		c1.4,1,2.6,2.5,4.2,3.3c0.8-0.2,1.4-0.8,1.6-1.5c-0.1-0.6-0.5-1-0.9-1.3c-1.6-1.4-3.5-2.3-5.2-3.6c2.6,0,4.4,2.2,6.5,3.5
		c2.2-1.7,2.4-4.9,2-7.5c-0.5-2.9,0.1-6,1.5-8.6c0.8-0.9,1.7-1.7,2-2.9c0.3,0,0.5,0,0.8,0c-0.1,0.3-0.2,0.6-0.3,1
		c-0.4,1.8-1.7,3.7-0.9,5.7c0.6,1.6,1.5,3.2,3.2,3.7c0,1.1-0.9,2-1.3,2.9c1-1,1.7-2.3,2.9-3.1c0.1-0.3,0.1-0.6,0.2-0.9
		c1.1-0.5,2.6-0.7,2.6-2.3c1.5-0.8,2.2-2.4,2.5-4c-0.7,0.8-1,2-2,2.6c-1,0.6-1.3,2-2.5,2.3c-2.8,0.6-4.4-4.4-1.7-5.4
		c0.9,0.3,1.3,1.1,1.9,1.8c0.4-0.3,0.8-0.6,1.2-0.8c-0.7-1-1.8-1.7-3-2c-0.7,0.2-1.1,0.9-1.8,1.1c-0.8,0-1.2-0.9-0.8-1.5
		c0.7-0.6,1.6-0.7,2.4-1c0.8-0.2,1.7-0.6,2.5-0.1c0.5,0.5,0.5,1.3,1,1.8c0.5,0.4,1.1,0.3,1.7,0.1c-0.2-0.9-1-1.8-0.5-2.8
		c1-2.2,2.2-4.4,3.9-6.1c0.3-0.4,0.8-0.1,1.2,0c0.1,0.8-0.2,1.6-0.9,2.1c-0.9,0.6-0.2,1.7-0.7,2.5c-0.4,0.7-1,1.4-1.4,2.1
		c0.5,0,0.9-0.2,1.3-0.4c0.2,0.1,0.3,0.1,0.5,0.2c-0.1,0.7-0.2,1.3-0.2,2c0.8-0.7,1.5-1.5,1.9-2.5c0.2-0.6-0.9-0.9-0.5-1.5
		c0.4-0.6,1.1-0.9,1.6-1.5c0.5-0.7,0.4-1.7,1-2.4c0.8-0.9,2-1.3,3.1-1.6c0.5,1.2-0.4,2.3-0.7,3.4c0.4-0.3,0.8-0.7,1.2-1.2
		c0.5,0,1.2,0.1,1.2,0.7c-0.1,0.9-0.5,1.7-1,2.4c-0.7,0.5-1.7,0.5-2.3,1.2c-1.2,1.3-1.1,3.3-2.3,4.6c-1.1,1.1-1.9,2.4-1.7,4
		c1.6-1.3,1.6-3.6,2.9-5.1c0.9-1.2,1.8-2.3,2.9-3.3c0.3,0.9-0.2,1.8-0.5,2.7c-0.3,0.7,0.1,1.4-0.2,2c-0.4,0.9-1,1.7-1.6,2.5
		c0.4,0.1,0.7,0.2,1.1,0.3c-0.3,0.5-0.6,1-0.8,1.4c1.7-1.5,4-1,6.1-1c0.2-0.3,0.4-0.5,0.6-0.7c-0.4-0.1-0.9-0.1-1.3-0.2
		c-0.3-1.1,1.2-1.5,1.4-2.5c0.2-0.8,0.7-1.4,1.5-1.7c0.3,1.1,0.9,2.1,1,3.2c-0.4,1-1.1,2-1.9,2.7c-1,0.3-2,0.6-2.9,1.3
		c-0.8,0.6-1.6-0.3-2.4-0.4c-1.2,0.3-2.1,1.5-3.4,1.7c-0.9,0-1-1.1-1.3-1.7c-1,1.3-2.3,2.6-2.8,4.2c0.9,0,1.8,0,2.7-0.1
		c0.1,0.6,0.3,1.3-0.2,1.7c-1,0.9-2.5,0.6-3.6,1.2c-0.6,0.6-0.5,1.6-1.2,2.2c-0.5,0.4-1.2,0.3-1.8,0.4c0.3,0.4,0.6,1.1,0.2,1.5
		c-0.7,0.6-2-0.1-2.5,0.9c-0.8,1.3-1.4,2.7-2.9,3.4c-0.2-0.5-0.3-1.1-0.4-1.6c-0.9,1.2-0.2,2.7-0.9,3.9c-0.4,0.7-0.5,1.6-0.5,2.4
		c1.3,0.3,2.5-0.6,3.1-1.7c0.4-0.9,1.3-1.5,1.6-2.4c-1.4,0-1.6,1.8-2.4,2.6c-0.5,0-1,0-1.3-0.5c1-1.7,2.1-3.3,3.3-4.8
		c0.7-0.4,1.6-0.5,2.4-0.8c0.4,0.5,0.7,1.1,1,1.7c0.8-0.6,1.8-1.1,2.3-2c-0.6-0.1-1.6,0-1.3-0.9c0.5-1.4,1.6-2.5,2.5-3.6
		c0.1,0.5,0.2,0.9,0.3,1.4c0.9-0.2,1.6-0.9,1.8-1.8c1.2-0.4,2.5-0.6,3.7-0.1c1.5,0.6,3.2,0.2,4.8,0.3c0.2-0.3,0.4-0.5,0.5-0.8
		c-2.4-1.4-5.2-1.4-7.7-2.6c1-0.8,2.3-1.2,3.6-1.2c1.8,0.4,3.5,1.9,5.4,0.9c1-0.2,0.7-1.3,0.8-2.1c3.1-0.9,3.2-5.1,6-6.4
		c0.8-0.5,1.6,0.6,2.4,0.2c1.5-0.4,3.2-1.9,4.5-0.4c-0.4-0.1-0.7-0.1-1.1-0.2c-0.6,0.7-1.4,1.5-1.3,2.5c-0.1,0.8,0.6,1.3,1.2,1.8
		c1-0.5,1-1.6,1-2.6c0.6-0.1,1.2-0.1,1.8,0.1c1.8,0.6,3.8,2.4,5.7,1.3c1.2-0.7,2.5-1.9,2.6-3.4c-0.3-0.7-0.8-1.2-1.2-1.8
		c0.7-0.8,1.8-1.1,2.9-1c1.2,0.3,1.8,1.5,2.6,2.3c0.2-1.1,0.2-2.3,0.8-3.4c0.6-1.1,1.3-2.1,1.4-3.4c1.1-0.7,3-1.8,3.9-0.3
		c0.6,1,1.7,1.3,2.8,1.7c-0.3-1-0.7-1.9-1.2-2.8c-0.9-0.7-1.9-1-2.8-1.7c0.8-0.4,1.6-0.6,2.5-0.9c-0.1-0.8-0.2-1.5-0.2-2.3
		c1.5,0.3,2.7,1.2,4,2c1,0.4,2,0.8,3,1.3c1.1-0.3,2-1.1,2.9-1.7c-0.8-1-2.2-0.9-3.4-0.9c0.5-2.4-1.8-4-2.4-6.1
		c0.2-0.2,0.4-0.3,0.6-0.5c-1.5-0.8-3.2-1.2-4.8-1.9C99.1,27.2,99,26.5,98.8,25.9 M106.8,29.7c0.5,3.4,4.8,4.1,5.7,7.2
		c-0.3,0.2-0.6,0.3-0.9,0.5c0.5,0.3,1.1,0.5,1.6,0.9c0.2,0.5,0.1,1.2,0.6,1.6c0.5,0.5,0,1.2-0.6,1.4c-1.1,0.4-2.2,0-3.3-0.2
		c0.1,0.4,0.1,0.9,0.2,1.3c1.5,0.2,3,0.6,4.5,0.7c0.3-0.5,0.7-1,1-1.5c0.5,0.1,0.9,0.2,1.4,0.4c0-0.5,0-1.2,0.6-1.2
		c1.4,0.1,2.7,1.3,4.1,0.7c1.6-0.5,3-1.5,4.4-2.3c-1.8,0.3-3.6,1-5.5,0.5c-3.3-0.7-5.9-3.3-7.7-6c-0.4-0.7-1.2-1-1.8-1.4
		c-0.6-0.4-0.7-1.3-1.4-1.6C108.7,30.4,107.7,30,106.8,29.7 M104.6,42.4c-0.7,1-1.6,2-1.6,3.2c-0.1,0.7-0.7,1.1-1,1.6
		c0.4,0.5,1,1,0.8,1.8c-0.3,0.6-0.8,1.1-1.3,1.6c1,0.2,2.3,0.6,3.1-0.4c0-0.9,0-1.8,0-2.8c-0.3-0.3-0.6-0.5-0.9-0.8
		c0-0.8,0.8-1.3,1.2-1.8c-1-0.9,0.6-2.2,1.5-1.5c0.6,0.4,1.2,0.1,1.6-0.3C107,42.5,105.7,41.7,104.6,42.4 M92.9,49.4
		c-0.1,0.7-0.1,1.4-0.1,2.1c0.6,0.1,1.2,0,1.5-0.6C93.9,50.4,93.5,49.9,92.9,49.4 M106.7,50c0.7,0.5,1.4,0.4,1.9-0.2
		C108,49.7,107.3,49.7,106.7,50 M95.4,51.9c1.1,0.3,2.2,0.3,3.3,0.5c0.2-0.4,0.3-0.9,0.5-1.3C98,51.4,96.6,51.3,95.4,51.9
		 M103.3,53.9c0.7,0.5,1.2,1.2,1.2,2.1c0.9-0.5,1.8-1,2.3-1.9c0-0.9-0.9-1.6-1.6-2C104.1,51.9,103.8,53.2,103.3,53.9 M92.9,52.6
		c-1.7,0.4-3.3,0.8-4.9,1.5c1.4,0.1,3.1-0.9,4.2,0.3c-0.1,0.3-0.3,0.5-0.4,0.8c0.6,0.3,1.1,0.8,1.6,1.2c-0.9,1.1-2.4,1.3-3.6,1.9
		c0.4,0.4,0.8,0.9,1.1,1.3c-0.2,0.2-0.4,0.4-0.7,0.7c0.2,0.1,0.3,0.3,0.5,0.4c0,1.2-1.4,1.1-2.3,1.3c0.4,0.8,1.1,1.4,1.5,2.2
		c-0.6,1.1-2,0.4-2.9,0.2c0.2,0.5,0.3,0.9,0.4,1.4c0.8,0.4,1.7,1.4,1.3,2.4c-1.4,0.6-2.6-0.8-3.9-1.1c-0.6,0.1-1.1,0.7-1.8,0.6
		c-2.4,0-4.8,0-7.2,0c-0.9-1.1-1.9-2.2-3.2-2.9c-1.1-0.8-2.6-0.4-3.8-0.5c-1,1.3-2.3,3.1-4.2,2.7c-0.6-1,0.9-2,0.4-3.1
		c-0.8,0.2-1.7,0.6-2.5,0.2c-1.4-0.6-2.9,0.3-4.4,0.3c-1.4-0.1-2,1.6-3.3,1.4c0-0.4-0.1-0.8-0.1-1.1c-0.9,0.4-1.3,1.4-1.6,2.4
		c-0.2,0.9-1.4,0.9-1.8,1.6c-0.7,1-1.1,2.3-2.4,2.8c-1,0.3-1.2,1.6-2.3,1.7c0.3,1.7-1.4,3-2.9,3.4c-1.3,0.2-2.7,0-4.1,0.1
		c0.5,1,1.5,1.8,2.7,1.5c2.2-0.5,4.7-0.9,6.4-2.5c0.9-1-0.5-1.9-1-2.6c0.8-0.3,1.6,0,2.3,0.2c0.1-1.6,1.2-2.9,2.6-3.6
		c1.8-1,3.7-1.8,5.7-2.5c1.1,0.2,2.1-0.4,3.1-0.4c0.2,0.7,0.2,1.5,0.9,1.9c-1.9,0.4-3.9,0.5-5.8,1c-2.2,0.8-3.3,3.3-3.2,5.6
		c-1,0.5-2-0.5-2.8-0.9c-0.4,1.5,0.2,3.2-0.3,4.7c-0.9,3-3.2,5.4-6,6.7c0,0.3,0,0.5,0,0.8c5.4,1.4,10.9,2.6,16.5,3.4
		c2.5,0.4,5.3,0.6,7.6-0.5c0.8-0.3,1.5-1.5,0.8-2.2c-0.8,0-1.6,0.1-2.3,0.1c0-0.3,0-0.5,0-0.8c1.1-0.8,2.3-1.4,3.5-2.1
		c1.2-0.7,2.1-1.8,3.2-2.7c0-0.2,0-0.5,0-0.7c-1.7-0.1-1.7-2-2.1-3.2c0.1-0.1,0.2-0.2,0.3-0.3c1.2,0.6,2.4,1.3,3.1,2.5
		c0.6-1,0.7-2.7,2.1-2.9c1.3,0.1,2.5,0.8,3.8,1c-1-0.9-2-1.8-3.4-2c-0.8-0.1-1.9-0.5-1.6-1.5c0.4-0.8,1.2-0.1,1.7,0.3
		c0.7,0.7,1.7,0.8,2.6,0.9c1.1,0.9,2.3,1.9,3.1,3.1c-0.2,0.1-0.3,0.3-0.5,0.4c-1.6-0.5-3.3,1.2-2.7,2.8c1.3,1.6,3.7,0.7,5.1,2.1
		c1.8,1.5,1.8,3.9,2.9,5.8c0.7,1.2,2.6,1.3,3.5,0.3c0.9-0.9,1.1-2.4,2.3-3.1c1-0.5,1.6,0.8,1.2,1.6c-0.6,1.4-0.7,3.1-1.9,4.3
		c-1,1.1-1,2.6-1,4c0,1.5-0.1,3.2,1,4.5c1.5,1.8,1.8,4.2,2.4,6.5c0.1-2.2,0.2-4.4,0.2-6.6c0.1-1.4,0.2-2.9,1.3-3.9
		c-0.1-1.8-0.4-3.6-0.4-5.4c0.3-1,1.2-0.5,1.8-0.1c-0.3-1.6,0.7-3.4-0.5-4.7c-1.5-1.8-3.6-3-5.6-4.2c-0.9-0.6-1.2-1.7-1.8-2.5
		c-1.9-2.6-4.8-4.3-7.8-5.4c-1.2-0.5-2.8-1.2-2.8-2.7c2,0.2,3.9,0,5.9-0.2c1.2-0.1,2.3,0.6,3.4,0.9c1.3,0,3.1-0.6,4,0.6
		c0.7,0.9-1.2,1.8-0.2,2.6c1.2,0.4,2.6-0.2,3.7,0.7c1.2,1.1,2.3,2.3,3,3.8c-0.3,0.3-1,0.6-0.6,1.2c0.8,1.4,0.4,3,1,4.5
		c0.3-0.8,0.9-1.4,1.7-1.8c0.1-0.6-0.1-1.4,0.4-1.9c0.8-0.7,2-0.2,2.8-0.8c0.5-0.8-0.5-1.5-0.2-2.3c0.3-1.1,0.7-2.1,1-3.1
		c0.5,0.5,0.9,1.1,1.2,1.7c1-1.3-0.9-2.9,0.5-3.9c0.6,0.8,1.4,2.2,2.6,1.5c0.1-0.3,0.1-0.5,0.2-0.8c-0.7-1.1-0.6-2.4-0.6-3.6
		c-1.3-0.7-2.9-0.9-3.7-2.2c-0.7-1.4-1.1-3-1.3-4.6c-0.2-1,1-1.1,1.6-1.4c-0.1-0.8,0.2-1.5,0.5-2.3c0.5-1,0-2-0.2-2.9
		c-1.9-0.7-4.4-0.6-5.9,0.9c0.2,0.3,0.4,0.6,0.5,0.8c-0.5,0.5-1,1-1.6,1.4c0.9,0.6,1.1,1.8,0,2.4c0,0.3,0,0.6,0,0.9
		c0.6,0.3,1.2,0.7,1.7,1.1c-0.4,0.6-0.6,1.4-1.1,1.9c-0.6,0.3-1.4,0.4-2,0.5c0.2,0.3,0.4,0.6,0.7,0.9c-0.7,0.8,0.1,1.5,0.8,1.9
		c0,0.1,0,0.4,0,0.5c-1.6,0.6-3.3,1.3-5,1.6c-1.3,0.1-3.5-0.3-3.2-2.1c0.6,0,1.2,0,1.8-0.1c-0.9-0.7-2.7-1.1-2.6-2.5
		c1.5,0.3,2.9-0.3,4.1-1.2c-0.3-0.3-0.6-0.7-0.9-1c0.4-0.2,0.9-0.4,1.3-0.7c-0.3-0.4-0.9-0.8-0.5-1.3c0.6-1-0.3-2.2,0.6-3
		c0.4-0.4-0.1-0.9-0.3-1.4c0.5-0.7,1.2-1.3,1.7-2.1c-0.2-0.2-0.4-0.4-0.6-0.6c0.9-0.9,0.7-2.1,0.4-3.2
		C95.4,53.1,94.2,52.3,92.9,52.6 M70.8,52.7c-0.5,1-1.6,2.1-0.9,3.2c0.9,1.2,2.5,1.6,3.6,2.5c-1.7,0.7-3.4,0-5.1-0.3
		c-1.4,0.3-2.8,1-3.9,1.9c1,0.1,1.8-0.5,2.7-0.8c2.4,0.4,4.8,0.9,7.2,1.3c1.1,0.2,2.3,0.6,3.5,0.2c2.7-0.5,5.6-1.8,6.6-4.5
		c-0.6-0.5-1.4-1.4-2.3-1.1c-1.9,0.8-3.3,2.9-5.6,2.7c-0.1-0.1-0.3-0.3-0.4-0.5c1-0.5,2-1.1,2.8-1.9c-1.4,0.3-2.9,0.9-4.3,0.4
		c-1.6-0.3-2.7-1.7-3.1-3.3C71.3,52.7,71,52.7,70.8,52.7 M49.5,56.5c-0.1,0.3-0.1,1,0.3,0.7c0.7-0.8,1.2-1.8,1.6-2.8
		C50.7,55,49.9,55.7,49.5,56.5 M45.4,64.3c1-1.2,1.6-2.6,2.5-3.8c-0.8-0.7-0.1-1.5,0.2-2.1C45.8,59.4,45.8,62.1,45.4,64.3 M36.9,65
		c1.6,0.1,1.9-1.7,1.8-2.9C38.1,62.9,37.4,63.9,36.9,65 M42.7,65.4c1.2-0.4,1.4-1.9,1.3-3C43.2,63.3,42.9,64.3,42.7,65.4 M36.8,70.1
		c0.5,0,1,0,1.5,0c-0.6-1.5,0.5-2.9,1.1-4.2C37.6,66.5,37.5,68.6,36.8,70.1 M40.5,68c0.6-0.4,1.1-1.1,1.1-1.9
		C41,66.5,40.7,67.2,40.5,68 M43.8,82.9c0.5,0.7,1.5,0.3,2.2,0.4c-0.7-0.8-1.4-1.5-1.9-2.4C43.8,81.5,43.2,82.3,43.8,82.9
		 M130.5,89.9c0.4,0.7,0.7,1.4,1,2.1c0.3-2.3,0.3-4.6,0-6.9C131.2,86.8,131.9,88.7,130.5,89.9 M121.6,92.6c0.3-0.2,0.6-0.5,0.9-0.7
		c0-1.9,0.1-3.8-0.3-5.7C121.5,88.2,121.6,90.4,121.6,92.6 M109,87c-0.3,1.1-0.3,2.2-0.4,3.3c-0.1,0-0.4,0.1-0.5,0.1
		c0,0.8-0.2,1.7-0.8,2.3c-0.3-0.8-0.6-1.5-1-2.3c-1,0.7-0.6,2.1-1.1,3.1c-0.5-0.1-1.1-0.2-1.6-0.3c-1.4,2.4,1,5.5-1.1,7.7
		c-0.5-0.9-0.7-1.9-1-2.9c-0.2,1.8-0.7,4.2-2.9,4.4c0,0.3,0,0.5,0,0.8c2.1-0.2,4.2-0.5,6.3-0.7c0.2-0.7,0.1-1.5,0.6-2.2
		c1.5-1.1,3.6-2,4-4c-0.4-1.1-0.6-2.3,0.2-3.2c0.6,0.6,1.4,1.1,2.1,1.5c-0.2-1.6-0.5-3.3,0.5-4.8c-0.5-0.7-1.2-1.2-2-0.8
		C109.8,88.4,109.4,87.7,109,87 M112.9,90.3c0.1,3.3,0.5,6.5,0.7,9.8c0.1,1.1,0.3,2.3-0.4,3.2c-0.9,1-0.7,2.5-0.6,3.7
		c0.4-1.4,1.5-2.5,1.7-3.9c-0.2-4.2-0.4-8.5-0.5-12.7C113.4,90.3,113.2,90.3,112.9,90.3 M54.6,90.6c0.5,1.4,2.2,0.6,3,1.6
		c0.5,2.2,1.3,4.7,3.4,5.8c-0.1-2,0.4-4.1,1.3-5.8C59.6,92,57.1,91.2,54.6,90.6 M42.5,91.2c-0.5,2.3,2,3.4,3.7,4.4
		c-0.5-1.2-0.8-2.5-1.1-3.8C44.5,90.8,43.3,91.2,42.5,91.2 M98.6,94.6c0.1,1,0.4,2,0.3,3c0,0.8-0.8,1.4-1.3,1.9c0,0.4,0,0.8,0,1.2
		c0.7-0.4,1.6-0.6,1.9-1.3C99.8,97.8,99.5,96,98.6,94.6 M116.4,97.6c-0.3,1.1-0.3,2.3,0,3.4C116.6,99.9,117.7,98.4,116.4,97.6
		 M91.5,106.2c-0.1-1-0.2-2.6-1.5-2.9C89.4,104.5,90.9,105.3,91.5,106.2 M89,106.3c-0.1,0.8,0,1.6,0.2,2.3c0.3,1.1-0.3,2.3,0.1,3.4
		c1.2,3.8,2.5,7.6,4.1,11.2c0.2-1.8,0.2-3.6,0.4-5.4c0.4-0.1,0.8-0.2,1.2-0.3c-0.4-1.7-0.6-3.3-1.2-5c-0.8,0.8,0,1.8,0.2,2.7
		c0.3,0.8-0.9,2-1.6,1.2c-1.1-1.1-1.6-2.7-1.9-4.1c-0.3-0.9,0.9-1.5,0.5-2.4C90.6,108.7,89.9,107.5,89,106.3 M85.8,113.5
		c-0.1,0.8-0.1,1.6,0,2.3C86.5,115.1,86.1,114.2,85.8,113.5 M88.4,113.8c-0.2,1.4,0,2.9,0.9,3.9C89.1,116.4,88.9,115,88.4,113.8
		 M110.7,119.5c0-0.7-0.1-1.3-0.3-2C109.8,118.2,110.1,119,110.7,119.5z"/>
	<path d="M75.8,27.5c0.7,0.1,1,1.4,1.8,1c0.9-0.4,1.9-0.5,2.7,0.2c-1.3,1.9-3.9,1.3-5.6,2.5c-1.1,0.9-2.5-0.3-3.6,0.6
		c-1.2,1-2.9,0.7-4.3,1.3c-2,1-3.8,2.2-5.9,2.9c-1,0.3-1.5-1.2-0.8-1.8c0.7-0.6,1.3-1.4,1.3-2.3c1.6-0.4,3.3-0.1,4.9-0.2
		c1.1-1.2,2.6-1.9,4.2-2c1-0.1,1.5-1.2,2.4-1.6c0.5-0.1,0.8,0.4,1.3,0.4C74.8,28.2,75.2,27.7,75.8,27.5z"/>
	<path d="M94.2,28c1.1,0,2.3,0,3.4,0c0.1,0.4,0.2,0.9,0.3,1.3c1,0.5,2.2,0.7,2.8,1.7c1.1,1.5,1.9,3.6,3.8,4.2
		c-0.2,0.7-0.8,1.6-1.7,1.4c-1.2-0.5-2.3-1.6-3.8-1.2c-1.4-1.7-2.2-3.9-4.1-5.1c-0.5-0.3-0.9-0.8-1.2-1.3
		C94.1,28.7,94.1,28.4,94.2,28z"/>
	<path d="M76.5,33.8c1.4-0.4,2.8-0.9,4.2-0.8c-0.1,0.5-0.3,1-0.4,1.4c1.1,0,2.2-0.3,3.3,0c1,0.4,0.7,1.6,0.7,2.5
		c0.9,0.5,1.2,1.6,0.9,2.6c0.8,0.3,2,0.6,1.7,1.7c-0.7,0.4-1.6,1-2.5,0.5c-2-0.9-3-3.1-5.2-3.8c-1.6-0.5-3.1,0.5-4.6,0.9
		c-0.2-0.1-0.4-0.2-0.6-0.3c0.4-0.6,0.9-1.1,1.3-1.6c-1.1-0.4-2.7,0.4-3.1-1C73.5,34.8,75,34.3,76.5,33.8z"/>
	<path d="M55.1,37.7c0.6-1.7,2.3-2.8,4-3.3c0.2,0.2,0.4,0.4,0.5,0.5c-0.2,0.9,0,2.3-1.1,2.7c-0.5,0.3-0.9-0.3-1.3-0.6
		C56.5,37.3,55.8,37.5,55.1,37.7z"/>
	<path d="M48.1,36.6c0.4-0.5,1.1-0.3,1.6-0.4c0.4,1.1-0.6,1.9-0.9,2.9c-0.7,1.1-0.3,2.4-0.3,3.7c-1.7,1.2-3.2-0.6-4.5-1.4
		C45.4,39.8,46.6,38.1,48.1,36.6z"/>
	<path d="M60.3,39.2c0.4-1.6,1.7-3.2,3.5-2.7c-0.3,1.5-1.5,2.4-2.5,3.3C60.9,39.7,60.2,39.8,60.3,39.2z"/>
	<path d="M67.6,39.8c1.2,0,1.6-1.2,2.4-1.9c0.5,0.4,1,0.9,0.6,1.6c-1.1,2.4-2.6,4.7-4.1,6.8c-0.4,0.7-1.3,0.6-1.8,1.1
		c-0.5,0.5-1.1,1-1.7,1.5c-1.1-0.8,0.1-2.1,0.4-3c-0.9-0.2-2.3,0.4-2.9-0.7c0.8-1,1.8-1.8,2.5-2.9c0.3-0.5-0.3-0.8-0.5-1.1
		c0-0.3,0-0.6,0-0.9c1.3-0.7,2.4,0.6,3.5,1.1C66.5,40.9,66.7,39.8,67.6,39.8z"/>
	<path d="M74.3,39.7c1.3-0.8,3-0.8,4.5-0.3c1.5,0.5,1.5,3.2-0.1,3.5c-1.4,0.5-3.4,0.4-4.1,2c-0.6,1.1-1.3,2.8-2.8,2.5
		c0-0.8-0.1-1.7,0.3-2.4C72.6,43.2,73.3,41.4,74.3,39.7z"/>
	<path d="M87,40.3c1.1-0.6,2.6-1.8,3.8-0.7c-0.2,0.3-0.4,0.7-0.5,1C89.2,40.5,88.1,40.4,87,40.3z"/>
	<path d="M79.6,45.5c1.4-0.9,3.1-0.4,4.6-0.3c1.4,0.3,1.5,2.2,1.4,3.4c0,0.9-0.9,1.7-1.7,1.3c-2-0.7-3.8-1.8-5.7-2.8
		C78.1,46.2,79,45.8,79.6,45.5z"/>
	<path d="M113.3,49c0.5-0.8,1.1-1.7,1.6-2.5c1,0.6,1.9,1.4,2.5,2.4c-0.5,0.1-1.1,0.2-1.6,0.3c0.1,0.3,0.1,0.7,0.4,0.9
		c0.8,0.8,2.1-0.2,2.8,0.7c0-0.6,0.1-1.3,0.6-1.7c0.4,0.2,0.8,0.5,1.2,0.7c-0.1,1.2,0.2,2.6-0.3,3.7c-0.5,1.1-1.2,2.1-1.8,3.2
		c0.6,0,1.1,0,1.7-0.1c-0.1,0.9-0.2,1.9-0.2,2.8c-0.5,0.1-1.1,0.1-1.6,0.2c0.2,1.1-0.1,2.5,1.3,2.8c0.1-0.3,0.3-0.6,0.4-0.9
		c1.5-0.1,2.2,1.5,3,2.4c1.1,1.2,0.6,2.8,0.3,4.2c-0.9,0.3-2.1,0-2.4-1c-0.4-1.1-1-2.2-2.3-2.5c0.7,0.7,1.6,1.4,1.4,2.5
		c-1.1,0.6-2.2-0.4-2.3-1.5c-0.3-2.2-0.4-4.5-1.2-6.6c-0.4-1-1.6-2-0.8-3c-0.1-0.6-0.2-1.4,0.5-1.6c0.7-0.3,1.6-0.8,1.3-1.8
		c-0.4-0.8-1.5-0.5-2.3-0.6C114.9,50.9,114.2,49.9,113.3,49z"/>
	<path d="M129.6,48.2c0.7,0,1.6-0.2,2,0.6c-0.5,0.9-1.5,1.1-2.5,1C129.3,49.2,129.4,48.7,129.6,48.2z"/>
	<path d="M59.7,50.8c-0.3-1.2,0.5-2.2,1.5-2.7C61.4,49.3,61,50.6,59.7,50.8z"/>
	<path d="M42.9,55.4c-1.8-0.6-1.3-2.6-0.9-4C42.5,52.6,42.7,54,42.9,55.4z"/>
	<path d="M126.3,53.7c1-0.9,2.3-0.1,3.5,0c-0.3,1-1,2-2.2,2.1C126.7,55.6,126.3,54.5,126.3,53.7z"/>
	<path d="M123.7,57.5c1.7,0.3,2.9,2.3,2.2,3.9c-0.3,0-0.7,0-1,0C124.1,60.3,122.7,58.9,123.7,57.5z"/>
	<path d="M130.1,62.7c0.8,0.8,1.5,1.7,2.2,2.6c0.2,0.3,0.2,1.1-0.3,1.1c-1,0-1.6-0.9-2.2-1.6C129.9,64.1,130,63.4,130.1,62.7z"/>
	<path d="M144,64.1c0.3,0,0.5,0,0.8,0c1.4,1.8,3.6,2.6,5.6,3.8c-1.8,1.7-4.2,0-5.5-1.4C144,65.9,143.9,64.9,144,64.1z"/>
	<path d="M104.5,66.5c0.8,0.3,0.1,1.4-0.1,1.9c-0.4-0.1-0.8-0.2-1.3-0.3C103.5,67.5,103.9,66.9,104.5,66.5z"/>
	<path d="M128.8,67.7c1.5,0.5,1.7,2.2,1.9,3.6C129.4,70.5,128.4,69.2,128.8,67.7z"/>
	<path d="M77.5,69.6c0.8-1.6,2.8-1.2,4.3-1.1c2.9,0.3,6.1,0.2,8.4,2.3c-0.7,0.3-1.5,0.4-2.3,0.1c-2-0.6-4.1,0.1-6.1-0.5
		c-1.2-0.7-2.6-0.7-3.8-0.2C77.8,69.9,77.6,69.7,77.5,69.6z"/>
	<path d="M145.7,69c1.8-0.2,3.1,1.4,4.4,2.4C148.4,72,145.6,71,145.7,69z"/>
	<path d="M63.9,69.9c0.2,0.1,0.4,0.2,0.6,0.2c0.2,1.3-0.9,2.2-1.6,3c-0.7,0.8-2,0.7-2.6,1.6c-0.5,0.6-0.9,1.6-1.8,1.6
		c-0.6,0.1-0.9-0.5-1.2-1c0.4-0.6,0.8-1.2,1.3-1.8c0.4-0.5,0.2-1.3,0.8-1.6C60.6,71,62.3,70.5,63.9,69.9z"/>
	<path d="M68.8,69.9c0.2,0,0.5,0,0.7,0c0,0.7,0.5,1.3,1.2,1.1c1.3,0,3.2-1.2,3.9,0.4c-1.3,1.7-4-0.2-5.3,1.6c1.2,0.9,2.7-0.6,4,0.2
		c0,0.3,0,0.6,0,0.8c-0.5,0.7-1.3,1.2-2.2,1c-0.2,0.6-0.4,1.2-0.4,1.8c0.2,0.2,0.4,0.3,0.6,0.5c-1,0.7-2.1-0.1-3.2-0.2
		c-0.7-1.1,0.7-1.9,1.5-2.5c-0.9-0.4-1.8-0.3-2.7,0.2c-0.3-0.2-0.7-0.6-0.5-1.1C67.1,72.3,68.1,71.2,68.8,69.9z"/>
	<path d="M14.9,73.1c0.6-0.6,1.3-1.4,2.3-1.3C16.7,72.8,15.8,73.2,14.9,73.1z"/>
	<path d="M102,74.9c1,0.3,2,0.8,2.6,1.7c-0.1,0.3-0.2,0.9-0.6,0.9C103,77,102.5,75.9,102,74.9z"/>
	<path d="M19.1,78.8c2.8-1.4,5.7-2.5,8.9-2.8c-0.3,0.3-0.5,0.7-0.9,0.7c-3.8,1-7.1,3-10.7,4.6C16.7,80.1,18,79.4,19.1,78.8z"/>
	<path d="M56.5,76.1c1.1,0.4,0.8,1.6,0.1,2.3c-0.3,0-0.6,0-0.9-0.1C55.1,77.5,56,76.7,56.5,76.1z"/>
	<path d="M65,78.7c0.4-0.9,1.5-1.9,2.5-1.2C67.7,78.9,66,79.8,65,78.7z"/>
	<path d="M54.2,80.4c-0.5-0.8-0.1-2,0.8-2.2C56.1,78.9,55.1,80.1,54.2,80.4z"/>
	<path d="M61.6,79.3c0.7-0.2,1.4-0.1,2.1-0.1c0.2,0.6,0.3,1.4-0.3,1.8c-0.7,0.6-1.7,0.3-2.4-0.1C60.9,80.4,60.9,79.6,61.6,79.3z"/>
	<path d="M83.5,79.7c0.4-0.1,0.9-0.4,1.2,0c1.3,1,2.3,2.3,3.4,3.5c-0.2,0.4-0.6,0.9-1,0.5C85.8,82.5,84.7,81.1,83.5,79.7z"/>
	<path d="M87.3,79.4c1.7-0.3,2.4,1.6,3,2.9c-1.3,0.1-2.4-0.8-3.1-1.8C86.9,80.1,87.2,79.8,87.3,79.4z"/>
	<path d="M67.9,82.7c-0.3-1.5,1.1-2.3,2.4-1.9c0.1,0.5,0.4,1.1,0,1.5C69.7,83,68.7,82.6,67.9,82.7z"/>
	<path d="M57,82.7c0.4-0.9,1.5-2.3,2.5-1.4C60.2,82.7,57.9,83.3,57,82.7z"/>
	<path d="M64.2,82.7c0.7-0.5,1.5-0.2,2.3,0c-0.4,1.5-1.8,2-3.1,1.7C63.5,83.8,63.6,83.1,64.2,82.7z"/>
	<path d="M59.7,84.4c0.6,0,1.1,0,1.7,0c0.2,0.2,0.4,0.4,0.5,0.6c-0.6,0.6-1.3,1.5-2.2,1.1C58.9,85.8,59.2,84.8,59.7,84.4z"/>
	<path d="M55.2,85.1c0.7-0.8,2.2-0.5,2.4,0.6C57.2,86.9,55.1,86.5,55.2,85.1z"/>
	<path d="M20.3,90.6c-0.1-1.6,1.6-3,3.1-3.1C22.4,88.5,21.9,90.5,20.3,90.6z"/>
	<path d="M63.4,87.9c0.3-0.3,0.7-0.5,1.1-0.7c0.7,0.1,0.7,0.8,0.7,1.4c-0.6,0.1-1.2,0.2-1.7,0.2C63.4,88.5,63.4,88.2,63.4,87.9z"/>
	<path d="M82.5,89.9c0.6,0.4,1.4,0.7,2,1.2c0.4,0.6-0.2,1.3-0.3,2c0.1,0.9,1,1.5,1.1,2.4c-0.2,1.1-0.7,2.1-1,3.2
		c-0.1,0.7-0.9,0.8-1.4,1.1c0.4,0,0.8,0.1,1.1,0.1c0,0.7-0.2,1.3-0.7,1.7c-0.6,0.5-0.2,1.4-0.5,2.1c-0.5,0.7-1.3,1.2-1.9,1.8
		c0.4,0.4,0.8,0.7,1.2,1c-0.6,1.2-1.5,2.1-2,3.4c-0.4,0.8,0.2,1.7,0.3,2.5c0.1,0.8-0.3,1.6-0.7,2.3c-0.5-0.3-1-0.7-1.4-1.2
		c-0.3,1-0.6,2.1-1,3c0.6-0.3,1.2-0.4,1.8-0.2c-0.1,2.3-2.2,4.2-4.5,4.1c-1.9,0.3-3-1.5-4.7-1.7c-0.9,0-0.7-1.3-1.6-1.3
		c-0.9-0.3-1.5,0.8-2.5,0.6c-1.4-0.3-2.9-0.7-4-1.7c-1.1,0.6-0.7,1.8-0.9,2.8c-0.2,0.7-1.1,0.4-1.6,0.3c0-0.9-0.1-1.8,0.6-2.5
		c-1.1-0.3-2.2-0.7-2.5-1.9c-0.9-0.2-1.9-0.4-2.8-0.4c-0.3-0.5-0.7-0.9-1-1.3c-0.3,0.2-0.6,0.5-0.9,0.8c-0.9,0.2-1.3-0.8-0.7-1.4
		c0.7-0.7-0.1-1.5-0.4-2.1c-0.1,1-0.5,2-1.6,2.2c-0.6-1.5,0.8-2.7,0.9-4.1c-0.5-1.5-1.9-2.6-2.5-4.1c-0.6-1.3-1-3,0.1-4.1
		c0.9-0.8,1.9,0.2,2.6,0.9c0,0.3,0,0.5,0,0.8c-0.4,0-0.8,0-1.2,0.1c-0.1,0-0.4,0-0.5-0.1c-0.2,2.1,1.2,3.9,2.8,5
		c3.5,2.6,7.8,4.1,12.1,4.6c-0.4,0.4-0.8,0.8-1.2,1.1c2.4,1.4,5.3,0.5,7.4-1c2.8-2,4.5-5.2,5.8-8.3c0.9-1.9,1-4,1.8-5.9
		C79.3,94.9,80.8,92.3,82.5,89.9 M75.1,116.8c-0.1,0.3-0.2,0.6-0.3,0.9c0.9,0.2,1.5-0.4,2.1-1C76.3,116.7,75.7,116.8,75.1,116.8z"/>
	<path d="M126,91.6c0.5,0.3,1.2,0.4,1.2,1.1c0.1,1.4,0,2.9,0,4.3c0.7-0.1,1.3-0.1,2,0c0.1,1.8-0.1,3.6,0,5.4
		c0.4-0.1,0.8-0.1,1.2-0.2c0.2,0.2,0.4,0.4,0.6,0.6c-0.8,1.1-1.9,1.9-2.4,3.1c-0.9,2.3-2.1,4.8-1.1,7.3c-1.4,0.5-2.3-0.9-3-1.9
		c-0.8,0.5-1.6,1.1-2.4,1.5c0.8-2.1-0.1-4.3-0.5-6.4c-0.3-0.1-0.6-0.1-0.9-0.2c-0.2-1.2,0.4-2.5-0.1-3.6c-0.5,0.6-1,1.2-1.7,1.6
		c0-0.8-0.1-1.6,0-2.3c0.7-1,1.8-1.5,2.7-2.3c1.3,0.9,0.2,2.6,0.5,3.8c0.5,0.2,1,0.4,1.4,0.6c0.2,0.8,0.4,1.7,0.6,2.5
		c0.4-0.4,0.8-0.8,1.2-1.2c-0.6-0.5-1.4-1-1.5-1.8c0.1-0.8,0.8-1.2,1.3-1.8c0-1,0-2.1,0-3.1c-0.7,0-1.4,0-2.1,0
		c-0.3-1.4,1.3-2.1,1.9-3.1C125.5,94.4,125.5,93,126,91.6z"/>
	<path d="M22.5,99.6c0.4-1,0.8-2,1.7-2.6c0.2,1.1-0.5,2-1,2.9C23,99.8,22.7,99.7,22.5,99.6z"/>
	<path d="M119.3,104.6c0.8,0.7,1,1.8,1.3,2.8c0.3,0,0.5-0.1,0.8-0.1c0.6,2.3-0.5,4.7-0.9,7c-1.5-1.6-2.4-4-1.9-6.2
		C118.7,106.9,118.9,105.7,119.3,104.6z"/>
	<path d="M69.2,110c0.8-0.8,1.5-1.8,2.3-2.6c0.2,1,0.6,2.3-0.2,3.1c-1.3,1.4-3.5,2-5.4,1.5c0-0.5,0-1,0-1.6
		C67,110.2,68.2,110.5,69.2,110z"/>
	<path d="M115.3,110c0.2-1.1,1-1.8,1.9-2.4c0.4,1.4,0.8,2.7,1,4.2c-0.2,0.2-0.4,0.4-0.7,0.6c0,1.2,0.1,2.4-0.1,3.6
		c-0.3,0.1-0.7,0.2-1,0.3c-0.3,1.5-0.6,3-1.2,4.4c-0.6-0.6-1.2-1.5-1-2.4c0.3-2.2,1-4.3,1.4-6.4C115.8,111.2,115.4,110.6,115.3,110z
		"/>
	<path d="M51.1,116.2c0.4-1.6,2.1-1,3.3-0.9c0,0.4,0,0.7,0,1.1c-0.5,0.6-1.1,1.1-1.6,1.6C52.2,117.4,51.7,116.8,51.1,116.2z"/>
	<path d="M54.3,117.9c0-1.2,1.9-2.3,2.4-0.8C56.3,118,55.1,118.8,54.3,117.9z"/>
	<path d="M57.1,118.1c0.4,0.2,1.1,0.2,1.1,0.8c-0.1,1.3-0.7,2.6-1.4,3.6c-0.5,0.8-1.6,0-1.4-0.8C55.7,120.5,56.4,119.3,57.1,118.1z"
		/>
	<path d="M49.2,119.6c0.3-0.6,1-0.9,1.6-0.6c0.4,0.8,0,1.8-0.4,2.6c1.4,0,0.9,1.3,0.7,2.2c-0.4,0-0.9,0-1.3-0.1
		c0.1-0.4,0.1-0.8,0.2-1.2c-0.4,0.4-1.1,1.1-1.6,0.4C47.7,121.9,48.6,120.6,49.2,119.6z"/>
	<path d="M54.1,118.9c0.4,0.2,1,0.2,1.2,0.6c0.1,0.9-0.5,1.7-0.9,2.5c-0.4-0.3-1.1-0.4-1.2-1C53.1,120.2,53.7,119.6,54.1,118.9z"/>
	<path d="M63.4,119.2c1,0.1,2,0.1,3,0c0.7,1.8-0.8,3.5-0.3,5.3c0.1,0.8-0.6,1.2-1.1,1.6c-0.8-1.2-2.2-2.5-1.7-4
		C63.4,121.2,63.4,120.2,63.4,119.2z"/>
	<path d="M68,122.1c-0.7-1-0.3-2.6,1.1-2.6c0.2,0.2,0.3,0.4,0.5,0.6c0,0.7,0,1.4,0,2.1C69.1,122.4,68.4,122.7,68,122.1z"/>
	<path d="M59.5,120.1c0.4,0,0.8,0,1.2,0c0,1.9-0.7,3.7-1,5.6c-0.1,1.5-2.9,0.9-2.3-0.5C58,123.4,58.8,121.8,59.5,120.1z"/>
	<path d="M61.7,122.9c0.3,0,0.5,0.1,0.7,0.2c0.3,0.9,0.3,1.9,0,2.8c-0.6,0-1.2,0-1.8,0C60.3,124.8,60.9,123.7,61.7,122.9z"/>
	<path d="M50.3,127.5c-0.5-0.9,0-1.7,0.5-2.4c0.5,0.1,1,0.2,1.4,0.3C51.9,126.3,51.8,128.1,50.3,127.5z"/>
	<path d="M52.7,126.1c0.7-0.7,1.8-0.4,2.6,0c0.1,1.2-0.2,2.9-1.6,3.1C52.1,129.2,51.9,127.1,52.7,126.1z"/>
	<path d="M72.3,126.6c0.4,0,0.7,0,1.1,0c0,1.2,0,2.4,0,3.7c-0.8,0.2-1.4,0.7-1.9,1.3c-0.5,0.7-1.4,0.4-2,0.2c0-1,0-2,0-3.1
		c0.4-0.2,0.8-0.5,1.2-0.7c0.3,0.3,0.6,0.6,1,0.9C71.8,128.2,72,127.4,72.3,126.6z"/>
	<path d="M55.3,130c-0.1-1.1,0.7-2,1.3-2.8c0.2,0.1,0.4,0.2,0.6,0.3c-0.1,1.2,0.3,2.4-0.4,3.4C56.2,131,55.5,130.7,55.3,130z"/>
	<path d="M67.2,129.1c0.4-0.6,1.3-0.4,1.7,0c0,1-0.4,1.9-0.4,2.9c-0.5,0.1-1.3,0.3-1.6-0.3C66.7,130.9,66.8,129.9,67.2,129.1z"/>
	<path d="M62.3,132.2c-0.1-1,0.7-2.3,1.7-2.6c0.8,0.4,1.1,1.4,1.5,2.1C64.7,132.6,63.1,133.5,62.3,132.2z"/>
	<path d="M67.1,142.9c0.3-0.3,0.9-0.2,0.9,0.3c0,5.5-0.3,10.9,0.1,16.4c-1.4-0.1-2.9-0.1-4.3,0c0.3-4.5,0.3-8.9,0.2-13.4
		c-1,0.4-1.9,0.9-2.9,1.4c-0.4-0.5-0.7-1.1-1-1.6C62.4,145.2,64.8,144.1,67.1,142.9z"/>
	<path d="M75.8,143.9c2-0.9,4.5-0.9,6.4,0.1c2,1.1,2.8,3.4,2.9,5.5c0.2,3.1-0.6,6.4-3,8.5c-2.2,2-5.5,2.3-8.3,1.3
		c0.1-0.8,0.3-1.6,0.3-2.5c0.9,1.2,2.6,1.9,4,1.2c2.2-1.1,2.6-3.7,2.7-5.9c-2.1,1.7-5.9,1.6-7.3-0.9
		C72.3,148.8,73.1,145.1,75.8,143.9 M78.4,144.6c-1,0.4-1.1,1.6-1.2,2.5c-0.1,1.2-0.2,2.6,0.4,3.7c0.6,1.1,2.5,1,2.9-0.2
		c0.5-1.5,0.4-3.1,0.1-4.6C80.4,145.1,79.4,144.2,78.4,144.6z"/>
	<path d="M106.4,143.3c1.3,0.1,2.5,0.1,3.8,0c-0.2,3.2-0.2,6.4-0.2,9.7c0.7,0,1.4-0.1,2-0.2c-0.1,1-0.1,2,0,3.1
		c-0.7-0.1-1.4-0.1-2.1-0.2c0,1.3,0,2.6,0.2,4c-1.3-0.1-2.6-0.1-3.9,0c0.1-1.3,0.2-2.6,0.2-3.9c-2.1-0.1-4.2,0-6.4,0.2
		c0.1-1.1-0.2-2.2,0.1-3.2C102.4,149.6,104.5,146.5,106.4,143.3 M102,152.9c1.5,0,3,0,4.5,0c0-2.3,0-4.5,0-6.8
		C105,148.4,103.5,150.7,102,152.9z"/>
	<path d="M90.7,143.5c2-0.4,4.5-0.4,6.1,1.1c1.5,1.5,1.7,3.8,1.8,5.8c0.1,2.5,0.1,5.2-1.3,7.4c-1.7,2.5-5.4,2.7-8,1.4
		c-2.7-1.7-2.7-5.3-2.7-8.1C86.6,148.2,87.4,144.3,90.7,143.5 M91.9,144.8c-0.9,0.5-1,1.7-1.2,2.7c-0.2,2.4-0.2,4.8-0.1,7.2
		c0.1,1.1,0.1,2.4,0.8,3.3c0.7,0.9,2.3,0.5,2.6-0.5c0.8-2.2,0.5-4.5,0.6-6.8c-0.1-1.7,0.1-3.5-0.6-5.2
		C93.7,144.8,92.7,144.5,91.9,144.8z"/>
</g>
<g id="_x23_f5a12dff">
	<path class="st2" d="M10.1,9.6c50.2,0,100.3,0,150.5,0c0,34.3,0,68.5,0,102.8c0,4,0.1,8.1-0.3,12.1c-0.6,6.8-2.4,13.6-5.7,19.6
		c-3,5.5-7.3,10.2-12.2,14.1c-9.4,7.3-20.6,11.8-31.5,16.4c-8.9,3.8-18,7.6-25.5,13.7c-5-4.1-10.7-7.1-16.6-9.8
		c-10.9-5-22.3-9-32.7-15c-6.2-3.7-12.1-8.2-16.5-14c-5.4-7-8.3-15.7-9.1-24.5c-0.5-4.3-0.3-8.6-0.4-12.9
		C10.1,77.8,10.1,43.7,10.1,9.6 M73.7,25.5c1.8,0.5,3.8,0,5.6,0.5c2.2,0.5,4.3,1.3,6.6,1.8c0.8,0.7,1.6,1.4,2.5,2.1
		c-1.2,0.1-3.1-0.3-3.5,1.2c1.5,1.2,3.1,2.2,4.7,3.2c-0.6,0.3-1.1,0.7-1.5,1.2c1.1,0.8,2.3,1.4,3.4,2.1c-0.3,0.4-0.6,0.8-0.9,1.2
		c1.4,1.2,3.4,0.6,5,1.4c0.5,0.3,1.1,0.2,1.6,0c-0.3-0.5-0.6-1-1-1.5c0-0.7,0.2-1.5-0.4-2c-0.8-0.6-0.6-1.8-1.2-2.6
		c-0.1-1.6-1-3.2-2.4-4c-0.9-0.4-1.8-0.3-2.7-0.8c0.3-0.6,0.5-1.3,0.7-2c0.5-0.4,1.2-0.2,1.9-0.3c1.9,0.1,3.9,0.1,5.7-0.5
		c-0.3-0.5-0.7-1-1.1-1.4c-5.6,0.2-11.1-0.9-16.7-1.3C77.9,23.8,75.4,23.8,73.7,25.5 M70.1,25.8c-5.7,1.5-11.1,4-15.8,7.5
		c0.1,0.3,0.3,0.5,0.4,0.8c3,0.3,4.7-2.8,7.6-3c0.9,0,1.3-1,2.2-1c1.9-0.3,4-0.1,5.8-1c1.1-0.7,1.4-2.1,1.9-3.2
		C71.4,25.6,70.7,25.5,70.1,25.8 M98.8,25.9c0.2,0.7,0.3,1.3,0.5,2c1.6,0.7,3.3,1.2,4.8,1.9c-0.2,0.2-0.4,0.3-0.6,0.5
		c0.6,2.1,2.9,3.7,2.4,6.1c1.2,0,2.6-0.1,3.4,0.9c-0.9,0.6-1.8,1.4-2.9,1.7c-1-0.5-2-0.9-3-1.3c-1.3-0.8-2.5-1.7-4-2
		c0,0.8,0.1,1.5,0.2,2.3c-0.8,0.3-1.7,0.5-2.5,0.9c0.9,0.6,2,1,2.8,1.7c0.5,0.9,0.9,1.8,1.2,2.8c-1-0.3-2.2-0.7-2.8-1.7
		c-0.9-1.5-2.8-0.4-3.9,0.3c-0.1,1.3-0.8,2.3-1.4,3.4c-0.6,1-0.6,2.2-0.8,3.4c-0.7-0.9-1.4-2-2.6-2.3c-1,0-2.2,0.3-2.9,1
		c0.4,0.6,0.9,1.1,1.2,1.8c-0.1,1.5-1.4,2.7-2.6,3.4c-2,1.1-3.9-0.7-5.7-1.3c-0.4-0.7-1-1.2-1.6-1.7c-1.3-1.5-3.1,0-4.5,0.4
		c-0.8,0.4-1.6-0.7-2.4-0.2c-2.8,1.3-2.8,5.5-6,6.4c-0.1,0.7,0.1,1.8-0.8,2.1c-1.9,0.9-3.6-0.5-5.4-0.9c-1.3-0.1-2.5,0.4-3.6,1.2
		c2.4,1.2,5.3,1.2,7.7,2.6c-0.2,0.3-0.4,0.5-0.5,0.8c-1.6-0.1-3.3,0.2-4.8-0.3c-1.2-0.5-2.5-0.3-3.7,0.1c-0.2,0.9-0.9,1.6-1.8,1.8
		c-0.1-0.5-0.2-0.9-0.3-1.4c-0.9,1.1-2,2.2-2.5,3.6c-0.2,0.9,0.8,0.8,1.3,0.9c-0.6,0.9-1.5,1.4-2.3,2c-0.3-0.6-0.6-1.2-1-1.7
		c-0.8,0.3-1.6,0.4-2.4,0.8c-1.3,1.5-2.4,3.1-3.3,4.8c0.3,0.5,0.8,0.5,1.3,0.5c0.8-0.9,1-2.6,2.4-2.6c-0.3,0.9-1.2,1.5-1.6,2.4
		c-0.6,1.2-1.7,2-3.1,1.7c-0.1-0.8,0-1.7,0.5-2.4c0.7-1.2,0-2.8,0.9-3.9c0.2,0.5,0.3,1.1,0.4,1.6c1.4-0.7,2.1-2.1,2.9-3.4
		c0.5-1,1.8-0.3,2.5-0.9c0.4-0.4,0.1-1.1-0.2-1.5c0.6-0.1,1.3,0,1.8-0.4c0.7-0.6,0.5-1.6,1.2-2.2c1.2-0.6,2.6-0.3,3.6-1.2
		c0.5-0.5,0.3-1.1,0.2-1.7c-0.9,0-1.8,0.1-2.7,0.1c0.4-1.7,1.7-2.9,2.8-4.2c0.3,0.6,0.4,1.7,1.3,1.7c1.3-0.3,2.1-1.4,3.4-1.7
		c0.8,0.1,1.6,1,2.4,0.4c0.8-0.7,1.9-1,2.9-1.3c0.8-0.7,1.5-1.6,1.9-2.7c-0.1-1.1-0.6-2.2-1-3.2c-0.8,0.3-1.4,0.9-1.5,1.7
		c-0.2,1-1.7,1.4-1.4,2.5c0.4,0.1,0.9,0.2,1.3,0.2c-0.2,0.3-0.4,0.5-0.6,0.7c-2.1,0.1-4.4-0.4-6.1,1c0.3-0.5,0.6-1,0.8-1.4
		c-0.4-0.1-0.7-0.2-1.1-0.3c0.6-0.8,1.2-1.6,1.6-2.5c0.3-0.6-0.1-1.4,0.2-2c0.3-0.9,0.8-1.7,0.5-2.7c-1.1,1-2,2.1-2.9,3.3
		c-1.3,1.6-1.3,3.8-2.9,5.1c-0.2-1.6,0.6-2.9,1.7-4c1.2-1.3,1.1-3.3,2.3-4.6c0.6-0.7,1.6-0.7,2.3-1.2c0.6-0.7,1-1.5,1-2.4
		c0-0.6-0.7-0.7-1.2-0.7c-0.4,0.4-0.7,0.8-1.2,1.2c0.3-1.1,1.2-2.2,0.7-3.4c-1.1,0.3-2.3,0.7-3.1,1.6c-0.6,0.7-0.5,1.7-1,2.4
		c-0.5,0.6-1.1,0.9-1.6,1.5c-0.4,0.6,0.7,0.9,0.5,1.5c-0.4,1-1.2,1.8-1.9,2.5c0-0.7,0.1-1.3,0.2-2c-0.2-0.1-0.3-0.1-0.5-0.2
		c-0.4,0.2-0.9,0.3-1.3,0.4c0.4-0.7,1-1.4,1.4-2.1c0.4-0.8-0.2-1.9,0.7-2.5c0.7-0.5,0.9-1.3,0.9-2.1c-0.4-0.1-0.9-0.4-1.2,0
		c-1.7,1.7-2.9,3.9-3.9,6.1c-0.5,0.9,0.3,1.9,0.5,2.8c-0.5,0.1-1.2,0.3-1.7-0.1c-0.4-0.5-0.4-1.3-1-1.8c-0.8-0.5-1.7-0.1-2.5,0.1
		c-0.8,0.3-1.8,0.4-2.4,1l0.1-0.2c-0.2,0.1-0.5,0.2-0.7,0.3c0.1-0.3,0.2-0.6,0.3-1c-0.3,0-0.5,0-0.8,0c-0.2,1.2-1.2,2-2,2.9
		c-1.5,2.6-2.1,5.6-1.5,8.6c0.4,2.6,0.2,5.8-2,7.5c-2-1.3-3.9-3.5-6.5-3.5c1.7,1.3,3.6,2.2,5.2,3.6c0.4,0.4,0.8,0.8,0.9,1.3
		c-0.2,0.7-0.9,1.4-1.6,1.5c-1.6-0.8-2.7-2.2-4.2-3.3c-0.1,0.1-0.2,0.4-0.3,0.5c0.2,0.4,0.4,0.8,0.5,1.3c-3,0.6-6-0.7-9-0.3
		c-1.7,0.3-3.4,0.6-5.1,1.1c5-0.4,10.2-0.5,14.9,1.4c-1,0.1-2.1-0.1-2.7,0.9c1.4,0.1,2.7-0.1,4.1,0.1c1.2,0.4,1.1,1.9,0.5,2.8
		c-1.9-0.8-3.8-1.5-5.7-2.2c0.2-0.3,0.4-0.6,0.6-0.9c-1.5-0.6-3.1,0.5-4.6,0.2c-2.1-0.2-4.6-1-6.3,0.7c1.5,0,3-0.2,4.5,0
		c-0.4,0.2-0.9,0.4-1.3,0.7c1.9,0.1,3.8-0.7,5.7-0.1c2.1,0.6,4.2,1.3,6.2,2.3c0.5,0.3,1.1,0.5,1.1,1.1c0.5,2.6,0.9,5.1,1.2,7.7
		c0.1,0.8-0.1,1.5-0.6,2.2c-1.2,1.8-3.1,3-4.5,4.6c-1.2,1.4-1.7,3.2-2.3,5c2.1-2.7,3.7-5.7,6.4-7.8c0.6-0.5,1.7-1,2.4-0.3
		c0.5,0.7-0.4,1.3-0.8,1.8c-0.9,1.3-2.8,2.2-2.8,3.9c0.3,0,0.6,0,0.9,0c1.2-1.2,2.4-2.3,3.6-3.4c0.2,0.3,0.3,0.5,0.5,0.8
		c-1.2,1.8-2.3,3.6-3,5.6c-0.3,0.7-0.2,1.4,0,2c0.4,0,0.7,0,1.1,0c0.8-1.9,1.1-4,2.3-5.8c0.5-0.9,1.4-1.4,2.2-2.1l-0.1,0.2
		c0.3,0.3,0.5,0.7,0.8,1l0.1,0c0.6,0.7,1.4,1.3,2.1,1.8c0.2,3.5,4,6.2,7.3,5.6C48,95.7,47.4,94.4,47,93c-0.2-0.6-0.3-1.3,0.1-1.8
		c0.6-0.2,1.3,0,1.9-0.3c0.4-0.3,0.6-0.8,0.9-1.2c-0.1,0.6-0.3,1.1-0.5,1.7c0.8,0.7,1.9,1.1,2.1,2.2c0.6,2.4,1.2,4.8,0.7,7.3
		c0,0.8-0.7,1.3-1.3,1.7c0-0.2-0.1-0.4-0.2-0.6c-0.3,0-0.6-0.1-1-0.1c0.4,0,0.8,0,1.2-0.1c0-0.3,0-0.5,0-0.8
		c-0.6-0.7-1.6-1.6-2.6-0.9c-1.1,1.1-0.7,2.9-0.1,4.1c0.6,1.5,2,2.6,2.5,4.1c-0.1,1.4-1.5,2.7-0.9,4.1c1.1-0.2,1.5-1.2,1.6-2.2
		c0.4,0.6,1.2,1.4,0.4,2.1c-0.6,0.6-0.3,1.6,0.7,1.4c0.3-0.3,0.6-0.5,0.9-0.8c0.4,0.4,0.7,0.9,1,1.3c1,0,1.9,0.2,2.8,0.4
		c0.3,1.2,1.4,1.7,2.5,1.9c-0.7,0.6-0.6,1.6-0.6,2.5c0.5,0.2,1.4,0.5,1.6-0.3c0.2-1-0.2-2.2,0.9-2.8c1.1,1,2.5,1.4,4,1.7
		c0.9,0.2,1.5-0.9,2.5-0.6c0.9-0.1,0.7,1.2,1.6,1.3c1.7,0.2,2.9,2.1,4.7,1.7c2.3,0.1,4.4-1.9,4.5-4.1c-0.6-0.3-1.3-0.1-1.8,0.2
		c0.4-1,0.7-2,1-3c0.4,0.5,0.9,0.9,1.4,1.2c0.4-0.7,0.8-1.5,0.7-2.3c-0.1-0.8-0.6-1.7-0.3-2.5c0.5-1.2,1.5-2.2,2-3.4
		c-0.4-0.3-0.8-0.7-1.2-1c0.6-0.6,1.4-1.1,1.9-1.8c0.3-0.7-0.1-1.5,0.5-2.1c0.5-0.5,0.8-1.1,0.7-1.7c-0.4,0-0.8-0.1-1.1-0.1
		c0.5-0.3,1.2-0.5,1.4-1.1c0.3-1.1,0.8-2.1,1-3.2c-0.1-0.9-0.9-1.5-1.1-2.4c0.1-0.6,0.7-1.3,0.3-2c-0.6-0.5-1.3-0.8-2-1.2
		c0.4-0.6,0.6-1.3,0.8-2l-0.2,0.1c0.1,0,0.2-0.1,0.3-0.2c0.1-0.7,0.2-1.5,0.4-2.2c0.3,0,0.7,0,1,0.1c-0.2,1.2,0.2,2.4,0.6,3.6
		c0.1,2-0.1,4,0.1,5.9c0.3,0,0.7,0,1,0c0.3-0.3,0.6-0.6,0.9-0.8c0.4,1.2,0.8,2.4,0.3,3.6c-0.3,0.9-1.1,1.5-1.5,2.3
		c-0.2,0.6,0.8,0.9,0.5,1.5c-0.4,1.2-1.2,2.3-1.5,3.5c0.4,0.6,1.1,1,1.7,1.4c0.6,1.6,0.2,4.2-1.7,4.6c-0.1-0.8-0.4-2-1.4-2
		c-1.6,1.6-2.5,3.7-3.5,5.7c-0.4,0.9-1,1.8-0.6,2.8c0.3,0,0.6,0,0.9,0c0.5-1.2,0.8-2.6,1.8-3.6c0.4-0.4,0.9-0.3,1.4-0.2
		c0.4,1.7-0.9,4.2,0.9,5.4c0.3-0.5,0.6-1.1,0.9-1.6c1.1,2,0.9,4.3,0.9,6.5c0.4,0,0.8,0,1.2,0c-0.1-1.9,0.7-3.7,1.3-5.4
		c0.5,0.7,1,1.3,1.1,2.2c-0.2,1-1.3,1.8-0.7,2.9c0.3,1.1,1.7,0.5,2.3-0.1c0.6,1.5,0.8,3.3,2.1,4.4c0.1-0.6,0.1-1.2,0.2-1.8
		c0.4-0.3,0.9-0.2,1.4-0.2c0.1-1.7-0.1-3.5,0-5.2c0-0.3,0.3-0.5,0.5-0.7c0.2,0.4,0.4,0.7,0.4,1.1c0.1,2.1,0.1,4.2,0.3,6.3
		c-0.5,0.4-1.1,0.8-1.2,1.5c-0.2,0.9,0.5,2.1,1.5,1.7c0.4-0.4,0.2-1.1,0.3-1.7c0.7,0.5,2.1,1.5,2.7,0.2c0.2-1.8-0.8-3.5-0.5-5.3
		c0.6,1.3,1,2.8,1.1,4.2c1.8,0.2,1.9,2.9,0.7,3.8c-0.6,0.4-0.7,1.3-0.8,2c1.3-0.1,2.6-0.4,3.8-0.9c0.2-0.4,0.3-0.9,0.5-1.3
		c0.4,0,0.9,0.1,1.3,0.1c0.6-0.5,1.3-0.9,2-1.3c0.6-1.7,0.1-3.5,0-5.2c-0.4-3.1,0.1-6.4-1.2-9.3c-0.4,0-0.8,0-1.1,0
		c-0.6,1.6-1.1,3.2-1.3,4.9c0.2,1.7,1,3.7-0.3,5.1c-0.2-1.8-0.1-3.6,0-5.4c-0.7-0.1-1.5-0.4-1.6-1.2c-0.2-0.8-0.1-2.1-1.1-2.3
		c-0.7,1-1.1,2.1-1.7,3.2c-0.1-0.1-0.3-0.3-0.4-0.4c0.1-1.4,0.8-3.3-0.5-4.4c-0.3,0.3-0.7,0.6-1,0.9c-0.3-1.3-1-2.5-1.1-3.9
		c0.7,0.2,1.5,0.7,2.2,0.2c1-0.9,1.2-2.4,1.7-3.6c0.8,1.6,0.4,4.6,2.9,4.5c-0.1,1.1-0.2,2.1,0,3.2c0.4,0,0.7,0,1.1,0
		c0.2-0.6,0.4-1.1,0.5-1.7c0.8-0.4,1.6-1,2.6-1.1c0.1,1.2-0.2,2.4-0.1,3.6c0.1,0.9,0.9,1.4,1.3,2.1c0.1,1.5-0.4,3-0.4,4.5
		c0.1,0.9,0.7,1.7,0.6,2.6c-0.1,1.5-0.3,3-0.4,4.5c0.2,0.1,0.5,0.1,0.7,0.2c0.2-0.2,0.5-0.3,0.7-0.5c0.1-1.4,0.2-2.9,0.8-4.2
		c1-1.8-1.4-3.8-0.2-5.6c0.6,0.1,0.9,0.9,1.3,1.3c0.8,0.8-0.7,1.6-0.3,2.5c0.6,1.5,0,3.2-0.5,4.7c0,0.7,0.7,1.1,1.2,1.5
		c0.3-1.2,0.2-2.7,1.6-3.1c1.6-3.4,3.8-6.6,5.4-10.1c0.5-1.2,1.1-2.3,1.1-3.6c-0.1-0.6-0.9-0.4-1.2,0c-2.2,2.3-3.2,5.3-4.6,8.1
		c-0.6-1.1-1.3-2.2-1.7-3.4c-0.7-2.2-0.5-4.6-0.7-6.9c-0.1-1.4,0.1-2.8,0.3-4.2c0,0.9,0.1,1.7,0,2.6c0.4,0,0.7,0,1.1,0
		c1-1.1,0.1-3.4,1.9-3.9c0.3-0.8,0.5-1.6,0.8-2.4c0.6-0.2,1.3-0.4,1.4-1.1c0.3-1.2,1.3-2.2,1.1-3.4c2-0.8,3.4-3.2,3-5.4
		c0.2,0.6,0.4,1.2,0.6,1.7c1.1-0.2,1.5-1.3,1.7-2.2c0-0.5-0.5-1-0.4-1.6c0.4-1.5,1-3,1.5-4.5c0.5,0.9,1,1.8,1.9,2.4
		c-0.1-1.3,0-2.6,1.1-3.5c0.5,1.5,0.3,3.2,0.1,4.8c-0.1,1.2-1,2.7,0,3.8c0.6-0.5,1.2-1,1.7-1.5c0.8,1.3-0.1,3.5,1.8,4.1
		c0,1.6,0,3.2,0,4.9c0,0.4,0.3,0.5,0.5,0.7c0.3,1.5,0.2,3.4,1.8,4.2c-0.3-1.9-0.8-3.9-0.4-5.8c0.5-3.2-0.1-6.4,0.4-9.6
		c0.1-5-1.3-10-2.9-14.7c-0.1-0.6-0.6-0.8-1.1-1c-0.1,0.9-0.6,1.9,0.1,2.6c0.6,0.6-0.2,1.3-0.3,2c0,1.2,0.3,2.5,0,3.7
		c-0.1,0.5-0.8,0.4-1.2,0.5c0-1-0.3-2.2,0.4-3.1c0.5-0.6-0.4-1.2-0.8-1.6c-0.9,1.4-0.9,3-1.1,4.6c-0.5,0-1,0-1.4,0
		c-0.6-0.7-0.9-1.5-0.8-2.4c0-2.7-0.4-5.4-0.1-8.1c0.1-1.5,2.3-1.5,2.3-3c-0.3-1.3-1.1-2.5-1.6-3.7c-1.2,1-0.4,2.7-1,4
		c-0.7-1.2-0.9-2.6-1.3-3.9c-0.9,0.2-1.8,0.2-2.5-0.5c-0.7,0.9-1.5,2-1.6,3.2c-0.1,1.2,0.7,2.2,0.8,3.3c0,0.8-0.7,1.5-0.6,2.4
		c0.1,1.6,0.5,3.2,0.6,4.8c0.1,0.4-0.2,0.7-0.5,1.1c-1.1-1.4-0.3-3.3-0.4-4.9c-0.7,0-2-0.7-2.3,0.2c0.3,2,0.9,4.3-0.3,6.1
		c-2.1,0-2,2.5-2.4,4c-0.6,0-1.1,0-1.7,0c-0.1-0.1-0.3-0.3-0.3-0.3c0-0.3-0.1-0.6-0.1-1c1-0.4,1.6-1.4,1.3-2.4
		c-0.2-0.7-0.4-1.4-0.3-2.2c0.2,0.2,0.4,0.5,0.5,0.7c0.7,0,1.3-0.4,1.4-1.1c0-1.1-0.6-2.1-0.6-3.2c0.3-1.3,1-2.5,1-3.9
		c0-1.3-0.1-2.7,0.7-3.8c0.7,0.3,1.5,0.5,2.2,0.2c-0.4-0.7-0.8-1.6-1.6-1.8c-0.9-0.2-1.7-1-2.7-0.8c-0.5,0.8-1.1,1.5-1.5,2.3
		c0,1.1,0.6,2.1,0.6,3.2c0,1.2-0.1,2.4-0.3,3.6c-0.8-1.8-0.9-3.7-0.6-5.6c0.2-1.2-0.9-2.1-1-3.2c0.7-1.3,2.2-3,3.8-2
		c1.3,0.4,2.6,1.6,4.1,1.2c-0.6-1.6-2.1-2.3-3.4-3.1c-1-0.5-1.3-1.7-1.2-2.7c1.1,1.1,1.8,3.3,3.7,3c0-0.5,0-1-0.3-1.3
		c-1-1.4-1.8-2.9-2.6-4.4c-0.5-1-1.8-1-2.7-1.4c0.5-0.2,1-0.5,1.5-0.7c-0.9-0.7-1.9-1.4-2.6-2.3c-0.6-0.8,0-1.8,0.1-2.7
		c-0.7-0.4-1.4,0-2,0.5c-0.1-0.2-0.1-0.5-0.2-0.7c0.6-0.2,1.1-0.5,1.7-0.8c0.9,1.4,1.8,2.8,2.7,4.1c0.4-0.3,0.9-0.7,1.3-1
		c-0.3-0.4-0.5-0.8-0.8-1.2c0.2-0.2,0.4-0.4,0.6-0.7c-0.7-2-1.8-3.8-2.8-5.7c-0.3-0.7-1.1-0.9-1.8-1.3c0.9-0.1,1.9,0,2.8,0
		c0.9-1.2,2.4-1.2,3.7-0.9c1,0.5,1.7,1.6,2.8,1.6c1.4,0,2.2,1.4,3.6,1.5c1.3,0.1,2.6-0.4,3.8,0.1c0.6,0.7,0.7,2,1.8,2.2
		c1.1,0.3,2.3,0.5,3.1,1.5c-0.6,0.1-1.3,0.2-1.9,0.3c1.3,0.7,2.6,1.4,3.9,2.1c-1,0.3-1.5,1.2-1.9,2.2c-1.6,0.2-3,2.8-1.4,3.8
		c0.8,0.6,1.4,1.6,2.5,1.5c-0.1-0.6-0.4-1.4,0-1.9c0.5-0.6,1.1-1,1.7-1.5c0.4,0.8,0.8,1.7,0.7,2.6c-0.1,2.7,0.7,5.6-0.3,8.2
		c-0.6-0.9-0.7-2.1-1.2-3.1c-0.4,0.1-0.9,0.2-1.3,0.2c0.4,1.4,1.2,2.7,1.3,4.2c-0.9-1.1-2.3-0.1-2.8,0.9c-0.5,1.5-0.7,3-0.7,4.6
		c2.5,1.4,2.2,4.6,3.1,6.9c0.1-0.1,0.3-0.2,0.4-0.3c-0.3-1.1-0.5-2.7,1-3c0.1,0.1,0.3,0.3,0.5,0.4c-0.5,1.5-1.3,3.1-0.4,4.7
		c0.2-0.1,0.4-0.2,0.5-0.3c0.3,0.8,0.6,1.7,0.7,2.5c0.2,1-0.3,2.1,0.1,3.1c0.3,0.7,1,1.3,1.7,1.6c0.9,0.6,1.8-0.3,2.2-1
		c0.3-0.9,0.1-1.8,0.1-2.7c-0.7,0-1.2,0.3-1.7,0.7c-1.1-2.1-0.5-4.7-0.5-7c0.7,0,1.4-0.3,2-0.7c0.7,1.2,0.5,2.6,0.9,3.8
		c0.3,0.8,1.1,1.1,1.8,1.4c-0.2-1.7-0.6-3.5-1.1-5.2c-0.4-1.6,0.6-3.4-0.5-4.8c0.2-0.2,0.4-0.5,0.6-0.7c0.5,0.7,1.3,1,2.2,0.9
		c-0.5-1.2-1.1-2.6-2.4-3.1c-0.2,0.2-0.3,0.4-0.5,0.6c-1-0.5-1.5-1.4-2.1-2.2c0.2-0.1,0.5-0.2,0.7-0.3c0.5,0.5,1,1.7,1.8,1.2
		c0.9-0.6,1.9-0.5,2.9-0.7c-0.7-1.2-1.6-2.3-2.6-3.4c0.5-0.3,0.9-0.7,1.3-1.1c-0.4-0.3-0.7-0.7-1.1-1c0.4,0,0.9-0.1,1.3-0.1
		c-0.3-0.5-0.5-1-0.8-1.4c0.2-0.3,0.4-0.6,0.6-1c-1.2-0.9-2.5-1.7-3.5-2.8c1,0.2,2,0.7,3.1,0.3c-0.4-0.5-0.8-1.1-1.1-1.6
		c0.7,0.2,1.4,0.4,2.1,0c-0.8-0.7-1.4-1.6-1.3-2.7c-1.1-0.6-2.3-1.1-3.4-1.7c0.6-0.7,1.1-1.3,1.7-2c1.5,0.4,3,0.9,4.4,1.6
		c-0.4,0.1-0.9,0.2-1.3,0.4c0.1,1.7,2.2,2.3,3.3,3.4c-0.6,0.5-1.3,0.9-2,1.3c0.1,1,0.8,1.7,1.3,2.5c0.9,1.1,1.7,2.7,3.3,2.4
		c-0.3-0.7-0.6-1.4-1.1-2c0.1-0.1,0.2-0.2,0.3-0.3c1.3,0.9,2.5,2.1,3.9,2.9c0.8,0.5,1.9,0.9,2.8,0.3c-1-0.7-2-1.4-2.9-2.4
		c0.3-0.2,0.6-0.5,0.9-0.7c-0.9-1.1-1.9-2.2-3-3.1c0.2-0.2,0.4-0.5,0.6-0.7c-0.7-0.8-1.5-1.6-2.4-2.3c1.4,0,0.9-1.8,0.5-2.6
		c-1.6-2.6-3.9-4.7-5.9-7c-0.2-0.3-0.5-0.6-0.4-1c0-2.3,0.2-4.5,0.2-6.8c-0.1-2.1-0.7-4.4-2.4-5.7c-1.3-1-3.2-1.1-4.8-0.8
		c-5.1,0.9-9.8,2.9-14.8,4.1c-2.3,0.6-4-1.5-5.2-3.2c1.5,0.4,2.9,1,4.5,1.3c0.7,0.2,1.2-0.5,1.7-0.9c-1.8-0.9-3.6-1.7-5.4-2.5
		c-0.9-0.5-2-0.3-2.9-0.8c-1.1-0.6-2.2-1.4-3.4-1.8C106.6,27.7,102.8,26.4,98.8,25.9 M75.8,27.5c-0.5,0.2-1,0.6-1.5,0.9
		c-0.5,0-0.9-0.5-1.3-0.4c-0.9,0.4-1.4,1.5-2.4,1.6c-1.6,0.1-3.1,0.9-4.2,2c-1.6,0.1-3.3-0.2-4.9,0.2c0,1-0.6,1.7-1.3,2.3
		C59.5,34.8,60,36.3,61,36c2.1-0.6,3.9-1.9,5.9-2.9c1.4-0.6,3.1-0.3,4.3-1.3c1-0.9,2.5,0.3,3.6-0.6c1.7-1.3,4.3-0.6,5.6-2.5
		c-0.8-0.6-1.8-0.5-2.7-0.2C76.8,28.9,76.5,27.6,75.8,27.5 M94.2,28c-0.1,0.3-0.2,0.7-0.3,1c0.3,0.5,0.7,1,1.2,1.3
		c1.9,1.2,2.7,3.4,4.1,5.1c1.4-0.4,2.5,0.7,3.8,1.2c0.9,0.3,1.5-0.6,1.7-1.4c-2-0.7-2.7-2.7-3.8-4.2c-0.7-1-1.9-1.2-2.8-1.7
		c-0.1-0.4-0.2-0.9-0.3-1.3C96.5,28,95.4,28,94.2,28 M76.5,33.8c-1.5,0.5-3.1,1-4.3,2c0.5,1.4,2,0.7,3.1,1c-0.5,0.5-0.9,1-1.3,1.6
		c0.2,0.1,0.4,0.2,0.6,0.3c1.5-0.4,3-1.4,4.6-0.9c2.1,0.7,3.2,2.9,5.2,3.8c0.9,0.5,1.7-0.1,2.5-0.5c0.3-1.2-0.9-1.4-1.7-1.7
		c0.3-1,0.1-2.1-0.9-2.6c0-0.8,0.3-2.1-0.7-2.5c-1.1-0.2-2.2,0-3.3,0c0.1-0.5,0.3-1,0.4-1.4C79.3,32.9,77.9,33.4,76.5,33.8
		 M55.1,37.7c0.7-0.2,1.4-0.5,2.2-0.7c0.4,0.3,0.7,0.9,1.3,0.6c1.1-0.4,0.9-1.8,1.1-2.7c-0.2-0.2-0.4-0.4-0.5-0.5
		C57.4,35,55.7,36,55.1,37.7 M48.1,36.6c-1.5,1.5-2.7,3.2-4.1,4.8c1.3,0.9,2.8,2.6,4.5,1.4c0-1.2-0.4-2.5,0.3-3.7
		c0.4-0.9,1.4-1.8,0.9-2.9C49.2,36.3,48.5,36.1,48.1,36.6 M60.3,39.2c-0.1,0.6,0.6,0.5,1,0.6c1-0.9,2.3-1.8,2.5-3.3
		C62,36,60.7,37.6,60.3,39.2 M67.6,39.8c-0.9,0.1-1.1,1.1-1.6,1.7c-1.2-0.5-2.2-1.8-3.5-1.1c0,0.3,0,0.6,0,0.9
		c0.3,0.3,0.8,0.6,0.5,1.1c-0.7,1.1-1.7,1.9-2.5,2.9c0.6,1,1.9,0.5,2.9,0.7c-0.3,0.9-1.5,2.2-0.4,3c0.6-0.4,1.2-0.9,1.7-1.5
		c0.5-0.6,1.4-0.5,1.8-1.1c1.5-2.2,3-4.4,4.1-6.8c0.4-0.6-0.2-1.2-0.6-1.6C69.2,38.5,68.8,39.7,67.6,39.8 M74.3,39.7
		c-0.9,1.6-1.7,3.4-2.4,5.2c-0.4,0.8-0.3,1.6-0.3,2.4c1.6,0.3,2.3-1.3,2.8-2.5c0.7-1.6,2.7-1.5,4.1-2c1.7-0.2,1.7-3,0.1-3.5
		C77.3,38.9,75.6,38.9,74.3,39.7 M87,40.3c1.1,0.1,2.2,0.2,3.3,0.3c0.2-0.3,0.4-0.7,0.5-1C89.6,38.4,88.1,39.6,87,40.3 M79.6,45.5
		c-0.7,0.3-1.5,0.7-1.3,1.6c1.9,1,3.7,2,5.7,2.8c0.9,0.4,1.7-0.4,1.7-1.3c0.1-1.2,0-3-1.4-3.4C82.7,45.1,81,44.6,79.6,45.5
		 M113.3,49c0.8,0.9,1.5,2,2.2,3c0.8,0.1,1.9-0.2,2.3,0.6c0.3,0.9-0.6,1.5-1.3,1.8c-0.7,0.2-0.6,1.1-0.5,1.6c-0.8,1.1,0.4,2.1,0.8,3
		c0.8,2.1,0.9,4.4,1.2,6.6c0.2,1.1,1.3,2.1,2.3,1.5c0.2-1.1-0.7-1.7-1.4-2.5c1.2,0.2,1.9,1.4,2.3,2.5c0.3,1,1.5,1.3,2.4,1
		c0.2-1.4,0.7-3.1-0.3-4.2c-0.8-1-1.5-2.5-3-2.4c-0.1,0.3-0.3,0.6-0.4,0.9c-1.4-0.3-1.1-1.8-1.3-2.8c0.5,0,1.1-0.1,1.6-0.2
		c0-0.9,0.1-1.9,0.2-2.8c-0.6,0-1.1,0.1-1.7,0.1c0.6-1,1.3-2.1,1.8-3.2c0.6-1.1,0.3-2.5,0.3-3.7c-0.4-0.3-0.8-0.5-1.2-0.7
		c-0.5,0.5-0.6,1.1-0.6,1.7c-0.7-1-2,0.1-2.8-0.7c-0.3-0.2-0.3-0.6-0.4-0.9c0.5-0.1,1.1-0.2,1.6-0.3c-0.7-0.9-1.5-1.8-2.5-2.4
		C114.4,47.3,113.9,48.1,113.3,49 M59.7,50.8c1.3-0.2,1.8-1.5,1.5-2.7C60.1,48.7,59.4,49.6,59.7,50.8 M126.3,53.7
		c-0.1,0.9,0.3,2,1.3,2.1c1.1,0,1.9-1.1,2.2-2.1C128.7,53.6,127.3,52.7,126.3,53.7 M123.7,57.5c-1,1.4,0.4,2.8,1.2,4
		c0.3,0,0.7,0,1,0C126.6,59.7,125.4,57.8,123.7,57.5 M14.6,60c0.9,0.9,2.2,0.9,3.4,1C17.3,59.7,15.8,59.9,14.6,60 M19.6,61
		c0.8,1,2,1.3,3.1,1.8c1.7,0.8,3.3,1.7,5,2.4C25.6,62.9,22.6,61.5,19.6,61 M130.1,62.7c-0.1,0.7-0.2,1.4-0.3,2.1
		c0.6,0.7,1.2,1.6,2.2,1.6c0.6,0,0.6-0.7,0.3-1.1C131.6,64.4,130.9,63.6,130.1,62.7 M144,64.1c-0.1,0.9,0,1.8,0.8,2.4
		c1.3,1.5,3.7,3.2,5.5,1.4c-1.9-1.2-4.1-2-5.6-3.8C144.5,64.1,144.2,64.1,144,64.1 M128.8,67.7c-0.4,1.6,0.6,2.8,1.9,3.6
		C130.5,69.9,130.3,68.1,128.8,67.7 M145.7,69c0,2,2.8,3,4.4,2.4C148.8,70.4,147.5,68.8,145.7,69 M14.9,73.1c1,0.1,1.9-0.4,2.3-1.3
		C16.1,71.7,15.5,72.5,14.9,73.1 M19.1,78.8c-1.1,0.6-2.4,1.3-2.7,2.6c3.5-1.6,6.9-3.6,10.7-4.6c0.4-0.1,0.7-0.4,0.9-0.7
		C24.9,76.3,21.9,77.4,19.1,78.8 M24.6,85.8c0.9,0.2,1.6-0.5,1.6-1.4C25.5,84.7,25,85.1,24.6,85.8 M20.3,90.6c1.6,0,2.2-2,3.1-3.1
		C21.9,87.6,20.2,89,20.3,90.6 M126,91.6c-0.4,1.3-0.5,2.8-1.1,4.1c-0.6,1-2.2,1.7-1.9,3.1c0.7,0,1.4,0,2.1,0c0,1,0,2.1,0,3.1
		c-0.5,0.5-1.2,1-1.3,1.8c0.1,0.8,0.9,1.3,1.5,1.8c-0.4,0.4-0.8,0.8-1.2,1.2c-0.2-0.8-0.4-1.7-0.6-2.5c-0.5-0.2-0.9-0.4-1.4-0.6
		c-0.3-1.3,0.8-2.9-0.5-3.8c-0.9,0.8-2,1.4-2.7,2.3c-0.1,0.8,0,1.5,0,2.3c0.7-0.4,1.2-0.9,1.7-1.6c0.5,1.2-0.1,2.4,0.1,3.6
		c0.3,0,0.6,0.1,0.9,0.2c0.4,2.1,1.3,4.3,0.5,6.4c0.8-0.5,1.6-1,2.4-1.5c0.7,1,1.5,2.4,3,1.9c-1-2.5,0.2-5,1.1-7.3
		c0.5-1.3,1.6-2.1,2.4-3.1c-0.2-0.2-0.4-0.4-0.6-0.6c-0.4,0.1-0.8,0.1-1.2,0.2c0-1.8,0.1-3.6,0-5.4c-0.7-0.1-1.3-0.1-2,0
		c0-1.4,0-2.9,0-4.3C127.2,92.1,126.4,91.9,126,91.6 M22.5,99.6c0.2,0.1,0.5,0.2,0.7,0.3c0.5-0.9,1.1-1.8,1-2.9
		C23.3,97.6,22.9,98.6,22.5,99.6 M119.3,104.6c-0.3,1.1-0.6,2.3-0.8,3.4c-0.5,2.2,0.4,4.6,1.9,6.2c0.4-2.3,1.5-4.6,0.9-7
		c-0.3,0-0.5,0.1-0.8,0.1C120.3,106.4,120.1,105.3,119.3,104.6 M115.3,110c0.1,0.6,0.5,1.2,0.4,1.9c-0.4,2.2-1.1,4.3-1.4,6.4
		c-0.2,0.9,0.4,1.8,1,2.4c0.7-1.4,0.9-2.9,1.2-4.4c0.3-0.1,0.6-0.2,1-0.3c0.2-1.2,0.1-2.4,0.1-3.6c0.2-0.2,0.4-0.4,0.7-0.6
		c-0.2-1.4-0.6-2.8-1-4.2C116.3,108.2,115.5,108.9,115.3,110 M51.1,116.2c0.5,0.6,1,1.2,1.6,1.8c0.6-0.5,1.1-1.1,1.6-1.6
		c0-0.4,0-0.7,0-1.1C53.2,115.2,51.6,114.6,51.1,116.2 M54.3,117.9c0.8,1,2,0.1,2.4-0.8C56.2,115.6,54.3,116.7,54.3,117.9
		 M57.1,118.1c-0.7,1.2-1.4,2.3-1.8,3.7c-0.2,0.8,0.9,1.6,1.4,0.8c0.7-1.1,1.3-2.3,1.4-3.6C58.2,118.3,57.5,118.3,57.1,118.1
		 M49.2,119.6c-0.6,1-1.5,2.3-0.8,3.4c0.5,0.7,1.2,0,1.6-0.4c-0.1,0.4-0.1,0.8-0.2,1.2c0.4,0,0.9,0,1.3,0.1c0.2-0.9,0.7-2.3-0.7-2.2
		c0.4-0.8,0.8-1.7,0.4-2.6C50.2,118.8,49.5,119,49.2,119.6 M54.1,118.9c-0.4,0.7-1,1.3-0.9,2.1c0.2,0.5,0.8,0.7,1.2,1
		c0.4-0.8,1-1.6,0.9-2.5C55.1,119.1,54.5,119.1,54.1,118.9 M77.1,123.6c1.2-1.3,2.6-2.9,2.5-4.7C77.9,119.8,76.7,121.6,77.1,123.6
		 M63.4,119.2c0,1,0.1,2-0.1,2.9c-0.4,1.6,1,2.8,1.7,4c0.5-0.4,1.2-0.9,1.1-1.6c-0.5-1.8,1.1-3.5,0.3-5.3
		C65.4,119.4,64.4,119.4,63.4,119.2 M68,122.1c0.4,0.5,1.1,0.2,1.7,0.1c0-0.7,0-1.4,0-2.1c-0.2-0.2-0.3-0.4-0.5-0.6
		C67.7,119.5,67.3,121.1,68,122.1 M59.5,120.1c-0.7,1.7-1.5,3.4-2.1,5.1c-0.6,1.4,2.2,2,2.3,0.5c0.3-1.9,1.1-3.7,1-5.6
		C60.3,120.1,59.9,120.1,59.5,120.1 M61.7,122.9c-0.8,0.8-1.3,1.9-1.1,3c0.6,0,1.2,0,1.8,0c0.3-0.9,0.3-1.9,0-2.8
		C62.2,123,61.9,122.9,61.7,122.9 M74,127.4c0.7,0,1.6,0.2,2.1-0.3c0.8-0.8,1.1-2,1.2-3.1c-0.1-0.1-0.3-0.2-0.3-0.3
		C75.8,124.8,73.9,125.6,74,127.4 M50.3,127.5c1.5,0.6,1.6-1.2,2-2.2c-0.5-0.1-1-0.2-1.4-0.3C50.3,125.8,49.9,126.6,50.3,127.5
		 M52.7,126.1c-0.8,1-0.5,3.1,1,3.1c1.4-0.1,1.7-1.9,1.6-3.1C54.5,125.7,53.4,125.4,52.7,126.1 M72.3,126.6
		c-0.3,0.8-0.5,1.6-0.6,2.4c-0.3-0.3-0.6-0.6-1-0.9c-0.4,0.2-0.8,0.4-1.2,0.7c0,1,0,2,0,3.1c0.6,0.1,1.5,0.5,2-0.2
		c0.5-0.7,1.1-1.2,1.9-1.3c0-1.2,0-2.4,0-3.7C73,126.6,72.6,126.6,72.3,126.6 M55.3,130c0.1,0.7,0.9,0.9,1.5,0.9
		c0.7-1,0.3-2.3,0.4-3.4c-0.2-0.1-0.4-0.2-0.6-0.3C56,128,55.3,128.9,55.3,130 M67.2,129.1c-0.4,0.8-0.5,1.7-0.3,2.6
		c0.3,0.6,1,0.5,1.6,0.3c0-1,0.4-1.9,0.4-2.9C68.5,128.7,67.6,128.5,67.2,129.1 M59.9,129.5c-0.5,0.3-1.1,0.9-0.8,1.5
		c0.5,0.7,1.6,1.1,2.3,0.4C62.1,130.5,61,129,59.9,129.5 M62.3,132.2c0.8,1.4,2.4,0.4,3.2-0.4c-0.5-0.7-0.7-1.7-1.5-2.1
		C63,129.9,62.2,131.1,62.3,132.2 M67.1,142.9c-2.3,1.2-4.7,2.3-7.1,3.1c0.3,0.5,0.7,1.1,1,1.6c0.9-0.5,1.9-1,2.9-1.4
		c0.1,4.5,0.1,8.9-0.2,13.4c1.4-0.1,2.9-0.1,4.3,0c-0.4-5.5-0.1-10.9-0.1-16.4C68,142.7,67.4,142.6,67.1,142.9 M75.8,143.9
		c-2.7,1.2-3.5,4.9-2.2,7.5c1.4,2.5,5.2,2.7,7.3,0.9c-0.1,2.2-0.6,4.8-2.7,5.9c-1.4,0.7-3.1,0-4-1.2c-0.1,0.8-0.2,1.6-0.3,2.5
		c2.7,1,6,0.6,8.3-1.3c2.4-2.1,3.2-5.5,3-8.5c-0.1-2.1-0.9-4.5-2.9-5.5C80.3,143,77.8,143,75.8,143.9 M106.4,143.3
		c-2,3.2-4.1,6.3-6.2,9.4c-0.3,1,0,2.1-0.1,3.2c2.1-0.1,4.2-0.3,6.4-0.2c0,1.3-0.1,2.6-0.2,3.9c1.3-0.1,2.6-0.1,3.9,0
		c-0.2-1.3-0.2-2.6-0.2-4c0.7,0,1.4,0.1,2.1,0.2c-0.1-1-0.1-2,0-3.1c-0.7,0.1-1.4,0.2-2,0.2c0-3.2,0-6.4,0.2-9.7
		C109,143.4,107.7,143.4,106.4,143.3 M90.7,143.5c-3.3,0.8-4.2,4.7-4.1,7.7c0,2.8,0,6.4,2.7,8.1c2.5,1.2,6.3,1.1,8-1.4
		c1.4-2.2,1.4-4.9,1.3-7.4c-0.1-2-0.3-4.3-1.8-5.8C95.2,143.1,92.8,143.1,90.7,143.5z"/>
	<path class="st2" d="M106.8,29.7c1,0.3,1.9,0.6,2.9,1c0.7,0.3,0.8,1.2,1.4,1.6c0.6,0.4,1.4,0.7,1.8,1.4c1.9,2.7,4.4,5.2,7.7,6
		c1.8,0.4,3.7-0.2,5.5-0.5c-1.4,0.8-2.8,1.8-4.4,2.3c-1.4,0.5-2.7-0.7-4.1-0.7c-0.6,0.1-0.6,0.8-0.6,1.2c-0.5-0.1-0.9-0.3-1.4-0.4
		c-0.3,0.5-0.7,1-1,1.5c-1.5-0.1-3-0.5-4.5-0.7c-0.1-0.4-0.1-0.9-0.2-1.3c1.1,0.2,2.2,0.7,3.3,0.2c0.5-0.2,1.1-0.9,0.6-1.4
		c-0.5-0.4-0.4-1.1-0.6-1.6c-0.5-0.4-1-0.6-1.6-0.9c0.3-0.2,0.6-0.3,0.9-0.5C111.5,33.8,107.3,33.1,106.8,29.7z"/>
	<path class="st2" d="M104.6,42.4c1.2-0.7,2.5,0.1,3.6,0.5c-0.5,0.4-1.1,0.7-1.6,0.3c-0.9-0.7-2.5,0.5-1.5,1.5
		c-0.5,0.6-1.2,1.1-1.2,1.8c0.2,0.3,0.6,0.6,0.9,0.8c0,0.9,0,1.8,0,2.8c-0.8,0.9-2,0.6-3.1,0.4c0.4-0.5,1-0.9,1.3-1.6
		c0.2-0.7-0.5-1.2-0.8-1.8c0.4-0.5,1-0.9,1-1.6C103,44.3,103.9,43.3,104.6,42.4z"/>
	<path class="st2" d="M92.9,49.4c0.5,0.4,1,0.9,1.4,1.5c-0.3,0.6-0.9,0.7-1.5,0.6C92.8,50.8,92.8,50.1,92.9,49.4z"/>
	<path class="st2" d="M95.4,51.9c1.2-0.6,2.6-0.5,3.9-0.9c-0.2,0.4-0.3,0.9-0.5,1.3C97.7,52.2,96.5,52.2,95.4,51.9z"/>
	<path class="st2" d="M103.3,53.9c0.4-0.7,0.8-2,1.8-1.8c0.8,0.4,1.6,1.1,1.6,2c-0.5,0.9-1.4,1.4-2.3,1.9
		C104.5,55.1,104,54.4,103.3,53.9z"/>
	<path class="st2" d="M92.9,52.6c1.3-0.3,2.4,0.5,3.3,1.3c0.4,1.1,0.6,2.4-0.4,3.2c0.2,0.2,0.4,0.4,0.6,0.6
		c-0.5,0.7-1.2,1.3-1.7,2.1c0.2,0.4,0.7,0.9,0.3,1.4c-0.9,0.8,0.1,2.1-0.6,3c-0.4,0.5,0.2,0.9,0.5,1.3c-0.4,0.2-0.9,0.4-1.3,0.7
		c0.3,0.3,0.6,0.7,0.9,1c-1.2,0.9-2.5,1.5-4.1,1.2c-0.1,1.4,1.7,1.8,2.6,2.5c-0.6,0-1.2,0-1.8,0.1c-0.2,1.7,1.9,2.2,3.2,2.1
		c1.7-0.4,3.3-1.1,5-1.6c0-0.1,0-0.4,0-0.5c-0.7-0.4-1.5-1.1-0.8-1.9c-0.2-0.3-0.4-0.6-0.7-0.9c0.7-0.2,1.4-0.2,2-0.5
		c0.5-0.5,0.8-1.2,1.1-1.9c-0.5-0.5-1.1-0.8-1.7-1.1c0-0.3,0-0.6,0-0.9c1.1-0.6,0.9-1.8,0-2.4c0.6-0.4,1.1-0.8,1.6-1.4
		c-0.2-0.3-0.4-0.6-0.5-0.8c1.5-1.5,4-1.6,5.9-0.9c0.3,0.9,0.7,2,0.2,2.9c-0.3,0.7-0.7,1.5-0.5,2.3c-0.6,0.4-1.8,0.5-1.6,1.4
		c0.2,1.6,0.6,3.1,1.3,4.6c0.8,1.3,2.4,1.6,3.7,2.2c0,1.2,0,2.5,0.6,3.6c-0.1,0.3-0.1,0.5-0.2,0.8c-1.2,0.7-2-0.7-2.6-1.5
		c-1.4,1,0.4,2.6-0.5,3.9c-0.4-0.6-0.8-1.2-1.2-1.7c-0.3,1.1-0.7,2.1-1,3.1c-0.2,0.8,0.7,1.6,0.2,2.3c-0.8,0.6-2,0.2-2.8,0.8
		c-0.5,0.5-0.3,1.3-0.4,1.9c-0.8,0.3-1.4,1-1.7,1.8c-0.6-1.4-0.2-3.1-1-4.5c-0.4-0.5,0.3-0.9,0.6-1.2c-0.7-1.5-1.9-2.6-3-3.8
		c-1-0.9-2.5-0.2-3.7-0.7c-1-0.8,0.9-1.7,0.2-2.6c-0.9-1.3-2.7-0.7-4-0.6c-1.1-0.3-2.2-1.1-3.4-0.9c-1.9,0.2-3.9,0.3-5.9,0.2
		c0,1.5,1.6,2.2,2.8,2.7c3,1.1,5.9,2.8,7.8,5.4c0.6,0.8,0.9,2,1.8,2.5c2,1.2,4.1,2.4,5.6,4.2c1.1,1.3,0.2,3.1,0.5,4.7
		c-0.6-0.4-1.5-0.9-1.8,0.1c0,1.8,0.3,3.6,0.4,5.4c-1.1,1-1.2,2.5-1.3,3.9c0,2.2,0,4.4-0.2,6.6c-0.6-2.2-0.9-4.7-2.4-6.5
		c-1.1-1.2-0.9-3-1-4.5c0-1.4,0-2.9,1-4c1.2-1.1,1.3-2.8,1.9-4.3c0.4-0.8-0.2-2.1-1.2-1.6c-1.2,0.7-1.3,2.2-2.3,3.1
		c-0.9,1-2.8,0.9-3.5-0.3c-1-1.9-1.1-4.4-2.9-5.8c-1.4-1.3-3.9-0.5-5.1-2.1c-0.6-1.6,1.1-3.3,2.7-2.8c0.2-0.1,0.3-0.3,0.5-0.4
		c-0.8-1.2-2-2.2-3.1-3.1c-2.1-2.2-2.8-5.2-4.1-7.9c2.4,0,4.8,0,7.2,0c0.7,0,1.2-0.5,1.8-0.6c1.3,0.3,2.5,1.7,3.9,1.1
		c0.5-1-0.4-2-1.3-2.4c-0.1-0.5-0.2-1-0.4-1.4c0.9,0.2,2.3,0.9,2.9-0.2c-0.5-0.8-1.1-1.4-1.5-2.2c0.9-0.2,2.3,0,2.3-1.3
		c-0.2-0.1-0.3-0.3-0.5-0.4c0.2-0.2,0.4-0.5,0.7-0.7c-0.4-0.5-0.7-0.9-1.1-1.3c1.2-0.7,2.7-0.9,3.6-1.9c-0.5-0.5-1-0.9-1.6-1.2
		c0.1-0.3,0.3-0.5,0.4-0.8c-1.1-1.2-2.8-0.2-4.2-0.3C89.6,53.4,91.3,53,92.9,52.6 M104.5,66.5c-0.6,0.4-1,1-1.4,1.6
		c0.4,0.1,0.8,0.2,1.3,0.3C104.6,67.9,105.3,66.7,104.5,66.5 M77.5,69.6c0.2,0.2,0.3,0.4,0.5,0.5c1.3-0.5,2.6-0.5,3.8,0.2
		c2,0.6,4.1-0.1,6.1,0.5c0.7,0.3,1.5,0.2,2.3-0.1c-2.3-2.1-5.6-1.9-8.4-2.3C80.3,68.4,78.2,68,77.5,69.6 M100.5,70.8
		c0.5,0.8,1.9,2.6,2.5,1C102.3,71.2,101.4,70.8,100.5,70.8 M103.3,73c0.3,0.7,0.9,1.5,1.8,1.3c-0.1-0.4-0.1-0.7-0.2-1.1
		C104.3,73.1,103.8,73,103.3,73 M102,74.9c0.4,1,0.9,2.1,2,2.6c0.4,0,0.5-0.6,0.6-0.9C104.1,75.7,103,75.2,102,74.9 M83.5,79.7
		c1.1,1.4,2.3,2.8,3.7,3.9c0.4,0.4,0.8-0.1,1-0.5c-1.1-1.2-2.2-2.4-3.4-3.5C84.4,79.3,83.9,79.5,83.5,79.7 M87.3,79.4
		c-0.1,0.3-0.3,0.7-0.1,1c0.7,1,1.8,2,3.1,1.8C89.7,81,89,79.1,87.3,79.4z"/>
	<path class="st2" d="M45.4,64.3c0.4-2.1,0.4-4.9,2.8-5.9c-0.4,0.7-1,1.5-0.2,2.1C47,61.7,46.4,63.1,45.4,64.3z"/>
	<path class="st2" d="M36.9,65c0.5-1.1,1.1-2,1.8-2.9C38.8,63.2,38.5,65,36.9,65z"/>
	<path class="st2" d="M42.7,65.4c0.2-1.1,0.5-2.1,1.3-3C44.1,63.6,43.9,65,42.7,65.4z"/>
	<path class="st2" d="M130.5,89.9c1.4-1.2,0.7-3.2,1-4.8c0.4,2.3,0.3,4.6,0,6.9C131.1,91.4,130.8,90.6,130.5,89.9z"/>
	<path class="st2" d="M109,87c0.4,0.7,0.8,1.4,1.1,2.1c0.9-0.4,1.6,0.1,2,0.8c-1,1.4-0.7,3.2-0.5,4.8c-0.8-0.4-1.5-0.9-2.1-1.5
		c-0.8,1-0.6,2.2-0.2,3.2c-0.4,2-2.5,2.9-4,4c-0.5,0.6-0.4,1.4-0.6,2.2c-2.1,0.1-4.2,0.5-6.3,0.7c0-0.3,0-0.5,0-0.8
		c2.2-0.2,2.7-2.6,2.9-4.4c0.3,1,0.4,2,1,2.9c2.1-2.2-0.3-5.3,1.1-7.7c0.5,0.1,1.1,0.2,1.6,0.3c0.5-1,0-2.4,1.1-3.1
		c0.3,0.7,0.7,1.5,1,2.3c0.6-0.6,0.8-1.5,0.8-2.3c0.1,0,0.4-0.1,0.5-0.1C108.8,89.2,108.8,88.1,109,87z"/>
	<path class="st2" d="M98.6,94.6c0.8,1.4,1.2,3.2,1,4.9c-0.3,0.8-1.2,1-1.9,1.3c0-0.4,0-0.8,0-1.2c0.5-0.6,1.2-1.1,1.3-1.9
		C99,96.6,98.7,95.6,98.6,94.6z"/>
	<path class="st2" d="M116.4,97.6c1.3,0.8,0.2,2.3,0,3.4C116.1,99.9,116.1,98.7,116.4,97.6z"/>
	<path class="st2" d="M91.5,106.2c-0.6-0.8-2.1-1.7-1.5-2.9C91.4,103.6,91.4,105.1,91.5,106.2z"/>
	<path class="st2" d="M89,106.3c0.9,1.1,1.6,2.3,2.1,3.6c0.4,0.9-0.8,1.5-0.5,2.4c0.4,1.5,0.8,3,1.9,4.1c0.7,0.8,1.9-0.3,1.6-1.2
		c-0.2-0.9-1-1.9-0.2-2.7c0.5,1.6,0.8,3.3,1.2,5c-0.4,0.1-0.8,0.2-1.2,0.3c-0.2,1.8-0.2,3.6-0.4,5.4c-1.7-3.6-2.9-7.4-4.1-11.2
		c-0.4-1.1,0.2-2.3-0.1-3.4C89,107.9,89,107.1,89,106.3z"/>
	<path class="st2" d="M78.4,144.6c1-0.4,2,0.5,2.2,1.5c0.3,1.5,0.4,3.1-0.1,4.6c-0.4,1.2-2.3,1.3-2.9,0.2c-0.6-1.1-0.5-2.5-0.4-3.7
		C77.2,146.2,77.4,145.1,78.4,144.6z"/>
	<path class="st2" d="M91.9,144.8c0.8-0.4,1.8-0.1,2.1,0.8c0.7,1.6,0.6,3.4,0.6,5.2c-0.1,2.3,0.2,4.6-0.6,6.8
		c-0.3,1.1-1.9,1.4-2.6,0.5c-0.7-1-0.7-2.2-0.8-3.3c-0.1-2.4-0.1-4.8,0.1-7.2C90.9,146.6,91,145.4,91.9,144.8z"/>
	<path class="st2" d="M102,152.9c1.5-2.3,3-4.5,4.5-6.8c0,2.3,0,4.5,0,6.8C105,152.9,103.5,152.9,102,152.9z"/>
</g>
<g id="_x23_ffffffff">
	<path class="st3" d="M133.9,35.1c2-1.4,5.1-0.8,6.2,1.4c1.3,2.2,1.4,4.9,1,7.4c-0.4,2.7-0.5,5.5-1.9,7.9c-1.6,2.6-4.1,5.4-7.4,5
		c0.3-0.9,0.8-1.9,1.9-2.2c-1.3-0.7-2.6-1.4-3.9-2.1c0.6-0.1,1.3-0.2,1.9-0.3c-0.8-0.9-2-1.2-3.1-1.5c-1.1-0.2-1.2-1.5-1.8-2.2
		c0.5,0.1,1,0.3,1.5,0c0.5-0.7,0.5-1.9,1.4-2.2c1-0.4,1.5-1.4,2.3-2.1c0.9-0.8,2.3-0.2,3.1-1.1c-1.5-0.9-3.5-0.6-4.9,0.3
		c-1.6,1-3.1,2.6-5.2,2.6c-1.3,0-1.3-1.7-1.9-2.5c1-0.2,2-0.2,3-0.6c0.7-0.3,0.9-1.1,1.2-1.8c1.6-0.2,2.1-2.1,3.6-2.6
		c1.5-0.6,3.3-1.1,4.1-2.6C134.6,35.6,134.2,35.4,133.9,35.1 M129.6,48.2c-0.2,0.5-0.4,1-0.5,1.5c1,0.2,2-0.1,2.5-1
		C131.2,48,130.4,48.2,129.6,48.2z"/>
	<path class="st3" d="M40.7,47.4c0.2-0.1,0.5-0.2,0.7-0.3l-0.1,0.2c-0.4,0.7,0.1,1.5,0.8,1.5c0.7-0.2,1.1-0.9,1.8-1.1
		c1.2,0.2,2.3,0.9,3,2c-0.4,0.3-0.8,0.6-1.2,0.8c-0.6-0.6-1.1-1.5-1.9-1.8c-2.7,1.1-1.1,6,1.7,5.4C46.7,54,47,52.6,48,52
		c1-0.6,1.3-1.7,2-2.6c-0.3,1.6-1.1,3.2-2.5,4c0,1.6-1.5,1.8-2.6,2.3c-0.1,0.3-0.1,0.6-0.2,0.9c-1.2,0.8-1.9,2.1-2.9,3.1
		c0.4-1,1.3-1.8,1.3-2.9c-1.7-0.5-2.6-2.1-3.2-3.7C39,51.2,40.3,49.3,40.7,47.4 M42.9,55.4c-0.2-1.4-0.4-2.8-0.9-4
		C41.6,52.8,41.1,54.8,42.9,55.4z"/>
	<path class="st3" d="M75.7,52.1c-0.1-1,0.7-1.8,1.3-2.5c0.4,0.1,0.7,0.1,1.1,0.2c0.7,0.4,1.2,1,1.6,1.7c-0.6-0.3-1.2-0.2-1.8-0.1
		c0,1,0,2.1-1,2.6C76.4,53.5,75.7,53,75.7,52.1z"/>
	<path class="st3" d="M70.8,52.7c0.3,0,0.5,0,0.8,0c0.4,1.5,1.5,2.9,3.1,3.3c1.5,0.5,2.9-0.1,4.3-0.4c-0.8,0.8-1.8,1.3-2.8,1.9
		c0.1,0.1,0.3,0.3,0.4,0.5c2.3,0.1,3.7-1.9,5.6-2.7c0.9-0.3,1.7,0.6,2.3,1.1c-1,2.7-3.9,4-6.6,4.5c-1.2,0.4-2.3-0.1-3.5-0.2
		c-2.4-0.4-4.8-0.9-7.2-1.3c-0.9,0.3-1.7,0.9-2.7,0.8c1.1-1,2.5-1.6,3.9-1.9c1.7,0.3,3.4,1,5.1,0.3c-1.2-0.9-2.7-1.3-3.6-2.5
		C69.1,54.9,70.2,53.7,70.8,52.7z"/>
	<path class="st3" d="M58.2,64.5c1.5,0,2.9-0.9,4.4-0.3c0.8,0.4,1.7,0,2.5-0.2c0.5,1.2-1,2.1-0.4,3.1c1.8,0.4,3.1-1.5,4.2-2.7
		c1.3,0.1,2.7-0.3,3.8,0.5c1.3,0.7,2.3,1.8,3.2,2.9c1.3,2.7,2,5.7,4.1,7.9c-0.9-0.1-1.9-0.1-2.6-0.9c-0.4-0.4-1.3-1.1-1.7-0.3
		c-0.3,1,0.9,1.4,1.6,1.5c1.4,0.2,2.4,1.1,3.4,2c-1.3-0.2-2.5-0.9-3.8-1c-1.4,0.2-1.5,1.9-2.1,2.9c-0.7-1.2-1.9-1.9-3.1-2.5
		c-0.1,0.1-0.2,0.2-0.3,0.3c0.4,1.2,0.4,3.1,2.1,3.2c0,0.2,0,0.5,0,0.7c-1.1,0.9-2,2-3.2,2.7c-1.2,0.7-2.4,1.2-3.5,2.1
		c0,0.3,0,0.5,0,0.8c0.8,0,1.6-0.1,2.3-0.1c0.7,0.7,0,1.9-0.8,2.2c-2.4,1.1-5.1,0.9-7.6,0.5c-5.6-0.9-11.1-2-16.5-3.4
		c0-0.3,0-0.5,0-0.8c2.8-1.3,5.1-3.8,6-6.7c0.6-1.5-0.1-3.1,0.3-4.7c0.9,0.4,1.8,1.4,2.8,0.9c-0.1-2.2,1-4.7,3.2-5.6
		c1.9-0.5,3.9-0.6,5.8-1c-0.7-0.4-0.7-1.2-0.9-1.9c-1,0-2,0.5-3.1,0.4c-1.9,0.7-3.9,1.4-5.7,2.5c-1.3,0.8-2.4,2.1-2.6,3.6
		c-0.8-0.2-1.6-0.5-2.3-0.2c0.6,0.7,2,1.6,1,2.6c-1.7,1.6-4.2,2.1-6.4,2.5c-1.2,0.3-2.2-0.5-2.7-1.5c1.3-0.1,2.7,0.1,4.1-0.1
		c1.5-0.5,3.1-1.7,2.9-3.4c1.1-0.1,1.3-1.5,2.3-1.7c1.2-0.5,1.7-1.8,2.4-2.8c0.4-0.7,1.6-0.7,1.8-1.6c0.3-0.9,0.7-1.9,1.6-2.4
		c0,0.4,0.1,0.8,0.1,1.1C56.3,66.2,56.9,64.4,58.2,64.5 M63.9,69.9c-1.6,0.6-3.3,1.1-4.6,2.1c-0.6,0.4-0.4,1.1-0.8,1.6
		c-0.5,0.6-0.9,1.2-1.3,1.8c0.3,0.4,0.6,1,1.2,1c0.9-0.1,1.3-1,1.8-1.6c0.6-0.9,1.9-0.8,2.6-1.6c0.8-0.9,1.9-1.7,1.6-3
		C64.2,70.1,64,70,63.9,69.9 M68.8,69.9c-0.7,1.3-1.7,2.4-2.4,3.8c-0.2,0.4,0.1,0.8,0.5,1.1c0.8-0.5,1.8-0.6,2.7-0.2
		c-0.7,0.6-2.2,1.4-1.5,2.5c1.1,0.1,2.2,0.9,3.2,0.2c-0.2-0.2-0.4-0.3-0.6-0.5c0.1-0.6,0.3-1.2,0.4-1.8c0.9,0.3,1.6-0.3,2.2-1
		c0-0.3,0-0.6,0-0.8c-1.3-0.8-2.7,0.8-4-0.2c1.3-1.9,4,0.1,5.3-1.6C74,69.8,72.1,71,70.8,71c-0.8,0.2-1.2-0.4-1.2-1.1
		C69.3,69.9,69.1,69.9,68.8,69.9 M56.5,76.1c-0.5,0.5-1.4,1.4-0.8,2.2c0.3,0.1,0.6,0.1,0.9,0.1C57.3,77.8,57.6,76.6,56.5,76.1
		 M65,78.7c0.9,1.1,2.7,0.1,2.5-1.2C66.5,76.8,65.5,77.8,65,78.7 M54.2,80.4c0.9-0.3,1.9-1.5,0.8-2.2C54.2,78.4,53.7,79.6,54.2,80.4
		 M61.6,79.3c-0.6,0.3-0.7,1-0.6,1.6c0.7,0.4,1.7,0.7,2.4,0.1c0.6-0.4,0.5-1.2,0.3-1.8C63,79.3,62.2,79.1,61.6,79.3 M67.9,82.7
		c0.8-0.1,1.8,0.3,2.4-0.4c0.4-0.4,0.1-1,0-1.5C69,80.4,67.6,81.2,67.9,82.7 M57,82.7c1,0.6,3.2,0,2.5-1.4
		C58.5,80.3,57.4,81.7,57,82.7 M54.2,82.3c-0.1,0.3-0.2,0.6-0.3,0.9c0.7,0.9,2.5,0,1.3-0.9C55,82.3,54.6,82.3,54.2,82.3 M64.2,82.7
		c-0.6,0.4-0.7,1.1-0.9,1.7c1.4,0.3,2.8-0.3,3.1-1.7C65.7,82.6,64.9,82.2,64.2,82.7 M59.7,84.4c-0.5,0.4-0.7,1.4,0,1.7
		c0.9,0.4,1.6-0.5,2.2-1.1c-0.2-0.2-0.4-0.4-0.5-0.6C60.8,84.4,60.2,84.4,59.7,84.4 M55.2,85.1c-0.1,1.4,1.9,1.8,2.4,0.6
		C57.4,84.6,56,84.3,55.2,85.1 M63.4,87.9c0,0.3,0,0.6,0,0.9c0.6-0.1,1.2-0.1,1.7-0.2c0-0.6,0.1-1.3-0.7-1.4
		C64.1,87.4,63.7,87.7,63.4,87.9z"/>
	<path class="st3" d="M34.5,70.9c0.2-0.7-0.1-1.6,0.2-2.3c0.5,0.8,1,1.6,2,1.6c-1.4,1.4-1.1,3.6-1.4,5.4c-0.3,1.1,0.9,1.6,1.2,2.6
		c0.5,1.4,0.3,3,1.2,4.2c0.3,0.5,0.9,1.1,1.6,0.9c0.4-0.8,0.9-1.6,1.9-1.6c0.3,1.2-1,1.5-1.6,2.3c1,1.2,2.4,2.2,2.7,3.8
		c-0.4,1.4-2.1,1.4-3.2,1.8l-0.1,0c-0.3-0.3-0.5-0.7-0.8-1l0.1-0.2c0.2-0.4,0.2-1,0-1.4c-0.7-0.3-1.5-0.4-1.9-1.1
		c-0.8-1.1-0.1-2.5-0.4-3.8c-0.4-0.4-0.8-0.7-1.2-1.1c-0.1-0.6,0.4-1.1,0.4-1.7c-0.4-0.8-1.2-1.4-1.4-2.4C33.3,75,33,72.6,34.5,70.9
		z"/>
	<path class="st3" d="M43.8,82.9c-0.5-0.6,0-1.4,0.3-2c0.5,0.9,1.2,1.6,1.9,2.4C45.2,83.3,44.3,83.6,43.8,82.9z"/>
	<path class="st3" d="M79.4,91.6c0.9-1.4,2-2.9,3.7-3.5l0.2-0.1c-0.2,0.7-0.4,1.4-0.8,2c-1.7,2.4-3.3,5-4.4,7.7
		c-0.8,1.9-1,4-1.8,5.9c-1.3,3.1-3,6.3-5.8,8.3c-2.1,1.5-5.1,2.4-7.4,1c0.4-0.4,0.8-0.7,1.2-1.1c-4.3-0.5-8.6-2-12.1-4.6
		c-1.6-1.2-3-3-2.8-5c0.1,0,0.4,0,0.5,0.1c0.3,0,0.6,0.1,1,0.1c0.1,0.2,0.2,0.4,0.2,0.6c0.8,2.4,4.9,1.5,4.9,4.4
		c1.2,0,1.9,1.1,2.8,1.7c1.6,0.2,3.3,0,4.9,0.1c0.6,0.6,1.3,1.3,2.2,1c-0.6-1.6-2-3.4-1.3-5.2c1.3,1.1,3.1,2.7,4.9,1.7
		c0-0.7-0.1-1.3-0.1-2c1.6-0.2,3.4-0.4,4.7-1.6c0.7-0.7,0.7-1.8,0.5-2.7c2.2-1.3,3.1-3.8,4.3-5.9C79.3,93.5,79.2,92.5,79.4,91.6
		 M69.2,110c-1,0.5-2.2,0.2-3.2,0.5c0,0.5,0,1,0,1.6c1.9,0.6,4.1-0.1,5.4-1.5c0.8-0.9,0.3-2.1,0.2-3.1C70.7,108.2,70,109.2,69.2,110
		z"/>
	<path class="st3" d="M54.6,90.6c2.5,0.6,5.1,1.4,7.7,1.6c-1,1.8-1.5,3.8-1.3,5.8c-2.1-1.1-2.8-3.6-3.4-5.8
		C56.8,91.2,55.1,91.9,54.6,90.6z"/>
	<path class="st3" d="M42.5,91.2c0.8,0.1,2.1-0.3,2.5,0.6c0.4,1.3,0.7,2.5,1.1,3.8C44.5,94.6,42,93.5,42.5,91.2z"/>
</g>
<g id="_x23_e19429ff">
	<path class="st4" d="M106.7,50c0.6-0.2,1.3-0.3,1.9-0.2C108.1,50.4,107.4,50.4,106.7,50z"/>
</g>
<g id="_x23_f4a12dff">
	<path class="st5" d="M49.5,56.5c0.4-0.9,1.2-1.5,1.9-2.1c-0.3,1-0.8,2-1.6,2.8C49.4,57.5,49.4,56.8,49.5,56.5z"/>
	<path class="st5" d="M36.8,70.1c0.7-1.5,0.8-3.6,2.6-4.1c-0.7,1.3-1.7,2.6-1.1,4.2C37.8,70.1,37.3,70.1,36.8,70.1z"/>
	<path class="st5" d="M112.9,90.3c0.2,0,0.5,0,0.8,0c0.1,4.2,0.3,8.5,0.5,12.7c-0.2,1.4-1.3,2.5-1.7,3.9c0-1.2-0.3-2.7,0.6-3.7
		c0.7-0.9,0.5-2.1,0.4-3.2C113.4,96.8,113.1,93.6,112.9,90.3z"/>
</g>
<g id="_x23_010000ff">
	<path class="st6" d="M14.6,60c1.2-0.1,2.7-0.3,3.4,1C16.8,60.9,15.5,60.8,14.6,60z"/>
	<path class="st6" d="M100.5,70.8c0.9,0,1.8,0.4,2.5,1C102.4,73.4,100.9,71.6,100.5,70.8z"/>
	<path class="st6" d="M103.3,73c0.5,0,1,0.1,1.6,0.2c0.1,0.4,0.2,0.7,0.2,1.1C104.2,74.4,103.6,73.7,103.3,73z"/>
	<path class="st6" d="M54.2,82.3c0.4,0,0.7,0,1.1,0c1.1,0.9-0.6,1.8-1.3,0.9C54.1,82.9,54.2,82.6,54.2,82.3z"/>
	<path class="st6" d="M59.9,129.5c1.1-0.5,2.2,1,1.5,1.9c-0.7,0.7-1.8,0.3-2.3-0.4C58.8,130.4,59.4,129.8,59.9,129.5z"/>
</g>
<g id="_x23_010100ff">
	<path class="st7" d="M19.6,61c3,0.4,6,1.9,8.1,4.2c-1.7-0.7-3.3-1.6-5-2.4C21.6,62.3,20.4,62,19.6,61z"/>
	<path class="st7" d="M24.6,85.8c0.4-0.6,1-1.1,1.6-1.4C26.2,85.3,25.5,86,24.6,85.8z"/>
	<path class="st7" d="M74,127.4c-0.1-1.8,1.8-2.6,2.9-3.7c0.1,0.1,0.3,0.2,0.3,0.3c0,1.1-0.4,2.3-1.2,3.1
		C75.6,127.6,74.7,127.4,74,127.4z"/>
</g>
<g id="_x23_de9229ff">
	<path class="st8" d="M40.5,68c0.2-0.7,0.5-1.4,1.1-1.9C41.7,66.9,41.2,67.5,40.5,68z"/>
</g>
<g id="_x23_f3a02dff">
	<path class="st9" d="M121.6,92.6c0-2.2-0.1-4.4,0.6-6.5c0.4,1.9,0.3,3.8,0.3,5.7C122.2,92.1,121.9,92.4,121.6,92.6z"/>
	<path class="st9" d="M85.8,113.5c0.3,0.7,0.6,1.7,0,2.3C85.7,115,85.7,114.2,85.8,113.5z"/>
	<path class="st9" d="M88.4,113.8c0.5,1.3,0.7,2.6,0.9,3.9C88.4,116.6,88.2,115.1,88.4,113.8z"/>
	<path class="st9" d="M110.7,119.5c-0.6-0.5-0.9-1.4-0.3-2C110.7,118.2,110.8,118.9,110.7,119.5z"/>
</g>
<g id="_x23_f4a02dff">
	<path class="st10" d="M75.1,116.8c0.6,0,1.2-0.1,1.7-0.1c-0.5,0.6-1.2,1.2-2.1,1C74.9,117.4,75,117.1,75.1,116.8z"/>
</g>
<g id="_x23_020100ff">
	<path class="st11" d="M77.1,123.6c-0.4-2,0.9-3.8,2.5-4.7C79.7,120.7,78.2,122.3,77.1,123.6z"/>
</g>
</svg>
