<svg xmlns="http://www.w3.org/2000/svg" height="400" width="400" version="1" viewBox="0 0 595.27557 841.88977"><path d="M707 421c0 226-183.3 409.3-409.4 409.3S-111.7 647-111.7 421c0-226 183.3-409.4 409.3-409.4S707 195 707 421z" stroke="#0053a0" stroke-width="21.1" fill="#fff"/><path fill-rule="evenodd" fill="#0053a0" d="M-81 425.8C-83.4 216.8 84 45 293 42.5c209-2.7 380.7 164.7 383.3 373.7 2.8 209-164.6 380.6-373.6 383.3C93.4 802-78.2 634.8-81 425.8zM293 37.8c-211.6 2.6-381 176.4-378.4 388 2.7 211.6 176.5 381 388 378.4 211.7-2.7 381-176.5 378.4-388-2.6-211.7-176.4-381-388-378.4z"/><path fill-rule="evenodd" fill="#0053a0" d="M283.7 169.4c-46.4 0-100.4 18.3-136.7 48.4v.5c21 8.2 35 19 57.3 31.5.8.5 1 .3 1.2-.4 10.8-54.5 77.3-39.4 83.5-79-.3-.4-.2-1-.8-1h-4.5zm27.7 0c-.4 0-.6.3-.6 1-2.8 7 5.4 14.3 10.2 19 .5.4 1.2 1 1.8 1.2 29.7 12 62.6 21 69.8 55.2 0 .5.2.8.8.4C409.2 235.7 425 225 441 215c.7-.4.4-.8 0-1-36.3-26-81.5-42.6-129.6-44.5zM126.2 235c-29 25.7-53.8 59.3-66.8 97 0 .4 0 .6.6.7 28.4 2.5 37.6-34.5 59.4-48.2.3-.2.5-.3.5-.7-1.6-16.8-2.4-31 6.2-48.8zm349.6 8c1.6 13.2.4 25.6-3 37.7-.3.6-.2 1 .4 1.4 21 11.3 32.3 44 56.5 45.3.3 0 .8.2.6-.2-8.4-29-32.6-63.7-54.5-84zM538 346.3c-29.6 29.8 18.6 79.7-46.8 107.5-5.8 1.7-11.3 3.8-16.6 3.8-14.5 0-35.2-11-35 11 0 .4.3.7.8 1 20.2 8.5 47.5 27.3 48 56.2 1 34.4-35.3 57.6-29.6 90.4 77.5-67 109.4-166 79.3-269.8zm-484.4 5c-.2 0-.4.3-.6.8-29.4 80.2-.5 204.8 89.5 270.7 0-1.7 1-5.2 2-7.6.4-.8.4-2 0-3-3.3-14.6-12-29.3-20-43.5-28.5-47-12.8-79.5 33-100.4.7 0 .8-.4.5-1l-2-4.7c-.3-.5 0-1.3-1.2-1-10.3 1-21.8 2-32.3 1.6-15.7-3.6-30.8-10-42-26.6-20.3-28.3 7.4-66.3-26-85-.3-.2-.6-.3-1-.3zM478 467c.8 0 1.6 0 2.3.4 10.2 1.8 25.5 7.8 34.7 19 .6.8.3 1.4-.6 1.3-14.7-.4-31.2-2-42.6-11-1.6-1.3-3-2.6-2-5.6 1-1.8 3.6-3.3 5.8-3.7l2.4-.3zm-363 6h2.6c.7.2 1.4.2 1.8.6 2.8 3.4 2.3 8-3 11.7-11 7-24 7.5-36 8-.4 0-1.2-.4-.4-1.2 11-9.8 22.8-19 35-19zm201.4 135.2h-.5c-9.2 4.4-23.6 6.5-31.6 2-1-.5-1.6 0-2 .4-14.4 24.6-48.8 24-73.3 17.8-18-4-35.8-9.3-50.4 5.2 76.3 55 194 56.8 282.5-3.8-16.6-8-31.7-2.2-50 2-20.8 5-50 9.2-73.5-23-.4-.2-.7-.6-1-.6zm-15.3 5.5h.8c2.7.4 4.2 1.7 5.8 3.5.8 1 1 2.3 1 3.5-.5 11.4-2.5 22.8-6.3 32.7 0 .5-.4.6-.6 0-4.4-14-12-28-2.4-39 .6-.6 1-.7 1.8-.7zM325.6 64c2.2 3 4.5 6.2 3.7 9.8-3 16.5-6 33-9.4 49.3-.7 3.8-3.3 5.3-6 7.8l69.7 13c-.5-7 5-11.3 7.2-17.7-6 4.3-13.8 5.8-21 4.3-7.3-1.4-25.7-5-33-6.6 1-5.7 2-11.6 3.2-17.3 7.2 1.3 18.8 4 26 5 6 1.3 10.8-7.2 14-11.2-2.3.5-6.7.8-9 .3l-28.7-6c.7-5.3 2-10.7 3-16 13 3.3 40 4.6 49.5 15.5.3-6-3-13.5.4-17.5-18-3.4-52-9.3-69.8-12.6zm-8.7.2c-17.3 0-50.2 2-67.4 2 3.7 6-1.8 11.4-2 17.5 6-5.3 20.5-7 28-6.6 0 16.7 1.7 33.3 2 50 0 3-2.4 5-4.4 6.2 7.5 0 19.3-1 26.3-1-3.4-3.3-5.2-3.5-5.2-8-1.3-15.2-2-33-2.3-48.3 7.8-.6 22 .8 28.3 4.6 0-6.7-6.5-13.3-3.3-16.4zm-75.3 4.4c-11 2.4-35.5 4.2-45 11.4-11.3 7.8-14 25.3.8 33 9.2 3.7 26.8-.4 36 .3 6.2.3 8.8 9 4.7 13.2-9 8-33 8-43.7 4.8 2.6 6 5.5 11.3 8.2 17.2 3.6-2.2 10-2.8 14-3.5 8.7-1.3 29.3-6.8 35-13.8 7-8 7.3-20 .6-27.4-6-6.6-24.8-5.4-32.8-5-4.6 0-8.3 1.7-12.6-.4-3.8-2.6-3.6-9 .5-11 8-4.2 26-5 34-1.5-.3-6 .4-11.6.2-17.4zm177 14.8c1.5 3.7 2.4 7.2.6 10.6-6.5 14-14 28-20.8 42.2-2 4-4.4 6.7-9 8.5l22.8 11.5c-2.6-9.5 3.8-18 7.5-25.6 3.5 2 13 6.3 15.3 10.2 3.2 5.2 4 10.6 4.7 16 .3 5 .7 8.7-4.4 10.5 7 3 18.4 9 25 12-5.3-10.8-2-25.6-9-36.3 4.5.2 12.2 1 17-2 9-5.2 11-13.4 8-24.2-1.6-5.6-7.2-9-12-11C453.2 100 430.2 89 419 83.3zM161 90.7c-16 8.8-46.2 24-61.8 33 4 1.2 7 2.7 8.8 6.2l23.3 42c2 3.4 1.4 7.6-.2 11.4 16.3-9 46.6-24.7 62.8-33.7-5-2.8-1.8-12.4-4-18.8-1.5 5.5-7.2 10.5-11.8 14-7.6 5-25.3 14-33 18.4-3-5-6-10.2-8.6-15.4 6-3.8 20.3-10 26.3-14 3.5-4.5 1.5-11 2.3-16-1.6 1.8-3.6 3.5-5.8 4.6L131.5 138c-2.5-5-5.5-9.4-7.7-14.4 12.2-5.6 34-20.4 48-19.6-3.5-5-9-7.3-11-13.3zm272 12.7c6 3 15 7 20.4 10 14.5 7.5 4 23.3-6.4 17.3-6-2-16.5-8-22.3-10.3 2.5-6 5.7-11 8.3-17zm-348 31c-1.8 2.4-4 4.6-6.5 6-8.7 4-24.3 18-28 27-5.2 10-5 19.3 1 31 7 14 17 20.5 32 20.5 15-1 28.6-14.2 34.8-22.3 3.4-4 6.7-8.3 11.7-10.5-4.2-4.6-8.6-9-13-13.6-1.4 5.6-4 10.4-7.8 15-5.4 6.2-13.8 15.8-23.3 15.4-9.6-.5-12.7-5-17-9.7-4.2-4.7-7-10-6.4-18.4.8-8.5 17.3-24 29.2-24.3-2.7-5.2-4-11-7-16.3zm-58.2 56c-4.3 5.7-12 15.5-16.7 21 4.4-.7 8.3-.4 11.6 2.2L59 243c3.3 2.4 4.7 6 5 10.2 4.7-5.5 12.2-15 16.6-20.5-3.8.5-7.6.8-10.6-1.7l-38-29.6c-3.4-2.7-5.3-6.2-5.2-11zm-29.7 38c-7.8 16.2-24.3 46.5-32 62.8 4.3-1.7 7.5-1.4 11.5.6l42.4 21c3.3 1.7 6.4 5 7.8 8.7 7.8-16.6 22.4-46 31.4-62.3-2 0-3.7-1.6-5-3-3.8-3.5-5.7-7.5-9.5-11 1 6.6 0 14.5-2.7 21-3.4 7-12.2 24.3-15.5 31.4-5.6-2-9.8-5-15.2-7.5C13 284 21 269.4 23.6 263c0-3.7-4.4-10-7.5-14.4 0 2.4-1 4.8-2.2 7L-.7 284.8c-5-2.5-11.2-5-16-7.3 3.3-7 12-24.2 15.4-31 2.8-5.5 7.2-10 12.7-12.7-5.7-2.3-9.4-1.6-14.3-5.5zM7.4 319c2.3 3.6 2.8 9.8 3 14.2.5 8.3-4.4 24-5.6 32-15.3-3-30.6-6.6-45.8-10-4.3-.7-6-4-8.5-7.7-1.6 7-4.3 20-5.7 26.8 3-2.3 5.3-4 9-3.2 16 3.5 32.3 7 48.5 10.7 3.7.8 7.5 3.6 9.4 7.2 3.5-15.8 10-44.6 13.4-60.4-1.6.2-3.3.4-4.8-.5-4.7-2.5-8-6.6-13-9zM7.5 453.7c-2.3 3.3-5.6 6-9.5 6.7-15 4.2-30.7 7.4-47.7 11.5-3.4 1-5.4-.3-8.7-2.8l5.5 25c6-8.5 17.4-8.2 26.3-11 2 7 4.6 22 7 29 3.7 3.8 10 4.3 14.8 6-1.2-1.8-3.6-6-4-8.2l-6.7-29.4c5.7-1.2 11.3-3 17-3.7 3 11.8 10.3 34 4.7 45.4 5.8-2 10.6-8.3 15.8-7-3.4-16-11.2-45.6-14.3-61.7zm.8 73c-2-.2-3.8 0-5.7.2-13 2.7-25 9-30.4 22.5-7.2 18.8 7 47.6 26.2 54.7 12.3 4.3 24.5 1 33.6-5.8 8.5-5.8 14.3-15.5 14-28.5-.5-14.8-8.7-29.4-20.7-37.7-5.7-4-11.3-5.5-17-5.7zM7.7 543c7.2 0 14.4 1.8 19.3 9 6 7.6 8 18.2 3.6 24.6-6 8-16 12.8-26.4 12.4-11.3-.4-22.7-14.8-19.4-28.7 3.2-11.3 16-16.7 23-17.3zm44.6 54.7c-2.8 0-5.5.6-8.2 1.6-12.7 4.7-22.2 13-26 27.2-5.2 19.4 16 45 36 48.6 13 2.2 24.4-2.4 32.2-10.7 7.4-7.2 12-18 9.4-30.8-3-14.4-14.7-26.7-28-32.8-5.8-2-10.7-3.2-15.3-3zm6.4 15.7c5.6 0 10.7 2.2 14.5 6.2 7 6.5 10.3 14.5 7 23-4.4 10-12.7 16.3-23 17.7C46 662 31.5 647 33.2 635c1.7-11.3 9-16 15-19 3.6-1.8 7-2.7 10.5-2.6zm50 29c-.2 6.4-6.7 4.5-12 12.5 8-.8 21 6 27 10.7-9 13.7-18.4 27-27.6 40.7-1.6 3-4.6 3.2-7.7 3.5l21.8 14.7c-1-4.6-.6-8.4 2-12l24.3-36c.4-.6.8-1.7 1.7-1.4 6.6 3.6 17 12.6 19.3 20 2.8-5.5 2.3-14 7.4-16-14-9.8-42-27.4-56-37zm59.5 39.8c2 3.7 1.5 8 .3 12-4.6 15.3-10.5 29.2-15 44.5-1 3.7-3.4 6-8.2 7 14.7 4.7 31.6 11 47 15.6 16 5.2 30.4 1.3 32.2-15.5 1-9.6-9.3-14-13.3-16.2 10.6 1.3 17.7-4.4 18.3-14.3 1-7-5.6-14.8-20.2-19.5-10.4-3.4-30.6-10.7-41-13.6zm221.4 12c-6.8 1.8-18.2 6.5-24.8 8.8 3.7 1.6 6.3 2.7 7.5 6.4 4.8 14.5 10.5 28 15.5 42.4 1.3 4.6 3 9.7.5 14.2 15.4-4.8 42-14.4 57.2-19.4-.8-1.3-2.2-2.3-2-4-.5-5.4 1-9.8.4-15.3-3.6 7.4-11.3 11-19.2 14.2-4.4 1.4-17 7-21.3 7.4-5-14.7-10.7-30-15.6-44.8-1.4-3.7-.4-6.4 1.6-10zm-207 4.8c5.7 2 21.7 5.7 27 8 7.7 3 2.8 16.8-5 15-5.7-1-21.3-5.3-26.6-7.2l4.6-15.8zm74.5 8c.6 1 .3 3.4-.5 4.5L228 760c-2.7 4-5 6-8.6 8.7 6.5 1 17.8 4.3 24.3 5.5-2-4.6-2-10.2 1.5-14.6 10 1 29 2.2 39 3.5 2 4.8 4.7 10.6 0 15 6.7 0 18.3-.4 24.8 0-3-3.4-5.8-7-7-11.4-3-9-14.3-42.2-18-52.5-.5-1.8.3-4 .4-4.3L257 707zm75.7.3c-7.3 1.2-19.7 2.7-26.7 3.5 3.3 2.4 5.8 3.8 6.3 7.7 1.7 15 4.7 29.6 6.7 44.7.4 4.8.5 11-3 14.7 16-1.6 45.6-6.4 61.5-8.2-.6-1.4-1.6-2.8-1.2-4.3.7-5.4 2.7-10 3.4-15.5-5.3 6-13 9.3-21.3 10.7-4.7.8-18.6 3-23 3-1.8-15.4-4.4-31.6-6.3-47-.4-4 1-6.3 3.7-9.4zM269 718.6l11.5 31.8c-7.3-.5-21.2-1.3-28.5-2l17-29.8zm-93.5 6.3c6.7 2.5 17.8 6.2 23.7 8.5 13 4.6 9.6 22-6.2 16.6-7-2-16.5-5-23.3-7.7 1.7-5.7 4-11.7 5.8-17.4zM525 156.4c-10.3-.4-17 2.4-24.3 8.5-8 7.3-13.5 15.8-13.5 28.5.3 10 11.3 26 24.5 34.3 3.7 2.7 9.6 6 10.2 10.7 4.3-4.5 8.8-9 13.3-13-10.7-3.3-29-13.7-31.5-25.7-1.7-9.6.7-12.7 4.7-18 7.6-9 15.3-12.4 26.8-9.2 10.3 4 19.5 17 20.3 26.4 5.4-2.8 10.4-5 16-7.8-4.4-2.6-6.3-5.8-9.3-9.7-6.3-9.2-18.2-22.4-32.6-24.7-1.6 0-3.2-.3-4.7-.4zm56.8 49.2c-.2 6.7-3.8 8.8-8.6 12.4-11.8 8-23 16.2-34.6 24-3.3 2-7.6 5-12.4 2.6 3.8 6 11.4 16 15.2 21.7.4-6 3.7-8.7 7.3-11 12.7-8.6 24.6-17.7 37.3-26 3.7-2.6 5.8-3.7 10.7-2-3.8-5.8-11-16-15-21.7zm22.5 31.7c-3.5 5.3-11.3 2-16.8 4.2 6.7 3.8 14 16 17 23-15 7-27.6 13.5-42.6 20.6-3 1.5-7.5.6-10.4-.5l11.4 23.7c1.6-5 6.5-9 11-11 13.5-6 24.6-12 38.2-17.8 3.4 6.8 9.2 19.6 7.3 27.2 5.2-3 7.7-10 13.7-9.3-7.2-15.6-21.6-44.4-29-60zm32.7 67.5c-1.4 6.5-7.4 10.3-11 15-7.4 8.8-16.3 18.5-25 27.2-2 2-7 2.5-10.2 3.2-6.4 1-9.4 1.7-14.3-2.4L582 374c2.7-4.2 5.6-6.6 11-8 4.8-1 9-2.7 12.5-1.2 15.7 8.6 45.3 20.8 49 24.6l-5.4-25.8c-1.7 2.5-3.7 3.7-5.8 3-9.5-3.7-20.7-9-28.7-12 6-7 12.7-13.4 19-20 2.6-3.2 6.3-4.5 9.6-1.3l-6-28.5zM599.6 457.3c-3 0-6.4 1-10 3.5-5 4.6-7 11.7-8.7 18-2.4 10.7-8.2 32.7-10.3 43.5 3.5-3 6.6-3.2 10.6-2.3 15.8 3.4 31.4 7 47 10.3 4 .7 6.7 3.7 8.8 7 2.4-15 11.7-45.2 11.4-60.4-.3-12.5-11.8-20.5-23-18-6 2-9.7 9-11 14.2 0-7.6-5.8-16-14.8-16zm0 18c4.7 0 9 4.3 7.7 9.7-1.2 5.5-3.4 17.2-4.8 22.7-5.3-1-11-2.2-16.2-3.5 1.6-5.7 3-13.8 4.5-19.7 1.5-6.6 5.3-9 9-9zm29 1c4.7.2 9 5 8 11-1.4 7-4.2 20-5.5 27l-17.6-3.8c1.5-7 3.8-17.3 5.6-24.3 1.8-7.3 5.8-10 9.5-9.8zm-59 49l-13 23.6c3.4-1.8 7-2 9.8-.4 10.2 5.4 19 10.5 29.2 16 4 2.4 8 6.6 8.6 12.2-.2 7.5-5.4 16.6-12.3 19.7-5 2.3-10.7 0-14.5-2.3-9.3-5.6-16.7-9.6-26-15.2-3.2-2-6-3.3-6.4-9.2-4.4 7.5-8.4 15.8-13 23.6 6.2-2.8 10.4-1 15 1.8l23.3 13.6c6.3 3.5 12.5 6 21 4 7.5-1.8 13.8-9 18.3-16.3 4.7-7.7 9-16.7 8.5-25.2-.4-8.8-5.7-15-11.7-18.8-9.8-6-17.5-10-27.4-15.8-4-2.2-9.3-5.7-9.4-11.4zm5.4 91c-.2 7.4-4.4 16-9.7 22.2-2.7 3.6-11.3 13.3-14.7 17l-34.3-29c-3-2.5-5.6-6-5.7-10-5 5-11.5 12.4-16 17.8 4-.6 7.8 1.4 11 4 11.4 9.8 22.6 20 34.4 29.6 3.5 3 5.3 6.2 5.5 11.3 10.7-12 30.4-34.7 40.8-47-1.4-.5-3.3-.8-4-2.4-3.2-5.7-4-9.3-7.3-13.8zm-81.5 19.4c-3.3 4.3-10 6.8-14.7 9C468.5 649.4 454 661 451 675c-2.3 11.8.3 21.4 6.8 30 6.5 8.8 14.7 14 26 14.2 12.6 0 26-8.2 36-18.4 3.3-3.2 7.3-7.8 12-8-4-5-7.3-10.3-11.6-14.8-2.8 8.7-16.4 23-25.6 25.5-8 1.8-13.6-.4-19.5-5.5-6.5-6.8-10.6-15.2-7.8-25 4-12.7 20.8-22 31.4-20.2-2-5.6-3.4-11.7-5-17z"/><path fill-rule="evenodd" fill="#0053a0" d="M299.5 171.6c-1.3 4-2.2 9-3 13.5-.3 1-.8 1.7-1.4 2.4-29.8 30-66.8 21.4-80.6 65.5-1.5 3.7.4 7.6 7 11.3.8.4 1.4.2 1.4-.5-1.7-48 63-44.7 77.3-78 .2-.3.7-.2.8 0 12 22.3 31.6 25.2 49.6 35.6 13.5 7.7 23.2 14.8 26 37 0 1 .3.7.8.2 2-2.3 7-3.4 7-6.8-4.5-32.6-40.3-39.6-69-53l-3.7-2.8c-6-7-10.6-15-12-24.4zm-.5 40.8c-.3 0-.6 0-1 .2l-.7.8v2l.8.8 1.6 1.4c.8.5 1.7 0 2-.7v-3.3l-.7-.8c-.3-.5-.7-.6-1.2-.6h-.8zm9.8 9s-.2 0-.3.2c-.2 0-.3.4-.3.6 0 1.3-.6 3.2.6 4 .6.2 1.3.3 1.8-.2.2-.4.6-.6.6-1.2 0-.3-.4-.4-.6-.8-.2-.5 0-1.5-.2-2-.2 0-.4-.4-.7-.4-.3 0-.6-.3-1-.2zm-18 .2c-1 .3-1.8 1-2 2-.5.7-.5 1.2 0 1.6.3.7 1 1.5 1.7 2 .7.2 1.5.2 1.8-1.2.4-1.2.4-3 0-3.4-.8-.5-.7-1.2-1.5-1zm9.5 16c-3.8 11.4-4.8 17.2-7.6 26.4H304c-2.8-10.3-3-14.5-3.7-26.5zM123.5 294.4c-.2 0-.4 0-.6.3-26.8 18.8-34 52-68.3 46.6C79 352.7 78.5 380.7 81 406.6c2 22 18.8 51.4 63.8 45.2.5 0 1-.4.6-1-3-4-12.6-2.7-15-3-35.7-6.7-41.7-39.6-49-76.7-1.8-10.6-8.8-17.4-13-25.5-.4-.8-.7-1 .4-1.2 22.7-4.4 40-24 58-45 .5-.3.5-.8 0-1.2-1-1-2-2-2.8-3.3-.2-.2-.3-.3-.5-.3zm-3.4 43.2c-.2 0-.6 0-.8.2-.4.2-.6.5-.8.8-.2.3 0 1.3 0 2 0 .4.5.6.8 1l1.5 1.2c.8.6 1.6 0 1.8-.7.2-1 .2-2 0-3 0-.4-.3-.6-.5-1-.3-.2-.6-.4-1-.4h-1zm10.4 9.3h-.4c-.2.2-.3.4-.3.7 0 1.3-.7 3.2.5 4 .5.2 1.3.3 1.7-.2.2-.4.6-.5.6-1.2 0-.3-.3-.4-.5-.8v-1.8c-.3-.3-.5-.6-.8-.6-.3 0-.5-.2-.8 0zm-18.2 1.3c-1 .3-1.8 1-2 2-.5.8-.5 1.2 0 1.6.3.6 1 1.4 1.8 1.8.7.3 1.6.4 2-1 .2-1.3 0-3-.4-3.5-.7-.5-.5-1.2-1.4-1zm10.5 15.7c-1.4 11.6-5.6 25-9.8 33.6 4.8-.6 8.6 2.3 9 6 1.2-4.2 4.4-7.4 8.3-6.3-2.6-10.6-5.7-22-7.6-33.3zM160.8 477.3c-.2 0-.4 0-.7.2-41 16-49.4 53-26.3 85.7 17.3 29.2 25 41.2 16.8 64.6 32.3-38.4 89.4 23.8 122.3-24.2.4-.6-.3-1-1-1.6-1.6-1-3.3-2-5-2.5-1-.5-1.8-.2-2.5.8-13.5 14.2-57 11-90 11.2-1 0-4 .5-5 1-3 1.6-6.3 3-9.7 2.8-1 0-2.2-.5-2-2.4 1.6-24-12.6-39.3-21.7-59-3-6.8-23.8-44.6 26.5-67.5.2-.5.7-.7.7-1.4-.2-2.2-.7-4.5-1.3-7-.3-.5-.6-.7-1.2-.7zm37.4 45.7c-.4 0-.7 0-1 .3-.3 0-.6.4-.7.8-.2.4 0 1.3 0 2 0 .4.5.6.7 1l1.6 1.3c.7.5 1.7-.2 2-.8v-3c-.2-.5-.5-.7-.7-1-.2-.3-.5-.5-1-.5h-.8zm10.4 8.8h-.4c0 .3-.3.5-.3.8-.2 1.3-.8 3.2.4 4 .5.2 1.2.2 1.7-.3.3-.3 1-.4 1-1 0-.4-.6-.5-.7-1-.2-.4 0-1.3-.2-1.7 0-.3-.3-.6-.6-.7l-.8-.2zm-18.6 1c-.8.4-1.8 1-2 2.2-.5.7-.4 1.2 0 1.6.4.6 1 1.4 1.7 1.8.7.3 1.6.4 2-1 .2-1.3.3-3-.3-3.5-.7-.6-.5-1.3-1.4-1zm9.5 15c-1.4 11.8-5.7 25-9.8 33.8 4.8-.7 8.7 2.2 9 6 1.2-4.3 4.5-7.5 8.3-6.3-2.5-10.6-5.7-22-7.5-33.4zM434 477.3l-.5.4-2.7 5.8c-.8 2.2-1 4 2.4 5 59.2 24.3 30 70 14.6 97-1.6 2.7-5.4 10.8-5.7 14.4-.5 3.7 0 7 0 11 0 1-1.3 1.2-2 1-38-7.2-70.6 26.2-101.7-10-2.8-3-6.3-3.3-7.5-2.3-1.4 1-2.4 2.2-3.4 3.7-.6 1-.6 1.4 0 2.3 32.4 45.3 80-8.2 121 14.4-9.5-23 9.4-45.3 20-65.4 24-40.3-4-65-34-77.3h-.3zM402.8 522l-1 .4c-.2 0-.5.5-.6.8v2c.2.4.6.5.8.8l1.5 1.4c.8.5 1.7 0 2-.7v-3.2l-.6-.8c-.3-.4-.6-.5-1-.6h-1zm10 9.2h-.4c-.2.3-.3.5-.3.8 0 1.3-.7 3.2.4 4 .6.2 1.3.3 1.8-.2.3-.4.7-.5.7-1.2 0-.3-.4-.4-.6-.8 0-.5 0-1.4-.2-1.8-.2-.3-.3-.6-.6-.7h-1zm-18.4 1.4c-1 .3-1.7 1-2 2-.4.8-.4 1.2 0 1.6.4.7 1 1.5 1.8 1.8.8.4 1.6.4 2-1 .3-1.2.2-3-.3-3.4-.7-.5-.5-1.2-1.4-1zm10 15c-1.3 11.6-5.6 25-9.8 33.7 5-.7 8.8 2.3 9 6 1.3-4.2 4.5-7.5 8.4-6.4-2.6-10.6-5.8-22-7.6-33.4zM470 293.8l-.3.3c-.5.6-.8 3.5-1 5.4 0 .4 0 .7.4 1 8.6 5.2 34 34 56.2 39 1 .2 1 1 .6 1.5-26.3 31 5 79.2-46.8 97.6-9.7 2.7-19.4 1.4-21.2 7.8 0 .3.3.5.5.5 31.2 2 50.7-8.6 56.5-31 7.5-24.7-6.6-60 20-79.3.7-.5.3-1.4-.3-1.3-27 2.7-44-25.8-64-41.5-.2-.2-.4-.2-.5-.2zm8.6 41.6c-.4 0-.7.2-1 .3l-.8.8v2l.8 1 1.5 1.2c1 .5 1.8 0 2-.7.2-1 .2-2.2 0-3.2 0-.3-.3-.6-.5-1-.3-.2-.7-.4-1.2-.4h-.7zm9 10.2h-.2c-.2.2-.3.5-.3.7 0 1.3-.6 3.2.6 4 .5.2 1.2.3 1.7-.2.2-.3.7-.4.7-1 0-.4-.4-.4-.5-.8-.2-.5 0-1.5-.3-2 0-.2-.3-.5-.6-.5l-1-.2zm-18.7 0c-1 .4-1.8 1-2.2 2.2-.3.6-.3 1 0 1.5.5.7 1 1.5 2 1.8.5.5 1.4.5 1.7-1 .3-1 .3-2.8-.2-3.3-.7-.5-.6-1.2-1.4-1zm10 15c-1.4 11.6-5.7 25-9.8 33.6 4.8-.6 8.7 2.3 9 6 1.2-4.2 4.5-7.5 8.4-6.3-2.6-10.7-5.7-22-7.6-33.5z"/><path fill-rule="evenodd" fill="#0053a0" d="M452 221.8h-.2c-24 6.8-56.2 34.4-82.8 58.6-.8 1-2 1-2.7.7-17.7-5.7-38.3-6.4-55.4-7-24.6-2-54 1-80.2 9.4-1.2.4-2-.7-2.8-1.7-21-23-50.2-42-81.8-55.3-1-.4-1.6-.8-2.6.2-16.3 15-12.7 59.3 1.2 83.4 1.7 3.5 2 9.6 2 11.7 1 13 3.6 24 7 36 .8 7.6 3.7 15.3 8 21.7.8 1 .5 2 0 2.6l-16.2 16.3c-.4.4-1 .6-2 .8-4.5.6-6 2-8 7.4-.4.7-.3 1.3 0 2 1 1.3 6.2 10.5 10.5 15.4 4.4 4.2 2.8 8.2-.8 12 6.8 5 18.8 14.7 19.6 16.2.7 4 7.6 5.2 3.5 10.7 1 .3 1.7.7 2.6 1.4.5.7.6 1.4.7 2 .5 6 1.7 11.6 5 17.4 13.7 23.2 29 19.6 47.2 39.4 10.8 12 21.6 12.3 29 33.2-.7 8-1 12.8 2.2 19.7 4 8.4 13.4 8.7 25.6 14.2 1.7.6 2.6 1 3.8 2.3 3.2 3 7 5 11 7 3.4 1.6 7.4 1.6 10.5 0 6-3.4 7.2-1 18-8.8 10.4-3 27.2-15.6 25.4-37.2 0-.6.2-1 .4-1.6.3-1 1.2-2 2-3 4.2-5 9-9.3 11.8-15.3.6-1.4 1-2.8 2.5-4 41-33.4 26.6-18.7 41.4-30 30.4-23 10.4-50 46-65.2-4.8-10.2-3.2-11 12.5-33-8.4-4.3-14-9.3-20-13.3-18-14.3-1.6-26.3 0-33.2 1-4 2.5-9 3-14 1.8-11.5.7-25.2 6.6-31.2 4.4-4.3 5.7-27.3 6.4-29.2 4.7-15 3-17 4-26.5 0-1.4.4-2.4 0-3.8-3.5-9-7.6-18-12.3-26.8-.4-.8-.7-1.5-1.3-1.7h-.3zM438 257c-2 19-9 31.5-6.7 47.4-8 9.8-5.4 28.2-12.7 39.2-.5.6-1.2 1-2 1-9.7-1.7-16.6-14-25-21-.8-.7-1.2-1.3-1-2 3.5-7.5 11.2-15 5.2-22.8.3-22 26.5-25.4 42-41.7zM156 261c15.3 8.6 25 23 32.7 23.2 1.2 2 3 3.8 4.3 5.2 11.3 13 2.3 17.7 12.3 34.2 1 2.4 1.5 4.6 0 6-6.7 5.8-12.6 11.7-18 18-7.4 9-11 5.6-13 0-1.5-4-3-8.8-1-13.6 1-2.6.4-4.8-1.6-7.3-2.6-3.7-4.8-7.6-7-11.6-.6-1.5-1-2.8-1.4-4.6-2.6-16.3-2-40.7-7.4-49.6zM347 422c1 0 2 .7 2.2 1.8.2 1-.7 2.2-1.8 2.3-1 .2-2-.6-2.2-1.7 0-1.2.7-2 1.8-2.3zm-105 .2c1 0 2 .7 2.2 1.8 0 1-.7 2-1.8 2.2-1.2.2-2.2-.6-2.3-1.7 0-1.2.8-2 2-2.3zM411.2 468c1.7 0 2.2 1.5 2 3-1.8 22.4-12.2 16.3-36 37.4-6.2 5-4 9.8-12.5 16.8-7 6.6-13.6 13.4-19.6 22-.8 1.4-1.5-.2-1.6-.8-.3-1.8-1.4-3.8-2.8-5.4-4-4.4 2.3-4-4.8-14.5-3-4.2-6.3 1.3-8.3-5.7-1.3-4.5 0-2.3-1.7-12.7l4.2-3.3c2 5.6 4.7 10.2 7.7 14 .4.6-.4 5.3 1.4 9.4.5-6.4 6.3-10-2-21.8-1-1.6-1.6-3-2-4.8 0-.2 0-.4-.2-.6 15.8-10.2 33.4-18.6 50-25.4l-2.5 3c-.4.3.4.5.6.4 1-.3 1.4-.2 2.2 0 .5.3.5 1 .5 1.4 0 2-1.5 2-1 4.2 2.7-3.5 5.3-7 8-10.2.8-.8 1.7-1.7 3-1.6l3 .4c1 0 2 0 3-.5 2.8-1 4.8-2.3 7.4-4 1-.4 1.6-.6 2.2-.6zm-223.5 3.5h.4c8 4 18.7 6.6 24.2 9 3 1.2 6 3.2 8.3 3.6 1 0 1-.4.4-1l-2-2.6c13.7 6.3 26.3 13.6 39.5 22.4v.3l-1.2 3.2-.7 1.6c0 .4-.3.8-.5 1.2l-.8 2c-.4.7-.8 1.5-1 2.2l-.5.7-.5 1.3-.3 1c-.2 0-.2.2-.2.4 0 .4 0 .8-.2 1.3v1.3c0 .5 0 1 .2 1.5 0 1.3.5 2 1 2 0 0 .3 0 .4.2.3 0 1 .2 1-.3l.7-1.4c0-.5.3-1 .6-1.3l1.6-2.7c0-.2.3-.4.4-.6 1-1.5 2.3-3 3.4-4.4 0-.2 0-.3.2-.4l1.3-2c0-.3.3-.6.4-.8l1-2 8.5 6.3c-1.4 3.5-3.2 8-3.8 11.5-1 7.4-5.6 5.8-9 3 .2 7.6.8 11-3.5 17.7-.5 1-1 .6-1.4 0-10.4-20-20.4-15.3-33.6-36.6-1-3-3.4-6-7.7-7.5-16-6.4-27.7-10.8-27.3-29.4 0-.2.2-.5.5-.5zm142.7 66.8c.7 0 1.3.6 1.5 1.3 3.2 7.4 7.3 20.4 6 24.6-5 18.4-17.8 21.4-30 19.8-9-1.2-9-3.3-9-9.3 0-.7.8-1 1.6-1 11-3.6 17.4-9.5 17.7-20.8 0-1.7.3-3.3-.5-4.7 3-2 6-4 8.6-6.5l.3-.3c.8-1.3 1.8-2.4 3-3l.7-.2zm-60.6 1.4c.3 0 .7 0 1 .5.3.3.7 1.3 1.5 1.3 1.5 1.8 3.6 3.4 5.5 4.8-.6.6-1 1.3-1.2 2-.6 1.8-.5 4.7 0 7.4.2 1.6.8 3 1.6 4.4 4 6.3 6.7 9 11.2 12 1.8 1.2 4 2 6.2 2 .7-.2 1 .3 1 .8-.8 9-5 9.6-15.2 8.4-23-4.6-25-19.6-12.6-42.2.3-.8.6-1.2 1-1.3zm29.8 49c3.2-.2 6.5 0 9.8.3.5 0 .6.5.4 1-.4 1-1.8 2.7-2.5 3.3l-1.7.7c-2.5.6-6.4 1-7 .8-.7 0-1.3-.4-2-.7-2-1-4-2.5-6.2-3.8-.4-.4-.4-1 0-1 3-.3 6-.6 9.2-.6z"/><path fill-rule="evenodd" fill="#fdbe11" d="M449.6 238.5h-.5c-26 9.5-58.4 28.4-75.2 53.5-6.8 5.5-13.8 10.8-21 15.5 15-20-15-21.3-51-25.2-25-2-54.5 5.7-64 11-1 .4-1.5 1.4-.8 2.3 2.7 3.8 3.5 8.4 5 12.6.3.5 0 .5-.5.2-31.4-28-78.3-66-94-69.8-.7 0-1.4 0-1.8.8l-2.2 5.3c-.6 2-1.7 3.3-2.3 4-9 8.7 6.7 25 9 55.2 1.6 12.6 4.7 18.3 7.6 27 .5 1.2.8 2.3 1 3.4 4 14 6.7 28.3 12 41.3 6.5 21-18.7 17.5-19.7 34.8-.5 11.7 13.3 18 11 26.7-.2.6-1.2 1.2-.7 2 10.6 11 14.7 8.3 19 17.4 10 17.5 20.8-1.6 38.8 23.8 13.7 6.3 26.3 13.6 39.5 22.4 1-3 2-6.6 2.7-11.4 1.6-9.5 1.2-19-4.8-32.4-1-2-.4-5.2 1.6-6.7 1-.7 1.4-1 1.5.5 1.6 17.6 16 29.5 7.2 46-.3.7-.7 1.2-.6 2.2.3 2.3-.2 4.3-1 6.2l8.5 6.3 1.4-3.3c3.6-19.6 6.6-51 9.5-55 .2-.5.5-1 0-1.5-3.4-3.4-7-9-5.4-10.7 2-1.4 12.5 2.8 12.4 10.5-.4 6.8-7 70.2-15.4 79-.4.6-.3 1 0 1.2 3.6 5 2.8 6.4 1.6 7-1.2.5-3.6.3-4.7.7h-.7c1.5 2 3.6 3.5 5.5 5 1.2-1.2 3-2 6-2.5 12-2 23-1.8 31.7 2.3 1 .6 2 1.3 2.3 2 3-2 6-4 8.6-6.5-.8.6-2.5 0-2.7-1.3-4.7-25.7-9.8-29.7-12.7-49-1.2-6.6-1.8-13.5-.6-19.8.4-2 .6-4 0-6-1.7-6.4-1.6-13-.2-19.3 1-2 3.5-5 5.2-7.3 1.5-1.8 2.5-4 3.3-6.4.8-2.6 9-14.7 16-16.6.5-.2.6-.5.7-1 0-.7-1-.7-1-1.6.2-5 30.7-2.3 46.7-.8 6.2-.5 12.3-1.5 18-2.5 1 0 1 .2.5 1-4.8 5-11.7 8-18 8.8-1 .2-1.4.8-1.6 1.7-3.7 18-29.5 26.5-40.8 24.4-.7-.2-.7.3-.7.6.8 9.2-3 10-6.5 37-.2 1.4 0 2.7 0 4.2.6 4.3 2 8.5 2.8 13 15.8-10.2 33.4-18.6 50-25.4l10.2-11.2c1-1.2 3-2 4.6-2.6 13.3-5.6 26.7-14.3 36.7-25.2.3-.3 1-1 .7-1.6-3-14.4 6.4-18.6 12.4-29.3 1-1.4 0-1.7-1-2.2-6.6-4.2-12.6-10-17-15.2-1.2-1.5-1.7-3.5-2-5.3-4.8-22.3 5-24 6.8-36.8 0-6.6 1.6-14 3.6-20.8 2.4-7.8 3.5-14 6.2-18.4 1.3-39 13.4-30 10-50.8-.7-4-3-11.7-5.5-16.8-.3-.5-.6-.7-1-.7zM442 246h.8c1.4 0 2.4 1.2 2.6 2.5.3 2.5.8 4.8 1.3 7-9 21.6-3.8 51-15.5 69-.6 16-2.6 26-12 32.3-.4.3-.8.3-1.2 0-15-7.3-28.4-22.6-41.5-34.5 20.3-13.3 2-27.2 16.4-42.5 16.8-17.8 31.7-19.6 47-33l2-.8zm-292 1.2c2 0 4 1 5.6 2.4 15 6.6 13.7 12.6 25.5 18.5 2.6 1.4 6.8 3.8 10 4.5 1.7 5.3 4 5.2 9.7 14.6 1.3 2.4 6.2 6.2 6.6 9.3.3 2 .3 3.7 0 5.6 0 5.3-2.2 10.4.7 12.8 2.5 1.3 1 2.5 5.2 4.7 2.2 1 3.4 2.2 2.2 4.5-3.5 6-7.8 11.2-11.7 16.8-1 1.3-2.5 2.3-4 3.2-8.5 5-15.6 12.2-23.2 19-.5.3-.7 0-1 0-7.3-4.3-9.3-11.5-10.2-21.4-2.6-26.4-8-3.6-16.7-82-1.2-3.6-2.5-10-1.4-11.3.7-.8 1.8-1.2 3-1zm172 51c-6.8 12.6-10.2 11.4-14.3 16.3l-1 1.2-1 1.4-.5 1.4-.2 1.4c.2 4-.5 5.7.6 7v.4c.2 0 .2.3.2.4 0 .3 0 .5-.2.7-.7-.5-2-1.4-3-2.3-.7-.7-1.3-1.3-1.6-2l-.2-.5v-1c0-1-.4-.7-.6-1.7 0-.6-.3-1.4-.3-2.8v-2.7c-.2-.6 0-1 0-1.3l.3-.4.3-.4c6-6.2 14.2-10.4 21.3-15zm-48.7 1.6c6.4 4.3 13.6 10 20.6 16 0 0 0 .3.3.5.4.6.7 1.3.5 2.2-.4 2.7-1.7 5.2-2.7 8v.2c-.2 0-.3 0-.4.2-.2 0-.4 0-.6-.2-1.2-1.6-2.6-3.2-3.7-5-.4-.4-.8-1-.8-1.6v-1.5-1.3c0-.7-.3-1.3-.7-1.8-.6-1.2-1.8-1.8-3.6-2.3-1.6-.4-3-1-4-2-1.7-1-3-2.6-3.7-4.6-.8-2-1.2-4.3-1.2-7zm84.6 61.5c1.7 0 3.5.2 5.3.6 1.7.3 3.5 1 5 1.7.5.3.6 1 0 1-2.5.7-5 1.6-7.6 2.6l-4 1.6c-6.4 2.8-13 6.4-19.7 9.8-.7.2-1 0-1.4-.3l-.3-.5v-2-2.2c.2-1 .8-1 1.2-1.6 1.2-.4 2.3-1 3-1.3 2.7-1.3 3.8-2 4.7-3 .6-.4 1-1 2-1.5.7-.6 1.7-1.2 3.4-2 1-.5 2-1 3-1.3 1-.5 2-1 3-1.2.7-.4 1.6-.6 2.3-.7zm-128.4 1.4h.4l1 .5c.4 0 .6.3.8.5.8.7 1 1.4 3 2.4.6.3 1.2.6 2 .8.6.3 1.5.5 2.5.8 2.5.8 4.3 1.3 6 2 1.7.7 3.3 1.5 5.2 2.8l2.2 1.7 2.6 2.2c.4.4.8.6 1 1.2l-.2.6v.6l-1 1-.4.3h-.5l-1.5-.5c-.5 0-1-.3-1.3-.6l-1-.7-1-.8-1.8-1.7-1.3-1-1.5-.7c-.7-.2-1.2-.2-1.7 0h-.5c-.7.4-1.3 0-2 0l-1.6-.6c-4.2-1.6-9.3-5.6-9.3-10.4v-.2h.2zm8.7 45.8h3.4l3.5.5c1 0 1.8.3 2.8.5l1 .2 1.5.5 2 .7c1 .2 2 .6 3 1s2 .8 2.8 1.3l2.5 1.5c.8.4 1.5 1 2 1.4.5.2.8.3 1 .6l1.6 1c0 .2.2.3.3.4 0 0 .2 0 .3.2l.4.4 2 1.8 2.4 2.5c0 .2.2.3.3.3l2.2 2.6 1.2 1.5 1 1.4 2 3.4c.4.4.6 1 .6 1.5l-.2.4c-.6 1.4-1 2.8-1.4 4.4 0 .2-.2.4-.4.5h-.3l-3.2-2.2c-1-.6-2-1.4-2.8-2.2-1-.7-2-1.5-2.7-2.3-7.8-7-13.2-15-23.6-17-4.7-1-10.3-.7-17.5 1.2-2.6.3-5.2.3-8 0-2.7 0-5.5-.5-8-1l-4-.8-3.4-1c-2.2-.6-4-1.3-5-2 5.3.2 11.3 0 16.5 0s9.5-.7 11.6-1l2.4-1c1-.3 1.8-.6 3-.8l3-.5h.5l3.8-.2zm114.7 8.8c-4.6.3-9.6 2-15.3 7-8.7 8.4-16 19-21.5 29-.6 1.2-.8 2.3-.6 3.6 6.3 29 9 43.4 10.2 51l4.2-3.3c-2.5-7-3.8-15.5-3-25.6 3-7.7 4.6-17 6-25.7 4.5-9.7 5-13.8 9.4-13.5 4 .2 8 .4 11.7-.4 1.5-.3 2.7-.8 4-1.6 6.2-3.8 11.5-9 16-14.6.6-.6 1-1.8.6-2.4-.2-.5-.4-.7-1-.7-6.5.5-13-3.2-20.6-2.7zm-2 .7c1 0 2.4.3 3.6.7 2.4 1 4.2 3 5 5 .6 1.2 1 2.3 1 3.5 0 1.3-.3 2.5-.8 3.7-.5 1-1.2 2-2 3-2.6 2.6-6.6 3.5-10.2 2-.6 0-1.2-.4-1.7-.7l-1.5-1.2c-2.6-2.5-3.5-6.4-2-10 0-.5.3-1 .6-1.4h.2c0-.3.2-.5.3-.6l.8-1 .3-.2c.4-.4.8-.8 1.2-1 .4-.4.8-.6 1.2-.8h.2l.3-.2c.5-.3 1-.4 1.6-.5.7 0 1.3-.3 2-.3zm-105 .2c1 0 2.3 0 3.5.6.6.2 1.2.5 1.7 1 .6.2 1 .6 1.4 1 .5.5 1 1 1.2 1.4.7 1 1.2 2 1.5 3.3.3 1.8.2 3.7-.5 5.5-.3.6-.5 1-1 1.6 0 0 .2 0 0 0-1.2 2-3.4 3.5-5.7 4-1 .3-2.3.3-3.5 0-.6 0-1.3-.2-2-.4l-1.6-1c-1-.6-2-1.5-2.7-2.5-1.6-2.4-2-5.7-1-8.7l1-1.6 1-1.4s.2 0 .2-.2c.4-.4.8-.8 1.3-1l1.2-.7 1.2-.4 1.2-.3h1.5zm-30 4.5h.8l1.4.5 1.6.8 1.8 1.2h.2c.5.5 1 1 1.7 1.4l2 1.6 4.3 3.2c.8.6 1.6 1 2.4 1.7l2 1.4 1 .5 2.6 1.2c.8.5 1.7.8 2.6 1.2.3 0 .6.3 1 .4.8.4 1.8.6 2.8 1l3.6 1c1.3 0 2.6.3 4 .4l4 .2c.4 0 .6 0 .8.2 0 0 .3.2.3.5 0 2.4-2 3.2-4.4 3.3h-4c-4-.2-8-.5-11.8-1-.5 0-.8-.2-1.2-.4l-1-.8-4-2.8-3.7-3.2c-1.3-1-2.5-2-3.5-3l-2.2-2.3-1.4-1.4-1-1-1-1.4-.5-.6c-.5-.5-1.4-1-3.3-2-.2-.2-.4-.3-.4-.5l.3-.5c.3 0 .6-.3.8-.4h.6c.2-.2.4-.2.7-.3z"/></svg>