<svg xmlns="http://www.w3.org/2000/svg" width="69.4" height="86.3"><defs><clipPath id="a"><path d="M231 789.6h.2v1.4h-.2v-1.4z"/></clipPath><clipPath id="b"><path d="M200.2 736.3H395V806H200.2v-69.7z"/></clipPath></defs><path d="M22 68.3S12.4 63.5 7.7 56c0 6.4-.3 14.4-.3 14.4l14.8 3-.2-5zM47.5 68.4s9.7-4.4 14.4-12l.2 14-14.8 3v-5z" fill="#fff"/><path d="M47.6 77.7H22V66h25.6v11.7z" fill="#fff"/><path d="M42.4 67c0 4-3.4 7.4-7.6 7.4-4.2 0-7.6-3.4-7.6-7.5 0-4.3 3.4-7.6 7.6-7.6 4.2 0 7.6 3.3 7.6 7.5M4 70.8v-11l-.5-.2V58L4 58v-1l-.5-.3v-1.7l2-2V52s.2-.4.7-.4H7s.4 0 .4.4v.5l2.2 2v1.8l-.7.3v1l.6.3v11.7l-5.5 1zM65.7 70.8v-11l.7-.2V58l-.7-.2v-1l.7-.3v-1.7l-2.2-2V52s0-.4-.6-.4H63s-.6 0-.6.4v.5l-2.2 2v1.8l.7.3v1l-.8.3v11.7l5.5 1zM34.2 86.3c-5.4 0-8.8-2-12.4-3.8l-6.2-3c-6.5-2-10.8.6-11 .8l-1-1.4c.3-.2 5.2-3.3 12.5-1 2.6 1 4.6 2 6.6 3 3.7 2 7.2 4 13 3.6 5.3-.3 9-2 12.6-4l4.5-2h.4c2-1 7.8-3.2 13 .7l-1 1.3c-4.4-3.3-9.4-1.4-11.3-.6h-.4L49 82c-3.6 2-7.6 4-13.4 4.2h-1.4" fill="#fff"/><path d="M62.7 83.4l-1-.8c-.3 0-1-.2-1.7 0h-.4c-.5 0-1.2.2-1.8-.2-.2-.2-.5-.5-.5-1.2 0-.5.2-1 .6-1.2 1.2-1 4.2-.3 5.2 0h1.4c.3-3.5 1.7-6 2.5-7.2-5.6-3.4-14.3-1.5-17.6.6-4.8 3-9 5-14 5-4.5 0-8.2-1.8-12.2-3.7-2.2-1-4.4-2.2-7-3-5.2-2-11.3 0-13.5 1 .8 1.2 2 3.5 2.2 6.8 0 0 .7.2 1.3 0 1 0 4-.7 5.3.4.3.2.5.6.5 1 0 .7-.2 1-.4 1.3-.6.4-1.3.2-2 0h-.2c-.7-.2-1.4 0-1.6 0l-1.2.7v-2c-.5.2-1.8.4-2.6-.2-.4-.3-.6-.7-.6-1.2C3.2 75.4.8 73 .8 73l-.8-.8 1-.5c.4 0 8.5-4 15.7-1.6 2.7 1 5 2 7.2 3.2 3.7 2 7.3 3.6 11.3 3.6C40 76.8 44 75 48.6 72c3.8-2.4 13.8-4.5 20 0l.8.5-.6.7s-2.3 2.7-2.7 7c0 .4 0 .8-.5 1-1 .7-2 .4-2.6.3l-.3 2z" fill="#fff"/><path d="M11.5 80s-.8-1-1-1.5c-.8-1.2-6 1-6 1L6 80M57.7 80.2l1.2-1.4c.6-1 5.6 1.3 5.6 1.3l-1.4.3" fill="#fff"/><path d="M4 80s0-3.3-.8-4.7c-.8-1.4-1-2.8-1-2.8s4.3-2 7-2.2c3 0 10 1.2 12 2.4 2.2 1.2 8 4.4 11 5 3 .7 8.2 0 11.3-1.4 3-1.3 5.3-3.5 6.5-4 1.3-.6 5.4-2 8.2-2.4 2.7-.3 6 .8 8 1.2 1.8.3 1.5 1 1.5 1l-2.2 7.2s-3.6-1.2-6-1.3c-2.5 0-6.6 2-8 2.3L43 84c-1.8.6-8 2.2-11.4 1.4-3.5-.8-10.2-4.2-12-5-1.7-1-8-3-9-2.6-.8.4-6.6 2-6.6 2M39.2 53.3H39h.2zm25-41.8c-.2-.4-1-.7-3.6-.7h-2-.2c-1.6.2-3.2.5-4.6 1.2 2-2.3 4.8-3.8 6.6-4.5 0 0 .4 0 .4-.2s.3-.3 0-.5c0-.4-1-.5-1.4-.5-.6 0-1.4 0-2.5.3-.6 0-1 0-1.5.2-2.2.5-4 1.4-5.7 2.7l-.7.5 1.4-2.2c.7-1.2 1.5-2.2 2.3-3.2v-.2c0-.2.3-.4.2-.6l-.6-.2c-.2 0-1 0-4 2.4-2.8 2-5.3 4.5-7 7.4-.8 1.3-2 3.7-2.4 5.3v-.5l-.2-2v-2.6c0-.2 0-.8-.2-.8s-.6.4-.7.6c-1.5 3.4-2 6.2-2 7.8l-.5 5-.4 2-1-2-.4-1c-.7-.8-1.4-1.2-2.2-1.7-1.2-.7-2.6-1.6-4.8-4-1-1.4-2.5-4.2-3-6-.8-3.8-.7-8.3.3-12.3v-1l-.5-.2c-.3 0-.6.3-2.6 3.4-1.4 2-2.3 4.5-2.7 7l-.3 1.4c-.4-1-.8-2.3-1-3.5-.7-2.5-1-5-.7-7.5V.2L16 0c-.6 0-1.2.6-2.6 4.3C12 7.8 11.6 11 12 14.6c-1.4-2-2-4.7-2.7-7.2l-.5-1.8c0-.3-.3-1-.5-1V5H8v.8c-.2 0-.3.4-.3.7V7c-.2 2-.4 6.7 2 11.7h.2v.4l.8 1.7.3.4 1 1.4-4.4-.8c-.2 0-.4 0-.5.3 0 0 0 .4.3.5.8.5 2.3 2 4 3.4l2.7 2.5.2.2 2.8 2.6-2-.2-.4.4v.6l4.6 3.6 2 1.6 3.4 2.7h1c-1.8.8-3.5.8-5.4.2-1.5-.5-3-1.3-4.2-2.3 0-.2-.5-.5-.7-.4-.2.2 0 .7 0 1 .4.8 1 1.6 1.8 2.4-2.2-.3-4.3-1-6.7-2-.2-.2-.6-.4-.7-.2v.8c1.2 1.7 2 3 3 3.8.8 1 2 2 2.6 2.3 0 0 .4.2 2 .2.4 0 1 0 1.5-.2h.2c-1.5.5-2.8.7-4 .6-.2 0-.8 0-.8.2s.4.6.6.7c1.7.6 3.4 1 5 1.3.5 0 2 .5 3.7.6h.7l1.8.2h1.6l.3.6c-.2 0-.3 0-.4.2 0 0-.2.3 0 .5L28 52c-.2.2-.3.4-.2.6.3 1.2 1 1.7 1.4 2 .3.2.4.4.5.7 0 .2 0 .5.2.8.3.6.6 1.5.4 2l-.8.7c-.3 0-.5.3-.8.6-.8.7-.8 1.6-.2 2.7l.6.3c.2 0 .3-.2.4-.4 0-1 1.4-1.5 1.6-1.5.5 0 1 0 1.2-.4.5-.3 3-.4 3-.4l.8.2h.2l.3.2 1 .4s1.4 1 1.6 1l1 1.2c.3.3.3.2.3 0 .5-.4 1-1 1.2-2 .2-.7 0-1.4-.4-2 0-.2-.3-.3-.6-.5l-1-.8c-.4-.4-.6-1-.8-1.4.2 0 .3 0 .4-.2V55l-.3-1.5c.3 0 .5-.3.5-.5v-.3l-.6-1.5v.2c.3 0 .6.3.8.3.2 0 .2-.4.2-.6 0-1 .8-2 1.6-2.5v.3c.2 0 .2.5.4.5s.3-.3.6-.5c.3-.4.6-.7 1-.8l1.6.7c0 .3.4.8.7 1l1.2 1h0c-.2 0-.7.3-.7.5s.5.4.7.5l1.2.2c.8 0 1.6-.4 2-1 .4-.4.5-1 .4-1.5 0-.4 0-1.5-.2-2l.5-1.4c0-.7-.2-1.5-.6-2.4v-.2h-.2c0-.3-.2-.6-.4-.8-1-2-2.8-3.6-3-3.7 0-.2-.3-.5-.5-.4-.2 0-.2.5-.2.7 0-.2-.6-.7-.7-.8-.2-.3-.4-.7-.4-1 1.4-6.6 6-11 6-11V26c1-9.5 12-13.8 12-13.8h.5l.4-.7" fill="#fff"/><path d="M34.2 85.7C29 85.7 25.6 84 22 82l-6.2-3C9 77 4.4 80 4.3 80l-.3-.6c.2 0 5-3 12-.7 2.4.8 4.4 2 6.3 3 3.8 2 7.4 4 13.3 3.5 5.5-.3 9.2-2.2 12.8-4l4.5-2h.2c2-1 7.6-3 12.4.6l-.4.5c-4.5-3.3-9.7-1.3-11.7-.5H53l-4.3 2c-3.5 2-7.5 3.8-13 4.2H34" fill="#292d6b"/><path d="M33.5 80.3h-.2v1.2c.5 0 .8-.2.8-.6 0-.5 0-.7-.5-.7M37 81.8h.7l-.6-1.3v1.3zM25.5 79.8l.2-1.4-1 1 .8.4zM11.5 73h-.2v1h.2c.4 0 .6 0 .6-.5.2-.4 0-.6-.5-.6M44.4 79.7l.7-.3-.8-1 .2 1.3z" fill="#1b458f"/><path d="M63.2 76.8c-.3 0-.6-.2-.7-.6 0-.3.3-.6.6-.6.4 0 .7.2.7.5 0 .5-.2.7-.5.8m-1-3.4c0-.2-.4-.4-.7-.4-.6 0-1 .3-1 1-.2.8.2 1.2.8 1.3.3 0 .5 0 .8-.2l.2 1.2c-.4 0-.7.2-1.2 0-1.3 0-2-1-2-2.3.3-1.4 1.2-2.2 2.5-2 .4 0 .8 0 1 .3l-.2 1zm-4 2.8c-.2 0-.5-.2-.6-.6 0-.3.3-.6.6-.6s.6.2.6.5c0 .4-.2.6-.5.7m-1.8.2l-1.2.3-1-4.2 2.8-.5.3 1-1.4.3v.7l1-.2.4 1-1.2.2.3 1.4zm-5.4 2l-1.5-4 2.6-1 .4 1-1.4.5.2.4 1-.4.6.8-1.2.5.2.7 1.5-.6.4 1-2.6 1zm-1.4.8c-1.2.5-2.3 0-3-1-.4-1.3 0-2.4 1-3L49 75l.3 1h-.8c-.5.3-.7 1-.3 1.6.2.6.7.8 1.3.6l.6-.7.5 1c-.2.2-.5.5-1 .7m-3.2 1.5l-.5-.6-1.2.7v.7l-1 .5-.5-4.6 1.4-.6 3 3.2-1 .7zM40.5 83l-1.2-4.2 1.2-.4 1 3 1-.3.6 1-2.5 1zm-2 .4l-.4-.8-1.2.2v.8h-1.4l1-4.3 1.3-.2 2 4-1.3.4zm-5-1H33v1.3H32v-4.3h1.6c1 0 1.7.6 1.7 1.5 0 1-.8 1.4-2 1.4m-3.7.8l-2.5-.8 1.4-4 1.2.3-1 3 1 .4v1.2zM26.4 82l-1.2-.4v-.8l-1-.6-.6.5-1-.5 3-3.2 1.4.7-.6 4.3zm-5.8-2.8l1.5-3-1-.4.6-1 3 1.7-.3 1-1-.6-1.5 2.8-1.2-.6zm-1.3-3.6c.8.6 1 1 .8 1.7-.3 1-1.2 1-2 .7-.5-.3-1-.6-1.3-1l.6-.8 1 1c.4 0 .5 0 .6-.2 0 0 0-.3-.5-.7-.7-.6-1-1-.7-1.7.4-.8 1.2-1 2-.6.5.2.8.5 1 .8l-.4 1c-.3-.5-.7-.8-1-1H19c0 .3 0 .4.3.8M15.5 77l-1.2-.4.4-1.4-.7-3 1.3.3.3 1.8 1.2-1.4 1.3.3-2 2.2-.5 1.5zm-3.4-.7l-.6-1.4h-.2V76H9.7l.3-4.3h1.7c1 0 1.7.6 1.7 1.5 0 .6-.4 1-1 1.2l1 1.5H12zm-4 0c-1 .4-2-.3-2.3-1.6-.3-1.3.4-2.3 1.7-2.6.4 0 .8 0 1 .2v1h-.7c-.6 0-1 .5-.8 1.2 0 .8.5 1 1 1 .4 0 .7-.2 1-.4l.3 1c-.3.2-.7.4-1.2.4m41-3.7c-4.8 3-8.7 5-13.7 5-6.6 0-11.8-4.5-18.8-6.8-7-2.5-15 1.4-15 1.4S4 75 4 79.4c0 0 4.8-3 12-.6 7 2.4 10.5 7 19.6 6.5 8-.4 12.3-4 17.4-6 1.6-.6 7.4-3.3 12.4.5.4-4.4 2.8-7.2 2.8-7.2-6-4.2-15.7-2.2-19.2 0" fill="#1b458f"/><path d="M8.6 81h1c0 .2.3.2.4.2.3 0 .8.2 1 0V81s0-.2-.2-.3c-.4-.4-2-.4-3-.2v.6h.8m51.3-.4c-.7 0-1 0-1.4.3 0 0-.2 0-.2.2v.3H60c.6-.2 1.3-.2 2 0v-.7l-2-.2m2.5 2L62 82c-.5-.2-1.3-.3-2-.2h-.5c-.5.2-1 .3-1.4 0l-.2-.8c0-.3 0-.6.4-.8 1-1 4.5 0 4.8 0 .4 0 1.4.3 1.8 0l.2-.4c.4-3.8 2-6.5 2.7-7.3-5.7-3.8-15-2-18.5.3-4 2.5-8.6 5-14 5-4.2 0-8-2-11.7-3.8-2.3-1-4.6-2.2-7-3-6-2-13 .6-14.6 1.4.6.8 2.3 3.2 2.5 7 0 0 0 .2.2.3.4.2 1.4 0 1.7 0 .4 0 3.8-.7 5 .2 0 .2.3.5.3 1l-.4.7c-.4.2-1 0-1.4 0l-.5-.2c-.8-.2-1.6 0-2 0l-.5.4v-1.6h-.4c-.2 0-1.6.4-2.3-.2-.3-.2-.5-.5-.5-1-.2-4.2-2.6-6.7-2.7-6.7l-.2-.4.4-.2c.4 0 8.3-3.8 15.4-1.5 2.6 1 5 2 7 3 4 2 7.6 3.8 11.7 3.8 4.6 0 8.6-2 13.5-5 3.8-2.2 13.6-4.2 19.6 0l.3.3-.2.3s-2.4 2.7-2.8 7c0 .4-.2.7-.5 1-.8.4-2.2 0-2.3 0h-.5l-.2 1.5z" fill="#c4122e"/><path d="M34.2 85.8C29 85.8 25.6 84 22 82c-2-1-4-2-6.2-2.8C9 77 4.4 79.8 4.3 80l-.3-.7c.2 0 5-3 12-.7 2.4.8 4.4 2 6.3 3 3.8 2 7.4 3.8 13.3 3.5 5.5-.3 9.2-2 12.8-4l4.5-2h.3c2-1 7.5-3 12.3.7l-.4.5c-4.5-3.5-9.7-1.4-11.7-.6H53l-4.3 2c-3.5 1.8-7.5 3.8-13 4-.6.2-1 .2-1.5.2" fill="#c4122e"/><path d="M11 80.8c-1.6-1.3-2.2-2.5-2.3-2.6l.6-.3s.6 1 2 2.3l-.3.5zM58.5 81l-.4-.6c1.8-1.2 2-2.6 2-2.6h.7c0 .2-.2 1.7-2.2 3.2" fill="#c4122e"/><path d="M38.7 20l-.3-1.7.3 1.8" fill="#27409b"/><g clip-path="url(#a)" transform="matrix(1.25 0 0 -1.25 -250.29 1007.04)"><path d="M231.2 789.6l-.2 1.4c0-.5 0-1 .2-1.4" fill="#fff"/></g><g clip-path="url(#b)" transform="matrix(1.25 0 0 -1.25 -250.29 1007.04)"><path d="M235 775.2" fill="#f4f4f4"/><path d="M240.3 765.3l-.6-.4c-.3-.2-.6-.3-.8-.2.6.4.3 1-.3 1.6l-1.3 1.2h.2l.7-.4.3-.2.3-.2.6.2c.3 0 .4 0 .5.2 0 0 .6-1.5.3-2m-1.5.4l-.4.4-.4.2v.3l-.2.4 1-1v-.5zm-2.4 3.2l-.6 1-1.5.8 1.2-1.4c-.6.4-1.8 1-3 1.2l1.6-1.5.2-.2c-.3.2-.6.4-1.4.4-.7 0-1.5.3-2.3.7l.5-.6c.3-.3.7-.5 1.3-.7l.7-.3-1-.6c-.6-.4-1-1-1.2-1.5-.4-1-.7-2.5-.4-3.5-.8 1-1.5 2.5-1 4-1.3-.7-2-.4-3-.3-.3-.5-.8-1.8-1-2.8v.3c-.4.7-.6 1.4-.6 2.2v.8l2.7 2-4 .3h.2c1.6 1.2 3.5 2 5.4 2h.5c-1.2.5-3.4.5-4.6 0-2-.4-2.6-.5-4.4 0 2 .3 2 .3 3 1 1 .4 2.8 1.4 5 1l-1.7.6c-.7 0-1.8.2-3 0 0 0 .8.8 2.3 1-2 1.8-8 4.6-8 4.6 8.5-2 12-6 12.6-6.5-.3.7-2.2 5-7.3 8.2-.7.5-1.5.8-2.2 1.2-1.2.7-2.2 1.4-3.2 2.3-9.5 7.5-6 18-6 18-.3-2.5 0-5 .8-7 .6-1.3 1-2.5 1.7-3.6l1.8-2.8c1.2-1.5 2.6-2.7 4.2-3.6 0 0-7.2 5-3 15.3-.2-.5-3-9 7.5-16.2.2 0 .4 0 .5-.3 1.4-3.4 6.8-8.8 7.8-11.4v1.7c.5-.6 1-1.4 1.2-2.3 0 .5 0 1.3.2 1.8.7-.4 2-1.4 3-2.6v1.1s1.7-2 2.2-3.5v-.3-1c0-.2-.3-.4-.4-.5v.8l-.2.5c0 .2-.2.3-.2.3v-.7c0-.4-.2-.5-.3-.5v.5c-.3.5-1 1.8-1 2.2-.3-.3 0-1 0-1l.2-.5c-.2-.4 0-1 .5-1h-.7l.6-.7c-.5 0-1.6 1-2.2 1.5m4 1.8v.2l-.4.6c-1 1.5-2.4 2.8-2.4 2.8v-1s-4.3 2.6-6.2 5c-1.5 2-3.2 4-4.2 6.4l-.4.6c-1.3 1.5-2.6 1.2-5.6 4.6-1 1.2-2 3.5-2.4 5-.8 3.2-.6 6.8.2 10 0 0 .3 1-1.7-2-1-1.8-1.7-3.6-2-5.5l-.3-2.8c-.7 1.3-1.2 2.8-1.6 4.4-.5 2-.7 4-.5 6 0 0-.5.4-1.7-3-1.2-3.2-1.4-6-1-9.2-2 2-2.6 5.5-3.4 8.2-.2 0-.2-.2-.2-.4v-.6c-.2-1.4-.3-5.2 1.6-9.2 0 0 0-.2.2-.3l1-1.6c.3-1 .7-1.2 1.3-2l-4.7 1 3.6-3.2s4.5-.4 8-3c0 0-3 1.5-6.8 1.8l.7-.7 3-3-2.7.3 4-3h.6s1.2 0 2.5-.4c1.4-.4 2-.8 2-.8-.7.2-2 .3-2.7.2l-1.4-.2.3-.2 2.4-2h2.3c-1.8-1.2-3.6-1.7-6-1-1.2.5-2.4 1.2-3.4 2 .3-1 1.2-2 2-2.6-2.5 0-4.4.7-6.7 1.7l2.2-2.8 2-1.8h3.1c.3 0 .5 0 .8.2l2 .5-1.3-.7-.8-.4c-1.3-.7-2.7-1-4-1 1.5-.4 3-.8 4.5-1 .5 0 .7 0 1.2.3.6.3 1 .6 1.7.8l.8.5 1.2.7-.7-.7c-.2 0-.3-.3-.5-.4l-1.7-1.3c1.7-.2 2.7-.4 5 .3l-1-.8.6-1.3-.8.2.5-1 1-.7v-.5c-.3 0-.8.5-1 .7.4-1.6 1.3-1.3 1.6-2.2 0-.6.8-1.8.4-2.4-.4-.6-.7-.5-1.3-1-.8-.7-.2-1.6 0-1.8 0 .7.7 1.2 1 1.3.5.2 1 0 1.3.3.8.8 2.6 1 3.7.2-.5 1-.8 1-2 1.2 2 0 2.2-.5 3-1.6.2.6-.3 1.4-.8 1.8l-3.2.4c-.6 0-.8.8-1 1h1l-.3 1.3h.7l-.2 1c-.2.6-.4 1 .3 2.2l.7-.6.3-1 .7-.7-1 .2s.3-1 1-1.4c.5 0 1-.3 1-.5s.4-.7.3-1c0-.2-.7.8-2-.3 1 0 2-.3 2-.5l.8-.8c1-.6 1-1 1-2 .7.5.5 1.6.4 2 .8-1 .6-2.3.4-2.8.5.3 1.2 1.5.6 2.5-.2.2-1.2 1-1.4 1-.4.7-.6 1.3-.8 2h.5l-.3 1.3v.8c.3-.3.5-.3.5-.3l-.7 1.4v.8c.2 0 .2.2.2.3 0 .2 0 .3.2.4-.3-.4.5-1.2.5-1.2 0 1.2 1 2.2 2 2.6v-.6c.3.5.8.8 1.2.8l.7-.2 1-.3.5-1c.4 0 .7-.3 1.5-.8 0-.2-.3-.4-.6-.5 1-.5 2.5 0 2.3 1.3l-.2 1.6.2.8v.3h.2c0 .7-.3 1.3-.6 2" fill="#1b458f"/><path d="M247 796.6h.2c-1.8 0-3.6-.7-5-1.6 1 2.4 3.8 4 6.2 5 0 0 .3.4-2.6 0-.4 0-.7 0-1-.2-1.7-.3-3.2-1-4.5-2l-2-2c-2.4-3.3-3.2-6.2-3.2-6.2s-.3 4.2 5 9.8l2 2.8s.2.6-2.8-1.7c-2.2-1.5-4.2-3.5-5.5-5.8-.5-1-1.6-3-2-4.2 0 0 0-1 .3-2 .2-1.3.7-3 .7-3-.4.7-1 2.3-1.2 3 0 .4-.2.7-.3 1v1c-.2.2-.2.3-.2.5v3.8c-1.5-3.2-1.6-5.7-1.6-6.7v-1.4c.2-1 1-2.4 2-4 0 0-1 .4-2.2 2.6l-.3-2c1.2-2.2 2.6-4 4-5.4v2.8l.8-1c.2.8.5 2 1 3 2.4 7.3 5.2 9.5 5.2 9.5-2.6-4-5-12.4-5-16.3l1.4-1c-.2.2-.4.6-.4 1 1.2 5.5 5 9 5 9 .7 8 9.7 11.5 9.7 11.5.8.6-3.6.4-3.6.4" fill="#1b458f"/><path d="M248.5 750.4v4.5c-.5-.5-1-.8-1.4-1v-1.5h-.6v.8c-3-2-4.4-2-4.4-2 2 1 3.4 2 4.4 2.7v1.9c-3.6-3.2-7-4.8-8-5.4v-.7h6.3c1 0 2.4.2 3.8 0" fill="#d3d2d2"/><path d="M243 749.5c-1-.2-2-.5-2.7-1v1h2.6zM235 745.7l-.8-.3v2.8h.8v-2.5zM235 748.5h-.8v2h.8v-2zM238 747.5v.7h-.8V747c.3 0 .5.2.8.3v.2zM238 748.5h-.8v2h.8v-2zM236 746.7v1.5h-.6V746c.2 0 .4 0 .6.2v.5zM236 748.5h-.6v2h.6v-2zM237 748.5h-.7v2h.6v-2zM237 747v1.2h-.7v-1.9l.6.3v.2zM238 752.5h-3.8V751h3.8v1.5zM219 747.3c-.3 0-.6.2-1 .4v.5h1v-.9zM219 748.5h-1v2h1v-2zM221.2 746.2l.7-.4v2.4h-.8v-2zM222 748.5h-.8v2h.8v-2zM220 748.5h-.7v2h.6v-2zM220.8 748.5h-.5v2h.5v-2zM222 752.5h-4V751h4v1.5zM220.3 746.6l.5-.3v1.9h-.6V746.6zM217.2 748c.2 0 .4 0 .6-.2v1.6h-.6v-1.3zM219.3 747c.3 0 .4 0 .6-.2v1.5h-.7V747z" fill="#a7a5a6"/><path d="M207.8 752v3c.5-.5 1-.8 1.4-1v-1.4h.7v.8c2.8-2 4.3-2 4.3-2-2 1-3.4 2-4.4 2.7v1.9c3.4-3 6.5-4.7 7.8-5.3v-.8h-5.4c-1.6.2-3 .3-4.6 0" fill="#d3d2d2"/><path d="M216 748.7l-2.3 1h2.2v-1zM216.3 748.7v.8h.6V748.3c-.2 0-.4 0-.7.2v.2zM239 748.2v1.3h-.7v-2l.7.4v.2zM240 748.6v1h-.7V748l.6.3zM234 751v1c0 3.2-2.7 5.8-6 5.8-3 0-5.7-2.6-5.7-5.8v-1h1v1c0 2.6 2 4.8 4.7 4.8s5-2.2 5-4.8c0-.4 0-.7-.2-1h1z" fill="#a7a5a6"/><path d="M209.2 755.2v1.3l-1.4 1.4V756.2c.2-.3.6-.8 1.4-1.5v.4zM248.5 756.3c-.2-.3-.6-.8-1.4-1.5v1.6l1.5 1.5v-1.7z" fill="#d3d2d2"/><path d="M227 746.4s-.2 0-.2-.3h.7c0 .2 0 .4-.3.4M228.6 746.4c-.2 0-.3-.2-.3-.6 0-.3 0-.5.3-.5.2 0 .3.2.3.5 0 .4-.2.6-.4.6" fill="#a7a5a6"/><path d="M230 745c-.3 0-.4 0-.5.2v.2h.4s.2 0 .2.2c0 0 0 .2-.3.2h-.5v.8h1v-.2h-.7v-.4h.2c.3 0 .5 0 .5-.4s-.3-.5-.6-.5m-1.4 0c-.4 0-.6.3-.6.8s.2.8.6.8c.3 0 .6-.3.6-.8s-.3-.7-.6-.7m-1.8 0v.3c.3 0 .5.2.6.5l-.4-.2c-.2 0-.4.2-.4.5 0 .4.2.6.5.6.4 0 .7-.2.7-.6 0-.5-.4-.8-1-1m-.5 0h-.3v1.3h-.4l.4.3h.2V745zm6.5 5.6c-.6-2-2.4-3.5-4.7-3.5-2.2 0-4 1.6-4.6 3.6h-1v-5c2-.8 4-1.4 6-1.4s3.7.4 5.4 1v5.5h-1zM206.5 758.5c.2 0 .4 0 .6-.2v-2.6l-.5.2v2.5zM206.2 756h-.6v2.6h.5v-2.7zM204.7 756h.6v2.6h-.6v-2.7zM203.8 755.7l.6.2v2.5c-.2 0-.4 0-.6-.2v-2.6zM203.3 760.6h.4v-.2l-.4.2zM205.3 759.7h-.6v1.3h.6v-1.3zM206.2 761h-.6v-1.3h.6v1.3zM206.5 761l.6-.2v-1.4s-.3 0-.5.2v1.3zM204.4 759.6c-.2 0-.4 0-.6-.2v1.4h.6v-1.2zM207.2 760.7h.4l-.4-.3v.3zM203.3 758c0 .2.2.3.4.3v-.3h-.4zM207.2 758.3c.2 0 .3 0 .4-.2h-.4v.3z" fill="#a7a5a6"/><path d="M207.6 761.5c-.6.2-1.3.4-2.2.4-.8 0-1.5-.3-2-.5v-.6c.5.2 1.2.3 2 .3 1 0 1.6 0 2.2-.4v.5zM207.6 759c-.6.3-1.3.4-2.2.4-.8 0-1.5 0-2-.4v-.6c.5.3 1.2.5 2 .5 1 0 1.6-.3 2.2-.6v.6z" fill="#a7a5a6"/><path d="M207.6 761.7c-.6.3-1.3.5-2.2.5-.8 0-1.5-.2-2-.5l1.6 1.7h.9l1.6-1.7zM205 763.8v-.2h.9v.2h-.4H205M207 753h-.5v2.6h.6v-2.7zM206.2 753c-.2.2-.4.2-.6.2v2.5h.6V753zM205.3 753.2h-.6v2.5h.6v-2.5zM204.4 753h-.6v2.5h.6v-2.4zM252 758.5s.3 0 .5-.2v-2.6l-.6.2v2.5zM251.6 756h-.6v2.6h.6v-2.7zM250 756h.7v2.6h-.6v-2.7zM249.2 755.7l.6.2v2.5c-.2 0-.4 0-.6-.2v-2.6zM248.7 760.6h.4v-.2l-.3.2zM250.7 759.7h-.6v1.3h.7v-1.3zM251.6 761h-.6v-1.3h.6v1.3zM252 761l.5-.2v-1.4c-.2 0-.4 0-.6.2v1.3zM249.8 759.6c-.2 0-.4 0-.6-.2v1.4h.6v-1.2zM252.7 760.7h.4l-.3-.3v.3zM248.7 758c0 .2.2.3.4.3v-.3h-.3zM252.7 758.3l.4-.2h-.3v.3z" fill="#a7a5a6"/><path d="M253 761.5c-.5.2-1.3.4-2 .4-1 0-1.7-.3-2.3-.5v-.6c.6.2 1.3.3 2.2.3.7 0 1.5 0 2-.4v.5zM253 759c-.5.3-1.3.4-2 .4-1 0-1.7 0-2.3-.4v-.6c.6.3 1.3.5 2.2.5.7 0 1.5-.3 2-.6v.6z" fill="#a7a5a6"/><path d="M253 761.7c-.5.3-1.3.5-2 .5-1 0-1.7-.2-2.3-.5l1.7 1.7h.8l1.8-1.7zM250.4 763.8v-.2h.8v.2h-.6-.3M252.5 753h-.6v2.6h.5v-2.7zM251.6 753c-.2.2-.4.2-.6.2v2.5h.6V753zM250.7 753.2h-.6v2.5h.7v-2.5zM249.8 753h-.6v2.5h.6v-2.4zM204.4 749.5c-.2 0-.4 0-.6-.2v3.3s.4 0 .6.2v-3.3zm1 .2h-.7v3h.6v-3zm.8 3l-.6.2v-2-1.2h.6v3zm1-1.7v1.6l-.7.2V750h.6v1zm42.6-.4v2.2l-.6-.2v-2.2-.3h.6m1 .7v2.2l-.7-.2v-2-.8h.7m1-.3h-.7v3.2l.6-.2v-3zm.8-.3c-.2 0-.4 0-.6.2v3.2s.3 0 .5-.2v-3.2z" fill="#a7a5a6"/><path d="M226.2 750.3c.8-.4 1.5-.6 2-.7h.2c0 1-.2 1.7-.3 2-1 .5-1.7 1-2.3 1.6-.5.4-.8 1-1 1.3h-.2c-.4-.5-.6-1-.7-1.6v-.2c.5-1 1.3-2 2.4-2.5" fill="#c4122e"/><path d="M226 753.5c1.3 1.6 2.5 2.2 3.4 2.4v.2l-1.3.2c-.5 0-1 0-1.7-.4-.5-.2-1-.5-1.4-1 0-.3.2-1 1-1.5" fill="#c4122e"/><path d="M226.3 753.3v-.2c.5-.3 1-.7 1.8-1h.2c.5.5 1.6 1.6 3.6 2v.2c-.3.5-.7 1-1.3 1.4-.3 0-1 0-1.8-.3-1-.4-1.7-1-2.4-2M232.2 753.5H231v-.3l.2-2V750l-.4-1h.2c.5.4 1 1 1 1.5.5 1 .5 2.2.2 3.2M228.3 749.2c-.6.2-1.3.3-2 .7-1 .4-1.8 1-2.3 2h-.2v-.2c0-.5 0-1 .2-1.5.3-.8.8-1.4 1.4-1.8.7-.5 1.4-.8 2-1 .2 0 .2.2.2.2.4.4.6.8.7 1.4v.2" fill="#c4122e"/><path d="M230.6 753v.2h-.2c-1-.5-1.7-1-2-1.4v-.2c0-.2.3-.8.3-1.5V749l-.5-1v-.2c.5 0 1 0 1.4.3.5.3.8 1 1 1.4.2.5.3 1 .3 1.6 0 1-.3 1.7-.4 2" fill="#c4122e"/></g></svg>