<svg xmlns="http://www.w3.org/2000/svg" width="355.5" height="405.6" viewBox="0 0 355.508 405.592"><path fill="#211E1F" d="M305.4 290c-30.3 36-75.6 58.8-126.3 58.8-50 0-95-22.4-125.2-57.8L18 334c40.2 43.3 97.6 70.4 161.3 70.4 64 0 121.8-27.3 162-71l-36-43.4"/><path fill="none" stroke="#FFF" stroke-width="2.4" d="M305.4 290c-30.3 36-75.6 58.8-126.3 58.8-50 0-95-22.4-125.2-57.8L18 334c40.2 43.3 97.6 70.4 161.3 70.4 64 0 121.8-27.3 162-71l-36-43.4z"/><path fill="#211E1F" d="M277 125v191.3c0 5.5-3.5 10.3-8.4 12l-89 34.6L91 328.3c-5-1.8-8.4-6.6-8.4-12V124.8H277"/><path fill="none" stroke="#FFF" stroke-width="2.4" d="M277 125v191.3c0 5.5-3.5 10.3-8.4 12l-89 34.6L91 328.3c-5-1.8-8.4-6.6-8.4-12V124.8H277z"/><path fill="#FFF" d="M87 272.6v-118h185.3v118H87"/><path fill="#ED1A3B" d="M272.4 261.6c-1.7 2.6-5.7 4.4-10.3 4.4-4.6 0-8.6-1.8-10.2-4.5-1.7 2.7-5.7 4.5-10.4 4.5-4.6 0-8.6-1.8-10.2-4.4-1.7 2.6-5.7 4.4-10.3 4.4-4.8 0-8.8-1.8-10.4-4.5-1.7 2.7-5.7 4.5-10.4 4.5s-8.6-1.8-10.2-4.4c-1.7 2.6-5.7 4.4-10.4 4.4s-8.6-1.8-10.3-4.5c-1.6 2.7-5.6 4.5-10.2 4.5s-8.6-1.8-10.3-4.4c-1.6 2.6-5.6 4.4-10.3 4.4-4.6 0-8.6-1.8-10.2-4.5-1.7 2.7-5.7 4.5-10.3 4.5-4.8 0-8.8-1.8-10.5-4.4-1.6 2.7-5.6 4.4-10.2 4.4-4.7 0-8.7-1.8-10.3-4.5v-.2 52c0 5.4 3.4 10 8 11.7l84.7 32.8 84.6-32.8c4.7-1.8 8-6.3 8-11.6v-52 .2"/><path fill="#00AEEF" d="M272.4 256c-1.7 2.7-5.7 4.6-10.3 4.6-4.6 0-8.6-2-10.2-4.5-1.7 2.7-5.7 4.6-10.4 4.6-4.6 0-8.6-2-10.2-4.5-1.7 2.7-5.7 4.6-10.3 4.6-4.8 0-8.8-2-10.4-4.5-1.7 2.7-5.7 4.6-10.4 4.6s-8.6-2-10.2-4.5c-1.7 2.7-5.7 4.6-10.4 4.6s-8.6-2-10.3-4.5c-1.6 2.7-5.6 4.6-10.2 4.6s-8.6-2-10.3-4.5c-1.6 2.7-5.6 4.6-10.3 4.6-4.6 0-8.6-2-10.2-4.5-1.7 2.7-5.7 4.6-10.3 4.6-4.8 0-8.8-2-10.5-4.5v.2c-1.6 2.6-5.6 4.4-10.2 4.4-4.7 0-8.7-2-10.3-4.5v-6.3c1.6 2.6 5.6 4.4 10.3 4.4 4.6 0 8.6-1.7 10.2-4.3 1.7 2.6 5.7 4.4 10.4 4.4 4.5 0 8.5-1.7 10-4.3h.2c1.6 2.6 5.6 4.4 10.2 4.4 4.7 0 8.7-1.7 10.3-4.3 1.7 2.6 5.7 4.4 10.4 4.4s8.7-1.7 10.4-4.3c1.6 2.6 5.5 4.4 10.2 4.4 4.7 0 8.7-1.7 10.4-4.3 1.6 2.6 5.5 4.4 10.2 4.4 4.7 0 8.7-1.7 10.3-4.3 1.7 2.6 5.7 4.4 10.4 4.4 4.5 0 8.5-1.7 10.2-4.3 1.6 2.6 5.6 4.4 10.2 4.4 4.7 0 8.7-1.7 10.4-4.3 1.6 2.6 5.6 4.4 10.3 4.4 4.7 0 8.7-1.7 10.4-4.3v6.4M272.4 244.5c-1.7 2.6-5.7 4.4-10.3 4.4-4.6 0-8.6-2-10.2-4.5-1.7 2.6-5.7 4.4-10.4 4.4-4.6 0-8.6-2-10.2-4.5-1.7 2.6-5.7 4.4-10.3 4.4-4.8 0-8.8-2-10.4-4.5-1.7 2.6-5.7 4.4-10.4 4.4s-8.6-2-10.2-4.5c-1.7 2.6-5.7 4.4-10.4 4.4s-8.6-2-10.3-4.5c-1.6 2.6-5.6 4.4-10.2 4.4s-8.6-2-10.3-4.5c-1.6 2.6-5.6 4.4-10.3 4.4-4.6 0-8.6-2-10.2-4.5-1.7 2.6-5.7 4.4-10.3 4.4-4.8 0-8.8-2-10.5-4.5-1.6 2.7-5.6 4.4-10.2 4.4-4.7 0-8.7-2-10.3-4.5V238c1.6 2.6 5.6 4.5 10.3 4.5 4.6 0 8.6-1.8 10.2-4.5 1.7 2.7 5.7 4.5 10.4 4.5 4.5 0 8.5-2 10-4.5h.2c1.6 2.6 5.6 4.5 10.2 4.5 4.7 0 8.7-1.8 10.3-4.5 1.7 2.7 5.7 4.5 10.4 4.5s8.7-2 10.4-4.5c1.6 2.6 5.5 4.5 10.2 4.5 4.7 0 8.7-1.8 10.4-4.5 1.6 2.7 5.5 4.5 10.2 4.5 4.7 0 8.7-2 10.3-4.5 1.7 2.6 5.7 4.5 10.4 4.5 4.5 0 8.5-1.8 10.2-4.5 1.6 2.7 5.6 4.5 10.2 4.5 4.7 0 8.7-2 10.4-4.5 1.6 2.6 5.6 4.5 10.3 4.5 4.7 0 8.7-1.8 10.4-4.5v6.5"/><path fill="#211E1F" d="M193.3 321s9 14 4.3 10c-3.5-3-8.3-9.8-11.7-15.5l-18.8 7.3s-10.7 13-8.3 7.2c1.6-4 7-11 11.2-16l-12.7-15.4s-15.7-6-9.5-5.7c4 .2 12.6 3.3 18.7 5.8l10.6-17s1-16.8 2.5-10.7c1 4.2.7 13.2.2 20l19.5 4.6s16.3-4.3 11-1c-3.7 2.4-12 4.8-18.4 6.4l1.3 20"/><path fill="none" stroke="#211E1F" stroke-width="1.4" d="M193.3 321s9 14 4.3 10c-3.5-3-8.3-9.8-11.7-15.5l-18.8 7.3s-10.7 13-8.3 7.2c1.6-4 7-11 11.2-16l-12.7-15.4s-15.7-6-9.5-5.7c4 .2 12.6 3.3 18.7 5.8l10.6-17s1-16.8 2.5-10.7c1 4.2.7 13.2.2 20l19.5 4.6s16.3-4.3 11-1c-3.7 2.4-12 4.8-18.4 6.4l1.3 20z"/><path fill="#FFF" d="M178.4 317.2c0 .2.3.4.6.4.2 0 .4 0 .5-.4.2-.5.4-1.6.3-4 0 0 .2-8 6 .6 16.7 24-7 24-7 24h.3s-23.6 0-7-24c6-8.5 6-.6 6-.6 0 2.4.2 3.5.4 4"/><path fill="none" stroke="#211E1F" stroke-width="1.4" d="M178.4 317.2l.6.4.5-.4c.2-.5.3-1.6.3-4 0 0 .2-8 6 .6 16.7 24-7 24-7 24h.3s-23.6 0-7-24c6-8.5 6-.6 6-.6 0 2.4.2 3.5.4 4z"/><path fill="#FFF" d="M166.2 307.6c-.2.2-.3.4-.2.6 0 .2.3.4.6.4.5 0 1.6 0 4-1 0 0 7.5-2.2 1.2 6-17.7 23.3-25 .8-25 .8v.2s-7.3-22.6 20.7-14.2c10 3 2.4 5.6 2.4 5.6-2.4.6-3.4 1.2-3.8 1.6"/><path fill="none" stroke="#211E1F" stroke-width="1.4" d="M166.2 307.6c-.2.2-.2.6-.2.6l.6.4s1.6 0 4-1c0 0 7.5-2.2 1.2 6-17.7 23.3-25 .8-25 .8v.2s-7.3-22.6 20.7-14.2c10 3 2.4 5.6 2.4 5.6-2.4.6-3.4 1.2-3.8 1.6z"/><path fill="#FFF" d="M171.6 293c-.3-.2-.6-.2-.7 0-.3 0-.4.3-.3.6 0 .5.6 1.5 2 3.4 0 0 4.6 6.5-5.2 3-27.6-9.6-8.5-23.6-8.5-23.6s19-13.7 19.7 15.5c.3 10.3-4.5 4-4.5 4-1.3-2-2.2-2.8-2.6-3"/><path fill="none" stroke="#211E1F" stroke-width="1.4" d="M171.6 293h-.7l-.3.6s.6 1.5 2 3.4c0 0 4.6 6.5-5.2 3-27.6-9.6-8.5-23.6-8.5-23.6s19-13.7 19.7 15.5c.3 10.3-4.5 4-4.5 4-1.3-2-2.2-2.8-2.6-3z"/><path fill="#FFF" d="M187.2 293.5c0-.3 0-.5-.2-.7h-.7c-.5.3-1.3 1-2.6 3 0 0-4.8 6.5-4.6-4 .8-29 20-15.3 20-15.3s19 14-8.7 23.5c-9.8 3.5-5.2-3-5.2-3 1.6-2 2-3 2.2-3.5"/><path fill="none" stroke="#211E1F" stroke-width="1.4" d="M187.2 293.5l-.2-.7h-.7c-.5.3-1.3 1-2.6 3 0 0-4.8 6.5-4.6-4 .8-29 20-15.3 20-15.3s19 14-8.7 23.5c-9.8 3.5-5.2-3-5.2-3 1.6-2 2.2-3.5 2.2-3.5z"/><path fill="#FFF" d="M191.4 308.6c.3 0 .6-.2.6-.4s0-.4-.2-.6c-.4-.4-1.4-1-3.7-1.6 0 0-7.5-2.6 2.5-5.6 28-8.4 20.8 14.2 20.8 14.2v-.2s-7.4 22.5-25-.8c-6.4-8.2 1.2-6 1.2-6 2.3 1 3.4 1 4 1"/><path fill="none" stroke="#211E1F" stroke-width="1.4" d="M191.4 308.6l.6-.4s0-.4-.2-.6c-.4-.4-1.4-1-3.7-1.6 0 0-7.5-2.6 2.5-5.6 28-8.4 20.8 14.2 20.8 14.2v-.2s-7.4 22.5-25-.8c-6.4-8.2 1.2-6 1.2-6 2.3 1 4 1 4 1z"/><path fill="#211E1F" d="M162.7 281.7s-1.8 1.2-3.3 1.7c-1.6.4-2.2 1.6-2.4 2 0 0-1 2-1.5 1-.6-.7.6-2.3.6-2.3.3-.2 1-1.3 2.5-1.8 1.6-.5 3.3-1.7 3.3-1.7s1.8-1.3 2.7-2.6c1-1.4 2.2-1.7 2.6-1.8 0 0 2-.6 2.5 0 .6 1-1.6 1-1.6 1-.4.3-1.7.6-2.7 1.8-1 1.3-2.6 2.7-2.6 2.7M195 281.6s-1.6-1.3-2.5-2.6c-1-1.3-2.2-1.6-2.5-1.7 0 0-2.3-.2-1.7-1 .6-.8 2.5 0 2.5 0 .3 0 1.6.2 2.5 1.5 1 1.3 2.7 2.7 2.7 2.7s1.8 1.2 3.3 1.7c1.5.5 2.2 1.6 2.4 2 0 0 1.2 1.4.6 2.3-.6.8-1.4-1.2-1.4-1.2-.3-.3-1-1.5-2.6-2-1.4-.4-3.3-1.7-3.3-1.7M205.2 312.5s.8-2 1.7-3.4c1-1 .7-2.5.7-2.8 0 0-.5-2 .5-1.8 1 .3 1 2.2 1 2.2 0 .4 0 1.7-1 3s-1.7 3.3-1.7 3.3-.5 2-.5 3.6-1 2.6-1 3c0 0-1.2 1.5-2.2 1.2-1-.3.8-1.8.8-1.8 0-.2 1-1.3 1-2.8 0-1.6.6-3.7.6-3.7M179 331.5s2.2 0 3.7.6 2.7 0 3 0c0 0 2-1.2 2-.2s-2 1.6-2 1.6c-.3 0-1.5.6-3 0-1.5-.4-3.7-.5-3.7-.5s-2.2 0-3.7.5-2.7 0-3 0c0 0-2-.7-2-1.7s2 0 2 0c.3.2 1.5.8 3 .3 1.5-.4 3.7-.5 3.7-.5M152.8 312.5s.6 2 .6 3.7c0 1.6.8 2.6 1 2.8 0 0 1.7 1.5.8 1.8-1 .3-2-1.3-2-1.3-.3-.3-1.2-1.3-1.2-3 0-1.5-.5-3.6-.5-3.6s-.8-2-1.8-3.4c-1-1.3-.8-2.6-.8-3 0 0 0-2 1-2.2.8-.3.3 1.8.3 1.8 0 .3-.2 1.7.8 3 1 1.2 1.8 3.3 1.8 3.3"/><path fill="#FFC40D" d="M178.8 298.6c-3 0-5.3 2.4-5.3 5.3 0 3 2.4 5.2 5.3 5.2 3 0 5.4-2.3 5.4-5.3s-2.4-5.4-5.4-5.4"/><path fill="none" stroke="#FFC40D" stroke-width=".6" d="M178.8 298.6c-3 0-5.3 2.4-5.3 5.3 0 3 2.4 5.2 5.3 5.2 3 0 5.4-2.3 5.4-5.3s-2.4-5.4-5.4-5.4z"/><path fill="#211E1F" d="M189 201.7l.7 14.5 12-8 4 6.3-14.4 8.3v3s16.7 9.4-3.7 9v.2c-7 6-13.8 0-13.8 0-20.4.4-3.7-9-3.7-9v-3l-12.6-10 3-6.4 11.3 9.7.7-14.4 16.5-.3"/><path fill="#22B24C" d="M204 214c12 13.6 20.6-.6 20.6-.6 15-3.6 6-14.2 6-14.2C246.4 189 228 181 228 181c0-13.6-11.7-12.6-11.7-12.6-12-10.5-23.6 1.2-23.6 1.2-18-15-31.8 2.3-31.8 2.3s-11.6-8-16.8 4.5c0 0-18.4-.6-11.5 18 0 0-14.2 14.2 4.3 21.2 0 0 10 18.3 23.4 1 0 0 8.4.4 7-11.3 0 0 10.6 4.4 20.6-.5 0 0 3.2 7 10 3 0 0-1 4.7 5.6 5.6l.5.5"/><path fill="none" stroke="#211E1F" stroke-width="5.9" d="M204 214c12 13.6 20.6-.6 20.6-.6 15-3.6 6-14.2 6-14.2C246.4 189 228 181 228 181c0-13.6-11.7-12.6-11.7-12.6-12-10.5-23.6 1.2-23.6 1.2-18-15-31.8 2.3-31.8 2.3s-11.6-8-16.8 4.5c0 0-18.4-.6-11.5 18 0 0-14.2 14.2 4.3 21.2 0 0 10 18.3 23.4 1 0 0 8.4.4 7-11.3 0 0 10.6 4.4 20.6-.5 0 0 3.2 7 10 3 0 0-1 4.7 5.6 5.6l.5.5z"/><path fill="#FFC20E" d="M46 330.5l1 .8c-3.2 5.5-3.6 9.3-1.5 11 1.5 1.5 3.6 1 5.4-1 .7-1 1.2-2 1.2-3s-1-2.3-1.8-4.2c-1.8-3.7-1.8-6.6 1.5-10.4 3-3.7 7.4-5 10-2.6 1.2 1 1.8 2.5 2 4.4l2-.6.8.6-6.5 8-.8-1c2.6-5 3-8.3 1.2-10-1.4-1.2-3.3-.8-5 1.2-2 2.4-1 3.8.7 6.8.8 1.7 1.5 3 1 5-.2 1.7-1.2 3.8-3 5.8-3.5 4-7.5 5.2-10.3 2.7-1.3-1.4-2-3-2-5l-2.5.7-.7-.6 7.2-8.5M70.2 333.2c3-1.4 5.4-1.3 7.6.2 2.2 1.5 3.2 3.7 2.8 7-.2 3-1.6 6.5-4 10-2.3 3.3-4.6 5.5-7.5 6.8-3 1.5-5.7 1.5-7.8 0-2-1.4-3-3.8-2.7-7.2.3-3.3 1.5-6.3 4-9.6 2.3-3.5 5-6 7.7-7.2m-7.8 22.3c2.3 1.6 5.7-1 10.5-8 4.6-6.7 6-10.8 3.6-12.4-2.3-1.5-5.7 1-10.4 8-4.8 6.8-6 11-3.8 12.5zM94 346.5l-1-.6c-.8-.5-1.2-.2-2 1.2l-6.5 12.3c-2.4 4.5-2.5 7 0 8.4 1.2.5 2.4.5 3.5 0 1.7-1 2.8-3 4.5-6l4.7-9c1.4-2.5 1.7-4 0-5H97l1-1.7 5.5 3-1 1.7c-1.7-.6-2.6.3-4 2.8l-5 9.2c-1.3 2.7-2.4 4.7-4 6-2.5 2-5 2.4-7.5 1-4-2.2-4.5-6-1.7-11.4l7.2-13.3c.7-1.4.7-2 0-2.4l-1-.6.8-1.8 7.7 4-1 2M115.6 356c-.8-.2-1.2 0-1.7 1.5l-7.4 18.5c-.6 1.4-.6 2 .3 2.3l1 .5-.8 2-8-3.4.6-2 1 .6c1 .3 1.3 0 2-1.5L110 356c.6-1.4.6-2 0-2.2-1.8-.7-4.3 1.7-6.8 6.6l-1-.4 4-9.5 14.2 5.6-3.5 10-1-.5c1.5-5.3 1.3-8.8-.4-9.4M127.8 385c1 .2 1.2-.2 1.6-1.7l2.3-8.7-6-1.6-2.2 8.7c-.4 1.5-.4 2 .6 2.3l1.2.3-.5 2-8.5-2.3.5-2 1.2.3c.8.2 1 0 1.5-1.6l5-19c.5-1.5.5-2-.5-2.3l-1-.3.5-1.8 8.4 2.3-.6 2-1-.4c-1-.2-1.4.3-1.8 1.8l-2 7.8 5.8 1.6 2-8c.5-1.3.5-2-.5-2l-1.2-.4.5-2 8.5 2.4-.5 2-1.2-.4c-.8-.3-1 0-1.5 1.6l-5 19c-.5 1.5-.5 2 .5 2.2l1 .4-.4 2-8.5-2.4.6-2 1.2.4M150 389.5h1.3c.5 0 .7-.2.8-.8v-1l-.3-4.5-6-.8-.7 2c-.3.6-.5 1.3-.5 1.8-.3 1.7.3 2.4 2 2.8l-.3 2-6.5-1 .3-2c1.5-.2 2.5-1.7 3.7-4.7l8.4-20 1.8.3 2.7 25.2c.2 1.2.5 1.6 1.3 1.8l-.3 2-7.6-1v-2M147 380l4.7.8-1-9.6-3.7 9zM167.2 386.3c-.2 3.6.3 5 2.4 5v2H163V391c2 0 2.5-1.3 2.6-4.7l.4-16.7c0-1.4 0-2-1-2h-1.3v-2h7.5l3.2 16.7 3.8-16.5 7.3.2v2h-1.2c-1 0-1.2.4-1.2 2l-.4 19.6c0 1.6 0 2 1 2h1.3l-.2 2h-8.6v-2h1c1 0 1.3-.5 1.3-2l.6-20.8-5.6 24.7h-1l-4.8-24.8-.4 17.6M198.4 390.6h1.5v2l-9 .8-.2-2 1.2-.2c1 0 1-.5 1-2l-2-19.6c0-1.5-.3-2-1.2-2l-1.3.2-.2-2 10-1c4.3-.4 6.7 2 7.2 7.2.5 5.5-1.8 8.2-7 8.7-.6 0-1.3 0-2.2.2l.8 7.7c.2 1.6.5 2 1.4 2m-2.3-12h1.3c3-.3 4.2-1.6 3.8-6.2-.3-4.5-1.5-5.8-4.2-5.5-1.5 0-1.7.4-1.6 2.5l1 9.2zM219 363.3c-1 0-1 .6-.7 2l4 19.6c.3 1.4.5 1.8 1.5 1.6l1-.2.5 2-8.5 1.8-.4-2 1-.3c1-.2 1-.8 1-2.3l-4.2-19.5c-.3-1.4-.6-2-1.4-1.7-1.8.4-2.6 3.7-2 9.2l-1 .2-1.8-10.3 15-3 2.4 10-1 .3c-1.7-5.3-3.7-8-5.5-7.7M229.7 362.3c.7-3 2.2-5 4.7-6 2.6-.8 5 0 7.4 2 2.3 2.2 4 5.3 5.4 9.2 1.3 4 1.6 7 1 10.2-.7 3.4-2.3 5.5-4.8 6.3-2.5.8-4.8 0-7.4-2.2-2.4-2.2-4-5-5.3-9-1.3-3.8-1.6-7.5-1-10.5m13 19.7c2.7-.8 2.7-5.2 0-13-2.5-8-5-11.4-7.6-10.6-2.5 1-2.5 5.2 0 13 2.6 8 5 11.5 7.8 10.6zM256.7 376.6c1.7-1.2 1.5-2.5 0-5.5l-7-15-.6-.6c-.7-.5-1.2-1-2-.5h-.3l-1-1.8 5.4-2.4 15.4 12-4.4-9.5c-1.6-3.3-2.5-4.2-4.6-3.2l-.8-1.8 6-2.8 1 1.8c-1.8 1-1.6 2.2 0 5.5l8.8 19.2-1.3.5-18.7-15 6 13c1.3 3.2 2.4 4 4.4 3.3l.8 1.8-6 2.8-.8-1.8M291.4 339l-1 .6c-4-4.4-6.4-5.2-9.3-3.2-1 .8-1.2 1 0 2.7l4.5 7c0-.2.2-.2.3-.3 1.7-1.2 1.5-3-.4-6.3l1-.6 7.2 10.5-1 .6c-2.4-3-4-3.7-5.7-2.6 0 0-.2 0-.3.2l5.2 7.6c.8 1.3 1 1.5 2 1l1.3-1 1.2 1.7-7.6 5.2-1.3-1.7 1-.7c.8-.5.7-1-.2-2.3l-11-16.2c-1-1.3-1.4-1.6-2.2-1l-1 .6-1-1.7 12.3-8.5 5.8 8M313.7 344.6c-1.5 1.3-3.4 1.7-5.6 1.2-3.4-.6-7-3-10.2-6.8-2.5-3-4-6-4.8-9-.8-3.5 0-6 2-7.7 1.2-1 2.7-1.4 4.6-1l-.3-2.4.7-.8 7.6 8.3-.8 1c-5-4.3-8.4-5.5-10.3-4-2.4 2-.8 6 4.7 12.3 5.5 6.5 9 8.5 11.5 6.3 2-1.6 1.5-5-1.4-9.6l1.4-.3c3.7 5.6 4 10 1 12.6"/><path fill="#FFF" d="M18 111.5l4.3 9L10 124l4 7.6 12.2-3.4 4 7.7-12.5 3.2 3.8 7.6 12.4-3.3 3.8 7.7-12.5 3.3 4 7.6 12.4-3.2 5.5 10.7c2.3-.7 4.6-1.5 6.8-2.4l-29-57.6c-2 1-4.4 1.6-7 2M52 114.6c-1-4 8.3-9 15.8-15L57.8 80C54 82 49.7 85.2 45.4 90c-1 1.2-2.2 2.5-3 3.7l9.6 20.6"/><path fill="#ED1A3B" d="M74 79.5c-2.4-3.3-8.5-3.7-16 .4l9.8 19.7c6.8-5.6 12-12.3 6.2-20.2M25 109.4L54 167c8-3.3 14.8-8 17-11.5L58.7 129l-6.2-13-.5-1.4L42 94c-4.7 6-9 12-17 15.4M18 111.5c-4 .6-8.5.8-14 .3l6 12 12.3-3.3-4.3-9M26.2 128.2L14 131.6l3.7 7.6L30 136l-3.8-7.8M34 143.5l-12.5 3.3 3.8 7.7 12.5-3.3-4-7.7M29.2 162l4.5 9.2c4.4.3 9-.4 13.5-1.7l-5.6-10.7-12.4 3.3"/><path fill="#FFF" d="M67.6 99.8l5.5 11c4-3.3 8.2-7.2 12.6-11L75.3 81.6c3.7 7-1.3 13-7.7 18.3"/><path fill="#ED1A3B" d="M52.4 116l1.3 1c5.5 4 12 0 19.4-6.2l-5.4-11c-8.2 6.6-18.5 11.8-15.2 16"/><path fill="none" stroke="#211E1F" stroke-width="4.7" d="M52.4 116C46.2 108 87 97 74 79.4c-3.6-5-16-3.5-28.7 10.7-10 11-14.3 24-41.3 21.6l29.7 59.4c15 .8 33.4-9.5 37.4-15.7L52.5 116z"/><path fill="none" stroke="#211E1F" stroke-width="4.7" d="M85.6 100c-12.7 10.6-23.4 23-32 17-.5-.4-1-.7-1.2-1-6-7.8 31.4-18.2 23-34.5L85.5 100z"/><path fill="#FFF" d="M337.6 111.5l-4.4 9 12.2 3.4-3.8 7.6-12.3-3.4-4 7.7L338 139l-3.8 7.6-12.4-3.3-4 7.7 12.5 3.3-3.7 7.6-12.5-3.2-5.5 10.7c-2.3-.7-4.6-1.5-6.8-2.4l29-57.6c2 1 4.3 1.6 7 2M303.6 114.6c1-4-8.4-9-16-15l10-19.7c4 2 8.2 5.3 12.6 10.2 1 1.2 2 2.5 3.2 3.7l-9.8 20.6"/><path fill="#ED1A3B" d="M281.4 79.5c2.5-3.3 8.6-3.7 16.2.4l-10 19.7c-6.8-5.6-12-12.3-6.2-20.2M330.4 109.4l-29 57.7c-8-3.3-14.7-8-17-11.5L303 116c.4-.5.5-1 .6-1.4l9.8-20.7c4.8 6 9 12 17 15.4M337.6 111.5c3.8.6 8.4.8 14 .3l-6.2 12-12.2-3.3 4.4-9M329.3 128.2l12.3 3.4-3.8 7.6-12.4-3.3 4-7.8M321.6 143.5l12.4 3.3-4 7.7-12.3-3.3 4-7.7M326.3 162l-4.6 9.2c-4.3.3-9-.4-13.4-1.7l5.5-10.7 12.5 3.3"/><path fill="#FFF" d="M288 99.8l-5.6 11c-4-3.3-8-7.2-12.5-11L280 81.6c-3.7 7 1.3 13 7.7 18.3"/><path fill="#ED1A3B" d="M303 116l-1.2 1c-5.6 4-12 0-19.4-6.2l5.5-11c8 6.6 18.4 11.8 15 16"/><path fill="none" stroke="#211E1F" stroke-width="4.7" d="M303 116c6.2-8-34.4-19-21.6-36.5 3.7-5 16-3.5 28.8 10.7 10 11 14.2 24 41.3 21.6l-29.8 59.4c-15 .8-33.3-9.5-37.3-15.7L303 116z"/><path fill="none" stroke="#211E1F" stroke-width="4.7" d="M270 100c12.6 10.6 23.3 23 31.8 17l1.3-1c6-7.8-31.3-18.2-22.8-34.5L270 100z"/><path fill="#FFF" d="M215 98c-2.7 2-7.4 5-12.5 8.3v41c5.8-3.5 11.7-7.3 17.3-10.3V94.4l-5 3.5M242.6 86.7h-.7l-6 44.5h.8c4.8 0 9.2 1.5 13.4 4l13.2-40.4c-6.5-4.6-13.4-8-20.8-8M301.8 117c-5.5 4-12 0-19.2-6l-17 35.7c6.8 6 13 11 18.8 8.7L303 116l-1.2 1M53.7 117l-1.3-1L71 155.3c6 2.2 12-2.7 19-8.7L73 111c-7.4 6-13.8 10-19.3 6M177.8 117c-1.8 0-4-.7-6.6-1.6v41.4c2.4.8 4.6 1.3 6.6 1.3s4-.4 6.5-1.2v-41.4c-2.5 1-5 1.5-6.5 1.5M112.8 86.7c-7.3 0-14.2 3.5-20.7 8l13.3 40.4c4.2-2.3 8.6-4 13.5-4l.6.2-5.8-44.4h-.8M140.6 98c-1.3-1-3-2.3-5-3.6V137c5.7 3 11.6 6.8 17.4 10.3v-41c-5.2-3.2-9.8-6.3-12.4-8.4"/><path fill="#ED1A3B" d="M153 106.3v41c6.5 4 12.8 7.6 18.2 9.5v-41.4c-5.4-2-12.2-5.5-18.2-9M113.6 86.8l5.8 44.4c4.6.2 10.3 2.6 16.3 5.8V94.4c-5.5-3.5-13.6-7.4-22-7.6M73 111l17 35.7c4.7-4 9.7-8.5 15.3-11.6L92 95c-6.8 5-13.3 11.2-19 16M184.3 115.4v41.4c5.4-2 11.7-5.5 18.2-9.5v-41c-6 3.6-12.8 7.2-18.2 9M219.8 94.4V137c6-3.3 11.6-5.6 16.2-5.8l6-44.4c-8.6.2-16.7 4-22.2 7.6M263.4 94.8L250.2 135c5.6 3.2 10.6 7.6 15.3 11.7l17-35.8c-5.7-5-12-11.3-19-16.2"/><path fill="none" stroke="#211E1F" stroke-width="4.7" d="M177.8 158c14.8 0 43.3-27 59-27 20.7 0 35 29.2 47.6 24.5L303 116l-1.2 1c-14 10-34-30.3-59.2-30.3-11.8 0-22.8 7.4-27.7 11.2-7.4 5.7-29 19-37.2 19-8.4 0-30-13.3-37.2-19-5-4-16-11.3-27.8-11.3-25.2 0-45 40.2-59 30.3l-1.4-1L71 155.3c12.7 4.8 27-24.3 47.7-24.3 15.7 0 44.2 27 59 27z"/><path fill="#211E1F" d="M178.4 76.5c38.4 0 69.6-17 69.6-37.6C248 18 216.8 1 178.4 1c-38.4 0-69.6 17-69.6 37.7 0 20.6 31.2 37.5 69.6 37.5"/><path fill="none" stroke="#FFF" stroke-width="2.4" d="M178.4 76.5c38.4 0 69.6-17 69.6-37.6C248 18 216.8 1 178.4 1c-38.4 0-69.6 17-69.6 37.7 0 20.6 31.2 37.5 69.6 37.5z"/><path fill="#FFC20E" d="M178.5 70.4c34 0 61.8-14 61.8-31.5 0-17.6-27.7-31.7-61.8-31.7-34.2 0-62 14-62 31.6 0 17.3 27.8 31.4 62 31.4"/><path fill="none" d="M178.5 70.4c34 0 61.8-14 61.8-31.5 0-17.6-27.7-31.7-61.8-31.7-34.2 0-62 14-62 31.6 0 17.3 27.8 31.4 62 31.4z"/><path fill="#FFF" d="M178.5 63c27.8 0 50.4-9.2 50.4-20.3 0-11-22.7-20-50.5-20s-50.3 9-50.3 20S150.7 63 178.5 63"/><path fill="none" stroke="#211E1F" stroke-width="9.4" d="M178.5 63c27.8 0 50.4-9.2 50.4-20.3 0-11-22.7-20-50.5-20s-50.3 9-50.3 20S150.7 63 178.5 63z"/><path fill="#FFF" d="M178.3 28.4C151.6 28.4 130 50 130 76.8c0 26.8 21.6 48.5 48.3 48.5h-.5c26.7 0 48.4-21.7 48.4-48.5 0-26.7-21.7-48.4-48.4-48.4h.5"/><path fill="none" stroke="#211E1F" stroke-width="4.7" d="M178.3 28.4C151.6 28.4 130 50 130 76.8c0 26.8 21.6 48.5 48.3 48.5h-.5c26.7 0 48.4-21.7 48.4-48.5 0-26.7-21.7-48.4-48.4-48.4h.5z"/><path fill="#211E1F" d="M170.3 117l-10-17-18.2-3-4.5 5.8.5 1 .8 1c6 8.6 15 15.2 25.3 18.4l2 .3 4.3-6.6M157.8 70l7.8 24.3h24.8l8-24.2L178 55.6 157.8 70M178 45.7l15-10V31c-4.6-1.7-9.7-2.6-15-2.6-5.2 0-10.3 1-15 2.5v4.8l15 10M150 62.4l.6-19.2-4-3c-2 1.7-4 3.6-5.6 5.7h-.2c-5.5 7-9.2 15-10.4 24.2l4.3 2 15.4-9.8M195.8 100l-10 17 4.4 6.5 1.8-.3c10.5-3.2 19.5-10 25.6-18.8l.4-.6.6-1L214 97l-18.2 3M206 62.4l15.4 9.7 4.3-1.8c-1.3-9-5-17.4-10.5-24.2-1.8-2-3.8-4-5.8-5.8l-4 3 .6 19.2"/></svg>