<svg version="1.2" baseProfile="tiny" xmlns="http://www.w3.org/2000/svg" width="320.5" height="632.8" viewBox="0 0 320.546 632.83"><path fill="#001C58" d="M92.2 423.4c-1.7-.5-3.2-1.5-4.3-3-6 8.8-8.4 16.8-6.2 24 9 30 35.4 52.2 67 55-30.2-9-52.7-40.7-56.6-76M86 405.6c-2-1.3-3.6-2.6-4.7-3.7-2 7.3-3 15.2-2.7 23.4 0 1.6.2 3.3.4 5 1.2-5 3.5-10 6.8-15-.7-3-.6-6.5.2-9.8zm1.5-4.6c.8-1.8 1.8-3.5 3-5 1-1 2-2 3-2.6 3-13.4 9-25.4 17.8-34.5-13.2 9.3-23.3 22.6-28.6 38 .7 1 2.6 2.5 4.8 4zm113.8 69c-6.6-.6-15.4-2.4-19.2-3.7-4.2-1.5-8-5-10-9.6-1-1.8-1.7-4.3-2-7.3 0-1.8.2-3.8.8-6-24-7.3-49.6-17.5-67.4-27-.6 1-1.3 2.2-2 3-1.4 1.7-3 3-4.5 3.5 1.6 14.7 6.7 29.2 15 41.8 10.7 16.7 25.5 28.2 41.4 31.8 5.7 1.3 13 3 19.7 1.4 24.6-5.4 44.5-22.4 54.3-44.7l-3.8.4c-5.6 16.3-17.4 17-22.2 16.4zm32.4-51c-.3-8.5-2-16.8-5-24.4-3.6-9.4-15.5-16-31.2-19.6-29-6.5-67.3 4.3-91.6 24.8.8 3.7.5 8.2-.7 12.2 17.5 9.4 43 19.6 67 27 5.7-13 16.5-15.5 25-13.4l12.7 3 3 .5c4.2 1 7.7 3.7 9.8 7.5 1.5 2.6 3 6.7 2 12.5 3-.2 4.3-.7 4.6-1 3.2-9 4.7-18.8 4.3-29zM220 449c1-4.8 0-8.2-1.3-10.2-1.5-2.6-4-4.4-6.6-5l-3-.7c-2.6-.4-6.8-1.3-13-2.8-8.2-2-15.2 1.7-19 10 4 1.3 7.8 2.4 11.7 3.3.6-3 .7-5 .7-5 0-1.4 1.2-2.4 2.5-2.3 1.2 0 2.2 1.2 2.2 2.5 0 .2-.2 2.6-1 6 .8 0 1.6.3 2.4.5l2.2.5c.7-3.3 1-6 1.2-6.2.2-1.3 1.4-2.2 2.6-2 1.3.2 2.2 1.4 2 2.7l-1 6.4 4.4 1c.5-3 .6-5.3.6-5.3 0-1.3 1.2-2.3 2.5-2.3 1.4 0 2.4 1.2 2.3 2.5 0 .2 0 2.6-.7 5.7 3.3.4 6 .7 8.3.8zm-43.8 5.7c1.8 4 5 6.3 7.4 7 3.2 1.2 11.4 3 18.2 3.7 7.5.8 13.4-3.4 16.7-11.8-2.5 0-5.2-.4-8-.8-.5 1.7-1.2 3.4-2 5-.7 1-2 1.4-3.2.8-1.2-.7-1.6-2-1-3.3.7-1 1-2 1.5-3.2l-4.4-.7c-.5 2-1 3.8-1.7 5.2-.5 1.2-2 1.7-3 1.2-1.3-.5-1.8-2-1.3-3 .5-1.2 1-2.8 1.4-4.4l-2.3-.5-2.4-.6c-.3 1.4-.8 2.8-1.4 4.3-.5 1.2-2 1.7-3 1.2-1.3-.5-2-2-1.4-3l1.3-3.6-12.2-3.2c-1 4.3 0 7.7 1 10zM98.5 396c-1-.3-3.2-.3-5.2 2-3.3 3.6-5 8.4-4.6 14.3 0 1.5.2 2.4.7 3.6.7 2 2.6 3.5 4 3.7 1.5.3 3.3-.6 5-2.6 3.7-4.3 5.3-12.3 3.5-17.4-1-2-2-3.4-3.5-3.7z"/><path fill="#FFF" d="M122.6 8C92.2 8 85 23.8 85 23.8s35-2.6 35 32c0 15.7-8.5 26.2-17.4 37.4C92 106 80.3 121 80.3 145.6c0 41 26.3 60 49.4 77 20.2 14.8 39.3 28.7 39.3 55s-11.6 46.7-16.8 52c-9 8.8-17 10.4-23.3 11.7-6.7 1.4-13 2.6-14.2 12-24.3 14.7-39 40.7-39 69v3.3c1 21.5 10 41.3 26 56 15.7 14.4 36.2 22 57.7 21 21.4-.8 41.3-10 55.8-25.7 14.6-15.8 22-36.4 21.2-57.8-1.3-32.8-22-61.2-53-72.4h-.2l-.8-.4c-4-1.3-8.3-3-8.3-13 0-9.6 4.4-10.4 13.2-12 5.2-1 11.6-2.2 18-6 11-6.8 13-15 11-17-2.7-2.8-5.7 3-17 6.4-4 1.2-8 2-10.8 2-2.3 0-4-.3-5.3-.5 6-11 12.5-20 12.6-20l1.4-2-1.8-1.8c-2.2-2.2-3.6-7-3.6-13.3 0-8 2-18.3 6.7-29.5 5.5-13.2 27.2-56.4 77-56.4h3v-2.7c0-17.8-1.7-34.2-5-48.8l-.5-2.8s-5 1.4-9 2.3c-.4 0-4.2 1-4.3.2-.3-.7 2.6-2 3.6-2.6 3.8-2 8.5-4 8.5-4l-.5-2.2c-3.6-12.4-7.2-18.3-7.3-18.6l-1.2-2-2 .8c-41.6 13-50.5 40.7-55.8 57-2.6 8-4.2 12.7-7 12.7-8.7 0-15.7-7-18-9.5-26-26-24-44.6-21-72.8 1-10 2.3-21.3 2.3-34.2 0-32.6-12.4-47.7-39-47.7"/><path fill="#001C58" d="M171.8 277.4c0 26.3-11.2 47.6-17.6 54-20 20-36.6 5.5-36.8 25.6-9 8.3-15.7 20.8-19 35l.7.2c2 .4 3.6 1.4 5 3 25.3-20.6 64.5-31.5 94.5-24.8 9.5 2.2 17.6 5.7 23.7 11-9.2-14.8-23.2-26.3-40-32.2-3.8-1.5-10.8-3-10.8-16 0-23.8 26-5.2 43.4-31.2.8-1.3-.4-2.5-1.4-1.4-5.2 5.2-18 8.7-24.8 8.7-6.8 0-9.3-1.5-9.3-1.5 6.4-12.7 14.3-23.6 14.3-23.6-16-16 11-104 82.2-104 0-20.3-2.2-36.2-4.8-48-1.7.4-15 3.5-15.7.7-.5-2.6 10-8 13.5-9.8-3.5-12.2-7-18-7-18-61 19.3-48.8 70-63.7 70-9.6 0-17.2-7.7-20-10.4-36.4-36.4-19.4-60.6-19.4-109 0-32.7-12.6-45-36-45C99 11 90.8 21 90.8 21s32 1 32 34.8c0 35.2-39.7 45-39.7 89.7 0 74.5 88.8 73 88.8 132M129.5 55.7c0-4.3-.4-8.3-1.3-11.8 0 0 7-.3 7-8.8 0-7-4.7-11.8-6-11.8-1 0-1.2 1-3.4 1-5.3 0-5.7-6.8-5.7-6.8h2.6c15.2 0 29.4 4.6 29.4 38.2 0 12.4-1.2 23.4-2.3 33.2-1 9.6-2 18.5-1.7 27.3 0 0-26.5-3.2-26.5-23.2 0-12.8 8-16 8-37.2zM92.2 423.4c-1.7-.5-3.2-1.5-4.3-3-6 8.8-8.4 16.8-6.2 24 9 30 35.4 52.2 67 55-30.2-9-52.7-40.7-56.6-76zM86 405.6c-2-1.3-3.6-2.6-4.7-3.7-2 7.3-3 15.2-2.7 23.4 0 1.6.2 3.3.4 5 1.2-5 3.5-10 6.8-15-.7-3-.6-6.5.2-9.8zm1.5-4.6c.8-1.8 1.8-3.5 3-5 1-1 2-2 3-2.6 3-13.4 9-25.4 17.8-34.5-13.2 9.3-23.3 22.6-28.6 38 .7 1 2.6 2.5 4.8 4zm113.8 69c-6.6-.6-15.4-2.4-19.2-3.7-4.2-1.5-8-5-10-9.6-1-1.8-1.7-4.3-2-7.3 0-1.8.2-3.8.8-6-24-7.3-49.6-17.5-67.4-27-.6 1-1.3 2.2-2 3-1.4 1.7-3 3-4.5 3.5 1.6 14.7 6.7 29.2 15 41.8 10.7 16.7 25.5 28.2 41.4 31.8 5.7 1.3 13 3 19.7 1.4 24.6-5.4 44.5-22.4 54.3-44.7l-3.8.4c-5.6 16.3-17.4 17-22.2 16.4zm27.4-75.4c-3.6-9.4-15.5-16-31.2-19.6-29-6.5-67.3 4.3-91.6 24.8.8 3.7.5 8.2-.7 12.2 17.5 9.4 43 19.6 67 27 5.7-13 16.5-15.5 25-13.4l12.7 3 3 .5c4.2 1 7.7 3.7 9.8 7.5 1.5 2.6 3 6.7 2 12.5 3-.2 4.3-.7 4.6-1 3.2-9 4.7-18.8 4.3-29-.3-8.5-2-16.8-5-24.4zm-52.5 60c1.8 4 5 6.4 7.4 7.2 3.2 1 11.4 2.8 18.2 3.6 7.5.8 13.4-3.4 16.7-11.8-2.5 0-5.2-.4-8-.8-.5 1.7-1.2 3.4-2 5-.7 1-2 1.4-3.2.8-1.2-.7-1.6-2-1-3.3.7-1 1-2 1.5-3.2l-4.4-.7c-.5 2-1 3.8-1.7 5.2-.5 1.2-2 1.7-3 1.2-1.3-.5-1.8-2-1.3-3 .5-1.2 1-2.8 1.4-4.4l-2.3-.5-2.4-.6c-.3 1.4-.8 2.8-1.4 4.3-.5 1.2-2 1.7-3 1.2-1.3-.5-2-2-1.4-3l1.3-3.6-12.2-3.2c-1 4.3 0 7.7 1 10zM220 449c1-4.8 0-8.2-1.3-10.2-1.5-2.6-4-4.4-6.6-5l-3-.7c-2.6-.4-6.8-1.3-13-2.8-8.2-2-15.2 1.7-19 10 4 1.3 7.8 2.4 11.7 3.3.6-3 .7-5 .7-5 0-1.4 1.2-2.4 2.5-2.3 1.2 0 2.2 1.2 2.2 2.5 0 .2-.2 2.6-1 6 .8 0 1.6.3 2.4.5l2.2.5c.7-3.3 1-6 1.2-6.2.2-1.3 1.4-2.2 2.6-2 1.3.2 2.2 1.4 2 2.7l-1 6.4 4.4 1c.5-3 .6-5.3.6-5.3 0-1.3 1.2-2.3 2.5-2.3 1.4 0 2.4 1.2 2.3 2.5 0 .2 0 2.6-.7 5.7 3.3.4 6 .7 8.3.8zM98.4 396c-1-.3-3.2-.3-5.2 2-3.3 3.6-5 8.4-4.6 14.3 0 1.5.2 2.4.7 3.6.7 2 2.6 3.5 4 3.7 1.5.3 3.3-.6 5-2.6 3.7-4.3 5.3-12.3 3.5-17.4-1-2-2-3.4-3.5-3.7zM37.4 490c6 4 12.3 7.6 12.3 7.6l-2.2 5.7c-1-3.5-4.3-5.3-8.7-8l-14.6 21c-1.7 2.4-5.2 8-5.5 10.2l-4.5-3.2-4.5-3.2c2.2-.5 6-6 8.2-9l14-20.2c-5.3-4-7.3-5-11-5l5-4s4.8 4 11.4 8.3M267.5 561.3l.4.4c-.5 0-.8.2-1.3.5l1.3 2.4c.3.5.6 1.2 1 1.2l-.7.3-.6.4c0-.3 0-.6-.4-1.3l-1.4-2.4c-.5.2-1 .4-1 .8l-.3-.7 1.4-.7 1.5-.7M46.8 542.2c-10-4.8-11.4-16-6.5-26.3 5-10.6 14.5-16.4 24.6-11.6 10 4.8 11.3 15.8 6.3 26.3-5 10.4-14.4 16.3-24.5 11.5m16.6-34.8c-6.4-3-11.5 4.2-15.3 12.2-3.7 8-6.2 16.6.2 19.7 6.5 3 11.6-4.3 15.4-12.3 3.8-8 6.3-16.5-.2-19.6zM92 515c6.8 2 12.3 3.3 12.3 3.3l-.6 6c-1.8-2.5-2.6-3.2-8.5-4.6l-7 23.7c-.6 2.2-3.4 10.4-2.5 12l-5-1.4-5.4-1.6c2-1.2 4.2-8.3 5-11l7-24c-6-2-7.4-2.2-10.3-.8l3.5-5.2s4 1.6 11.4 3.7M120 521.4c6.8 1 13 1.6 13 1.6l.4 6c-2.5-2-3.5-2.8-10-3.7l-4 24.4c-.2 2.2-1.6 10.7-.5 12 0 0-2.5 0-5.7-.6-3.2-.3-5.2-.8-5.2-.8 1.7-1.2 3-9.3 3.3-11.5l4-24.7c-5.8-1-7-.7-9.8 1l2.5-6s5.4 1.4 12 2.4M145 544.6l-.5 16.4c8.6 0 14.5-.5 17-4.2l-1.2 7.4h-11.8c-7.6 0-13.6-.6-13.6-.6 1.2-1.2 1.5-9.2 1.5-11.5l.7-16c0-4.2.4-11-1-12.6l11 .7c7.6.4 11.8 0 11.8 0l1 6.3c-3-2.5-7.3-2.7-14.5-2.8l-.4 13.8h11c1 0 1.2.6 1.2 1.7 0 1 0 1.7-1 1.6H145M193 549.5c.6 6 1.2 10.3 2.6 11-.4.6-1.4 1.5-3 1.6-1.6.3-3-.6-4-2L169 537.8l.8 14.2c.2 2.2.5 10.6 2 11.8l-6.6.3c1-1.3.8-9.4.6-11.6l-1-16c-.2-2.3-.6-11.2-2-12.3h6l20 23.6L187 534c-.2-2.3-1.4-10.4-2.8-11.5l3.2-.4 3.3-.4c-1 1.4.2 9.7.4 12l2 16M229.5 541c.7 2.8 2 10 4 11.3l-4.8 1.5-5.4 1.5c1-1.5-1-10-1.6-12.2l-1.8-7.4-12.5 3 1.4 7.6c.3 2.5 1.6 10.7 3.3 11.7l-5.4 1-5.2 1c1-1.6-.3-9.2-.7-11.6l-3-16c-.4-3-1.8-10.6-3.5-11.4l5.2-1c3.5-.7 5.2-1.2 5.2-1.2-1 1.8.6 9 1 11.6l1 5 12-3-1.2-5c-.7-2.8-2.2-9.4-4-10.7l5.2-1.4 4.8-1.5c-.7 1.8 1.2 8.2 2 11.5l3.7 15.8M252 531.6l-12 4.7.5 6.6c.3 2.2.3 4.3.8 5.5.2.5.6 1 1 1 0 0-1.2.6-3.3 1.3l-3.2 1c.7-1.3 1-3 .8-5.2l-1-31.4c-.2-1-.3-2.2-.7-3-.4-1-1-1.3-1.4-1.7 1.4-1 3-1.8 5-2.6 2.7-1.2 3.8-1.2 5.8 1.2l17.8 22c3.2 4 6 7 8 7.5l-5.3 2.4c-3.5 1.6-5.8 2.4-5.8 2.4.2-.7.2-1.4-.2-2.6-.5-1.2-2.2-3.3-3.4-4.8l-3.5-4.4m-2-2.6l-10.8-15 .8 18.8 10-3.8zM302.7 520.2l-4.2 3c-.2-2.5-4.8-8.4-6.2-10.2L282 499.4l8.3 26.8c-.3.5-1 1.2-1.5 1.7-1.6 1-3.2 1-4.7-.3l-19.7-16.4 7 12.8c1.6 3.3 5 10 7 10.7l-3 1.6-2.8 1.3c.4-2-2.8-7.5-4.7-11L260 512c-2.2-4.3-4.8-8.8-7-9.7l4.6-2.3 4-2 22.2 19-8.8-27 3.4-2 4.3-3c0 2.3 4.8 8.4 6.5 10.6l9.6 12.4c2 2.5 5.8 8.2 8.5 8.8 0 0-2 1.7-4.6 3.4M272.5 560l1 1.5 1 1-.5.4c-.3 0-.5.2-.5.2 0-.4-.5-1-.7-1.2l-1.2-1.5 1 3s0 .2-.2.2c-.2.2-.4 0-.6 0l-2.3-2 1 1.6c0 .4.5 1 .8 1.2l-.4.2-.4.2c0-.5-.4-1.2-.6-1.4l-1-1.7c-.2-.5-.5-1-.8-1l.6-.4c.2 0 .3-.2.5-.3l2.5 2-1-3s.3 0 .5-.2c.3 0 .5-.2.5-.2 0 .3.4 1 .7 1.3M74.5 569l4.7 1.7c-2.3 1.6-4.3 8-5.7 11.6l-5 14.4c-1.5 4-4 9.6-3 11.6l-5.2-1.8c-2-.7-3-1-5.2-2 2.6-.7 5-9 5.8-11.2l2.4-6.7-12.5-5.2L47 589c-1 2.7-3.8 8.8-3.2 10.6 0 0-2-1-5.4-2.3l-4.6-2.2c2.7-1.2 4.3-5.5 6.3-10l6.6-14.3c2.2-5 4.2-9 4-12L55 561l5.3 2.2c-2 .8-5 8-6.4 11.3l-2 4 12.2 5L66 579c1-2.4 4-9.5 3.2-12l5.3 2M88.5 615.7c-10.8-3-14.3-13.3-11.4-24.2 3-11 11.2-18.4 22-15.5 10.7 2.8 14.2 13.2 11.3 24.2-3 11-11 18.3-21.8 15.5M98 579c-6.8-1.7-10.4 6.2-12.6 14.6-2.2 8.4-3 17.2 4 19 6.8 1.8 10.4-6.2 12.6-14.6 2.2-8.4 3-17-4-19zM117.8 619.5s.7-.7 1-2.2c.8-2 1.2-6.2 1.7-9.4l3-23.5c-6.4-1-8-.4-11 1.3l2.8-6c2 .4 6.4 1 12 1.6 3.5.5 14.3 1.4 14.3 1.4l.3 6c-2.4-2.7-5-3-10.3-3.4l-3 23.5c-.3 2-1.5 9.7-.3 12l-5.2-.7-5.4-.8M169.2 611.4c0 7-5.7 12.2-14.5 12-7 0-10.5-3-11.8-4l1.3-6.7c2 4.2 5.7 7.3 9.6 7.4 4 .2 7.3-2.3 7.4-6.4 0-3-1.6-4.8-8.5-8.4-6.7-3.4-9.2-6.8-9.2-12 0-7 6-10.4 13-10.4 5.3 0 9 1.6 11.2 2.8l-1.4 6c-3.2-4-6-5.6-9.5-5.7-3.3-.2-5.7 1.7-5.7 5.2 0 3.8 4.2 6 10 9 6.4 3.7 7.8 7.3 8 11.2M201.3 589.8l.4 2.6v2.6c0 2.3-1.2 5-3 6.8-2.7 3-6.3 4.3-11 4.6-2 0-2.3-.5-2.4-1.8v-.3s0-.5.3-.5h.5c1.5-.3 3.6-.7 5.2-2.7s2.2-4.8 2-7.7c-.4-3-1.3-5.4-3.4-7-1.8-1.3-4-1.8-6-1.6l-2 .2s-.5 0-.5.5l2.3 24.3c.2 2 .8 9.7 2.6 11.2l-5.8.5c-2.8.3-5 .3-5 .3.7-1.8.6-4.6.4-7.8l-1.8-19.2c-.3-2-.6-9.7-2.4-11.5 0 0 4.8-.7 13.7-1.6 4.6-.4 8.4.2 11.7 2.4 2.2 1.6 3.7 3.7 4.3 5.8M237.6 597.6c2 8.5-2 15.6-10.8 17.8-6 1.6-15-.7-17.4-11.5l-3-12.8c-1-3.6-2-10-4.2-11.6l6-1 5.2-1c-1 1.5 0 7.4 1 11.7l4 16.2c.5 3 1.5 5 3.2 6.2 1.2 1 3 1 4.6.8 1.5-.3 3.2-1.2 4-2.7 1-1.7 1-4 .2-7l-4.3-16.3c-1-4.4-2.4-10-4-11 0 0 2-.4 5.2-1.4 2.5-.6 4-1 5-1.4-1 2.4 1.5 10 2 12l3.4 13M277 594.3c.8.4 1.7.6 2.5.3 0 .5-.6 1.5-1.4 2.4-3.5 3.6-6.8 3-8 2.5-6-2.3-16.2-11.3-16.7-12.3 0 0 0-.3.2-.4h.4c1.5-.8 3.3-2.6 4-4.3 1-2.5 1-4.8-.2-7.5-1.2-3-3.3-4.7-5-5.2-2.4-.7-4.2 0-5.3.3l-2 1s-.2.4 0 1.4l7.8 22c1.2 3.2 3.3 9.6 5 10.6 0 0-2 1-5 2l-5.2 1.7c.7-2.5-1.7-9.2-2.3-11l-5-15c-1.3-3.5-3.5-10-5.4-11 0 0 3.6-1 11.8-4.4 4.5-2 8.7-2.6 12.5-1.5 2.3.7 4 1.8 5.2 3.7l1 2c.4.8.6 1.6.7 2.3.4 2.2 0 4.6-1.2 7 0 0-1.2 2.2-3.7 4 0 0 8 6.7 15.5 9.5"/></svg>