<?xml version="1.0" encoding="utf-8"?>
<!-- Generator: Adobe Illustrator 19.2.1, SVG Export Plug-In . SVG Version: 6.00 Build 0)  -->
<!DOCTYPE svg PUBLIC "-//W3C//DTD SVG 1.1//EN" "http://www.w3.org/Graphics/SVG/1.1/DTD/svg11.dtd">
<svg version="1.1" id="Layer_1" xmlns="http://www.w3.org/2000/svg" xmlns:xlink="http://www.w3.org/1999/xlink" x="0px" y="0px"
	 viewBox="0 0 460.1 531.6" style="enable-background:new 0 0 460.1 531.6;" xml:space="preserve">
<style type="text/css">
	.st0{fill:#FFFFFF;}
	.st1{fill:#1B449C;}
	.st2{fill:#E03A3E;}
	.st3{fill:none;}
</style>
<path class="st0" d="M438.9,361.5l-0.2-0.2l-21-18.4l-4.5-4.1c-4.2-4.2-10.8-9.4-22-9.1c-1.9,0-3.7,0.2-5.5,0.5
	c1.9-8.9,3.4-18.4,4.3-28.3c0.6-6.9,0.9-13.7,1-20.3l0-2.6l-0.1-5.4l0,0.5V12.9H66.5v261.2l0-0.5l-0.2,5.4v2.6
	c0,6.6,0.4,13.4,1,20.3c0.9,9.9,2.3,19.3,4.2,28.3c-1.7-0.3-3.5-0.5-5.3-0.5c-11.2-0.4-17.8,4.8-22,9.1l-4.5,4.1l-21,18.4l-0.2,0.2
	c-7.3,7.2-8,14.3-7.3,18.9c1.9,13.2,18.7,23,20.4,23.9l9.8-7.7c7-2.7,11,1.1,11,1.1c0.7,0.4,3.1,2.3,4.5,10l0.8,4.5l-9.4,8.1
	l3.3,4.8c9.7,14.2,13.4,18.5,19.7,25.6c42,47.4,96.2,72.4,156.6,72.4h1c60.4,0,114.5-25,156.6-72.4c6.3-7.1,10-11.4,19.7-25.5
	l3.3-4.8l-9.1-7.9l0.9-4.7c1.5-7.7,3.8-9.6,4.5-10c0,0,4-3.8,11-1.1l9.9,7.7c1.7-0.9,18.5-10.7,20.4-23.9
	C446.9,375.8,446.2,368.8,438.9,361.5L438.9,361.5z"/>
<path class="st1" d="M413.6,346.6c0,0,10.6,22.8-21.6,25.2l33.3,26.1c0,0,26.7-15.6,9.9-32.3L413.6,346.6L413.6,346.6z"/>
<path class="st2" d="M407,361.4c5.9-6.2,0.2-16.6,0.2-16.6s-5.1-9.6-15.4-9.1c-2.5-0.1-5.1,0.4-7.6,1.2c-2.1,8.4-4.7,16.3-7.8,23.6
	h0c-0.4,1.1-4.1,9.9-11.3,22l3.9,3.4l25,21.6c3.1-21.2,15-16,15-16l-28.1-22.3C402.2,368.3,407,361.4,407,361.4L407,361.4z"/>
<path class="st1" d="M43.7,346.9c0,0-10.6,22.8,21.6,25.2L32,398.1c0,0-26.7-15.6-9.9-32.3L43.7,346.9L43.7,346.9z"/>
<path class="st2" d="M50.4,361.7c-5.9-6.2-0.2-16.6-0.2-16.6s5.1-9.6,15.4-9.1c2.5-0.1,5.1,0.4,7.6,1.2c2.1,8.4,4.7,16.3,7.8,23.6h0
	c0.4,1.1,4.1,9.9,11.3,22c-0.9,0.8-2.2,1.9-3.9,3.4l-25,21.6c-3.1-21.1-15-16-15-16l28-22.3C55.1,368.6,50.4,361.7,50.4,361.7z"/>
<path class="st1" d="M356.5,383.8c9.1-14.3,13.5-25.1,13.7-25.7l-0.1,0.3c6.9-16.2,11.4-35.4,13.3-57c0.6-6.7,0.9-13.3,0.9-19.7
	l0-2.6c0-1.9,0-3.5-0.1-4.9V19.5H73.1v254.7c-0.1,1.4-0.1,3.1-0.1,4.9v2.6c0,6.5,0.4,13.1,1,19.8c1.9,21.5,6.3,40.5,13.1,56.7
	c0.5,1.4,4.9,11.9,13.6,25.7l-43.4,37.6c9.6,14.1,13.3,18.2,19.2,24.9c40.8,45.9,93.2,70.1,151.7,70.1h1
	c58.5,0,110.9-24.3,151.7-70.2c6-6.7,9.6-10.8,19.2-24.9L356.5,383.8L356.5,383.8z"/>
<path class="st0" d="M228.7,33.8H87.4v240.6c0,0-2.3,42.6,12.9,78.4c0,0,36.2,92.4,127.9,92.4h0.5c91.7,0,128.4-92.4,128.4-92.4
	c15.2-35.8,12.9-78.4,12.9-78.4V33.8H228.7L228.7,33.8z"/>
<path class="st2" d="M202.5,170.5h52.1v203.9h-52.1V170.5 M159.6,93.5V59.1c-7.1,0.4-13.6,2-20,4.9l4.1-12.7h50.6l-5.4,11.3
	c-4.4-2.2-9.2-3.3-15-3.5v34.4c0,5.4,0.7,10.2,2.9,14.8h-20.1C158.9,103.7,159.6,98.9,159.6,93.5L159.6,93.5z M257.1,93.5V66.1
	c0-5.4-0.7-10.3-2.9-14.8h20.1c-2.2,4.6-2.9,9.4-2.9,14.8v11l17.4-19.7c1.7-2,2.6-3.7,2.6-5.4c0-0.2-0.1-0.5-0.1-0.7h22.5
	c-5.3,3.3-9.5,6.3-12.2,9.3l-15,16.2l20.3,24c1.9,2.3,4.5,4.8,7.9,7.6h-22.5c0.1-0.7,0.2-1.4,0.2-2c0-2.3-1-4.1-2.8-6.3l-18.3-22
	v15.4c0,5.4,0.7,10.3,2.9,14.9h-20.1C256.4,103.7,257.2,98.9,257.1,93.5L257.1,93.5z M320.4,93.5V66.1c0-5.4-0.7-10.3-2.9-14.8h38.9
	L350,62.4c-4.1-1.6-9.1-2.4-15.2-2.6v15.8h19.7l-7.4,10.3c-2.8-1.7-6.5-2.5-11.1-2.5h-1.3v16.4c1.9,0.1,3.8,0.2,5.6,0.2
	c8.2,0,15-0.9,20.7-3l-5.4,11.4h-38.1C319.7,103.7,320.4,98.9,320.4,93.5L320.4,93.5z"/>
<path class="st2" d="M185.9,126.8c-7.8,0-13.3,5.2-13.3,13.3c0,8.2,5.8,13.5,14.4,13.5c4.8,0,8.4-1.6,11.7-5.1l-1.3,8.7
	c-4.1,1.6-8.5,2.4-13.2,2.4c-5.3,0-9.7-1.2-13.5-3.7c-5.4-3.6-8.1-8.4-8.1-14.4c0-6.3,3-11.8,8.3-15.6c4.7-3.3,10.4-5.1,16.8-5.1
	c3.2,0,6.6,0.5,10.2,1.5v9.5C194.2,128.5,190.2,126.8,185.9,126.8L185.9,126.8z M205.9,149.2V131c0-3.6-0.5-6.8-1.9-9.9H217
	c-1.4,3.1-1.9,6.3-1.9,9.9v18.2c0,3.6,0.5,6.8,1.9,9.9h-12.9C205.5,156,205.9,152.8,205.9,149.2z M233.2,149.2v-22.8
	c-4.6,0.2-8.7,1.3-12.8,3.2l2.6-8.4h32.5l-3.5,7.5c-2.8-1.5-5.9-2.2-9.6-2.3v22.8c0,3.6,0.5,6.8,1.9,9.9h-12.9
	C232.8,156,233.2,152.8,233.2,149.2L233.2,149.2z M284,159H271c1.4-3.1,1.9-6.3,1.9-9.9v-7.9l-9.7-13.9c-1.6-2.2-3.3-4.3-5.2-6.3
	h12.9c-0.1,0.3-0.1,0.6-0.1,0.9c0,1,0.2,1.8,0.6,2.4l6.6,9.8l5.5-9.1c0.5-0.9,0.8-1.8,0.8-2.8c0-0.4-0.1-0.8-0.1-1.2h11.8
	c-2.2,2-4.1,4.1-5.7,6.5l-8.2,12.2v9.4C282.1,152.8,282.6,156,284,159z"/>
<path class="st2" d="M220.7,57.7c-9.2,0-13.5,10.7-13.5,21.9s4.3,21.9,13.5,21.9c9.2,0,13.5-10.7,13.5-21.9
	C234.2,68.4,229.9,57.7,220.7,57.7L220.7,57.7z M250.4,79.9c0,18.8-13.3,29-29.7,29c-16.4,0-29.7-9.6-29.7-29c0-16,13.3-29,29.7-29
	C237.1,50.9,250.4,63.9,250.4,79.9L250.4,79.9z"/>
<path class="st1" d="M206.2,416c0-6.5,1.5-9.8,4.6-9.8c3.1,0,4.6,3.2,4.6,9.8c0,6.5-1.6,9.7-4.6,9.7
	C207.5,425.7,206.2,422.6,206.2,416L206.2,416z M216.4,404c4.2-1.3,6.4-4.7,6.4-9.4c0-6.7-4.1-10.4-11.5-10.4
	c-7.8,0-12.3,4.2-12.3,10.4c0,4.7,2.3,8.1,6.4,9.3v0.5c-5.2,1.4-7.9,5.5-7.9,12c0,8,4.8,11.5,13.4,13.1c8.6,1.7,13.4-2.5,13.4-10.6
	c0-5.9-2.8-13.3-7.9-14.5L216.4,404L216.4,404z M206.5,395.2c0-5,1.5-7.6,4.3-7.6c3.1,0,4.3,2.4,4.3,7.6c0,5.1-1.4,7.5-4.3,7.5
	C207.9,402.7,206.5,400.3,206.5,395.2L206.5,395.2z"/>
<path class="st1" d="M237.4,405.7v-0.2c0-10.9,2.3-17.2,7.2-17.2c2.3,0,4.1,1.3,5.8,4l0.3-0.1c0.1-2,0.4-4.1,0.8-6.5
	c-2.2-1-6.8-1.6-9.1-1.6c-10.7,0-14.4,12.3-14.4,28.9c0,12.7,4.8,18.9,13.8,17.5c8.2-1.3,13.1-5.9,13.1-15.6c0-8-3.9-12.7-10.1-12.7
	C241.5,402.3,238.8,403.6,237.4,405.7L237.4,405.7z M245.8,416.7c0,6.9-1.3,10.3-4.1,10.3c-2.8,0-4.2-3.5-4.2-10.6
	c0-6.3,1.4-9.3,4.1-9.3C244.7,407.1,245.8,410.2,245.8,416.7L245.8,416.7z"/>
<path class="st3" d="M237.4,405.7v-0.2c0-10.9,2.3-17.2,7.2-17.2c2.3,0,4.1,1.3,5.8,4l0.3-0.1c0.1-2,0.4-4.1,0.8-6.5
	c-2.2-1-6.8-1.6-9.1-1.6c-10.7,0-14.4,12.3-14.4,28.9c0,12.7,4.8,18.9,13.8,17.5c8.2-1.3,13.1-5.9,13.1-15.6c0-8-3.9-12.7-10.1-12.7
	C241.5,402.3,238.8,403.6,237.4,405.7L237.4,405.7z M245.8,416.7c0,6.9-1.3,10.3-4.1,10.3c-2.8,0-4.2-3.5-4.2-10.6
	c0-6.3,1.4-9.3,4.1-9.3C244.7,407.1,245.8,410.2,245.8,416.7L245.8,416.7z"/>
<path class="st1" d="M260.4,418.4c1.5,2.8,5.3,3,5.3,3c7.9-0.3,7-12.8,7-12.8c-0.9-6.4-5.7-5.6-9.6-5.3c-0.6,0.1-1.6,0.1-2.2,0.2
	l0.2-4.7c0.4,0,0.9,0,1.3,0c4.2-0.4,7-1.6,7.8-5.8c0.5-2.5,0-6.4-4.3-6.3c-4.8,0.1-5.6,3.7-6.9,5.5l-0.6-0.3l-0.5-5.5
	c2.5-3,8.8-3.4,8.8-3.4c6.5-0.6,11.5,3,11.9,8.1c0.3,3.7-1,5.3-5.6,7.4l0,0.4c5.4-0.3,7.5,1.5,8.7,5.2c2,6.1,1.4,21.7-25.1,22.9
	c0,0,2.1-2.4,2.9-8.3L260.4,418.4L260.4,418.4z"/>
<path class="st1" d="M193,424.8c-4.4-1.7-11.1-5.3-11.1-5.3c0.4-3.6,1.2-11.2,1.2-23.9c0-1.4-0.1-2.4-0.2-4.4
	c-2.1,0.9-1.2,0.1-3.3,1.4l-2.3-3.6c5.7-1.9,8-2.1,13.6-5.1l1.1,0.6c-0.2,11.4-0.1,17.8-0.1,21.5c0,4.7,0.6,12.3,1,16.9
	C192.8,423.9,193,424.8,193,424.8L193,424.8z"/>
<path class="st2" d="M153,401.9c-4.1-3.6-8-7.5-11.8-11.8c-18.8-20.9-27.5-42.4-27.5-42.6l-0.1-0.2l-0.1-0.2
	c-10.7-25.3-11.9-55-11.9-66.8c0-3.2,0.1-5.2,0.1-5.3l0-0.4V120.4h51.2L153,401.9L153,401.9z M304.4,401.9c4.1-3.6,8-7.5,11.8-11.8
	c18.8-20.9,27.5-42.4,27.5-42.6l0.1-0.2l0.1-0.2c10.7-25.3,11.9-55,11.9-66.8c0-3.2-0.1-5.2-0.1-5.3l0-0.4V120.4h-51.2L304.4,401.9
	L304.4,401.9z"/>
<path class="st0" d="M185.3,480.4c0.5,0.2,1,0.3,1.5,0.4c7.6,2,12.3-0.4,14.1-7.1c1.6-6-0.9-9.3-7.4-11c-2.7-0.7-5.3-1.1-7.7-1.7
	c-0.9-0.2-1.9-0.6-3.2-1.1c-1.1,6-2.4,11.3-3.6,16c-1.1,4.2-2.5,9.5-4.6,15.8c1.6,0.3,3,0.5,4,0.8c1.1,0.3,2.3,0.7,3.8,1.2
	c0.7-3.9,1.1-6.3,1.4-7L185.3,480.4L185.3,480.4z M186.1,477.1l1.8-7.1l0.7-2.7c0.1-0.2,0.2-0.9,0.6-2.1c0.8,0.1,1.3,0.2,1.5,0.2
	c3.1,0.8,4.1,3.1,3.2,6.8C192.7,476.9,190.5,478.2,186.1,477.1L186.1,477.1z M206.6,483.5c0,10.7,5.7,16.6,16,16.6
	c10.7,0,16.8-6.5,16.7-17.8c0-10.5-5.9-16.3-16-16.3C212.9,466,206.5,472.3,206.6,483.5L206.6,483.5z M214.3,483.1
	c0-8.9,3.4-14,8.7-14c5.2,0,8.7,5,8.7,14c0,8.9-3.5,13.9-8.6,13.9C217.7,496.9,214.3,492,214.3,483.1L214.3,483.1z M258,468.2
	c0.3,2.7,0.7,4.9,1,6.7l0.3,1.9c1.2,6.9,2.3,13.5,3.9,19.7c-1.9,0.2-3.2,0.3-4,0.5c-1.1,0.2-2.3,0.5-4,0.9c-0.5-6-1.3-11.3-2.2-16.3
	c-0.4-2.6-1.3-6.7-2.4-12.2c-2.6,0.4-5.1,1.1-7.5,1.9c-0.1-0.9-0.1-1.8-0.2-2.5c-0.1-0.4-0.3-1.1-0.5-2.1c4.6-0.6,8.4-1.1,11.3-1.6
	c2.8-0.5,6.5-1.3,11.2-2.3c0.1,1,0.2,1.7,0.2,2.1c0.1,0.7,0.3,1.6,0.5,2.4C263.1,467.5,260.6,467.7,258,468.2L258,468.2z
	 M285.3,460.2c0.7,2.6,1.5,4.8,2.1,6.5l0.6,1.9c2.3,6.6,4.5,12.9,7.1,18.8c-1.8,0.5-3.1,0.8-3.9,1.1c-1,0.4-2.2,0.9-3.8,1.6
	c-1.5-5.8-3.2-11-4.8-15.7c-0.9-2.5-2.4-6.4-4.3-11.6c-2.5,0.9-4.8,1.9-7.1,3.1c-0.2-0.9-0.4-1.7-0.7-2.4c-0.1-0.4-0.4-1-0.9-1.9
	c4.5-1.4,8.1-2.5,10.9-3.4c2.7-1,6.2-2.3,10.6-4.1c0.3,1,0.4,1.6,0.6,2c0.2,0.7,0.6,1.5,1,2.3C290.2,458.7,287.7,459.3,285.3,460.2
	L285.3,460.2z M306.4,467.1c-0.5-1-1.1-1.9-1.6-2.9c-0.3-0.6-0.7-1.2-1-1.8c-2.3-4.2-4.6-8.4-7.4-12.4c3.6-1.8,6.1-3.1,7.4-3.8
	c2-1.1,4.6-2.6,7.8-4.5c0.4,0.8,0.6,1.5,0.9,2c0.3,0.5,0.7,1,1.2,1.8c-2.2,0.9-4.2,1.9-6.1,2.9c-0.8,0.5-1.6,0.9-2.4,1.4
	c1.1,2.1,2.2,4.2,3.3,6.3l1.2,2.2c2-1.2,4.7-2.8,8-4.9c0.4,1,0.7,1.6,0.9,2.1c0.2,0.4,0.6,1,1.2,1.9c-2.9,1.3-5.7,2.7-8.4,4.1
	l2.5,4.6c1.1,2.1,2.2,3.9,3.2,5.5c2.6-1.4,5.2-3,7.9-4.9c0.4,0.9,0.7,1.5,1,2.1c0.2,0.4,0.6,1,1.2,1.9c-4.4,2.2-7.6,3.9-9.5,4.9
	c-1.5,0.8-3.3,1.9-5.6,3.3C310.5,474.6,308.5,470.8,306.4,467.1L306.4,467.1z M337.2,463c1.1-1.1,2.1-1.9,2.9-2.5
	c0.7-0.6,1.8-1.3,3.2-2.1c-2.1-2.2-4-4.6-5.9-7l-3.9-5c7.6,3,12.8,5.4,15.8,7.3c1.2-1.1,2.2-2.1,3.2-2.8c0.8-0.6,2.1-1.5,3.8-2.7
	c-4.9-1.7-10.7-4-17.5-7.1c3-2.8,3.1-6.8,0.3-10.4c-3.7-4.7-7.7-4.8-12.8-0.8c-2.5,1.9-4.5,3.9-6.6,5.6c-0.8,0.6-1.7,1.2-2.7,1.9
	c4.2,4.5,7.6,8.9,10.6,12.6l1,1.3C331.1,454.3,334.1,458.1,337.2,463L337.2,463z M332,444.4l-4.1-5.2c-0.8-1.1-2-2.5-3.2-4.4
	c0.5-0.4,0.8-0.5,0.9-0.6c3.1-2.4,5.5-2.2,8,1c2.7,3.5,2.3,6.3-1.4,9.1L332,444.4L332,444.4z M356.3,434.1l0.5-0.5
	c3.6,2.2,6.5,2,8.9-0.7c2.2-2.5,2.1-5.2-0.1-7.1c-2.1-1.9-4.2-1.1-8,0.4c-5.4,2.1-8.9,2.9-12.9-0.6c-4.6-4.1-5-9.7-0.4-15
	c1.9-2.1,4-3.6,6.6-4.4c1.1,1.9,2.3,3.7,3.6,5.4l-0.3,0.4c-3.4-1.4-5.9-1.1-7.8,1.1c-2,2.3-1.7,4.8,0,6.4c2.1,1.9,4.3,0.7,8.6-1
	c5-1.9,8.3-2.8,12.5,0.8c5.1,4.5,5.3,10.6,0.1,16.4c-1.9,2.2-4.1,3.7-6.2,4.6C359.6,438,357.9,435.9,356.3,434.1L356.3,434.1z"/>
<path class="st2" d="M133.5,79.2c-2-1.4-6.8-3.7-12.4-6.9c-4.4-2.6-7.8-4.7-7.7-7.8c0.1-3.3,3.1-6.2,8.3-6
	c5.3,0.2,10.7,3.7,14.7,8.5l-0.2-14.3c-3.6-1.1-7.2-1.7-11-1.8c-15.5-0.5-25.1,5.9-25.4,16.1c-0.2,6.5,4,10.8,12.1,15.3
	c7.3,4.1,13.5,5.9,13.7,11c-0.2,3.7-3.6,6.9-9,6.8c-5.5-0.2-11.1-4-15.3-9.5l0.2,16c3.7,1.2,8.5,1.9,12.5,2
	c16.2,0.5,26-6.7,26.4-18.1C140.2,86,138.1,82.4,133.5,79.2L133.5,79.2z"/>
<path class="st0" d="M110.4,415.5c-2.1,1.8-3.7,3.4-5,4.6l-1.4,1.4c-5,4.9-9.8,9.5-14,14.4c-1.2-1.4-2.1-2.5-2.7-3.1
	c-0.7-0.8-1.7-1.6-3-2.7c4.6-3.8,8.6-7.5,12.2-11c1.9-1.9,4.8-4.9,8.7-8.8c-1.8-1.9-3.8-3.6-5.8-5.1c0.7-0.6,1.4-1.1,1.9-1.6
	c0.3-0.3,0.7-0.8,1.4-1.6c3.1,3.5,5.7,6.3,7.7,8.4c2,2,4.7,4.6,8.2,7.9c-0.8,0.6-1.3,1.1-1.6,1.4c-0.5,0.5-1.1,1.1-1.7,1.8
	C113.8,419.3,112.2,417.3,110.4,415.5L110.4,415.5z M111.8,437.8c0.4-0.5,0.8-1,1.2-1.5c3-3.7,6.5-7.9,10.1-13
	c1.2,1.3,2.2,2.2,2.8,2.7c0.9,0.7,2,1.4,3.3,2.3c-1.8,1.9-3.5,3.8-5.1,5.7l-3.3,4c2.1,1.8,3.5,3.1,4.2,3.7c1.4,1.1,3,2.3,4.8,3.7
	l3.3-4c1.6-2,3.1-4,4.6-6.2c1.3,1.3,2.3,2.3,2.9,2.8c0.7,0.6,1.8,1.3,3.2,2.2c-4.2,4.4-7.7,8.7-10.8,12.4l-1.2,1.4
	c-2.5,3-5.5,6.8-8.9,11.5c-1.2-1.1-2.1-2-2.9-2.7c-0.8-0.7-1.9-1.4-3.3-2.4c1.7-1.7,3.3-3.5,4.8-5.3l5.4-6.6c-1.8-1.6-3.3-2.9-4.6-4
	c-0.9-0.7-2.4-1.9-4.4-3.5l-5.4,6.6c-1.5,1.9-3,3.7-4.3,5.7c-1.2-1.1-2.1-2.1-3-2.8c-0.8-0.6-1.9-1.4-3.2-2.3
	C106.2,444.5,109.3,440.8,111.8,437.8L111.8,437.8z M141.6,462.4l1.6-2.9l1-1.8c2.3-4.2,4.5-8.4,6.4-13c3.5,2,5.9,3.5,7.2,4.2
	c2,1.1,4.7,2.4,8,4.1c-0.5,0.8-0.9,1.4-1.2,1.8c-0.2,0.5-0.5,1.1-0.9,1.9c-1.9-1.3-3.8-2.5-5.8-3.5c-0.8-0.4-1.7-0.9-2.5-1.3
	c-1.2,2.1-2.4,4.1-3.5,6.1l-1.2,2.2l8.4,4c-0.6,0.8-1,1.5-1.2,1.9c-0.2,0.4-0.5,1.1-0.9,2c-2.7-1.7-5.4-3.3-8-4.8l-2.5,4.6
	c-1.1,2.1-2.1,4-2.8,5.7c2.6,1.4,5.3,2.7,8.4,3.9c-0.5,0.8-0.9,1.4-1.2,1.9c-0.2,0.4-0.5,1.1-0.9,2.1c-4.2-2.5-7.4-4.2-9.3-5.3
	c-1.5-0.8-3.4-1.8-5.8-2.9C137.6,469.8,139.7,466,141.6,462.4L141.6,462.4z"/>
</svg>
