<?xml version="1.0" encoding="utf-8"?>
<!-- Generator: Adobe Illustrator 19.2.0, SVG Export Plug-In . SVG Version: 6.00 Build 0)  -->
<svg version="1.1" id="Layer_1" xmlns="http://www.w3.org/2000/svg" xmlns:xlink="http://www.w3.org/1999/xlink" x="0px" y="0px"
	 width="100px" height="100px" viewBox="0 0 100 100" style="enable-background:new 0 0 100 100;" xml:space="preserve">
<style type="text/css">
	.st0{fill:#FFFFFF;}
	.st1{fill:#A68B30;}
	.st2{fill:none;}
	.st3{fill:#211E1E;}
	.st4{fill:#EA1D2E;}
	.st5{fill:#D1BF80;}
</style>
<g>
	<path class="st0" d="M86,57.3c0,0.4,0,0.6-0.4,1l-0.3-0.9c-0.5,1.7-1,2.6,0,4.2c0.8,0.9,1.9,1.3,2.6,1.3v-0.3
		c0-1.3-1.3-3.3-1.8-5.4L86,57.3z M13.6,57.3v0.4c-0.5,1.3-1.8,3.9-1.8,5.1v0.5c1.7-0.3,3.3-1.9,3.1-3.9c0-0.5-0.4-1.3-0.5-1.9
		L14,58.4c0-0.4-0.3-0.6-0.4-0.9L13.6,57.3z M28.7,44.2c0-0.8-0.3-1.3-0.6-2.1l-2.6,0.9v-3c-0.4,0-1.3-0.8-1.3-1.7l0.3-0.3v-2.6
		c0-2.3,1.3-2.3,3.2-2.3h0.3v-0.5c0-2.2,4.9-2.6,6.4-3c0.4-0.8,1.3-1,2.1-1.3l1.8-0.4c-0.6-1.5,0-3.2,2.3-4.2
		c0.5-1.5,2.1-2.2,3.5-2.2c-0.4-1,0-2.3,1.3-2.6c0.6-0.5,1.3-0.5,2.2-0.4c0.3-1,0-2.2,0.5-3.1v-0.5l0.4-1.5l1.3-5.5l1.3,5.5
		c0,0.5,0.4,1,0.4,1.7v0.4c0.5,1.3,0,2.1,0.3,3c0.8,0,1.7,0,2.6,0.5c0.9,0.3,1.3,1.5,1,2.6c1.7,0,3.3,0.8,3.6,2.8
		c0.9-0.8,3.2,1.5,2.3,3.6c0.8,0,1.3,0.3,1.7,0.5c1,0,1.9,0.4,2.6,1.3c1.3,0,6.2,0.6,6.2,2.8v0.5h0.3c1.8,0,3.3-0.3,3.3,2.6v2.6
		c0,0.9-0.5,1.5-1.3,1.8v3l-1.9-1c-0.5,0.6-0.8,1.3-0.8,2.1c1.8,0.5,2.6,2.3,2.6,4.4c0-0.5,0.3-1,0.5-1.3c-0.4-0.6-0.6-1.3-0.6-2.6
		c0-1.3,1.5-1.5,2.6-1.5c0.6-0.9,1.3-1.3,2.2-1.3v-1.3l2.6,0.8c1.3,0.4,2.6,0,3.9,1c1.3,0.9,2.1,2.2,3,3.3h-0.8l2.1,2.6
		c0,0-0.8,0-1.8-0.4l0.3,2.1v1.3c0.9-0.5,2.3-0.5,3.6,0l2.2,1l-0.5,0.4l2.3,2.6h-1.3c0.8,1.5,1.3,3.2,1.3,4.9c1.3,1,1,2.1,2.2,3.1
		l1.3,1.3l-1.3,0.4c0.5,0.5,2.6,1.5,2.6,1.7l-2.6,0.8h-2.3c-1.3-0.4-2.1-0.8-2.8-1.3L91.6,67l-1.8,2.6c0.5,3.1,2.6,3.1,5.1,3.9
		l-1.7,1h1.3l-1.3,1.8l1.3,1.5H92c-0.5,0.5-0.8,2.2-0.9,3h-5.7v-0.3h-1.5v-1.5c0-1.8,1.3-2.8,2.8-3.1c-1.7-1.7-3.2-1.8-4.5-3v6.9
		c0,3.2-1.3,3.9-3.6,3.9h-0.8v0.5c0,2.6-0.9,3.2-3.1,4.1C72.6,89.2,63,91.9,50,91.9s-22.7-2.6-24.9-3.6c-2.3-0.9-3.1-1.5-3.1-4.1
		v-0.6h-0.9c-1.9,0-3.6-0.4-3.6-3.9v-6.8c-1.3,1.3-2.8,1.3-4.5,2.8c2.6,0.4,3,2.3,2.6,4.4h-1.3v0.5H8.4c0-0.8-0.4-2.6-0.9-3.1H4.9
		L6.2,76l-1.3-1.3l1.3-0.4L4.5,73c1.3-0.4,2.3-0.5,3.2-1c1-0.5,1.8-1.9,1.9-3c-1.3-1.7-1.9-2.6-2.2-3.3c-0.8,0.5-1.8,0.9-2.8,1.3
		H3.8c-1.3,0-2.6-0.5-3.5-0.8c0.3,0,2.1-1.3,2.6-1.7L1.6,64c1.7-1.3,1.7-1,2.3-2.6c0.3-0.5,0.6-1,1.3-1.5c0-1.7,0.5-3.3,1.3-4.8H4.9
		l2.6-2.6l-0.8-0.3l2.3-1c1.5-0.6,2.8-0.6,3.9,0c-0.3-0.5-0.3-0.8-0.3-1.3c0-0.6,0-1.3,0.3-1.9l-1.8,0.5l2.1-3h-0.8
		c2.3-2.6,3-3.9,6.7-4.2l3-0.9c-0.3,0.3-0.4,0.9-0.4,1.5c0.9,0,1.7,0,2.1,1c1.3,0,2.6,0,2.6,1.7c0,1.3,0,1.9-0.5,2.6v0.3l0.4,1h0.3
		c-0.6-0.4,0-3.9,2.6-4.4"/>
	<path class="st1" d="M72.9,39.1c-1.5,1.5-2.8,3.1-2.8,5.4v0.6h0.8c0.4,0.3,1.3,0.8,1.5,1.3c0.3,0.6,0.3,2.1,0.3,2.6
		c0.3,0.5,2.3,1.3,3,1.8l0.8,0.4c0.3,0,0.8-0.3,0.8-0.6c0-0.5-0.4-0.8-0.5-0.8h-1.3c-0.5,0-0.8-0.3-0.8-0.8s0.4-1.8,1.3-1.3l0.9,0.3
		h0.6c0-0.8-0.5-1.3-1-1.3c-1.3,0-1.5,0.3-1.8-0.9l-0.3-1.3c0-0.6,1.8-0.5,2.3-0.6c0.5,0,0.3-1,1.5-1h1.3v-0.6c0,0,0.8,0,1,0.3h0.9
		c0.6,0,1.9,0.4,2.6,0.9c0.3,0,0.5,0.4,0.8,0.6h-1c1.3,0.8,1.8,1.3,2.6,2.6l-1.3-0.4c0.9,1.3,1.5,2.3,1.5,3.9l-0.3,1.3
		c0.3,1.5,0.3,2.6-0.5,4.1l-0.4-1.3l-0.5,1.7l-1,3.5c0,0.6,0,1.8,1,3.1c0.9,1.3,2.6,1.8,3.2,1.8c0.4,0,0.9-0.4,0.9-1.3
		c0-1.7-1.3-3.9-1.7-5.7c-0.4-0.8-0.6-1.5-0.6-2.6c0-2.3,1.5-3.3,3.5-2.8l0.9,0.4h-0.4c0.9,0.3,1.3,0.9,1.9,1.5h-0.6
		c1,1.8,2.1,4.2,1.9,6.4c1.5,0.9,1.3,1.9,1.9,2.8c0,0.3,0.5,0.5,0.5,0.5l-0.4,0.3h-0.3h-0.3c0.5,0.9,0.9,1.3,1.8,1.9l-1,0.3
		c-0.9,0-1.5-0.5-2.2-0.9v0.4h-0.5c-1.3-0.6-2.1-2.2-2.1-3.5c0-0.5,0.3-1,0.6-1.3l-0.6-3.9c-0.4-1.3-1.9-3.2-2.6-3.2
		c-0.5,0-0.6,0.4-0.6,1c0,1.3,2.2,5.4,2.6,7.2c0,0.9,0.3,2.6,0,3.2c0,0.5-0.5,1.3-0.9,1.7v-0.5l-1.3,1.5v1.5c0.3,1,1.3,2.8,2.6,3.3
		l1,0.4l-0.4,0.3c-0.5,0.4-0.4,1,0,1.3h0.6l-0.3,0.4l-0.5,0.3c0,0.3,0.4,0.5,0.6,0.8h-0.6c-1,0.5-1.3,2.1-1.3,2.8h-5.7v-0.6
		c0-1.3,1.3-2.1,2.6-2.2h0.4l0.3-0.9c-0.5-0.9-1.7-1.8-2.6-2.1c-0.9-0.4-1.9-1-3-1.9c-0.8-0.9-1.3-2.2-1.7-3.2
		c-0.9,0-1.9-0.3-2.8-0.8c0,0.5,0.5,0.8,1.3,1.3h-1.4l0.3,0.8h-0.6c-0.9,0-2.6,1.7-2.6,2.6l0.3,0.5l-5.4-0.4l0.5-1
		c0.6-1.5,1.5-1.5,3-1.5c0.5-0.3,0.8-0.5,1-1c-1.3-1.3-3.5-3.6-3.5-5.7c0-0.9,0.3-2.3,2.6-2.3c1.3,0,2.3,0,3,0.3
		c-0.3-0.3-0.6-0.5-0.9-1c-0.3,0-1.5-1.9-1-2.6l-0.5,1l-0.3-0.4c-0.6-0.6-1,0-1.7,0.3v-0.9h0.3c-0.4,0-1.3-0.3-1.7,0v0.4l-0.8-0.5
		v10c0,3.5,0,6.7-3.1,9c-0.9,0.9-1.9,1.5-3,2.1c-2.2,1.3-6.4,1-8.7,1.3c-0.6,0-1.7,0.4-2.3,0.9h-0.6c0-0.3,0.9-1.3,2.6-1.3
		c2.6-0.4,6.7,0,8.6-1.3c1.8-1.3,4.1-2.3,4.9-4.5c0.9-2.2,0.9-4.1,0.9-6.2v-6.9H29.6v6.9c0,3.3,0,6.4,3,8.7c0.8,0.8,1.8,1.3,2.8,1.9
		c1.9,1.3,6.2,0.9,8.5,1.3c1.8,0,2.6,1,2.8,1.3h-0.8c-0.5-0.5-1.3-0.8-2.2-0.9c-2.6-0.3-6.4,0-8.6-1.3c-3.6-2.1-5.5-3.3-6-8V57.8
		l-0.6,0.5l-0.3-0.3c-0.3-0.4-1.3-0.3-1.5-0.3l0.3,0.9c-0.6-0.5-1-1-1.7-0.4l-0.4,0.4c0-0.3,0-0.8-0.4-0.9c0.5,0.5-0.9,2.6-1,2.6
		l-1,0.9l2.8-0.3c2.6,0,2.8,1.3,2.8,2.3c0,2.1-2.1,4.4-3.6,5.7c0.3,0.5,0.5,0.8,0.9,1c1.5,0,2.3,0,3.2,1.3c0,0.5,0.5,1.3,0.5,1.3
		h-4.8l0.3-0.3c0-0.9-1.5-2.6-2.6-2.6h-0.4V69h-0.5l-0.5-0.3c0.5-0.3,0.9-0.5,1-1.3c-0.9,0.6-1.9,0.8-3,0.9c-0.3,1-0.8,2.3-1.5,3.1
		c-1.3,0.8-2.2,1.3-3.2,1.7c-0.8,0.4-1.9,1.3-2.6,1.9l0.4,1h0.5c1.3,0,2.6,0.9,2.6,2.2v0.5h-1.3V79l-1-0.3H9.1
		c0-0.8-0.4-2.3-1.3-2.8H7.1c0-0.3,0.4-0.5,0.5-0.8c0,0-0.4,0-0.4-0.3l-0.5-0.3h0.5c0.5-0.4,0.6-1,0-1.3l-0.4-0.5l1.3-0.3
		c0.9-0.5,2.1-2.3,2.3-3.3v-1.5l-1.3-1.7v0.4c-0.4-0.5-0.9-1.3-1-1.8c0-0.8,0-2.6,0.3-3.3c0-1.8,2.6-6,2.3-7.2c0-0.6,0-1-0.6-0.9
		c-0.6,0-2.2,1.9-2.6,3.3l-0.4,3.9c0.3,0.3,0.5,0.8,0.5,1.3c0,1.3-0.8,2.8-1.9,3.3H4.9v0.3c-0.5,0.4-1.3,0.8-1.9,0.8H1.7
		c1-0.8,1.3-1.3,1.9-2.1H3.4H3.1l-0.4-0.3l0.5-0.5c0.9-1,0.6-1.9,2.1-2.8c0-2.3,0.9-4.6,2.1-6.4H6.6c0.6-0.6,1.3-1.3,1.9-1.5
		l0.8-0.5c1.9-0.5,3.6,0.5,3.5,2.8c0,1-0.3,1.8-0.4,2.6c-0.5,1.7-1.8,3.9-1.8,5.5c0,1.3,0.5,1.5,0.9,1.5c0.5,0,2.3-0.5,3.3-1.8
		c0.8-1.3,0.9-2.6,0.8-3.1c0-0.5-0.8-2.6-1-3.5L14,54.2l-0.5,1.3c-0.8-1.3-0.8-2.6-0.4-3.9c0.4-1.3-0.4-1-0.4-1.5
		c0-1.3,0.6-2.6,1.3-3.6l-1.3,0.4c1-1.3,1.3-1.8,2.8-2.6h-1.3l0.9-0.8c0.6-0.6,1.9-0.9,2.6-0.9h0.9c0.3-0.3,1.3-0.5,1.3-0.5
		s-0.3,0.6,0,0.9h1c1.3,0,1,0.9,1.5,1c0.5,0,2.2,0,2.2,0.8c0,0.3,0,0.8-0.3,1.3c-0.3,1-0.5,1-1.8,1c-0.4,0-0.9,0.3-0.9,0.9h0.8
		l1-0.3c0.6-0.4,1,0.9,1,1.3c0,0.6-0.3,1-0.8,1h-1.3c0,0-0.4,0-0.4,0.6c0,0.4,0.4,0.6,0.6,0.6l0.9-0.4c0.5-0.5,2.6-1.3,3-1.7
		c0-0.6,0-2.1,0.3-2.6c0.3-0.6,1-1.3,1.3-1.3h1v-0.8c0-2.3-1.3-3.9-2.8-5.4l-0.3-0.3c-0.3,0-0.4-0.3-0.5-0.4
		c0.4-0.3,2.3-0.3,2.6-0.3l5.8,0.4c0.4,0,2.1,0,2.6-0.4h26.3c0.6,0.5,2.3,0.5,2.8,0.5l5.7-0.3c1,0,2.1,0,2.3,0.3H74l-0.5,0.5"/>
	<path class="st2" d="M72.9,39.1c-1.5,1.5-2.8,3.1-2.8,5.4v0.6h0.8c0.4,0.3,1.3,0.8,1.5,1.3c0.3,0.6,0.3,2.1,0.3,2.6
		c0.3,0.5,2.6,1.3,3,1.7c0,0.3,0.5,0.5,0.8,0.5c0.3,0,0.8-0.3,0.8-0.8c0-0.4-0.4-0.6-0.5-0.6h-1.3c-0.5,0-0.8-0.3-0.8-0.8
		s0.4-1.8,1.3-1.3l1,0.3h0.6c0-0.8-0.5-1.3-1-1.3c-1.3,0-1.5,0-1.8-1l-0.3-0.9c0-0.6,1.9-0.5,2.3-0.6c0.5,0,0.3-1,1.5-1h1.3v-0.9
		c0,0,0.8,0,1,0.3h0.9c0.8,0,1.9,0.4,2.6,0.8l0.8,0.9h-1c1.3,0.6,1.8,1.3,2.6,2.6c0,0-0.8-0.4-1.3-0.4c0.9,1,1.5,2.3,1.5,3.9
		l-0.3,1.3c0.3,1.5,0.3,2.6-0.5,4.1l-0.4-1.3l-0.5,1.7l-1,3.5c0,0.6,0,1.7,1,3.1c0.9,1.3,2.6,1.8,3.2,1.8c0.4,0,1-0.5,1-1.3
		c0-1.7-1.3-4.1-1.8-5.7c-0.4-0.8-0.6-1.7-0.6-2.6c0-2.3,1.5-3.3,3.5-2.8l0.9,0.4h-0.4c0.9,0.3,1.3,0.9,1.9,1.5H92
		c1,1.8,2.1,4.2,1.9,6.4c1.5,0.9,1.3,1.8,2.1,2.8l0.4,0.5L96,63.9h-0.3c0.3,0.9,0.6,1.3,1.5,1.9c0,0-0.6,0.3-1,0
		c-0.9,0-1.5-0.3-2.2-0.6v0.4h-0.5c-1.3-0.6-2.1-2.2-2.1-3.5c0-0.5,0.3-1,0.6-1.3l-0.6-3.9c-0.4-1.3-1.9-3.2-2.6-3.2
		c-0.5,0-0.6,0.4-0.6,1c0,1.3,2.2,5.4,2.6,7.2c0,0.9,0.3,2.6,0,3.2c0,0.5-0.5,1.3-0.9,1.7v-0.5l-1.3,1.5v1.5c0.3,1,1.3,2.8,2.6,3.3
		l1,0.3l-0.4,0.4c-0.5,0.4-0.4,1,0,1.3h0.6l-0.3,0.4l-0.5,0.3c0,0.3,0.4,0.5,0.6,0.8h-0.6c-1,0.5-1.3,2.1-1.3,2.8h-5.8v-0.6
		c0-1.3,1.3-2.1,2.6-2.2h0.4l0.3-1c-0.5-0.6-1.7-1.5-2.6-1.8c-0.9-0.4-1.9-1-3-1.9c-0.8-0.9-1.3-2.2-1.5-3.2c-1.3,0-2.2-0.3-3.1-0.8
		c0,0.5,0.5,0.8,1.3,1.3h-1.4l0.3,0.6h-0.5c-0.9,0.3-2.6,1.8-2.6,2.6v0.6l-5.4-0.4l0.6-1c0.6-1.5,1.3-1.5,3-1.3
		c0.4-0.5,0.6-0.6,0.9-1.3c-1.5-1.3-3.6-3.6-3.6-5.7c0-0.9,0.4-2.3,2.8-2.3c1.3,0,2.1,0,2.8,0.3l-0.9-0.9c-0.3,0-1.5-2.1-1.3-2.6
		l-0.3,0.9l-0.4-0.4c-0.5-0.6-1,0-1.5,0.3v-0.9c-0.3,0-1.3-0.3-1.3,0l-0.4,0.4l-0.5-0.5v10c0,3.5-0.3,6.7-3.2,9
		c-0.8,0.9-1.8,1.5-2.8,2.1c-2.1,1.3-6.2,1-8.6,1.3c-0.5,0-1.5,0.4-2.1,0.9h-0.6c0-0.3,0.8-1.3,2.6-1.3c2.6-0.4,6.4,0,8.5-1.3
		c1.9-1.3,4.1-2.3,5.1-4.5c0.8-2.2,0.8-4.1,0.8-6.2v-6.9H29.7v6.9c0,3.3,0,6.4,3,8.7c0.8,0.8,1.8,1.3,2.8,1.9c1.9,1.3,6,0.9,8.4,1.3
		c1.9,0,2.6,1,2.8,1.3h-0.8c-0.6-0.5-1.5-0.8-2.2-0.9c-2.6-0.3-6.4,0-8.6-1.3c-3.6-2.1-5.5-3.3-6-8V57.8l-0.8,0.5v-0.3
		c-0.5-0.4-1.3-0.3-1.8-0.3l0.3,0.9c-0.5-0.5-1-1-1.5-0.4l-0.4,0.4c0-0.3,0-0.8-0.5-0.9c0.5,0.5-0.8,2.6-0.9,2.6l-1,0.9l2.8-0.3
		c2.6,0,2.8,1.3,2.8,2.3c0,2.1-2.2,4.4-3.9,5.7c0.4,0.6,0.6,0.8,1.3,1.3c1.3-0.3,2.2-0.3,3,1.3l0.4,0.9l-5.4,0.4v-0.5
		c0.3-0.9-1.3-2.6-2.3-2.6h-0.4V69h-0.5h-0.6c0.6-0.5,1-0.8,1.3-1.3c-1,0.4-2.1,0.5-3.1,0.6c-0.3,1-0.8,2.3-1.5,3.1
		c-1,0.8-2.2,1.3-3.1,1.8c-0.8,0.3-1.9,1.3-2.6,1.8l0.3,1h0.6c1.3,0,2.3,0.9,2.6,2.2v0.5h-1.3V79l-1-0.3H8.4c0-0.8-0.5-2.3-1.3-2.8
		H6.2l0.6-0.8c-0.3,0-0.4,0-0.5-0.3l-0.3-0.3h0.4c0.5-0.4,0.5-1,0-1.3l-0.4-0.5l1.3-0.3c0.9-0.5,2.1-2.3,2.2-3.3
		c0-0.6,0-1.3,0.3-1.5c-0.5-0.5-1-1-1.3-1.7v0.4l-1.3-1.8c0-0.8,0-2.6,0.4-3.3c0-1.8,2.6-6,2.3-7.2c0-0.6-0.3-1-0.8-0.9
		c-0.5,0-2.1,1.9-2.6,3.3l-0.4,3.9c0,0.3,0.5,0.8,0.5,1.3c0,1.3-0.9,2.8-2.1,3.3H4l0.3-0.3c-0.6,0.4-1.3,0.8-2.2,0.8h-1
		c0.9-0.8,1.3-1.3,1.8-2.1H2.3l-0.5-0.3l0.5-0.5c0.9-1,0.5-1.9,1.9-2.8c0-2.2,0.9-4.6,2.1-6.4H5.8c0.5-0.6,1-1.3,1.9-1.5H7.5l1-0.5
		c1.9-0.5,3.6,0.5,3.5,2.8c0,0.9-0.3,1.8-0.5,2.6c-0.6,1.5-1.9,3.9-1.9,5.5c0,1,0.6,1.5,1,1.5c0.5,0,2.3-0.5,3.2-1.8
		c1-1.3,1-2.6,1-3.1c0-0.6-0.8-2.6-1.3-3.5c0-0.6-0.3-1.3-0.4-1.8c0,0.5-0.5,1.3-0.5,1.3c-0.8-1.3-0.8-2.6-0.5-3.9
		c0.3-1.3-0.3-1.3-0.3-1.5c0-1.3,0.6-2.6,1.3-3.6l-1.3,0.3c1-1.3,1.3-1.8,2.6-2.6h-0.9c0.3,0,0.5-0.5,0.8-0.8
		c0.5-0.4,1.8-0.6,2.6-0.8h0.9l1.3-0.4c0,0-0.3,0.6,0,0.9h0.9c1.3,0,1,0.9,1.5,1c0.4,0,2.1,0,2.1,0.8v1c-0.4,1.3-0.8,1.3-1.9,1.3
		c-0.4,0-0.9,0.3-0.9,0.9h0.6c0.5,0,0.8,0,1.3-0.3c0.6-0.4,0.9,0.9,0.9,1.3c0,0.6,0,1-0.8,1h-1.3c0,0-0.5,0-0.5,0.5
		c0,0.5,0.4,0.8,0.6,0.8c0.4,0,0.9-0.3,1-0.5l3.1-1.5c0-0.6,0-2.1,0.3-2.6c0.4-0.6,1.3-1.3,1.5-1.3h0.9v-0.8c0-2.3-1.3-3.9-3-5.4
		l-0.4-0.3l-0.5-0.4c0.5-0.3,2.6-0.3,2.6-0.3l5.8,0.4c0.6,0,2.2,0,3-0.4h25.3c0.6,0.5,2.3,0.5,3,0.5l5.5-0.3c1.3,0,2.1,0,2.6,0.3
		c0,0.3,0,0.4-0.3,0.5L72.9,39.1z"/>
	<path class="st3" d="M41.9,29.8c-0.8-0.3-1.5-0.8-1.9-1.3c-0.9-1-0.9-1.5-0.5-2.6c0.4-0.5,1.3-1,2.2-1.3c0.3-1.8,1.8-2.2,3.2-1.9
		h0.6c0.5,0.4,1.3,0.9,1.9,1c0.4,0,0.4,0,0.5-0.5c0-0.4-0.4-0.8-0.8-1.3h-1.3c-0.8-0.5-1-1.3-0.6-1.7c0-0.3,0.3-0.4,0.6-0.4
		c0-0.3,0.6-0.4,1-0.4h0.8c0.9,0,1.3-0.5,1.3-1.3c0-0.5-0.3-1.3,0-1.8c0-0.4,0-0.6,0.4-0.8v-0.5l0.3-1.3l0.3-1.3v1.3l0.6,1.3
		c0,0.3,0,0.4-0.3,0.5c0,0.3,0.4,0.4,0.4,0.8v1.7c0,0.9,0.4,1.5,1.3,1.5h0.8c0.4,0,0.8,0,1,0.3c0.3,0,0.5,0,0.6,0.5
		c0.3,0.5,0,1.3-0.5,1.7c-0.4,0.3-0.8,0.3-1.3,0.3c-0.4,0.4-0.8,0.8-0.8,1.3c0,0.3,0,0.4,0.5,0.4s1.3-0.6,1.9-0.9h0.5
		c1.3-0.4,3.1,0,3.3,1.7c1,0.4,1.8,0.9,2.1,1.5c0.4,0.9,0.4,1.3-0.5,2.6l-1.9,1.3h0.6c0.6-0.6,1.7-1,2.6-0.9c0.8,0,1.3,0.3,1.8,0.5
		h0.4c0.6,0,1.3,0.5,1.3,1c2.2,0.4,4.9,0.9,5.8,1.5l0.3,0.5v1.5h1.3c1.3,0,2.3-0.4,2.3,1.3V39c0,0.4-0.9,0.6-1.3,0.6v2.2l-1.7-0.6
		c0,0,0.3,0,0.3-0.3l1,0.3v-1.3c0,0,0-0.3,0.4-0.4l0.3-0.4c0.4,0,0.6,0,0.6-0.4h-0.4c-0.4-0.3-1.3-0.3-2.6-0.3l-5.5,0.4
		c-0.8,0-3.2,0-3.2-1V37l-1.5,0.9h-0.5l0.4-0.3c0.6-0.3,1-0.6,1.5-1.3c-0.6,0.6-1.5,0.9-2.3,0.9c-1.8,0-2.6-0.9-3-1.8v-0.4
		c-0.3,0.3-0.3,0.5-0.3,0.8c0,0.8,0.4,1.7,0.9,2.2h-0.4l-0.6-1v0.8h-1l-0.5-3.1c-1,1.8-3,3-5.1,3c-2.3,0-4.4-1.3-5.4-3l-0.4,3.2
		h-1.3l0.3-1.3c0,0.4-0.5,0.9-0.8,1.3h-0.3c0.5-0.5,1-1.3,1-2.1c0,0,0-0.4-0.3-0.6v0.4c-0.5,0.9-1.3,1.8-3,1.8
		c-0.8,0-1.5-0.3-2.3-0.9c0.5,0.6,1,1,1.7,1.3c0.3,0,0.4,0,0.5,0.3h-0.8c-0.5-0.3-1-0.6-1.3-1H37v0.3c0,1.3-2.3,1.3-3.1,1.3
		l-5.7-0.5c-0.3,0-2.2,0-2.6,0.4C25.5,38.8,26,39,26.1,39l0.4,0.4l0.4,0.4V41l0.9-0.3L28,41l-1.7,0.6v-2.2h-0.6
		c-0.6-0.4-0.9-0.8-0.6-1v-2.6c0-0.8,0-1.5,0.9-1.5h2.6v-1.5c0-0.8,2.1-1.3,2.6-1.3l3.5-0.8c0.3-0.5,0.8-0.9,1.3-0.9h0.6
		c0.3-0.4,0.9-0.6,1.7-0.6c0.9,0,1.9,0.3,2.6,0.9"/>
	<path class="st2" d="M41.9,29.8c-0.8-0.3-1.5-0.8-1.9-1.3c-0.9-1-0.9-1.5-0.5-2.3c0.4-0.8,1.3-1.3,2.2-1.7c0.3-1.7,1.8-2.1,3.2-1.8
		h0.6c0.5,0.4,1.3,1,1.9,1c0.4,0,0.4,0,0.5-0.5c0-0.4-0.4-0.8-0.8-1c-0.5,0-0.9,0-1.3-0.4c-0.8-0.4-1-1.3-0.6-1.5
		c0-0.3,0.4-0.4,0.6-0.4c0-0.3,0.6-0.3,1-0.4h0.8c0.9,0.3,1.3-0.5,1.3-1.3v-1.8c0-0.4,0-0.6,0.4-0.8v-0.5l0.3-1.3l0.3-1.3v1.3
		l0.6,1.3c0,0.3,0,0.4-0.3,0.5l0.4,0.8v1.8c0,0.8,0.4,1.5,1.3,1.3h0.8c0.4,0,0.8,0,1,0.4c0.3,0,0.5,0,0.6,0.5c0.3,0.5,0,1.3-0.5,1.7
		c-0.4,0.3-0.8,0.3-1.3,0.4c-0.4,0.3-0.8,0.6-0.8,1s0,0.5,0.5,0.5s1.3-0.6,1.9-0.9h0.5c1.3-0.4,3.1,0,3.3,1.7c1,0.4,1.8,0.9,2.2,1.7
		c0.4,0.8,0.4,1.3-0.5,2.3c-0.5,0.5-1.3,1-1.9,1.3h0.6c0.6-0.5,1.7-0.9,2.6-0.8c0.8,0,1.3,0.3,1.8,0.5h0.4c0.6,0,1.3,0.5,1.3,1.3
		c2.2,0,4.9,0.6,5.8,1.3l0.3,0.5v1.5h1.3c1.3,0,2.3-0.6,2.3,1.3v3c0,0.4-0.9,0.6-1.3,0.6v2.2L71.2,41c0,0,0.3,0,0.4-0.3l0.9,0.4
		v-1.3l0.4-0.4l0.4-0.4c0.4,0,0.6,0,0.6-0.3l-0.4-0.3h-2.6l-5.4,0.3c-0.8,0-3.2,0-3.2-1.3V37l-1.5,0.9h-0.5l0.4-0.3
		c0.6-0.3,1-0.6,1.5-1.3c-0.6,0.6-1.5,0.9-2.3,0.9c-1.7,0-2.6-0.9-2.8-1.8v-0.4l-0.4,0.8c0,0.9,0.4,1.7,0.9,2.2h-0.4l-0.6-1v0.9h-1
		l-0.4-3.2c-1,1.8-3,3.1-5.1,3.1c-2.3,0-4.4-1.3-5.4-3.1l-0.4,3.2h-1.3l0.3-1.3c0,0.4-0.5,0.9-0.8,1.3h-0.3c0.6-0.5,1-1.3,1-2.1
		c0,0,0-0.4-0.3-0.6v0.4c-0.5,0.9-1.3,1.8-3,1.8c-0.8,0-1.5-0.3-2.2-0.9c0.4,0.6,0.9,1,1.5,1.3c0.3,0,0.4,0,0.5,0.3h-0.8
		c-0.5-0.3-1-0.6-1.3-1v0.3c0,1.3-2.6,1.3-3.3,1.3l-5.7-0.4c-0.3,0-2.2-0.3-2.6,0v0.3c-0.3,0,0.4,0.3,0.4,0.3l0.4,0.4l0.4,0.4v1.3
		l0.9-0.3l0.3,0.4l-1.7,0.6v-2.2h-0.6c-0.6-0.4-0.9-0.8-0.6-1v-2.6c0-0.8,0.3-1.5,0.9-1.5h2.6v-1.5c0-0.8,2.1-1.3,2.6-1.3
		c0.6-0.3,1.8-0.4,3.5-0.6c0.3-0.5,0.8-0.9,1.3-0.9H37c0.3-0.4,0.9-0.6,1.7-0.6c0.9,0,1.9,0.3,2.6,0.9L41.9,29.8z"/>
	<path class="st3" d="M68.4,55.3l0.5,0.3c0.4,0.4,0.6,0.8,0.5,0.9c0,0.3,0,0-0.5-0.4h-0.5v1.5l0.4-0.3H70l0.6,0.4
		c0.6-0.5,2.1-0.3,2.8-0.3v0.3c0,0,0.4,0,0.5,0.4c0.6-0.8,1.7-0.5,2.3-0.4l-0.5,0.5c-0.3,0-0.5,0-0.8,0.3c0.4,1.3,1.5,2.6,2.8,3.5
		l-0.3,0.5l-1.3-0.4l-2.6-0.3c-2.1,0-2.3,1.3-2.3,1.8c0,1.9,2.2,4.4,3.9,5.5l-0.4,0.4c-0.3,0.6-0.6,0.9-1.3,1.3h-1.8l-1,1.3h0.6
		c0,0,0-0.4,0.4-0.8l0.8-0.3l-0.5,0.6v0.5h0.4l0.5-0.8l0.6-0.3c0,0.3-0.3,0.4-0.5,0.6v0.6h1.8c0-1.3,1.7-2.6,2.6-3v-1.3l0.5,0.5h0.3
		c-0.5-0.5-0.5-1.3-0.6-2.1l0.9,0.8c1,0.5,2.1,0.6,3.2,0.6c0,1.3,0.6,2.6,1.3,3.3c1.3,0.9,2.2,1.3,3.1,1.8c0.8,0.4,2.2,1.3,2.6,2.2
		v1.4c-1.3,0-3,0-3.1,1.7H86v-0.6c0.4-0.4,0.8-0.6,0.9-0.5l-0.4,0.8v0.5h0.4l0.4-0.8c0-0.3,0.4-0.4,0.6-0.4l-0.3,0.8
		c0,0.3,0,0.5-0.3,0.6H90c0.3-1,0.6-2.3,1.5-2.8c0-0.4,0-0.9-0.3-1.3h0.3c-0.3-0.3,0-0.8,0-1.3c-0.5,0-1.3-0.5-1.5-1
		c-0.6-0.9-1.3-1.8-1.3-2.6c-0.3-1.8,0-1.9-1.3-3.2c1.3,0,1.5,0,2.6-0.8v0.4l0.5-1.3l0.3,0.5c0.3-0.6,0-2.6,0-3.2
		c-0.4-1.9-2.6-5.9-2.6-7.5c0-0.5,0.3-1.3,1.3-1.3c0.9,0,2.6,2.1,2.8,3.6c0.4,1.3,0.5,2.6,0.6,4.1c-0.3,0.3-0.6,0.8-0.6,1.3
		c0,0.9,0.4,1.8,1.3,2.6l-0.3-1l1,0.8l1.8,0.9c-0.5-0.5-1.3-1.7-1-2.1c0-0.3,0.3,0,0.5,0c-0.9-1.3-0.5-2.2-2.2-2.8v-1.3
		c0-2.1-1.3-4.6-2.3-6.2h0.3c-0.6-0.5-1.3-0.5-2.2-0.6l0.6-0.4c-1.5-0.5-2.8,0.4-2.6,2.3c0,1.5,0.4,2.6,1,4.2c0.4,1,1,2.8,1,3.9
		c0,1.3-0.6,2.1-1.3,2.1c-0.8,0-2.6-0.5-3.9-2.1c-1-1.3-1-2.6-1-3.3c0-0.6,0.8-2.6,1.3-3.9l0.6-2.6l0.5,0.6V54c0.4-1,0-2.6,0-3.6
		l-1-1.5l1.3,0.9c0-1.7-1-3-2.1-4.2h1.3c-0.9-0.8-1.8-1.3-2.8-1.9l0.8-0.3h0.3c-0.6-0.3-1.8-0.5-2.6-0.5c-0.3,0-0.5,0-0.9-0.3
		c0,1-0.9,0.9-1.7,0.9c-0.5,0-0.5,0.3-0.8,0.6c-0.6,0.9-1.5,0.5-2.3,0.8c0,0.4,0,1.3,0.4,1.7h0.9c0.8,0,1.5,0.6,1.5,1.5
		c0,0.5-0.9,0.6-1.3,0.6c-0.8,0-1.3-0.5-1.3-0.5c-0.3,0-0.5,0.5-0.5,1c0,0.4,0,0.4,0.3,0.4l1.3-0.3c0.5,0,1,0.5,1,1.3
		c0,0.6-0.8,1.3-1.3,1.3s-1-0.6-1.3-0.9c-0.8-0.3-2.6-0.9-3-1.3v-0.5c0-0.5,0-1.9-0.4-2.3c-0.3-0.5-0.9-1-1.3-1h-0.5v0.3l0.8,0.3
		c0.4,0,1,0.8,0.9,0.9l-1-0.5h-0.8V47l0.9,0.4l0.6,0.8c0,0-0.3,0.3-0.4,0c0,0-0.5,0-0.8-0.3h-0.5v1.3c0.4,0,0.6,0.5,0.9,0.8l0.3,0.6
		c0.9,0.4,1.5,1.3,2.2,1.8h-0.4c0.4,0.3,0.5,0.6,0.6,1.3c0.9,0,1.3,0,1.7,0.8l-2.3,0.9c-0.3,0-2.6,1-3,0.6c-0.5-0.4,0.4-1.3-1.7-2.1
		v0.4c0,0,0.4,0,0.6,0.3c0,0.3,0.4,0.5,0.4,0.6h-0.5l-0.6-0.4"/>
	<path class="st2" d="M68.4,55.3l0.5,0.3c0.4,0.3,0.6,0.8,0.5,0.9c0,0.3,0,0-0.5-0.4h-0.5v1.5l0.4-0.3H70l0.6,0.4
		c0.6-0.5,2.1-0.3,2.8-0.3v0.3c0,0,0.4,0,0.5,0.4c0.6-0.8,1.7-0.5,2.3-0.4L76,58.2c0,0-0.5,0-0.8,0.3c0.4,1.3,1.7,2.6,2.8,3.5
		l-0.3,0.5l-1.3-0.4l-2.6-0.3c-2.1,0-2.3,1.3-2.3,1.8c0,1.9,2.2,4.4,3.9,5.5l-0.4,0.4c-0.3,0.6-0.6,0.9-1.3,1.3h-1.9l-1,1.3h0.6
		c0,0,0-0.4,0.4-0.8l0.8-0.3c0,0.3-0.3,0.4-0.5,0.6v0.5h0.4l0.5-0.8l0.6-0.3c0,0.3-0.3,0.4-0.4,0.6l-0.4,0.6h2.1
		c0-1.3,1.5-2.6,2.6-3c0-0.4,0-0.8-0.3-1.3l0.8,0.5h0.3c-0.5-0.5-0.5-1.3-0.6-2.1l1,0.8c1,0.5,2.2,0.6,3.2,0.6
		c0.3,1.3,0.8,2.6,1.3,3.3c1.3,0.9,2.2,1.3,3.1,1.8c0.8,0.4,2.2,1.3,2.6,2.2v1.4c-1.3,0-3,0-3.1,1.7h0.4v-0.6
		c0.4-0.4,0.8-0.6,0.9-0.5l-0.4,0.8v0.5H87l0.4-0.8c0-0.3,0.4-0.4,0.6-0.4c0.3,0,0,0.4-0.3,0.8c0,0.3,0,0.5-0.3,0.5h2.6
		c0.3-0.9,0.6-2.2,1.7-2.6V76c-0.3-0.3-0.3-0.8-0.4-1.3l0.3,0.3c-0.3-0.4,0-0.9,0-1.3c-0.5-0.3-1.3-0.6-1.5-1.3
		c-0.6-0.8-1.3-1.7-1.3-2.6c-0.3-1.7,0-1.8-1.3-3.1c1.3,0,1.5,0,2.6-0.8v0.4l0.5-1.3l0.3,0.5c0.4-0.6,0-2.6,0-3.2
		c-0.4-1.9-2.6-5.9-2.6-7.5c0-0.5,0.3-1.3,1.3-1.3c0.9,0,2.6,2.1,3,3.6l0.4,4.1c-0.3,0.3-0.6,0.8-0.6,1.3c0,0.9,0.5,1.7,1.3,2.6
		l-0.3-1l1,0.8c0.4,0.3,1.3,0.8,1.8,0.8c-0.5-0.4-1.3-1.5-1-1.9c0-0.3,0.3,0,0.5,0c-0.9-1.3-0.5-2.2-2.1-2.8v-1.3
		c0-2.1-1.3-4.6-2.6-6.2h0.5c-0.6-0.5-1.3-0.5-2.2-0.6l0.6-0.4c-1.5-0.5-2.8,0.4-2.6,2.2c0,1.7,0.4,2.8,1,4.2c0.4,1,1,2.8,1,3.9
		c0,1.3-0.6,2.1-1.3,2.1c-0.8,0-2.6-0.5-3.9-2.1c-1-1.3-1-2.6-1-3.3s0.8-2.6,1.3-3.9l0.6-2.6l0.5,0.6v0.3c0.4-1,0-2.6,0-3.6l-1-1.5
		l1.3,0.9c0-1.7-1-3-2.1-4.2h1.3c-0.9-0.8-1.8-1.3-2.8-1.9l0.8-0.3h0.3c-0.6-0.3-1.8-0.5-2.6-0.5c-0.3,0-0.5,0-0.9-0.3
		c0,1-0.9,0.9-1.5,0.9c-0.5,0-0.5,0.3-0.8,0.6c-0.6,0.9-1.5,0.5-2.3,0.8c0,0.4,0,1.3,0.4,1.7h0.9c0.8,0,1.5,0.6,1.5,1.5
		c0,0.5-0.9,0.6-1.3,0.6c-0.8,0-1.3-0.5-1.3-0.5c-0.3,0-0.5,0.5-0.5,1c0,0.4,0,0.4,0.3,0.4l1.3-0.3c0.5,0,1,0.5,1,1.3
		c0,0.6-0.8,1.3-1.3,1.3s-1-0.6-1.3-0.9c-0.8-0.3-2.6-0.9-3-1.3v-0.5c0-0.5,0-1.9-0.4-2.3c-0.3-0.5-0.9-1-1.3-1h-0.5V46l0.8,0.3
		c0.4,0,1,0.8,0.9,0.9c-0.1,0.1-0.8-0.3-1-0.5h-0.8v0.3l0.9,0.4l0.6,0.8c0,0-0.3,0.3-0.4,0c0,0-0.5,0-0.8-0.3h-0.5v1.3
		c0.4,0,0.6,0.5,0.9,0.8l0.3,0.6c0.9,0.4,1.5,1.3,2.2,1.8h-0.4c0.4,0.3,0.5,0.6,0.6,1.3c0.9,0,1.3,0,1.7,0.8c0,0-1.8,0.5-2.3,0.9
		c-0.3,0-2.6,1-3,0.6c-0.5-0.4,0.4-1.3-1.7-2.1v0.4c0,0,0.4,0,0.6,0.3c0,0.3,0.4,0.5,0.4,0.6h-0.5l-0.6-0.4L68.4,55.3z"/>
	<path class="st3" d="M31.4,55.3c0,0-0.4,0-0.5,0.3c-0.3,0.4-0.6,0.8-0.5,0.9c0,0.3,0.4,0,0.8-0.4h0.5v1.5l-0.5-0.3h-1.3l-0.5,0.4
		c-0.8-0.5-2.1-0.3-3-0.3l0.3,0.3c-0.3,0-0.5,0-0.8,0.4c-0.4-0.8-1.3-0.5-2.2-0.4l0.5,0.5c0.3,0,0.5,0,0.8,0.3
		c-0.3,1.3-1.5,2.6-2.6,3.5v0.5l1.3-0.4l2.6-0.3c2.2,0,2.6,1.3,2.6,1.8c0,1.9-2.6,4.4-3.9,5.5v0.4l1.3,1.3h2.2l0.9,1.3h-0.6
		c0,0,0-0.4-0.4-0.8l-0.8-0.3l0.5,0.6v0.5h-0.5l-0.4-0.8c0,0-0.5-0.4-0.6-0.3c0,0.3,0.4,0.4,0.5,0.6v0.6h-1.9c0-1.3-1.7-2.6-2.6-3
		c0-0.4,0-0.8,0.3-1.3l-0.6,0.5h-0.3c0.5-0.5,0.5-1.3,0.6-2.1l-1,0.8c-0.9,0.5-2.1,0.6-3.1,0.6c-0.3,1.3-0.8,2.6-1.5,3.3
		c-0.8,0.9-1.9,1.3-2.8,1.8c-0.9,0.4-2.2,1.3-2.8,2.2c0,0,0,0.5,0.3,0.9v0.8c1.3,0,3,0,3.1,1.7H14v-0.6c-0.4-0.4-0.8-0.6-0.9-0.5
		l0.4,0.8l0.3,0.5h-0.6l-0.3-0.8l-0.6-0.4l0.3,0.8v0.6h-2.3c-0.3-1-0.5-2.3-1.5-2.8l0.3-1.3c0-0.3,0-0.8-0.3-1.3
		c0.6,0,1.3-0.5,1.5-1c0.8-0.9,1.3-1.8,1.3-2.6c0.4-1.8,0.3-1.9,1.3-3.2c-1.3,0-1.3,0-2.6-0.8v0.4c0-0.5-0.5-1.3-0.5-1.3l-0.3,0.5
		l0.3-3.2c0.4-1.9,2.6-5.9,2.6-7.5c0-0.5-0.3-1.3-1.3-1.3c-0.9,0-2.6,2.1-3,3.6c-0.4,1.3-0.5,2.6-0.6,4.1C7.6,61.8,8,62.3,8,62.8
		c0,0.9-0.5,1.8-1.3,2.6v-1l-0.8,0.8l-1.8,0.9c0.4-0.5,1.3-1.7,1-2.1c0-0.3-0.4,0-0.5,0c0.8-1.3,0.4-2.2,2.1-2.8v-1.3
		c0-2.1,1.3-4.6,2.6-6.2H8.6c0.8-0.5,1.3-0.5,2.3-0.6l-0.8-0.4c1.7-0.5,3,0.4,2.8,2.3c-0.3,1.5-0.6,2.6-1.3,4.2
		c-0.4,1-1.3,2.8-1.3,3.9c0,1.3,0.9,2.1,1.7,2.1c0.6,0,2.6-0.5,3.6-2.1c1.3-1.3,1.3-2.6,1.3-3.3c0-0.6-0.9-2.6-1.3-3.9l-0.6-2.6
		L14.5,54v0.3c-0.3-1,0-2.6,0.3-3.6c0-0.4,0.9-1.5,0.9-1.5L14.4,50h-0.3c0-1.7,1-3,1.9-4.2h-1.3c0.9-0.8,1.9-1.3,3-1.9L17,43.6h-0.3
		c0.6-0.3,1.8-0.5,2.6-0.5c0.3,0,0.5,0,0.8-0.3c0,1,1,0.9,1.7,0.9c0.6,0,0.6,0.3,0.9,0.6c0.5,0.9,1.3,0.5,2.3,0.8
		c0,0.4,0,1.3-0.4,1.7h-1.3c-0.6,0-1.3,0.6-1.3,1.5c0,0.5,0.6,0.6,1,0.6c0.8,0,1.3-0.5,1.3-0.5s0.4,0.5,0.4,1v0.4l-1.3-0.3
		c-0.5,0-1,0.5-1,1.3c0,0.6,0.6,1.3,1.3,1.3c0.4,0,1-0.6,1.3-0.9c0.8-0.3,2.6-0.9,3-1.3v-0.5c0-0.5,0-1.9,0.3-2.3c0.4-0.5,1-1,1.3-1
		h0.6v0.3c-0.3,0-0.5,0-0.8,0.3c-0.5,0-1,0.8-0.9,0.9l0.8-0.5H30v0.3l-0.9,0.4l-0.6,0.8c0,0,0.3,0.3,0.3,0c0,0,0.6,0,0.8-0.3H30v1.3
		c-0.4,0-0.8,0.5-0.9,0.8l-0.3,0.6c-0.9,0.4-1.5,1.3-2.2,1.8h0.3c-0.4,0.3-0.5,0.6-0.6,1.3c-0.9,0-1.3,0-1.7,0.8l2.3,0.9
		c0.3,0,2.6,1,3,0.6c0.5-0.4-0.3-1.3,1.8-2.1v0.4c-0.3,0-0.5,0-0.6,0.3c-0.5,0.3-0.6,0.5-0.6,0.6h0.5c0-0.3,0-0.3,0.3-0.4h0.3"/>
	<path class="st2" d="M31.4,55.3c0,0-0.4,0-0.5,0.3c-0.3,0.3-0.6,0.8-0.5,0.9s0.4,0,0.8-0.4h0.5v1.5l-0.5-0.3h-1.3l-0.5,0.4
		c-0.8-0.5-2.1-0.3-3-0.3l0.3,0.3c-0.3,0-0.5,0-0.8,0.4c-0.4-0.8-1.3-0.5-2.2-0.4l0.5,0.5c0.3,0,0.5,0,0.8,0.3
		c-0.4,1.3-1.5,2.6-2.6,3.5v0.5l1.3-0.4l2.6-0.3c2.2,0,2.6,1.3,2.6,1.8c0,1.9-2.6,4.4-3.9,5.5v0.4l1.3,1.3h2.2l0.9,1.3h-0.6
		c0,0,0-0.4-0.4-0.8l-0.8-0.3c0,0.3,0.3,0.4,0.5,0.6v0.5h-0.5l-0.4-0.8c0,0-0.5-0.4-0.6-0.3c0,0.3,0.4,0.4,0.5,0.6v0.6h-1.9
		c0-1.3-1.7-2.6-2.6-3c0-0.4,0-0.8,0.3-1.3l-0.6,0.5h-0.3c0.5-0.5,0.5-1.3,0.6-2.1l-1,0.8c-0.9,0.5-2.1,0.6-3.1,0.6
		c-0.3,1.3-0.8,2.6-1.5,3.3c-0.8,0.9-1.9,1.3-2.8,1.8c-0.9,0.4-2.2,1.3-2.8,2.2c0,0,0,0.5,0.3,0.9v0.8c1.3,0,2.8,0,3.1,1.7H14v-0.6
		c-0.4-0.4-0.8-0.6-0.9-0.5c-0.1,0.1,0.3,0.5,0.4,0.8c0,0,0,0.4,0.3,0.5h-0.6c0,0,0-0.5-0.3-0.8l-0.6-0.4l0.3,0.8V79h-2.3
		c-0.3-0.9-0.5-2.2-1.5-2.6v-0.3l0.3-1.3v0.3c0-0.4,0-0.9-0.3-1.3c0.6-0.3,1.3-0.6,1.5-1.3c0.8-0.8,1.3-1.7,1.3-2.6
		c0.4-1.7,0.3-1.8,1.3-3.1c-1.3,0-1.3,0-2.6-0.8v0.4c0-0.5-0.5-1.3-0.5-1.3l-0.3,0.5c0-0.6,0-2.6,0.3-3.2c0.4-1.9,2.6-5.9,2.6-7.5
		c0-0.5-0.3-1.3-1.3-1.3s-2.6,2.1-3,3.6c-0.4,1.3-0.5,2.6-0.6,4.1C7.6,61.8,8,62.3,8,62.8c0,0.9-0.5,1.7-1.3,2.6v-1l-0.8,0.8
		c-0.4,0.3-1.3,0.8-1.8,0.8c0.4-0.4,1.3-1.5,1-1.9c0-0.3-0.4,0-0.5,0c0.8-1.3,0.4-2.2,2.1-2.8v-1.3c0-2.1,1.3-4.6,2.6-6.2H8.6
		c0.8-0.5,1.3-0.5,2.3-0.6l-0.8-0.4c1.7-0.5,2.8,0.4,2.8,2.2c-0.3,1.7-0.6,2.8-1.3,4.2c-0.4,1-1.3,2.8-1.3,3.9
		c0,1.3,0.9,2.1,1.7,2.1c0.6,0,2.6-0.5,3.6-2.1c1.3-1.3,1.3-2.6,1.3-3.3s-0.9-2.6-1.3-3.9l-0.6-2.6l-0.5,0.6v0.3
		c-0.3-1,0-2.6,0.3-3.6c0-0.4,0.9-1.5,0.9-1.5l-1.3,0.9h-0.3c0-1.7,1-3,1.9-4.2h-1.3c0.9-0.8,1.9-1.3,3-1.9L17,43.4h-0.3
		c0.6-0.3,1.8-0.5,2.6-0.5c0.3,0,0.5,0,0.8-0.3c0,1,0.9,0.9,1.7,0.9c0.6,0,0.6,0.3,0.9,0.6c0.5,0.9,1.3,0.5,2.3,0.8
		c0,0.4,0,1.3-0.4,1.7h-1.3c-0.6,0-1.3,0.6-1.3,1.5c0,0.5,0.6,0.6,1,0.6c0.8,0,1.3-0.5,1.3-0.5s0.4,0.5,0.4,1v0.4l-1.3-0.3
		c-0.5,0-1,0.5-1,1.3c0,0.6,0.6,1.3,1.3,1.3c0.4,0,0.9-0.6,1.3-0.9c0.8-0.3,2.6-0.9,3-1.3v-0.5c0-0.5,0-1.9,0.3-2.3
		c0.4-0.5,1-1,1.3-1H30v0.3l-0.5,0.3c-0.5,0-1,0.8-0.9,0.9l0.8-0.5H30v0.3l-0.6,0.4l-0.6,0.8c0,0,0,0.3,0.3,0c0,0,0.6,0,0.8-0.3h0.4
		v1.3l-0.6,0.8l-0.4,0.6c-0.8,0.4-1.3,1.3-2.1,1.8h0.3c-0.4,0.3-0.5,0.6-0.6,1.3c-0.9,0-1.3,0-1.7,0.8l2.3,0.9c0.3,0,2.6,1,3,0.6
		c0.5-0.4-0.3-1.3,1.7-2.1v0.4c0,0-0.4,0-0.5,0.3c-0.5,0.3-0.6,0.5-0.6,0.6h0.4l0.5-0.4h0.3L31.4,55.3z"/>
	<path class="st3" d="M47.4,81.2c-0.4-0.4-1.3-1.3-3-1.3c-2.3-0.4-6.4-0.3-8.5-1.3l-2.6-2.1c-3-2.3-3.1-5.4-3.1-8.7v-6.9h1.5v6.4
		c0,4.5,0.4,5.5,1.5,7.3c1.3,1.8,4.8,3.1,6.7,3.2c1.9,0,3.9,0,6.4,0.8c1.9,0.6,2.6,2.2,2.8,2.6h1.3c0-0.4,0.8-1.9,3-2.6
		C56.2,78,58,78,60,77.9c1.8,0,5.1-1.3,6.4-3.2c1.3-1.8,1.7-2.8,1.7-7.5v-6.4h1.5v7.1c0,3.3,0,6.4-3,8.7l-3.1,1.9
		c-1.9,1.3-6.2,1-8.4,1.3c-1.8,0-2.6,1-2.8,1.3h0.8c4.5,0,9-0.6,12.8-1.3v-2.1l0.4-0.4v2.3c2.8-0.4,5.1-0.9,6.2-1.3
		c1.3-0.3,3-1,3.6-2.2c0-0.8-0.5-1.5-1.8-1.5c-1.7,0-2.3,0.4-3.9,0.9c-0.6,0.4-1.9,0.6-2.8,0.6l0.5-0.6h0.6c2.1-0.3,3.2-1.3,5.4-1.3
		c1.8,0,2.2,1.3,2.2,2.6v4.8h1.9c1.8,0,2.2,0,2.2-2.1v-6.4c-1.3,0.6-3.1,0.6-3.9,0.5l-7.5-0.8v-0.5h0.5c0,0.3-0.3,0.4-0.3,0.4
		l5.5,0.4h1.5c0.6,0,3.1,0.3,3.6-0.8c0-0.9-0.9-0.9-1.7-1.3L76,70.8l0.8-0.5l2.1,0.4v0.3v-2.6c0.3,0,0.4,0,0.5,0.3v2.6
		c0.9,0,1.7,0.4,1.7,1.7v6.9c0,2.6-0.6,2.6-2.6,2.6h-2.1v1.8c0,2.1-0.4,2.3-2.6,3.2C72,88,62.5,90.7,49.6,90.7
		c-13.1,0-22.5-2.6-24.4-3.5c-2.2-1-2.6-1.3-2.6-3.3V82h-1.9c-1.7,0-2.6,0-2.6-2.6v-6.8c0-1.3,0.8-1.7,1.5-1.8v-2.6h0.5v2.6l0.3-0.3
		c0.6,0,1.5,0,1.9-0.3c0.3,0,0.4,0.3,0.5,0.4c-0.3,0.3-1.3,0.5-2.2,0.6c-0.8,0.3-1.7,0.3-1.8,1.3c0.5,0.9,3,0.8,3.6,0.6h1.7l5.5-0.4
		l-0.3-0.5H30V73l-7.1,0.8c-2.6,0.3-3.5-0.3-3.9-0.6v6.4c0,2.1,0,2.2,1.9,2.2h1.9v-4.9c0-1.3,0.5-2.6,2.6-2.6s3.1,1,5.1,1.3h0.8
		c0,0.3,0.3,0.4,0.4,0.6h-1.3l-1.8-0.6c-1.3-0.5-1.9-0.9-3.5-0.9c-1.3,0-1.9,0.8-2.1,1.5c1,1.3,2.6,1.9,3.9,2.3l5.9,1.3v-2.6
		c0,0.3,0.4,0.4,0.5,0.5v2.1c3.9,0.6,8.2,1.3,12.8,1.3"/>
	<path class="st2" d="M47.4,81.2c-0.4-0.4-1.3-1.3-3-1.3c-2.3-0.4-6.4-0.3-8.4-1.3l-3-2.1c-3-2.3-3.1-5.1-3.1-8.7v-6.9h1.5v6.4
		c0,4.5,0.4,5.5,1.5,7.3c1.3,1.8,4.8,3.1,6.7,3.2c1.9,0.3,3.9,0,6.4,0.9c2.1,0.5,2.6,2.1,3,2.6h1c0-0.5,0.9-2.1,3.1-2.6
		c2.6-0.8,4.4-0.6,6.4-0.9c1.8,0,5.1-1.3,6.4-3.2c1.3-1.8,1.7-2.8,1.7-7.5v-6.4h1.5v7.1c0,3.5,0,6.4-3,8.7l-3.1,1.9
		c-1.9,1.3-6,1-8.4,1.3c-1.8,0-2.6,1-2.6,1.3H53c4.5,0,9-0.6,12.8-1.3v-2.1l0.5-0.4v2.6c2.6-0.6,5.1-1.3,6-1.3
		c1.3-0.5,3-1.3,3.6-2.6c0-0.6-0.5-1.3-1.8-1.3c-1.7,0-2.3,0.4-3.6,0.9c-0.8,0.4-2.2,0.6-3.1,0.6l0.5-0.5h0.6
		c2.1-0.3,3.2-1.3,5.4-1.3c1.8,0,2.2,1.3,2.2,2.6v4.8h2.1c1.7,0,2.1,0,2.1-2.1v-6.4C79,74,77.2,74,76.5,73.9L69,73.1v-0.5h0.5
		l-0.3,0.5l5.5,0.3h1.5c0.6,0,3.1,0.3,3.6-0.8c0-0.8-0.9-0.9-1.7-1.3l-2.6-0.3l0.8-0.5l2.1,0.5v-2.6c0.3,0,0.4,0,0.6,0.3v2.6
		c0.9,0,1.7,0.4,1.7,1.7v6.9c0,2.6-0.6,2.6-2.6,2.6h-2.1v1.8c0,2.1-0.4,2.3-2.3,3.2c-2.2,0.6-11.6,3.3-24.4,3.3
		c-13.1,0-22.5-2.6-24.4-3.5c-2.2-1-2.6-1.3-2.6-3.3V82h-1.9c-1.7,0-2.6,0-2.6-2.6v-6.8c0-1.3,0.8-1.5,1.5-1.8v-2.6h0.5v2.6h0.3
		c0.6-0.4,1.5-0.5,1.9-0.6c0.3,0,0.4,0.3,0.6,0.4l-2.6,0.6c-0.6,0.3-1.5,0.4-1.7,1.3c0.5,0.9,3,0.8,3.6,0.6h1.7l5.7-0.3l-0.3-0.5
		h0.3v0.5l-7.1,0.8c-2.6,0.3-3.5,0-3.9-0.5v6.4c0,2.1,0.3,2.2,1.9,2.2h1.9v-4.9c0-1.3,0.5-2.6,2.6-2.6s3.2,1,5.1,1.3H31
		c0,0.3,0.3,0.5,0.5,0.6h-1.3l-1.8-0.5c-1.3-0.4-1.9-0.8-3.5-0.8c-1.3,0-1.9,0.6-1.9,1.3v0.3c0.9,1,2.3,1.8,3.6,2.2l6,1.3v-2.6
		l0.5,0.5v2.1c3.9,0.6,8.4,1.3,12.8,1.3L47.4,81.2z"/>
	<path class="st4" d="M76.1,76.9c-0.9,1-2.2,1.8-3.5,2.1c-3,0.9-13.5,2.8-22.7,2.8c-9.4,0-20-1.9-23.1-2.8c-0.9-0.3-2.6-0.9-3.3-1.9
		v6.9c0,1.7,0.3,1.9,2.2,2.6c2.1,0.9,11.6,3.6,24.4,3.6s22.1-2.6,24-3.5c1.9-0.8,2.1-1,2.1-2.6"/>
	<path class="st2" d="M76.1,76.9c-0.9,1-2.2,1.7-3.5,2.1c-3,0.9-13.5,2.8-22.7,2.8c-9.4,0-20-1.9-22.9-2.8c-1-0.3-2.6-1-3.6-1.9v6.9
		c0,1.7,0.3,1.8,2.2,2.6c2.1,0.9,11.6,3.6,24.4,3.6s22.1-2.6,24-3.5s2.1-1,2.1-2.6L76.1,76.9z"/>
	<path class="st0" d="M25.1,83.3c0,0.5,0,0.9,0.3,1.3l0.5,0.4h0.6l0.3-0.4V84l-0.5-0.5L26,83.3l-0.5-0.9v-0.8c0-0.3,0.3-0.5,0.6-0.6
		c0.3-0.3,0.5-0.3,0.9,0h0.6c0,0.3,0.3,0.4,0.3,0.4h0.3l-0.4,1.3h-0.4v-1c0-0.3-0.4-0.5-0.6-0.5h-0.5L26,81.5v0.4l0.5,0.5l0.4,0.4
		l0.3,0.5v1c0,0.4-0.3,0.6-0.6,0.8c-0.3,0.3-0.6,0.3-1.3,0l-0.5-0.3v-0.3h-0.3v0.3h-0.3 M30.1,82h-0.5v0.4l-0.5,2.1v0.6
		c0,0.4,0,0.6,0.5,0.6c0.4,0,0.8,0,0.9-0.3l0.4-0.8l0.5-1.9v-0.5c0,0-0.3,0-0.4-0.3l1.3,0.3v0.3h-0.4v0.4l-0.6,1.9
		c0,0.5-0.4,0.9-0.6,1.3h-1.3c-0.5,0-0.9-0.4-1-0.9c-0.3-0.3-0.3-0.6,0-0.9l0.4-2.2v-0.3l-0.4-0.3"/>
	<path class="st0" d="M31,86.4h0.4l0.3-0.5l0.5-3v-0.4h-0.4v-0.3H33l1.5,3.2v-1.9c0.3,0,0.3-0.4,0-0.4c0-0.3,0-0.4-0.3-0.4v-0.3
		l1.3,0.3c-0.3,0-0.4,0.3-0.4,0.3L35,83.3l-0.6,3.6L32.3,83l-0.4,2.6c-0.3,0-0.3,0.3,0,0.4c0,0,0,0.3,0.3,0.3v0.3l-1.3-0.3"/>
	<path class="st0" d="M34.6,87.1h0.5c0-0.3,0-0.4,0.3-0.5l0.4-3.1c0,0,0-0.3-0.3-0.4c0,0,0-0.3-0.3-0.3h1.7c0.6,0,1.3,0.5,1.3,0.9
		c0.4,0.5,0.5,1,0.5,1.7c0,0.5-0.4,1-0.8,1.3c-0.4,0.5-1,0.6-1.7,0.5L34.5,87L34.6,87.1z M36.3,87.1h0.3c0.3,0,0.6,0,0.9-0.3
		s0.4-0.8,0.5-1.3v-1.3c0-0.6-0.4-0.9-0.9-1h-0.4v0.4l-0.5,3.1V87"/>
	<path class="st0" d="M38.4,87.6H39v-0.5l0.4-3.1v-0.4h-0.5v-0.3l3.3,0.4l-0.3,1.3c0-0.5-0.3-0.8-0.4-0.9c0-0.3-0.5-0.3-0.9-0.4
		h-0.4v1.7h0.5v-0.8H41v2.2h-0.3v-0.8h-0.9v1.7h1.3l0.6-0.9H42l-0.4,1.3"/>
	<path class="st0" d="M42.3,87.8h0.3v-0.5l0.3-2.6V84h-0.5v-0.3h1.9l0.9,0.3c0.4,0.3,0.6,0.6,0.6,1c0,0.4,0,0.6-0.4,0.8h-0.6l1,2.1
		v0.3h-1l-1-2.1l-0.3,1.3v0.4H44V88h-1.7V87.8z M44.5,85.7l0.3-0.9v-0.5c-0.3-0.4-0.4-0.5-0.8-0.5h-0.3v1.8h0.6"/>
	<path class="st0" d="M46.1,88c0.3,0,0.4-0.3,0.4-0.5v-3V84H46h1.9h-0.5v4h1.4l0.6-1.3h0.3l-0.3,1.7l-3.3-0.3"/>
	<path class="st0" d="M51.7,86.7L51,85.2l-0.5,1.5H51.7z M49.5,88h0.4v-0.8l1.3-3.3l1.5,3.3L53,88h0.4v0.3h-1.9h0.4v-0.4v-0.8h-1.3
		c-0.3,0-0.3,0.3-0.4,0.4V88h0.4l-1.3,0.3"/>
	<path class="st0" d="M53.3,88h0.4v-3.6l-0.5-0.5l1-0.3l2.2,2.6v-1.7V84h-0.5v-0.3h1.3h-0.4v4.4L54,84.8l0.3,2.6v0.4h0.5v0.4h-1.3"
		/>
	<path class="st0" d="M57.2,87.8h0.4v-0.4l-0.3-3.2v-0.3h-0.5v-0.3h1.8c0.6,0,1.3,0,1.7,0.4c0.4,0.4,0.6,0.9,0.6,1.5
		c0,0.5,0,1-0.4,1.5c-0.4,0.4-0.9,0.6-1.5,0.8h-1.8L57.2,87.8z M58.7,87.5H59c0.3,0,0.5,0,0.8-0.4s0.3-0.8,0.3-1.5
		c0-0.4,0-0.8-0.3-1.3c-0.3-0.4-0.6-0.5-1-0.5h-0.4v0.4l0.3,3.1v0.4 M63.9,85.8l-0.8-1.3l-0.4,1.3H63.9z M61.9,87.4
		c0,0,0.3,0,0.3-0.3v-0.5l0.9-3.9h0.3l1.7,3.3l0.4,0.6h0.4V87h-1.7c0.3,0,0.3-0.3,0.3-0.4c0-0.3,0-0.3-0.3-0.4v-0.4l-1.3,0.4
		l-0.3,0.5v0.4h0.5v0.3h-1.3"/>
	<path class="st0" d="M65.9,86.1h0.3c0-0.3,0.3,0,0.4,0v0.6L66.2,87c0,0-0.3,0-0.3-0.3l-0.3-0.4V86"/>
	<path class="st0" d="M66.7,86.6h0.5v-0.5L66.6,83l-0.4-0.3h-0.3l3.1-0.9v1.3c0-0.5-0.3-0.6-0.5-0.8h-1.4v0.3l0.4,1.3h0.4V83h0.3
		l0.4,1.9L68,84.3h-0.6v1.3l0.4,0.4h0.5l-2.1,0.5 M69.7,85.3h0.3c0-0.3,0.3,0,0.4,0v0.3c0.3,0,0.3,0.3,0,0.4v0.4h-0.5L69.5,86v-0.5
		 M72.2,81.1h0.4c0.3,0,0.3-0.3,0.3-0.3l0.5,1.5l-0.8-0.6c-0.4-0.3-0.6-0.4-1-0.3c-0.4,0-0.5,0.4-0.6,0.8c0,0.5,0,1,0.3,1.7
		c0,0.4,0.3,0.8,0.4,1c0.4,0.6,0.8,0.8,1.3,0.6l0.6-0.5l0.4-0.5c0,0.4,0,0.6-0.3,0.9c-0.3,0.3-0.5,0.5-0.9,0.5c-0.5,0.3-1,0-1.5,0
		c-0.5-0.4-0.9-0.9-1-1.5V82c0.4-0.4,0.8-0.6,1.3-0.8h0.8 M74.4,84v-0.3h0.5c0,0,0.3,0,0.3,0.3v0.4l-0.3,0.3h-0.4v-0.4v-0.5"/>
	<path class="st1" d="M80.4,46c0,0-0.4-0.8-0.9-0.9c-0.4-0.3-0.9-0.3-0.9,0l0.4,0.6h0.5L80.4,46"/>
	<path class="st2" d="M80.4,46c0,0-0.4-0.8-0.9-0.9c-0.4-0.3-0.9-0.4-0.9,0l0.4,0.5h0.5C79.9,45.6,80.4,46,80.4,46L80.4,46z"/>
	<path class="st0" d="M88.5,67.9l0.6-1l-0.8,0.3v0.8"/>
	<path class="st2" d="M88.5,67.9l0.6-1l-0.8,0.3v0.8L88.5,67.9z"/>
	<path class="st1" d="M19.2,46c0,0,0.5-0.8,0.9-0.9c0.5-0.3,0.9-0.3,1,0l-0.4,0.6h-0.6L19.3,46"/>
	<path class="st2" d="M19.2,46c0,0,0.5-0.8,0.9-0.9c0.4-0.3,0.9-0.4,1,0l-0.4,0.5h-0.6C19.7,45.6,19.2,46,19.2,46L19.2,46z"/>
	<path class="st0" d="M10.9,67.9c0-0.4-0.4-0.8-0.4-1l0.8,0.3l-0.5,0.8"/>
	<path class="st2" d="M10.9,67.9c0-0.4-0.4-0.8-0.4-1l0.8,0.3l-0.5,0.8L10.9,67.9z"/>
	<path class="st4" d="M53.5,78.8c-2.2,0.5-3,2.1-3.1,2.6h-0.5V60.8h18v6.4c0,4.6-0.4,5.7-1.7,7.5c-1.3,1.8-4.6,3.1-6.4,3.2
		c-2.1,0-3.9,0-6.4,0.8"/>
	<path class="st2" d="M53.5,78.8c-2.2,0.5-3,2.1-3.1,2.6h-0.5V60.8h18v6.4c0,4.6-0.4,5.7-1.7,7.5c-1.3,1.8-4.6,3.1-6.4,3.2
		c-2.1,0-3.9,0-6.4,0.9H53.5z"/>
	<path class="st1" d="M50,64v-0.5h3.1l0.9,0.3l0.9-0.4c0.3,0,3.5,0,7.3,0.9c3.1,0.6,4.9,1.3,5.5,1.7v0.5c-0.8-0.4-2.6-1.3-5.5-1.9
		c-3.9-0.9-6.9-0.9-7.5-0.9L53,63.9c-0.6,0-1.3,0-1.8-0.3h-1.3h-0.4L50,64z M50,65v-1h1.5l1.8,0.3c0.5,0,1.3,0,1.7-0.3
		c0.4,0,3.6,0,7.2,0.9c3,0.8,5.1,1.5,5.7,1.8V68c-0.6-0.4-2.6-1.3-5.5-1.9c-3.9-1-6.9-1-7.5-1c-0.4,0-0.5,0-0.8-0.3
		c-1-0.3-1.8,0-2.6,0.3h-1.9L50,65z M62.8,66.7v10.5c-0.4,0-0.6,0.3-0.9,0.4v-11c-0.4-0.3-0.9-0.4-1.3-0.4l-1.3-0.3V78h-1V65.7
		l-2.8-0.4v12.8l-0.9,0.3V65.3h-2.1l-0.4,0.3h-0.3v13.9L51,80.2V65.5h-1v-0.3h1.7c0.5-0.3,1-0.5,1.7-0.5c0.8,0,1,0.3,1.7,0.4
		c0.3,0,3.5,0,7.3,0.8c3.1,0.9,5.1,1.8,5.5,2.1v0.8L66.3,68v6.8l-0.9,1v-8c-0.6-0.4-1.5-0.6-2.6-0.9"/>
	<path class="st2" d="M50,64v-0.5h3.1l0.9,0.3l0.9-0.4c0.3,0,3.5,0,7.3,0.9c3.1,0.6,4.9,1.3,5.5,1.7v0.5c-0.8-0.4-2.6-1.3-5.7-1.9
		c-3.6-0.9-6.8-0.9-7.3-0.9L53,63.9c-0.6,0-1.3,0-1.8-0.3h-1.3h-0.4L50,64z"/>
	<path class="st2" d="M50,65v-1h1.5l1.8,0.3c0.5,0,1.3,0,1.7-0.3c0.4,0,3.5,0,7.2,0.9c3,0.8,5.1,1.5,5.7,1.8V68
		c-0.6-0.4-2.6-1.3-5.5-2.1C58.5,65,55.4,65,54.9,65l-0.8-0.3c-1-0.3-1.9,0-2.8,0.3H50z"/>
	<path class="st2" d="M62.8,66.6v10.5c-0.4,0-0.6,0.3-0.9,0.4V66.6c-0.4-0.3-0.9-0.4-1.3-0.4l-1.3-0.3v11.9h-1V65.8l-2.6-0.4v12.8
		l-1,0.3V65.3h-2.2l-0.3,0.3h-0.4v13.9l-0.8,0.8V65.5h-1.4v-0.3h1.7l1.7-0.5c0.8,0,1,0.3,1.7,0.4c0.3,0,3.5,0,7.3,0.8
		c3.2,0.9,5.1,1.8,5.5,2.1v0.4l-1.5-0.6v6.7l-0.9,1v-8.1l-2.6-0.8H62.8z"/>
	<path class="st4" d="M39.1,77.7c-1,0-2.6-0.6-3.5-1.3V61h3.5V77.7z M46.3,78.8c-1.3-0.4-2.3-0.6-3.3-0.6V60.9h3.5"/>
	<path class="st2" d="M39.1,77.7c-1,0-2.6-0.6-3.6-1.3V61h3.6V77.7z M46.1,78.8c-1.3-0.5-2.3-0.6-3.5-0.6V60.9h3.6L46.1,78.8z"/>
	<path class="st1" d="M32,76.2h-1.3l-1.8-0.6c-1.3-0.5-1.9-0.9-3.5-0.9c-1.3,0-1.9,0.8-2.1,1.5c1,1.3,2.6,1.9,3.9,2.3l5.9,1.3v-2.6
		l-0.8-0.5l-0.6-0.6"/>
	<path class="st2" d="M32,76.2h-1.3l-1.8-0.6c-1.3-0.5-1.9-0.9-3.5-0.9c-1.3,0-1.9,0.8-2.1,1.5c1,1.3,2.6,1.9,3.9,2.3l5.9,1.3v-2.6
		l-0.8-0.5l-0.6-0.6L32,76.2z"/>
	<path class="st1" d="M24.3,72.6c0,0,0-0.6-0.3-1c-0.3-0.6-0.9-1.3-0.9-1.3c-0.3,0.3-1.3,0.5-2.2,0.6c-0.8,0.3-1.7,0.3-1.8,1.3
		c0.5,0.9,3,0.8,3.6,0.6h1.7v-0.4"/>
	<path class="st2" d="M24.3,72.6c0,0,0-0.6-0.3-1l-0.9-1.3c-0.3,0.3-1.3,0.5-2.2,0.6c-0.8,0.3-1.7,0.4-1.8,1.3
		c0.5,0.9,3,0.8,3.6,0.6h1.7v-0.4L24.3,72.6z"/>
	<path class="st4" d="M20.5,68.2v2.2h0.3l1.9-0.5L22,69.7h-0.4v-0.8h-1.2l0.9-0.8c0.3-0.3,0.3-0.6,0.3-0.6H21c0,0.3-0.5,0.3-0.5,0.3
		"/>
	<path class="st2" d="M20.5,68.2v2.2h0.3l1.9-0.5L22,69.7h-0.4v-0.8h-1.2l0.9-0.6l0.3-0.8H21c0,0.3-0.5,0.4-0.5,0.4L20.5,68.2z"/>
	<path class="st1" d="M67.7,76.2H69l1.7-0.6c1.5-0.5,2.2-0.9,3.9-0.9c1.3,0,1.5,0.8,1.7,1.5c-0.9,1.3-2.3,1.9-3.6,2.3l-6.2,1.3v-2.6
		l0.8-0.5l0.6-0.6"/>
	<path class="st2" d="M67.7,76.2H69l1.8-0.6c1.3-0.5,1.9-0.9,3.5-0.9c1.3,0,1.5,0.8,1.7,1.5c-0.9,1.3-2.3,1.9-3.6,2.3l-6,1.3v-2.6
		l0.8-0.5l0.5-0.6L67.7,76.2z"/>
	<path class="st1" d="M75.2,72.6c0,0,0-0.6,0.5-1l0.8-1.3l2.6,0.6c0.6,0.3,1.3,0.3,1.5,1.3c-0.5,0.9-3,0.8-3.9,0.6h-1.3l-0.3-0.4"/>
	<path class="st2" d="M75.2,72.6c0,0,0-0.6,0.4-1l0.8-1.3c0.4,0.3,1.7,0.5,2.6,0.6c0.6,0.3,1.3,0.4,1.5,1.3c-0.5,0.9-3,0.8-3.9,0.6
		h-1.3l-0.3-0.4L75.2,72.6z"/>
	<path class="st4" d="M79,68.2v2.6v-0.3c-0.8,0-1.5,0-1.9-0.3l0.6-0.3h0.5l-0.4-0.8h1.3l-0.8-0.8l-0.3-0.6h0.5
		c0.3,0.3,0.6,0.3,0.6,0.3"/>
	<path class="st2" d="M79,68.2v2.6v-0.3c-0.8,0-1.5,0-2.1-0.3l0.6-0.3h0.5l-0.4-0.8H79l-0.8-0.6L78,67.9h0.5L79,68.2L79,68.2z"/>
	<path class="st4" d="M69,74.3c-0.4,0.9-0.8,1.3-0.8,1.3h0.6c2.1-0.3,3.2-1.3,5.4-1.3c1.8,0,2.2,1.3,2.2,2.6v4.8h1.9
		c1.8,0,2.2,0,2.2-2.1v-6.4c-1.3,0.6-3.1,0.6-3.9,0.5l-7.5-0.8c0,0,0,0.6-0.5,1.5"/>
	<path class="st2" d="M69,74.3c-0.4,0.9-0.8,1.3-0.8,1.3h0.6c2.1-0.3,3.2-1.3,5.4-1.3c1.8,0,2.2,1.3,2.2,2.6v4.8h1.9
		c1.8,0,2.2,0,2.2-2.1v-6.4c-1.3,0.6-3.1,0.6-3.9,0.5l-7.5-0.8c0,0,0,0.6-0.5,1.5L69,74.3z"/>
	<path class="st4" d="M30.7,74.3c0.4,0.9,0.8,1.3,0.8,1.3h-0.6c-2.1-0.3-3.1-1.3-5.1-1.3s-2.6,1.3-2.6,2.6v4.8h-1.9
		c-1.8,0-2.1,0-2.1-2.1v-6.4c0.9,0.6,2.8,0.6,3.9,0.5l7.1-0.8c0,0,0,0.6,0.6,1.5"/>
	<path class="st2" d="M30.7,74.3c0.4,0.9,0.8,1.3,0.8,1.3h-0.6c-1.9-0.3-3.1-1.3-5.1-1.3s-2.6,1.3-2.6,2.6v4.8h-1.9
		c-1.7,0-2.1,0-2.1-2.1v-6.4c0.9,0.6,2.8,0.6,3.9,0.5l7.1-0.8l0.6,1.5V74.3z"/>
	<path class="st4" d="M31.8,53.2v-9.8c0-0.5-0.4-1.7-0.8-2.3c-0.3-0.6-0.9-1.3-0.9-1.3H50v17.5h-1.3V49h-2.3v8.4h-2.8V49H41v8.4
		h-2.6V49h-2.6v8.4H32v-1.7l-0.4-1"/>
	<path class="st2" d="M31.6,53.2v-9.8c0-0.5-0.3-1.7-0.6-2.3l-0.9-1.3H50v17.5h-1.3V49h-2.6v8.4h-2.6V49H41v8.4h-2.6V49h-2.6v8.4H32
		v-1.7l-0.4-1V53.2z"/>
	<path class="st1" d="M34.3,48.6h15.4v-0.5H34.3V48.6z M50,47.3v0.4H34.3L45,43.8l5.1,1.8"/>
	<path class="st2" d="M50,47.3v0.4H34.3L45,43.8l5.1,1.8L50,47.3z"/>
	<path class="st5" d="M41,51.2c-0.6,0.4-1.5,0.6-2.3,0.8v-3.1H41V51.2z M32.5,46.8c0-3,2.6-5.1,5.1-5.1c2.2,0,3.9,1,4.9,2.8
		l-9.4,3.5h0.8v0.9h1.8v2.8c-1.9-0.8-3.3-2.6-3.3-4.9"/>
	<path class="st2" d="M41,51.2l-2.3,0.8v-3.1H41V51.2z M32.5,46.8c0-3,2.6-5.1,5.1-5.1c2.2,0,3.9,1,4.9,2.8l-9.4,3.5h0.8v0.9h1.8
		v2.8c-1.9-0.8-3.3-2.6-3.3-4.9L32.5,46.8z"/>
	<path class="st0" d="M29.7,54.2v-4.8c-0.3,0.5-0.6,0.6-0.8,1.3V51c-0.8,0-1.3,0.4-1.7,0.9l0.8,0.5c-1,0.3-1.3,0.3-1.7,1.3v0.6
		c-0.5,0-0.9-0.3-1.3,0c1.3,0.3,2.8,1.3,3.9,1.3l0.6-1.3"/>
	<path class="st2" d="M29.7,54.2v-4.8c-0.3,0.5-0.6,0.6-0.8,1.3V51c-0.8,0-1.3,0.4-1.7,0.9l0.8,0.5c-1,0.3-1.5,0.3-1.7,1.3v0.6
		c-0.5,0-0.9-0.3-1.3,0c1.3,0.3,2.8,1.3,3.9,1.3l0.6-1.3L29.7,54.2z"/>
	<path class="st0" d="M70,49.5v4.8c0.3,0.4,0.4,0.8,0.4,1.3c1,0,2.8-0.9,3.9-1.3H73v-0.5c0-1-0.5-1-1.5-1.3l0.9-0.3
		c-0.5-0.6-1-1-1.7-1.3v-0.3l-0.8-1.3"/>
	<path class="st2" d="M70,49.5v4.8l0.5,1.3c1,0,2.8-0.9,3.9-1.3c-0.3-0.3-0.8,0-1.3,0v-0.5c0-1-0.5-1-1.5-1.3l0.9-0.4
		c-0.5-0.5-0.9-0.9-1.7-1v-0.5L70,49.2V49.5z"/>
	<path class="st3" d="M50,39.6H30.1l0.9,1.5c0.4,0.6,0.8,1.8,0.8,2.6v9.5l-0.9,0.3l-0.5,0.4v-9.1c0-2.6-1.7-4.4-3.5-6h46.2
		c-2.1,1.8-3.6,3.6-3.6,6.2v8.9l-0.8-0.3L68,53.2v-9.8c0-0.5,0.4-1.7,0.8-2.3l0.8-1.3"/>
	<path class="st2" d="M50,39.6H30.2l0.8,1.5c0.4,0.6,0.8,1.8,0.8,2.6v9.5L31,53.5l-0.8,0.4v-9.1c0-2.6-1.7-4.5-3.5-6H73
		c-2.1,1.7-3.6,3.6-3.6,6.2v8.9l-0.8-0.3l-0.8-0.3v-9.8c0-0.5,0.4-1.7,0.8-2.3l0.8-1.3L50,39.6z"/>
	<path class="st0" d="M67.7,57.3v-1.7l0.3-1V43.4c0-0.5,0.4-1.7,0.8-2.3l0.8-1.3H50v17.5"/>
	<path class="st2" d="M67.7,57.3v-1.7l0.3-1V43.4c0-0.5,0.4-1.7,0.6-2.3l0.9-1.3H50v17.5L67.7,57.3z"/>
	<path class="st4" d="M60.8,57.3h3.6V39.6h-3.6V57.3z M53.6,57.3h3.6V39.6h-3.6V57.3z"/>
	<path class="st1" d="M70.2,36.4c-0.5-1-4.6-1.5-5.1-1.7l-2.6-0.4v2.1c0.6-0.3,1.5-0.3,1.9-0.3c0.8,0,2.3,0.5,3.1,0.6h0.6
		c0.8,0,2.2,0,2.2-0.6"/>
	<path class="st2" d="M70.2,36.4c-0.5-1-4.6-1.5-5.1-1.7l-2.6-0.4v2.1c0.6-0.3,1.5-0.3,1.9-0.3c0.8,0,2.3,0.5,3.1,0.6h0.6
		c0.8,0,2.2,0,2.2-0.6L70.2,36.4z"/>
	<path class="st4" d="M70.6,34.7v1.7c0,1.3-1.5,1.3-2.6,1.3L66.3,37c-0.8,0-1.5-0.4-1.9-0.4s-1.8,0-1.8,0.6c0,0.8,2.3,0.8,2.6,0.8
		l5.8-0.4c0.4,0,1.9,0,2.6,0.3v-2.2c0-0.5,0-1.3-0.4-1.3l-1.3,0.3"/>
	<path class="st2" d="M70.6,34.7v1.7c0,1.3-1.5,1.3-2.6,1.3L66.3,37c-0.8,0-1.5-0.4-1.9-0.4s-1.8,0-1.8,0.6c0,0.8,2.3,0.8,2.6,0.8
		l5.8-0.4c0.4,0,1.9,0,2.6,0.3v-2.2c0-0.5,0-1-0.4-1.3l-1.3,0.3H70.6z"/>
	<path class="st4" d="M29.1,36.1v-1.3h-1.3c0,0-1.3-0.3-1.3,0c-0.3,0-0.5,0-0.5,0.8v2.2c0.8-0.3,2.2-0.3,2.6-0.3l5.8,0.4
		c0.4,0,2.6,0,2.6-0.8c0-0.6-1.3-0.6-1.5-0.6c-0.8,0-2.3,0.5-3.1,0.8h-0.8c-0.8,0-2.6,0-2.6-1V36"/>
	<path class="st2" d="M29.1,36.1v-1.3h-1.3c0,0-1.3-0.3-1.3,0c-0.3,0-0.5,0-0.5,0.8v2.2c0.8-0.3,2.2-0.3,2.6-0.3l5.8,0.4
		c0.4,0,2.6,0,2.6-0.8c0-0.6-1.3-0.6-1.5-0.6c-0.8,0-2.3,0.5-3.1,0.8h-0.8c-0.8,0-2.6,0-2.6-1V36L29.1,36.1z"/>
	<path class="st1" d="M29.4,36.3c0,0.9,1.5,0.8,2.1,0.8l1.8-0.4l2.1-0.4c0.4,0,1.3,0,1.7,0.3v-2.1c-1.3,0-2.1,0-2.6,0.3
		c-0.5,0-4.6,0.6-5.1,1.5"/>
	<path class="st2" d="M29.4,36.3c0,0.9,1.5,0.8,2.1,0.8l1.8-0.4l2.1-0.4c0,0,1.3,0,1.7,0.3v-2.1c-1.3,0-2.1,0-2.6,0.3
		c-0.5,0-4.6,0.6-5.1,1.5L29.4,36.3z"/>
	<path class="st4" d="M70.2,35.7v-3.1c0-0.4-1.9-0.9-2.2-0.9c-0.9-0.4-2.8-0.8-5.8-1.3c-3-0.3-6.2-0.6-12.3-0.6
		c-6.4,0-9.5,0.4-12.5,0.8c-0.9,0.3-6.7,1-7.7,1.8c-0.3,0-0.3,0-0.3,0.3v3.1c1.3-0.9,4.5-1.3,5.1-1.3c1.5-0.4,7.7-1.3,15.4-1.3
		c7.3,0,13.6,0.9,15.2,1.3c0.6,0,3.9,0.4,5.1,1.3"/>
	<path class="st2" d="M70.2,35.7v-3.1c0-0.4-1.9-0.9-2.2-0.9c-0.9-0.4-2.8-0.8-5.8-1.3c-3,0-6.2-0.6-12.3-0.6
		c-6.4,0-9.5,0.5-12.5,0.8c-0.9,0.3-6.7,1-7.7,1.8c-0.3,0-0.3,0.3-0.3,0.3v3.1c1.3-0.9,4.5-1.3,5.1-1.3c1.5-0.4,7.7-1.3,15.4-1.3
		s13.6,0.9,15.2,1.3c0.6,0,3.9,0.4,5.1,1.3H70.2z"/>
	<path class="st4" d="M27.8,40.1l-0.5-0.5v1.3l0.9-0.3L27.8,40.1"/>
	<path class="st2" d="M27.8,40.1l-0.5-0.5v1.3l0.9-0.3L27.8,40.1L27.8,40.1z"/>
	<path class="st4" d="M71.8,40.1l0.5-0.5v1.3l-0.8-0.3l0.4-0.5"/>
	<path class="st2" d="M71.8,40.1l0.6-0.5v1.3l-0.9-0.3l0.4-0.5H71.8z"/>
	<path class="st4" d="M60.3,37.9l0.4-0.3c0.6-0.4,1.3-0.6,1.7-1.3c-0.6,0.5-1.5,0.9-2.6,0.9c-1.7,0-2.3-0.9-2.6-1.8
		c-0.3,0-0.3-0.3-0.3-0.4c-0.3,0.3-0.3,0.5-0.3,0.8c0,0.8,0.4,1.7,0.9,2.2"/>
	<path class="st2" d="M60.3,37.9l0.4-0.3c0.6-0.4,1.3-0.6,1.7-1.3c-0.6,0.5-1.5,0.9-2.6,0.9c-1.5,0-2.3-0.9-2.6-1.8
		c-0.3,0-0.3-0.3-0.3-0.4l-0.3,0.8c0,0.8,0.4,1.7,0.9,2.2L60.3,37.9z"/>
	<path class="st4" d="M39.7,37.9c-0.3,0-0.4,0-0.6-0.3c-0.6-0.4-1.3-0.6-1.7-1.3c0.6,0.5,1.5,0.9,2.6,0.9c1.5,0,2.3-0.9,2.6-1.8
		c0.3,0,0.3-0.3,0.3-0.4l0.3,0.8c0,0.8-0.4,1.7-1,2.2"/>
	<path class="st2" d="M39.5,37.9l-0.4-0.3c-0.6-0.4-1.3-0.6-1.7-1.3c0.6,0.5,1.5,0.9,2.6,0.9c1.5,0,2.3-0.9,2.6-1.8l0.3-0.4l0.3,0.8
		c0,0.8-0.5,1.7-1,2.2L39.5,37.9z"/>
	<path class="st0" d="M41.9,24.4c0.4,0,0.9-0.6,1.9-0.8h1.3l1.8,0.4L46,23.4c-0.4,0-1-0.5-1.3-0.5c-1.3,0-2.6,0-3,1.5"/>
	<path class="st2" d="M41.9,24.6c0.4-0.3,0.9-0.8,1.9-0.9h1.3l1.8,0.4L46,23.4c-0.4,0-1-0.5-1.3-0.5c-1.3,0-2.6,0-3,1.7L41.9,24.6z"
		/>
	<path class="st4" d="M41,30c-0.5-0.5-1.3-0.8-2.2-0.8c-0.5,0-1,0-1.3,0.3c0.5,0,1.3,0.3,1.5,0.5H41"/>
	<path class="st2" d="M41,30c-0.5-0.5-1.3-0.8-2.2-0.8c-0.5,0-1,0-1.3,0.3c0.5,0,1.3,0.3,1.5,0.5H41z"/>
	<path class="st0" d="M37.2,29.8c-0.3,0-0.5,0.4-0.6,0.6l0.9-0.3h1.3c-0.3-0.4-0.5-0.4-0.9-0.5h-0.6"/>
	<path class="st2" d="M37.2,29.8c-0.3,0-0.5,0.4-0.6,0.6l0.9-0.3h1.3c-0.3-0.4-0.5-0.4-0.9-0.5h-0.6V29.8z"/>
	<path class="st0" d="M36.3,30.6c0-0.3,0.3-0.5,0.5-0.8c-0.6,0-1.3,0.3-1.3,0.8H36.3"/>
	<path class="st2" d="M36.3,30.6c0-0.3,0.3-0.5,0.5-0.8c-0.6,0-1.3,0.3-1.3,0.8H36.3z"/>
	<path class="st0" d="M64.1,30.6c0-0.5-0.6-0.8-1.3-0.8c0.4,0.3,0.5,0.5,0.5,0.6h0.9"/>
	<path class="st2" d="M64.1,30.6c0-0.5-0.6-0.8-1.3-0.8c0.4,0.3,0.5,0.5,0.5,0.6h0.9L64.1,30.6z"/>
	<path class="st0" d="M63.1,30.6c0-0.4-0.3-0.6-0.5-0.8h-0.6c-0.4,0-0.8,0-1,0.4h1.3l0.9,0.3"/>
	<path class="st2" d="M63.1,30.6c0-0.4-0.3-0.6-0.5-0.8h-0.6c-0.4,0-0.8,0-1,0.4h1.3c0.3,0,0.5,0,0.9,0.3L63.1,30.6z"/>
	<path class="st4" d="M60.5,30.1l1.8-0.5l-1.5-0.4c-0.6,0-1.5,0-2.2,0.6h1.9"/>
	<path class="st2" d="M60.5,30.2c0.5-0.4,1.3-0.5,1.8-0.6l-1.5-0.4c-0.6,0-1.5,0-2.2,0.6c0.8,0,1.3,0,1.9,0.3L60.5,30.2z"/>
	<path class="st0" d="M41,33.8c-1.3,0-2.6,0.3-3.6,0.5V36c0.6,0.6,1.7,0.9,2.6,0.9c1.3,0,2.1-0.8,2.6-1.7v-0.5l-1.3-0.9"/>
	<path class="st2" d="M41,33.8c-1.3,0-2.6,0.4-3.6,0.5V36c0.6,0.6,1.7,0.9,2.6,0.9c1.3,0,2.1-0.8,2.6-1.7v-0.5
		c-0.4-0.5-1.3-0.9-1.3-0.9H41z"/>
	<path class="st4" d="M42.3,33.7h-0.8l1.3,0.9l-0.4-0.6"/>
	<path class="st2" d="M42.3,33.7h-0.8l1.3,0.9l-0.4-0.6L42.3,33.7z"/>
	<path class="st0" d="M43.6,33.7h-0.9c0,0.4,0.3,0.8,0,1.3c0.4,0,0.5,0.4,0.5,0.6"/>
	<path class="st2" d="M43.6,33.7h-0.9c0,0.4,0.3,0.8,0,1.3c0.4,0,0.5,0.4,0.5,0.6L43.6,33.7z"/>
	<path class="st0" d="M58.6,33.8c0,0-1,0.5-1.5,1v0.5c0.5,0.9,1.3,1.7,2.8,1.7c0.8,0,1.8-0.3,2.3-0.9v-1.7
		C61.2,34.1,60,33.9,58.6,33.8"/>
	<path class="st2" d="M58.6,33.8c0,0-1,0.5-1.5,1v0.5c0.5,0.9,1.3,1.7,2.8,1.7c0.8,0,1.8-0.3,2.3-0.9v-1.7L58.6,33.8z"/>
	<path class="st4" d="M57.3,33.7c-0.3,0.4-0.3,0.6-0.3,0.9l1.3-0.6h-1"/>
	<path class="st2" d="M57.3,33.7c-0.3,0.4-0.3,0.6-0.3,0.9l1.3-0.6h-1V33.7z"/>
	<path class="st0" d="M56.4,35.4c0-0.3,0.3-0.4,0.4-0.5c0-0.4,0-0.8,0.3-1.3h-0.6"/>
	<path class="st2" d="M56.4,35.4c0-0.3,0.3-0.4,0.4-0.5c0-0.4,0-0.8,0.3-1.3h-0.6V35.4z"/>
	<path class="st4" d="M52.2,22.3c-0.5,0-1.3,0.3-1.3,0.9c0,0.5,0.5,0.8,0.9,0.8l-0.3-0.5c0-0.4,0.3-0.8,0.6-1.3"/>
	<path class="st2" d="M52.2,22.4c-0.5,0-1.3,0-1.3,0.8c0,0.5,0.5,0.8,0.9,0.8l-0.3-0.5C51.5,23,51.8,22.6,52.2,22.4L52.2,22.4z"/>
	<path class="st4" d="M50.4,16c0.5,1,0,2.1,0,3.1c0,0.8,0.8,1.3,1.3,1.3c0.4,0,1.3,0,1.8-0.3c0-0.3-0.8-0.3-1-0.3h-1.3
		c-0.6-0.4-0.6-1.3-0.6-1.7v-1.7L50.1,16"/>
	<path class="st2" d="M50.3,16c0.6,1,0,2.1,0,3.1c0,0.8,0.9,1.3,1.3,1.3c0.5,0,1.3,0,1.9-0.3c0-0.3-0.8-0.3-1-0.3h-1.3
		c-0.6-0.4-0.6-1.3-0.6-1.7v-1.7L50.1,16H50.3z"/>
	<path class="st0" d="M52.8,22.1c0.4,0,0.6,0,1-0.4c0.5,0,0.6-0.8,0.5-1.3H54c0,0.3,0.3,0.8,0,1l-1,0.8"/>
	<path class="st2" d="M52.8,22.1c0.4,0,0.6,0,1-0.3c0.5-0.4,0.6-1,0.5-1.3c0-0.3-0.3-0.4-0.4-0.4c0,0.3,0.3,0.8,0,1
		c-0.3,0.4-0.6,0.5-1,0.8L52.8,22.1z"/>
	<path class="st4" d="M52.1,25.7c0-0.3,0.4-0.4,0.6-0.5c0.9-0.3,2.3,0,4.1,0.3c1.7,0.4,2.6,1,2.8,1.3c0.3,0.4,0.4,0.9,0.4,1.3
		c0.5-0.8,0.4-1.3,0-1.8c0-0.5-0.9-1.3-1.9-1.3v-0.3h-0.4h-0.3c0,0-0.4,0-0.6-0.3c-1.5-0.3-2.8,0-3.9,0.3c-0.6,0.3-1,0.8-1.3,0.9
		l0.4,0.3"/>
	<path class="st2" d="M52.1,25.7c0-0.3,0.4-0.4,0.8-0.5c0.6-0.3,2.1,0,3.9,0.3c1.7,0.4,2.6,1,2.8,1.3c0.3,0.4,0.4,0.9,0.4,1.3
		c0.5-0.8,0.4-1.3,0-1.8c0-0.5-0.9-1.3-1.9-1.3v-0.3h-0.4h-0.3c0,0-0.4,0-0.6-0.3c-1.5-0.3-2.8,0-3.9,0.3c-0.6,0.3-1,0.8-1,0.9v0.3
		L52.1,25.7z"/>
	<path class="st0" d="M57.3,29.8l1.5-0.8h-3.3v0.6h1.7"/>
	<path class="st2" d="M57.3,29.8l1.5-0.8h-0.5c-0.9-0.3-1.9,0-2.8,0v0.6h1.7L57.3,29.8z"/>
	<path class="st0" d="M52.3,24.2c-0.5,0-1.5,0-1.5-1c0-0.9,0.9-1,1.3-1h0.4c0-0.3,0.4-0.4,0.6-0.5l0.4-0.4c0.3-0.3,0.3-0.6,0-1
		c-0.6,0-1.5,0.4-2.1,0.3c-0.5,0-1.3-0.6-1.3-1.5v-2.2V16v9.5h1.3c0,0,0.6-0.8,1.5-1c0.9-0.3,2.2-0.5,3.9,0
		c-0.5-0.6-1.7-0.6-2.6-0.5c-0.9,0.3-0.9,0.4-2.1,0.3"/>
	<path class="st2" d="M52.3,24.2c-0.5,0-1.5,0-1.5-1c0-0.9,0.9-1,1.3-1h0.4c0-0.3,0.4-0.4,0.6-0.5l0.5-0.4v-0.9h-0.4
		c-0.5,0-1.3,0.4-1.9,0.3c-0.5,0-1.3-0.6-1.3-1.5v-2.2v-0.8v9.4h1.3c0,0,0.6-0.8,1.5-1c0.9-0.3,2.2-0.5,3.9,0h0.3
		c-0.8-0.6-1.9-0.6-2.6-0.5c-1,0.3-1.3,0.4-2.3,0.3L52.3,24.2z"/>
	<path class="st0" d="M57.7,24.4c0-1.3-1.5-1.7-2.8-1.3l-1.3,0.4c-0.3,0-0.5,0.4-0.8,0.5c0.6,0,0.9-0.3,1.7-0.5h1.3
		c1.3,0,1.7,0.6,1.8,0.8"/>
	<path class="st2" d="M57.7,24.6c0-1.5-1.7-1.8-2.8-1.5c-0.4,0-1,0.5-1.3,0.6l-0.8,0.5c0.6,0,0.8-0.3,1.7-0.4c0.3,0,0.8-0.3,1.3,0
		c1.3,0,1.7,0.5,1.8,0.6L57.7,24.6z"/>
	<path class="st4" d="M47.4,22.3c0.4,0.4,0.6,0.8,0.6,1.3v0.4c0.3,0,0.6-0.3,0.6-0.8C48.7,22.5,48.1,22.3,47.4,22.3"/>
	<path class="st2" d="M47.4,22.4c0.4,0.3,0.6,0.6,0.6,1v0.5c0.3,0,0.6-0.3,0.6-0.8C48.7,22.5,48.1,22.4,47.4,22.4L47.4,22.4z"/>
	<path class="st4" d="M49.4,16l-0.3,0.5v1.7c0,0.5,0,1.3-0.6,1.5c-0.5,0.3-0.8,0.3-1.3,0c-0.3,0-0.8,0-1,0.4c0.6,0,1.3,0.4,1.9,0.3
		c0.5,0,1.3-0.5,1.3-1.3C49.4,18,48.8,17,49.4,16"/>
	<path class="st2" d="M49.4,16l-0.3,0.5v1.7c0,0.5,0,1.3-0.6,1.5c-0.5,0.3-0.8,0.3-1.3,0c-0.3,0-0.8,0-1,0.4c0.6,0,1.5,0.4,1.9,0.3
		c0.5,0,1.3-0.5,1.3-1.3C49.4,18,48.8,17,49.4,16z"/>
	<path class="st0" d="M46.9,22.1l-1-0.8c-0.3-0.3-0.3-0.8,0-1.3c-0.3,0-0.4,0.3-0.5,0.4c-0.3,0.5,0,1.3,0.5,1.3
		c0.3,0.4,0.6,0.5,1,0.5"/>
	<path class="st2" d="M46.9,22.1c-0.4-0.3-0.8-0.4-1-0.8c-0.3-0.3-0.3-0.8,0-1.3c-0.3,0-0.4,0.3-0.5,0.5c0,0.3,0,0.9,0.5,1.3
		L46.9,22.1z"/>
	<path class="st0" d="M44.1,29.3c-0.8-0.4-2.1-0.5-3-0.4c0.4,0.5,1.3,0.8,1.3,0.9h1.7v-0.6"/>
	<path class="st2" d="M44.1,29.3c-0.8-0.4-1.9-0.4-3-0.4c0.4,0.5,1.3,0.8,1.3,0.9h1.7v-0.6V29.3z"/>
	<path class="st4" d="M47.8,25.7c0-0.3-0.4-0.8-1.3-1c-0.8-0.3-2.1-0.5-3.9-0.3h-0.5c0,0.3,0,0.3-0.3,0.3h-0.3c-1,0.4-1.8,1-2.1,1.5
		c-0.4,0.6-0.4,1,0,1.8c0-0.4,0.3-0.9,0.5-1.3c0.3-0.3,1-0.9,2.8-1.3c1.7-0.4,3.1-0.5,3.9-0.3c0.3,0,0.6,0.3,0.6,0.5H47.8"/>
	<path class="st2" d="M47.8,25.7c0-0.3-0.4-0.8-1.3-1c-0.8-0.3-2.1-0.5-3.9-0.3l-0.5,0.3h-0.5c-1,0.4-1.8,1-2.1,1.5
		c-0.4,0.6-0.4,1,0,1.8c0-0.4,0.3-0.9,0.5-1.3c0.3-0.3,1-0.9,2.8-1.3c1.7-0.4,3.1-0.5,3.9-0.3c0.3,0,0.6,0.3,0.6,0.5H47.8z"/>
	<path class="st0" d="M47.4,24.2c-1.3,0-1.3,0-2.2-0.3c-0.9,0-1.9,0-2.6,0.4c1.8-0.3,3.1,0,3.9,0.3c1,0.3,1.3,0.9,1.5,1.3l1.5-0.4
		V16l-0.3,0.9V19c0,0.9-0.6,1.3-1.3,1.5l-1.8-0.4c-0.3,0.3-0.3,0.6,0,0.9c0,0,0,0.3,0.4,0.4c0.3,0,0.5,0.3,0.8,0.5
		c0.6,0,1.3,0,1.3,1c0,0.9-0.8,1-1.3,1"/>
	<path class="st2" d="M47.4,24.2c-1.3,0-1.3,0-2.2-0.3c-0.9,0-1.9,0-2.6,0.4c1.8-0.3,3.1,0,3.9,0.3c1,0.3,1.3,0.9,1.5,1.3l1.5-0.4
		V16l-0.3,0.9V19c0,0.9-0.6,1.3-1.3,1.5l-1.9-0.3c-0.3,0.3-0.4,0.6,0,0.9c0,0,0,0.3,0.4,0.4c0.3,0,0.5,0.3,0.6,0.5h0.4
		c0.6,0,1.3,0,1.3,1c0,0.9-0.8,1-1.3,1L47.4,24.2z"/>
	<path class="st0" d="M42,26.1c1.3,1.3,3.9,1.5,5.1,0.6v0.5c0,0.3-1.3,0.9-3,0.5C43.3,27.5,42.5,27,42,26.1"/>
	<path class="st2" d="M42,26.1c1.3,1.3,3.9,1.5,5.1,0.6v0.5c0,0.3-1.3,0.9-3,0.5C43.3,27.5,42.4,27,42,26.1z"/>
	<path class="st0" d="M44.9,28h-0.8c-1.7-0.5-2.2-1.7-2.3-1.9c-0.9,0.3-1.3,0.6-1.3,0.8c-0.4,0.6-0.5,1.3-0.5,1.5l0.6,0.5h1.9
		c0.9,0,1.5,0,1.7,0.3c0-0.4,0.3-0.6,0.5-1"/>
	<path class="st2" d="M44.9,28h-0.8c-1.5-0.5-2.2-1.7-2.3-1.9c-0.9,0.3-1.3,0.6-1.3,0.8c-0.4,0.6-0.5,1.3-0.5,1.5l0.6,0.5h1.9
		c0.9,0,1.5,0,1.7,0.3c0-0.4,0.3-0.6,0.5-1L44.9,28z"/>
	<path class="st0" d="M57.2,25.8h-0.6c-0.3-0.3-3.9-1-4.1,0c0.6,0.3,1.3,0.6,1.8,1.3c1.3,0,2.6-0.5,3.2-1.3"/>
	<path class="st2" d="M57.2,25.8h-0.5c-0.5-0.3-3.9-1-4.4,0c0.6,0.3,1.3,0.6,1.8,1.3c1.3,0,2.6-0.5,3.2-1.3H57.2z"/>
	<path class="st0" d="M58,26.1c0,0.3-0.8,1.3-2.6,1.8H55c0,0.4,0.3,0.6,0.4,1l1.7-0.4H59c0.3,0,0.4,0,0.6-0.3c0-0.4,0-1-0.4-1.5
		L58,26.1"/>
	<path class="st2" d="M58,26.1c0,0.3-0.8,1.3-2.6,1.8H55l0.4,0.9l1.7-0.3H59c0.3,0,0.4,0,0.5-0.3c0.3-0.5,0-1-0.3-1.5L58,26.1
		L58,26.1z"/>
	<path class="st0" d="M57.7,26c-0.9,0.9-2.6,1.3-3.9,1.3c-0.5,0-1-0.3-1.5-0.5c0,0,0,0.4,0.3,0.5c0,0.3,1.3,0.9,3,0.5
		c0.9-0.3,1.7-0.8,2.2-1.7"/>
	<path class="st2" d="M57.7,26c-0.9,0.9-2.6,1.3-3.9,1.3c-0.5,0-1-0.3-1.5-0.5c0,0,0,0.4,0.3,0.5c0,0.3,1.3,0.9,3,0.5
		c0.9-0.3,1.7-0.8,2.2-1.7V26z"/>
	<path class="st0" d="M53.9,28c-0.8,0-1.3-0.3-1.3-0.5l-1.3,2.1h1.5l1.3-0.9L53.7,28H53.9z M46.1,28l-0.6,0.6l1.5,0.9h1.3L47,27.5
		c0,0-0.4,0.4-1,0.5H46.1z M54.6,33.6h-0.8l0.6,0.4v-0.4H54.6z M52.8,33.6h-1.5l1.3,2.3c0.8-0.3,1.3-0.8,1.7-1.3L53,33.7L52.8,33.6z
		 M50.6,33.6h-0.5v3.2c0.9,0,1.7-0.3,2.3-0.6l-1.7-2.6H50.6z M49.6,33.6h-0.5l-1.5,2.6c0.8,0.4,1.3,0.5,2.2,0.6L49.6,33.6z
		 M48.3,33.6H47l-1.5,0.8c0.4,0.5,0.9,1,1.5,1.3L48.3,33.6z M46,33.6h-1v0.4L46,33.6z M45,29.7h0.9L45,29.2v0.4V29.7z M48.8,29.7
		h0.6v-3.3c-0.8,0-1.3,0.3-2.1,0.5L48.8,29.7z M50.1,29.7h0.5l1.5-2.8c-0.6,0-1.3-0.4-2.2-0.4L50.1,29.7z M53.6,29.7h0.9
		c0-0.3,0-0.4-0.3-0.5"/>
	<path class="st2" d="M53.9,28c-0.8,0-1.3-0.4-1.3-0.5l-1.3,2.1h1.3l1.7-0.9c0-0.3-0.4-0.4-0.5-0.6H53.9z M46.1,28l-0.6,0.6l1.5,0.9
		h1.3l-1-2.1c-0.4,0-0.8,0.4-1.3,0.5H46.1z M54.6,33.6h-0.8l0.6,0.4v-0.4H54.6z M52.8,33.4h-1.5l1.3,2.6c0.8-0.5,1.3-1,1.7-1.7
		L53,33.4H52.8z M50.6,33.4h-0.5v3.2c0.9,0,1.7,0,2.2-0.5l-1.5-2.6L50.6,33.4z M49.6,33.4h-0.5L47.6,36c0.8,0.5,1.3,0.6,2.2,0.6
		L49.6,33.4z M48.5,33.4h-1.5l-1.3,0.9c0.3,0.5,0.8,1,1.3,1.3L48.5,33.4z M45.9,33.6h-0.8v0.4L45.9,33.6z M44.9,29.7h1.3l-0.9-0.5
		L45,29.6L44.9,29.7z M49,29.6h0.6v-3.2c-0.8,0-1.3,0.3-2.1,0.5L49,29.6z M50,29.6h0.8l1.3-2.6c-0.5-0.4-1.3-0.6-1.9-0.6L50,29.6z
		 M53.9,29.6h0.9c0,0,0-0.3-0.3-0.4L53.9,29.6z"/>
	<path class="st0" d="M31.2,32.1h0.3l0.4,0.6h-0.3c0,0,0-0.3-0.3-0.4h-0.5c-0.3,0-0.3,0-0.4,0.3v0.9c0,0.3,0,0.4,0.3,0.6
		c0,0.3,0.4,0.4,0.5,0.3c0.3,0,0.3,0,0.4-0.3v-0.3v0.4l-0.5,0.3h-0.8l-0.5-1v-1l0.6-0.5H31"/>
	<path class="st0" d="M33.7,33.6v-0.6c0-0.4-0.3-0.6-0.4-0.8c0-0.3-0.3-0.3-0.4-0.3c-0.3,0-0.4,0.3-0.4,0.5V33c0,0.3,0,0.4,0.3,0.6
		c0,0.3,0.4,0.4,0.5,0.4c0.3,0,0.4-0.3,0.4-0.6L33.7,33.6z M33.7,32c0.3,0.3,0.4,0.5,0.4,0.9v1l-0.8,0.5l-0.8-0.4
		c-0.3-0.3-0.4-0.5-0.4-0.9v-0.9c0.4-0.3,0.5-0.5,0.9-0.5c0.3-0.3,0.5,0,0.8,0"/>
	<path class="st0" d="M34.2,33.9h0.3v-0.4l-0.4-1.7h-0.3v-0.3h0.5l1.3,1.3l-0.3-1.3H35v-0.3h0.4v0.3l0.4,2.2l-1.5-1.7l0.3,1.3v0.3
		h0.3v0.3h-0.6 M35.9,32.9h0.3c0,0.3,0,0.4,0.3,0.5H37V33v-0.4h-0.6l-0.5-0.5v-0.3v-0.5l0.5-0.3h0.5l0.3,0.6c0-0.3-0.3-0.4-0.4-0.5
		h-0.4c-0.3,0-0.3,0-0.3,0.3v0.3h0.5l0.3,0.3h0.3l0.3,0.6v0.5c-0.3,0.4-0.4,0.4-0.6,0.5h-0.6"/>
	<path class="st0" d="M37.4,33.6l0.3-0.3v-1.8c0,0-0.3,0-0.3-0.3h-0.3l1.7-0.3v0.1h-0.6h-0.3v1h0.4v-0.6l0.3,1.3l-0.3-0.5h-0.4v0.9
		h0.8l0.3-0.6v0.8"/>
	<path class="st0" d="M40.4,30.6v0.3h0.3v-0.3l0.3,0.9h-0.3c0,0,0-0.4-0.3-0.4c0-0.3-0.4-0.3-0.5-0.3c0,0-0.3,0-0.4,0.4v1.5
		c0,0.3,0.3,0.5,0.5,0.4c0,0,0.3,0,0.4-0.3c0,0,0-0.3,0.3-0.4L40.4,33h-1.3c-0.3-0.4-0.4-0.6-0.4-1c0-0.4,0-0.8,0.3-1
		c0-0.3,0.4-0.4,0.6-0.4H40 M41,30.6h1.5v0.6c0-0.3,0-0.4-0.3-0.5h-0.4v2.1c0.3,0,0.3,0,0.3,0.3h-0.9h0.3v-2.4c-0.3,0-0.4,0-0.5,0.3
		v0.5"/>
	<path class="st0" d="M43.6,31.9l-0.4-0.6l-0.3,0.9L43.6,31.9z M42.3,32.9h0.4v-0.4l0.5-2.1l0.9,1.7c0,0.3,0,0.4,0.3,0.4v0.3h-0.8
		v-0.3v-0.3h-0.6v0.4l-0.4,0.3"/>
	<path class="st0" d="M44,30.6l1.8-0.3v0.8c0-0.3-0.3-0.5-0.4-0.5h-0.3v1.9h0.4l-1,0.3c0,0,0.3,0,0.3-0.3v-0.3l-0.3-1.9h-0.3
		L44,30.9 M45.9,32.7v-2.1h0.5V33h0.3h-0.9"/>
	<path class="st0" d="M48.2,32.1v-0.6v-0.9l-0.4-0.3c-0.3,0-0.4,0-0.5,0.5v1.4c0,0.3,0,0.4,0.4,0.4c0.3,0,0.4,0,0.4-0.5L48.2,32.1z
		 M48.5,30.6c0.3,0.3,0.4,0.5,0.4,0.9c0,0.4,0,0.6-0.3,0.9c0,0.3-0.4,0.4-0.6,0.4c-0.4,0-0.6,0-0.8-0.4c-0.3-0.3-0.3-0.5-0.3-0.9
		c0-0.3,0-0.6,0.3-0.9c0-0.3,0.4-0.4,0.8-0.4c0.3,0,0.5,0,0.6,0.4"/>
	<path class="st0" d="M49.2,32.7h0.3v-2.1c0-0.3,0-0.3-0.3-0.3h1.7V31c0,0,0-0.4-0.3-0.4h-0.4c0-0.3,0,0-0.3,0v0.8h0.4v-0.5v0.8H50
		v0.8c0,0.3,0,0.3,0.3,0.3h0.4c0-0.3,0.3-0.4,0.4-0.6v0.9"/>
	<path class="st0" d="M50.9,32.7h0.3v-0.3l0.5-0.8l-0.6-1l-0.3-0.3h0.9v0.9l0.4-0.5v-0.3h0.6c0,0-0.3,0-0.4,0.3l-0.4,0.8l0.5,1
		l0.3,0.3h-0.9h0.3v-0.3l-0.4-0.6c0,0.3-0.3,0.4-0.3,0.4v0.5h-0.6 M54.4,30.6h0.3v-0.3v0.3H54h-0.3v1.7c0,0.3,0,0.4,0.4,0.4h0.5
		c0,0,0-0.3,0.3-0.4c0,0.3,0,0.4-0.3,0.4l-0.5,0.3c-0.3,0-0.5,0-0.6-0.4c-0.3-0.3-0.4-0.5-0.3-0.9c0-0.4,0-0.8,0.3-1l0.8-0.3h0.5"/>
	<path class="st0" d="M54.6,32.8h0.3v-2.2c0.3,0,0,0,0,0v-0.3h1.7v0.9c0-0.3,0-0.4-0.3-0.5h-0.4h-0.3v1h0.3c0-0.3,0-0.4,0.3-0.5v1.3
		c0-0.3,0-0.5-0.3-0.5h-0.3v0.9h0.5l0.4-0.6V33"/>
	<path class="st0" d="M56.4,32.9c0,0,0.3,0,0.3-0.3v-1.8v-0.3h0.9h-0.4V31l-0.3,1.7v0.3h1l0.4-0.6V33l-1.7-0.3"/>
	<path class="st0" d="M58.1,32.9c0.3,0,0.3,0,0.3-0.3l0.3-1.7v-0.4h-0.3h1l-0.3,0.3v2.3c0.3,0,0.4,0,0.5-0.3l0.4-0.5v0.8h-1.8"/>
	<path class="st0" d="M59.8,33.2c0.3,0,0.3,0,0.3-0.3l0.3-1.8c0-0.3-0.3-0.3-0.3-0.3h1.7v0.4L61,31h-0.3v1H61l0.3-0.4v1.3L61,32.4
		h-0.4v0.8h0.6l0.4-0.5v0.8"/>
	<path class="st0" d="M61.6,33.2h0.3l0.3-1.8v-0.3h-0.3h0.6l0.8,1.5v-1v-0.5h0.5v0.3c-0.3,0-0.3,0-0.3,0.3l-0.3,2.1l-1.3-2.1v1.8
		h-0.5"/>
	<path class="st0" d="M63.7,31.2l1.7,0.3v0.8c0-0.3-0.3-0.5-0.4-0.6h-0.3l-0.3,1.8v0.5l-0.9-0.3h0.3v-0.5l0.4-1.7
		c-0.3,0-0.4,0.3-0.5,0.5"/>
	<path class="st0" d="M65,33.8h0.3l0.3-1.9v-0.3h-0.3h0.9V32l-0.4,1.8v0.3h-0.9"/>
	<path class="st0" d="M67.1,33.4v-0.9l-0.5,0.8L67.1,33.4z M65.8,33.9h0.3v-0.3l1.3-1.9l0.3,1.9v0.4h0.3v0.3h-1.3v-0.3H67v-0.6h-0.6
		v0.4c-0.3,0,0,0,0,0v0.3h-0.6"/>
	<path class="st0" d="M67.7,34.5c0.3,0,0.3,0,0.3-0.3l0.4-1.7v-0.3l1.5,0.3l-0.3,0.6v-0.5l-0.5-0.3h-0.3l-0.4,1h0.4l0.3-0.5
		l-0.3,1.3v-0.5c0,0-0.3,0-0.4-0.3v0.9c-0.3,0-0.3,0,0,0H69l0.3-0.3L69,34.7 M45.6,27l1.8-1.3c-0.5-0.9-3.9,0-4.4,0h-0.8V26
		C42.9,26.6,44.5,27,45.6,27"/>
	<path class="st2" d="M45.6,27l1.8-1.3c-0.5-0.9-3.9,0-4.4,0h-0.8V26C43.1,26.6,44.5,27,45.6,27z"/>
</g>
</svg>
