<svg xmlns="http://www.w3.org/2000/svg" width="671.5" height="639.2" version="1"><defs><filter id="c"><feGaussianBlur stdDeviation="3.9"/></filter><filter id="b"><feGaussianBlur stdDeviation="4.7"/></filter><filter id="a" x="-.1" width="1.2" y="-.2" height="1.4"><feGaussianBlur stdDeviation="6.6"/></filter></defs><path d="M527 440.8s128.2-44.6 93-150.8c-14.2-42.4-93.8-80.2-135.6-107.2s-125.3-54-93.5-121c11-23.3 43-28.6 79-14.7 34.5 13.5 53.3 43.3 100.7 70 3.4 2 3.2-9 2.6-12.8-1.5-9.3-14.4-18-15.4-27.4-1-8.5 12.7-19.8 8.5-27.3-11-19.2-46.5-33-78-43C423.7-14.2 361.8 18 344.3 53c-34.3 68 14 134.3 107.6 182.8 76.3 39.4 144.4 58.3 134.5 129.4-3.8 28-59.4 75.6-59.4 75.6z" fill-rule="evenodd"/><path d="M1098.4 150.6s12.4-35.6 24.7-49.3c15-17 37.7-30.6 46-31.4 6.8-.7 12.5-4.3 19.2-4.8 7.5-.6 16.5 0 24 1.8 13 3.2 35.7 11.5 47.2 18 9.7 5.4 33.6 24 36.7 33.7 1.2 3.5-13.4.3-17-2.3-13-9-15.8-13.3-28.3-20C1237 88.7 1212 75 1195 76.6c-10.4 1-21.6 2.7-33.6 6.5-5.4 1.8-23.7 14-36.2 28.2-15.3 17.3-26.8 39.2-26.8 39.2z" transform="matrix(1 .12 -.08 .6 -716.78 -182.31)" fill="#fff" fill-rule="evenodd" filter="url(#a)"/><path d="M392.4 271S427 321 447 334c31.3 20.5 66 37 95.8 56.2 25 16 64 34 78.6 59.8 10 18.2 13.8 67.7 13.8 67.7s-3-31-16-56c-5.6-10.6-17.8-21.3-26-27.3-15-11.3-36.3-22.6-52.8-33.4-18.8-12.2-31-20.5-54.7-33-18.7-9.7-45.8-28.3-66.4-48.7-12-11.8-27-48.2-27-48.2z" fill="#fff" fill-rule="evenodd" filter="url(#b)" transform="translate(-18.51 -178.48)"/><g fill-rule="evenodd"><path d="M35.2 384.8s87 22.6 131 15.8c76.3-11.8 116-104.2 168-139.3 12.5-8.3 48.3-13.7 48.3-13.7S341 208 293.2 215.2c-76.6 11.6-107.2 96.2-177 143.5-40.8 28-81 26-81 26z"/><path d="M1054 718.2s18.6-.3 28.2-4.2c10.8-4.4 21.6-11.2 31-19.5 20-17.5 40.7-40.8 60.3-63 20.6-23.6 48-50.6 71.4-62 9.3-4.5 24-3.4 34.4-3.3 18.4 0 60.3 8.4 60.3 8.4s-32-17.2-48-20c-12.4-2.3-30 1.8-41.2 7.4-55.8 27.5-101 106-153.4 139.4-4.6 3-12 5.2-17.2 7.3-7.7 3-26 9.5-26 9.5z" fill="#fff" filter="url(#c)" transform="translate(-974.78 -335.4)"/></g><g fill-rule="evenodd"><path d="M125.2 437.4s87.2 22.6 131 15.8c76.3-11.8 116-104.2 168-139.3 12.5-8.5 48.3-13.8 48.3-13.8s-41.5-39.7-89.3-32.5C306.6 279.4 276 364 206.4 411.3c-41 27.8-81.2 26-81.2 26z"/><path d="M1054 718.2s18.6-.3 28.2-4.2c10.8-4.4 21.6-11.2 31-19.5 20-17.5 40.7-40.8 60.3-63 20.6-23.6 48-50.6 71.4-62 9.3-4.5 24-3.4 34.4-3.3 18.4 0 60.3 8.4 60.3 8.4s-32-17.2-48-20c-12.4-2.3-30 1.8-41.2 7.4-55.8 27.5-101 106-153.4 139.4-4.6 3-12 5.2-17.2 7.3-7.7 3-26 9.5-26 9.5z" fill="#fff" filter="url(#c)" transform="translate(-884.75 -282.83)"/></g><g fill-rule="evenodd"><path d="M212.8 488.7S300 511.3 344 504.5c76-11.8 115.8-104.2 168-139.3 12.3-8.3 48-13.6 48-13.6S518.7 312 471 319c-76.8 11.7-107.4 96.3-177 143.7-41 27.8-81.2 26-81.2 26z"/><path d="M1054 718.2s18.6-.3 28.2-4.2c10.8-4.4 21.6-11.2 31-19.5 20-17.5 40.7-40.8 60.3-63 20.6-23.6 48-50.6 71.4-62 9.3-4.5 24-3.4 34.4-3.3 18.4 0 60.3 8.4 60.3 8.4s-32-17.2-48-20c-12.4-2.3-30 1.8-41.2 7.4-55.8 27.5-101 106-153.4 139.4-4.6 3-12 5.2-17.2 7.3-7.7 3-26 9.5-26 9.5z" fill="#fff" filter="url(#c)" transform="translate(-797.14 -231.48)"/></g><path style="text-align:start;line-height:100%;-inkscape-font-specification:Lucida Sans" d="M.5 458.3l5.7-4.2c1 4.5 1.7 7.5 2.5 9.3.8 1.7 1.7 3.2 2.6 4.5 1.7 2.3 3.7 3.7 6 4 2.2.6 4.3 0 6-1.2 1.4-1 2.4-2.2 3-3.8.6-1.5.7-4.3.2-8.3l-.4-4c-.5-5.3-.4-9.2.4-11.8.8-2.6 2.3-4.6 4.5-6.2 1.8-1.4 4-2.2 6.4-2.4 2.4-.2 4.8.2 7 1.3 2.2 1 4.2 2.8 6 5.4 2.4 3 4.3 6.8 5.8 11l-5.3 4c-1-4-2-6.5-2.5-8-.5-1.2-1.2-2.4-2-3.5-1.8-2.4-3.7-3.6-5.7-4-2 0-3.7.2-5 1.2-1 .6-1.6 1.5-2 2.7-.6 1.3-1 2.6-1 4s.2 3.2.5 5.4l.5 4c.6 5.5.5 9.5-.4 12-1 2.6-2.5 4.7-4.8 6.4-3.2 2.4-6.8 3.2-11 2.5-4-.8-7.8-3.5-11.2-8.2-1-1.3-2-2.8-2.8-4.3-.8-1.5-1.8-4-3-7.4zm37.5 49l26.5-44.8 5 5-21 35.4 35-21.5 4.8 4.8-21.5 34.2 35.7-20 4 4.2L61 530.4l-5-5 21-34-34 21-5-5zm41.7 40l45.8-29.3 5.7 4.2-13.6 52.4-6.3-4.5 3.8-14.5L98 543 85 551l-5.3-3.8zm23-7.4l13.8 10 5.8-22.7-19.7 12.6zm29.2 43l23.3-44.6 6.2 3.2L166 588l18-34.6 5.5 2.8L166 601l-6-3.3-4.6-46.3-18 34.6-5.5-3zm51.4 24.3l2.5-6.7c3 3.2 5.4 5.3 7 6.3 1.7 1 3.2 1.6 4.7 2.2 2.7 1 5 1 7.3 0 2-.8 3.5-2.3 4.3-4.4.5-1.5.7-3 .3-4.7-.3-1.5-1.8-4-4.4-7l-2.6-3c-3.5-4-5.6-7.5-6.3-10-.7-2.7-.7-5.2.3-7.7.8-2.2 2-4 4-5.7 2-1.5 4-2.4 6.5-2.8 2.5-.4 5.2 0 8.3 1 3.6 1.4 7.2 3.4 10.8 6l-2 6.3c-3-2.6-5.2-4.3-6.4-5-1.2-1-2.5-1.5-3.8-2-2.7-1-5-1-7 0-1.7 1-3 2-3.4 3.6-.4 1-.5 2.2-.3 3.5.4 1.4 1 2.6 1.7 3.7.7 1.2 1.8 2.6 3.3 4.3l2.7 3.2c3.5 4 5.6 7.5 6.3 10 .7 2.7.5 5.4-.5 8-1.3 3.8-4 6.5-7.7 8-3.8 1.8-8.4 1.7-14-.3l-4.7-2.3c-1.4-.8-3.6-2.2-6.6-4.4zm45.8 16.5l12-49 27.4 6.7-1.3 5.2-20.4-5-4 15.7 17 4.2-1 5.2-17.2-4.2-4.4 17.7 22 5.4-1.4 5.2-28.8-7.2zm43 10l25-48 7 .6 14.4 52.3-7.7-.8-4-14.6-21.3-2.3-7 13.5-6.6-.7zm16-17.7l17.2 2-6.2-22.7-11 20.8zm111 16c-2 1.2-3.7 2-5.3 2.8-1.6.7-3.3 1.2-5 1.6-1.7.4-3.6.8-5.6 1-8.5.8-15-1-19.4-5.7-4.4-4.6-7-10.7-7.7-18.2-.8-7.7.6-14.3 4.2-19.6 3.6-5.5 9.6-8.6 18-9.4 4.4-.5 9.8-.3 16 .6l.6 6.7c-5-1.3-8.7-2-10.6-2-2-.3-3.8-.3-5.5 0-6.2.5-10.3 3-12.6 7.4-2.3 4.3-3 9.5-2.6 15.4.7 6.2 2.7 11 6.2 14.5s8 5 13.8 4.4c1.6-.2 3-.5 4.7-1 1.5-.3 3-1 4.6-1.6 1.6-.6 3.4-1.7 5.6-3.2l.6 6zm23-2l-10.8-49.4 7-1.6 10.8 49.4-7 1.5zm37.8-10l-14-43-17 5.6-1.6-5 41-13.3 1.6 5-17 5.6 13.8 42.8-6.8 2.2zm52-20.3l-9.2-19-28-19 7.4-3.6 21.7 15 2.7-26.8 6-3-3.5 34.3 9.3 19-6.5 3.2zm55.4-30.8l-14.8-52.4 5.7-4.3 46.3 28.2-6.2 4.7-12.8-7.8-17 13 4 14.5-5.2 4zm-.4-24l13.7-10.6-20-12L567 545zm49-15.4l-35.3-36 20-19.8 3.8 3.8-15 14.8 12 12 12.5-12.3 3.7 3.8-12.6 12.4 16.2 16.4-5 5zm55-66.6c-.4 2.3-1 4.2-1.5 5.8-.6 1.6-1.3 3.2-2.2 4.7l-3.2 4.8c-5 6.7-11 10-17.3 10-6.4 0-12.6-2.2-18.6-6.8-6-4.8-9.8-10.3-11.2-16.6-1.4-6.4.5-12.8 5.6-19.5 2.8-3.6 6.6-7.3 11.5-11.2l5.2 4c-4.5 3-7.4 5.2-9 6.5l-3.6 4c-3.7 5-4.8 9.6-3.2 14.2 1.6 4.7 4.7 9 9.4 12.5 5 3.8 10 5.6 14.8 5.5 5 0 9.2-2.4 12.7-7 1-1.2 1.8-2.6 2.6-4l1.8-4.5c.5-1.6 1-3.7 1.4-6.3l4.8 3.8z" font-size="69.8" stroke="#000" font-family="Lucida Sans"/></svg>