<?xml version="1.0" encoding="utf-8"?>
<!-- Generator: Adobe Illustrator 19.2.1, SVG Export Plug-In . SVG Version: 6.00 Build 0)  -->
<!DOCTYPE svg PUBLIC "-//W3C//DTD SVG 1.1//EN" "http://www.w3.org/Graphics/SVG/1.1/DTD/svg11.dtd">
<svg version="1.1" id="Layer_1" xmlns="http://www.w3.org/2000/svg" xmlns:xlink="http://www.w3.org/1999/xlink" x="0px" y="0px"
	 viewBox="0 0 1350.1 1517.8" style="enable-background:new 0 0 1350.1 1517.8;" xml:space="preserve">
<style type="text/css">
	.st0{fill-rule:evenodd;clip-rule:evenodd;fill:#ED2127;}
	.st1{fill-rule:evenodd;clip-rule:evenodd;fill:#FBEE23;}
	.st2{fill-rule:evenodd;clip-rule:evenodd;}
</style>
<g>
	<polygon class="st0" points="675,1517.8 1350.1,842.8 1127.9,333.1 1253.5,333.1 1253.5,0 96.6,0 96.6,333.1 222.2,333.1 0,842.8 
		675,1517.8 	"/>
	<path class="st1" d="M159.9,63.3c0,63.6,0,143,0,206.5c31.1,0,999.2,0,1030.3,0c0-63.6,0-143,0-206.5
		C1083.6,63.3,266.4,63.3,159.9,63.3L159.9,63.3z"/>
	<path class="st2" d="M675,333.1l-383.8,0c-58.8,135-193.2,443.1-216,495.4c51.7,51.7,525.5,525.6,599.8,599.8V333.1L675,333.1z"/>
	<path class="st1" d="M1058.9,333.1l-383.8,0v1095.2c74.2-74.3,548-548.1,599.8-599.8C1252,776.3,1117.7,468.1,1058.9,333.1
		L1058.9,333.1z"/>
	<polygon class="st2" points="306.7,139.7 329.1,243.7 358.4,243.7 393.1,96.7 366.3,96.7 344,209.7 321.7,96.7 293.6,96.7 
		270.9,209.7 248.2,96.7 221,96.7 255.7,243.7 286.1,243.7 306.7,139.7 	"/>
	<path class="st2" d="M443,191.5l16.1-49.9l16.1,49.9H443L443,191.5z M492.1,243.7h28.1l-47.2-128.3h-27.9L398,243.7h28.1l9.7-29.9
		h46.7L492.1,243.7L492.1,243.7z"/>
	<polygon class="st2" points="520.7,115.3 520.7,137.6 555.9,137.6 555.9,243.7 582.8,243.7 582.8,137.6 617.2,137.6 622.6,115.3 
		520.7,115.3 	"/>
	<polygon class="st2" points="645.4,115.3 645.4,243.7 671.4,243.7 671.4,188 710.3,188 710.3,165.7 671.4,165.7 671.4,137.6 
		716.5,137.6 721.9,115.3 645.4,115.3 	"/>
	<path class="st2" d="M798.2,226.6c-25.6,0-31.9-20.8-31.9-46.5c0-25.7,6.3-46.5,31.9-46.5c25.6,0,31.9,20.8,31.9,46.5
		C830.1,205.8,823.7,226.6,798.2,226.6L798.2,226.6z M798.2,113.7c-43.7,0-62,29.7-62,66.4c0,36.7,18.3,66.4,62,66.4
		c43.7,0,62-29.7,62-66.4C860.2,143.4,841.9,113.7,798.2,113.7L798.2,113.7z"/>
	<path class="st2" d="M937.7,171.1h-20.2v-33.4h20.2c7.3,0,18.4,1.1,18.4,15.7C956,167.8,945,171.1,937.7,171.1L937.7,171.1z
		 M954.2,189.4V188c8.6,0,30.2-8.1,30.2-35.6c0-27.4-20.9-37.1-44.9-37.1h-48.6v128.3h26.5v-53.5h2.2c8.9,0,40.3,53.5,40.3,53.5
		l33.5,0L954.2,189.4L954.2,189.4z"/>
	<path class="st2" d="M1067.5,221.4h-20.3v-83.7h20.3c17.5,0,27.6,16.9,27.6,42.2C1095.1,205.1,1085,221.4,1067.5,221.4
		L1067.5,221.4z M1066.6,115.3H1021v128.3h45.6c40.9,0,58-27.4,58-63.8S1107.5,115.3,1066.6,115.3L1066.6,115.3z"/>
	<path class="st2" d="M457.9,434.2c0,3.9,0.4,6.4,0.8,8.6c0.4,2.4,0.8,4.8,0.8,11c0,19.6-4.5,28.7-7.6,28.7c-0.6,0-1,0-1.2-0.1
		c-0.4-0.4-1-1.3-1.5-2c-5.3-7.5-12.5-15.6-32-15.6c-18.1,0-30.3,12.8-30.3,32c0,28,7.1,50.7,12.8,68.9c3.3,10.6,6.2,19.7,6.2,25.8
		c0,4.9-2.4,9.7-3.7,10.7c-7.1-0.1-9.5-2.4-14.5-7.3c-6.8-6.7-16.1-15.9-36.9-15.9c-8.8,0-29.4,3-29.4,31.3
		c0,12.3,4.3,22.8,8.4,32.9c4.4,10.8,8.9,21.9,8.9,36.5c0,1.2-0.1,11.5-3.5,11.5c-13.3,0-18.3-8.2-26-22.8
		c-6.7-12.7-15-28.5-34.3-28.5c-31.7,0-31.7,47.3-31.7,65.2c0,100.7,95.6,137.2,159.8,137.2c12.2,0,19.3-1,26.2-2
		c7.1-1,13.9-2,27.1-2c39,0,68.5,7.8,86.3,22.5c-9.8-3.7-21.4-6.2-35.3-6.2c-33.5,0-46,8-57.7,17.6c-4.5,3.7-7.7,6.3-13.7,8
		L388.4,894l48.4,10.9c20.2,4.5,31.4,20.4,43.2,37.2c12.6,17.9,26.9,38.2,53.2,38.2c2.4,0,4.8-0.2,7-0.5
		c-2.3,12.4-4.1,28.1-4.1,46.2c0,26.2,6.4,36.4,14.8,47l4,5.4c3.7,5.5,7.8,10.8,11.7,16c13.8,18.3,26.9,35.6,26.9,59.3
		c0,12.6,0.6,22.8,1.2,32.6c0.6,9.8,1.1,19.2,1.1,30.8c0,34.9,24.1,45.7,37.1,51.5c1.3,0.6,2.9,1.3,4.1,1.9
		c2.5,11.9,14.3,15.8,21.7,18.2l2.6,0.9c0,0,2.7,1.1,2.7,1.1c3.7,1.6,8.9,3.8,18.1,3.8c24.1,0,34.7-17.9,36.9-32.9
		c0.4-0.2,0.8-0.4,1.2-0.5c10.6-4.7,32.8-14.5,32.8-45.6c0-16.3-2-28.6-3.8-39.5c-1.3-8-2.5-14.9-2.5-21.8
		c0-19.7,8.1-29.7,19.2-43.6c15-18.6,33.7-41.8,33.7-93.9c0-18.5-1-32.6-2.4-43.3c3,0.7,6.2,1.2,9.4,1.2c34.6,0,46.5-20.7,55.1-37.9
		c16.2-32.1,47.5-30.3,47.5-30.3s-24.8-42.9-83.9-42.9c-18,0-31.8,3.6-42.3,8.3c4.8-13.9,13.1-20.1,19.9-23.7
		c16.3-8.7,40.5-9.4,61.9-9.4c13.2,0,22.5,1,31.5,1.9c8.5,0.9,17.3,1.8,28.6,1.8c87.1,0,109.9-27.6,134.1-56.8
		c20.5-24.8,34.2-48.9,34.2-86.1c0-25-7.2-51.7-27.5-51.7c-17.6,0-25.1,16.4-31.2,29.6c-7.3,15.7-11.5,22.3-19,22.3
		c-9.8,0-17.7-9.6-17.7-21.4c0-10.9,7.3-24.7,14.3-38.1c8-15.3,16.3-31,16.3-46.7c0-8.8-3.6-16.7-10.3-22.1
		c-5.5-4.6-12.7-7.1-20.1-7.1c-15.5,0-27.8,12.9-39.7,25.3c-7.6,7.9-18,18.7-24.3,19.1c-1.3-1.1-3.2-5.5-3.2-9
		c0-10.9,4.9-26.9,9.6-42.4c5.1-16.7,9.8-32.4,9.8-45.1c0-27.3-15.9-39.5-31.7-39.5c-14.4,0-23.7,6.7-31.1,12.1
		c-5.6,4-9.2,6.4-13.7,6.7c-0.1-0.2-0.2-0.4-0.2-0.5c0-0.6,0-13,0-13c0-4,0-7.8,0-11.5c0-28.9-1.2-48.5-12.4-59.8
		c-5.5-5.5-12.6-8.3-21.2-8.3c-39.6,0-57.3,52.3-57.3,104c0,24,1,45.2,1.9,65.8c0.9,19.6,1.8,38,1.8,58c0,48-9.8,87.4-18.2,107.9
		c-2.7-22.9-6.9-57.4-33.6-57.4c-22.1,0-27.3,28.2-33.2,60.9c-5.4,29.4-12.7,69.6-31,69.6c-15.3,0-19.7-28-24-64.5
		c-4.1-35.8-8.8-76.5-40.7-76.5c-34.7,0-36.9,45-38.4,74.7c-0.2,3.7-0.4,8.2-0.7,12.4c-8.5-16.6-18.7-45.2-18.7-71.4
		c0-33.3,2.1-59.4,4.2-84.6c2-24.2,4-49.2,4-79.6c0-67-16.7-85.1-31.4-101.1l-1-1.1c-9.8-10.7-19.1-20.8-33.8-20.8
		C468.8,394.9,457.9,414.7,457.9,434.2L457.9,434.2z"/>
	<path class="st0" d="M768.2,991.8l-2.2,3.6c0,0-11.9-3.9-22.9-3.9c-19.8,0-27.1,13.6-27.1,13.6s6.5-3.9,19.4-3.9
		c17.1,0,29.5,9.1,29.5,12.6c0,3.6-5.3,5.4-9.5,5.4c0,8.2-11.2,19.5-44.8,19.5c0,16.6,10.2,27.6,10.2,32.4c-8.5,0-9.8,8.2-9.8,22.8
		c0,0-11.8-46.7-11.8-65.4c0-27.7,11.2-48.7,34.9-48.7C751,979.9,768.2,991.8,768.2,991.8L768.2,991.8z M839.9,898.4
		c5.2,0,8.1,0.9,8.1,0.9c-31.3,5.7-30.9,43.5-55.9,43.5c-5.5,0-9.1-2.4-9.1-2.4c3.5-6.9,15.2-8.5,15.2-17.8c-8.1,0-14.1,0.7-22,2.3
		C776.3,921.9,801.3,898.4,839.9,898.4L839.9,898.4z M630.5,1096v-20.2c0-5.6-2.5-8.1-7.4-8.1l13-29.8v-2.9
		c-23.1,0-43.1-4.7-43.1-21.1h-6.5c-1.4,0-4.3-1.6-4.3-4.3c0-2,7.7-10.9,26-10.9c14,0,22.3,5.9,22.3,5.9s-7.9-18.6-29.1-18.6
		c-12.6,0-15.8,1.7-15.8,1.7s7.6-9.8,17.8-9.8c32.1,0,40.5,20.1,40.5,55.6C643.8,1071.2,630.5,1096,630.5,1096L630.5,1096z
		 M541.4,928.4c0,3.3,10.4,5.7,16.4,5.7c0,3.7-7.3,9.2-14.1,9.2c-26.2,0-13.5-40.6-65.9-50.8c0,0,2.8-1.2,9.6-1.2
		c41.4,0,53.3,32.1,75.8,32.1C556.7,924.1,541.4,924.6,541.4,928.4L541.4,928.4z M1065.8,660.6c-20.9,0-19.5,51.9-50.2,51.9
		c-17,0-30.4-15.2-30.4-34.1c0-27.6,30.5-59.2,30.5-84.8c0-10.9-9.2-16.6-17.7-16.6c-20.6,0-41.5,44.5-64.3,44.5
		c-10.7,0-15.5-14-15.5-21.7c0-24.8,19.4-65.3,19.4-87.4c0-17.8-8.1-26.8-19-26.8c-20.2,0-27,19-46,19c-7.3,0-11.7-7.9-11.7-13
		c0-49.8,2.6-80.2-20.9-80.2c-30.3,0-44.6,45.8-44.6,91.4c0,46.3,3.7,82.1,3.7,123.8c0,64.6-15.6,118.7-29.2,130.4
		c0,0-3.4,37.6,11.5,37.6c30,0,78.8-84,139.2-84c27.3,0,29.1,16.7,29.1,23.6c0,22-31,33.2-31,47.1c0,7.1,10.8,7.7,24.2,7.7
		c39.7,0,68.8-24.5,68.8-24.5s-28.5,33.8-73.2,33.8c-19.5,0-34.7-6.2-34.7-17.7c0-18.3,36.9-32.8,36.9-51.2
		c0-5.6-6.2-13.3-20.1-13.3c-49.3,0-101.4,93.3-142,93.3c-8.4,0-20-5.6-20-26.8c0-18.1-1.4-93-24.1-93
		c-27.2,0-14.2,130.5-64.3,130.5c-52.9,0-21.3-141-64.7-141c-26.4,0-22.2,38.2-26.4,72.5c-3.4,28.1-11.6,53.7-28.8,53.7
		c-22.8,0-38.9-10.5-58.3-22.5c-12.4-7.6-25.5-15.2-36.4-23.4c-17.7-13.3-27.4-26.5-44.8-26.5c-9.3,0-19.5,5.1-19.5,14.6
		c0,18.6,19.5,25.8,19.5,41.9c0,9.1-13.3,16.3-28.4,16.3c-46,0-73.7-30.2-73.7-42.3c0,0,23,32.6,75.8,32.6c11.4,0,15.6-2.6,15.6-8.1
		c0-10.5-15.8-19.8-15.8-40c0-12.8,10-23.3,24.4-23.3c18.4,0,30.8,13.4,49.8,27.2c27.3,19.8,62.8,42.3,90,42.3
		c10.5,0,17.4-4.6,17.4-15.5c0-10.3-30.9-38.7-30.9-96.6c0-66.3,8.1-103.2,8.1-164.2c0-63.6-15.2-78.6-29.1-93.6
		c-10.4-11.3-16.1-16.8-24.4-16.8c-14.4,0-19.3,15.8-19.3,26.7c0,6.7,1.6,7.1,1.6,19.6c0,22.6-5.3,41.4-20.2,41.4
		c-17.4,0-8.4-17.7-34.7-17.7c-12.6,0-17.6,9.1-17.6,19.3c0,43.7,19,74.9,19,94.8c0,9.9-5.7,23.4-15.9,23.4
		c-26.3,0-21.6-23.3-51.8-23.3c-12.9,0-16.7,7.4-16.7,18.6c0,21.6,17.4,38.1,17.4,69.4c0,13.8-4.7,24.2-16.1,24.2
		c-39.2,0-34.3-51.3-60.3-51.3c-13.3,0-19,17.4-19,52.5c0,93.9,91.8,124.6,147.1,124.6c23.5,0,26-4,53.4-4
		c128.4,0,118.1,78.6,118.1,78.6s-16.4-37-67.2-37c-49.5,0-44.1,18.3-67.9,25.1c49.4,11.1,53.8,75,93.6,75
		c17.8,0,26.7-13.6,26.7-13.6s-11.2,28.8-11.2,72c0,29.5,8.7,33.6,16.7,45.3c17,25,40.7,47,40.7,82.4c5.7,0,10-26.3,13.1-26.3
		c2.1,0,3.8,4.1,3.8,9.9c0,13.5-14.6,37.2-14.6,79.9c0,25.6,16.1,33.9,28,39.3c2.9,0,19.7-35.2,19.7-35.2c-10.1,27.4-7,42.8-7,44.6
		c0,7.3,7.1,8.8,16.1,11.8c5.1,1.7,7.8,4.2,16.8,4.2c21,0,24.7-18.8,24.7-26.1c0-7.5-7.6-21.4-7.6-29.8c0,0-0.3-5.1,0.9-5.1
		c2.6,0,13.7,29.2,13.7,29.2c9.8-4.4,26.5-10.7,26.5-34.6c0-27.7-16.8-65.4-16.8-82.4c0-3.9,1.4-6.5,2.8-6.5
		c3.3,0,8.7,15.3,8.7,15.3c7.3-42.4,51.9-46.5,51.9-125.2c0-49.8-7.6-65.9-7.6-65.9s13.3,11.2,27.3,11.2c48.1,0,36.7-47.9,74.4-63.9
		c0-4.7-20.3-21.9-55.7-21.9c-44.6,0-59.1,24.2-59.1,24.2c0-70.1,49.1-74.3,98.6-74.3c26.5,0,37.9,3.7,60.2,3.7
		c81.2,0,101.2-24.2,124.5-52.3c20.7-25,31.2-46.5,31.2-77.9C1080.7,682.6,1076.5,660.6,1065.8,660.6L1065.8,660.6z"/>
	<path class="st0" d="M714.7,1024.1l-1.9,4c0,0,3.9,2.8,12.2,2.8c16.7,0,24.1-13.6,22.5-15.2c-1.6-1.6-8.8,10.4-21.9,10.4
		C717.9,1026.1,714.7,1024.1,714.7,1024.1L714.7,1024.1z"/>
	<path class="st0" d="M732.8,1019.4c0,1.3-1.7,2.3-3.7,2.3c-2.1,0-3.7-1-3.7-2.3c0-1.3,1.7-2.3,3.7-2.3
		C731.1,1017.1,732.8,1018.1,732.8,1019.4L732.8,1019.4z"/>
	<path class="st0" d="M604.6,1013.2c1.7,1.3,5.2,10.1,14.4,10.1c6.7,0,7.6-2.5,9.7-3.6c2.1-1.2,4.3,1,2.9,2.9
		c-1.3,1.9-3.8,4.4-12.3,4.4c-11,0-17.4-9-18.3-11.2C599.6,1012.1,601.1,1010.7,604.6,1013.2L604.6,1013.2z"/>
	<path class="st0" d="M620.7,1015.8c0,1.2-1.4,2.1-3.1,2.1c-1.7,0-3.1-1-3.1-2.1c0-1.2,1.4-2.1,3.1-2.1S620.7,1014.6,620.7,1015.8
		L620.7,1015.8z"/>
</g>
</svg>
