<?xml version="1.0" encoding="utf-8"?>
<!-- Generator: Adobe Illustrator 19.2.1, SVG Export Plug-In . SVG Version: 6.00 Build 0)  -->
<svg version="1.1" id="TYPE"
	 xmlns="http://www.w3.org/2000/svg" xmlns:xlink="http://www.w3.org/1999/xlink" x="0px" y="0px" width="563.6px" height="626.9px"
	 viewBox="0 0 563.6 626.9" style="enable-background:new 0 0 563.6 626.9;" xml:space="preserve">
<style type="text/css">
	.st0{fill:#14B1E7;}
	.st1{fill:#7B2639;}
	.st2{fill:#D1A240;}
	.st3{fill:#F5D34C;}
	.st4{fill:#C8A13E;}
	.st5{fill:#FFFFFF;}
</style>
<g>
	<path class="st0" d="M563.6,20.3L563.6,20.3C478,7.3,382.5,0,281.8,0C181.1,0,85.6,7.3,0,20.3v0.5l0,0l0,234.7
		c0.1,198.8,115.3,310.5,277.2,370l4.6,1.5l0,0l4.6-1.5c161.9-59.4,277.1-171.2,277.2-370V20.8L563.6,20.3L563.6,20.3z"/>
	<path class="st1" d="M544.1,39.8L544.1,39.8c-79.7-12.2-168.6-18.9-262.3-18.9c-93.7,0-182.6,6.8-262.3,18.9v0.4l0,222.4
		c0.1,185,107.3,289.1,258.1,344.4l4.3,1.4l0,0l4.3-1.4c150.7-55.3,258-159.4,258-344.4V40.2L544.1,39.8L544.1,39.8z"/>
	<g>
		<path class="st2" d="M411.3,506.3c4.2,4.2,10.8-0.2,17.6-7.1l0,0c6.8-6.8,11.2-13.5,7.1-17.6L175.8,228
			c-4.2-4.2-11.6-3.5-16.6,1.5l0,0c-5,5-5.7,12.4-1.5,16.6L411.3,506.3z"/>
		<path class="st3" d="M183.9,224.1l21.3-25c0,0,2-2.7-1.1-6.5c-8.2-10-24.7-24.6-24.7-24.6c-2.4-1.8-4-1.3-6.6,1.2
			c-13,12.5-46.2,44.5-48.2,46.6c-2.5,2.6-3.7,4.3-2.9,8.7c0.8,4.5,3.2,11.9-0.9,19.1l-22.4,35.3c-2.8,4.3-3.6,8.1-1.5,10.2
			c1.1,1.1,4,2.4,9.8-1.6c2.8-1.9,33.2-22.4,42.9-30.4c5.7-4.7,10-8.9,10-8.9l18.4-18C178,230.1,181.9,226.3,183.9,224.1z"/>
		<g>
			<path class="st2" d="M106.8,285.2c-6.4,4.3-6.3,4.9-5.5,4.8c1.4-0.3,3.2-1.1,5.3-2.6c2.8-1.9,33.2-22.4,42.9-30.4
				c4-3.3,7.3-6.4,9-7.9c-5,1.1-11.4,3.5-15.3,6.7C138.1,260.2,115.9,279.1,106.8,285.2z"/>
			<path class="st2" d="M183.9,224.1l21.3-25c0,0,1.2-1.7,0.2-4.2l0,0c0,0-1.8-2-7.9,5.2c-5.2,6-7.6,8.4-11.9,13.6
				c-3.4,4-5.8,10.7-6.8,15.8C179.9,228.2,182.4,225.7,183.9,224.1z"/>
		</g>
		<path class="st2" d="M152.9,506.3c-4.2,4.2-10.8-0.2-17.6-7.1l0,0c-6.8-6.8-11.2-13.5-7.1-17.6l260.2-253.7
			c4.2-4.2,11.6-3.5,16.6,1.5l0,0c5,5,5.7,12.4,1.5,16.6L152.9,506.3z"/>
		<g>
			<path class="st3" d="M150.4,503.8l242.8-249.3c4.2-4.2,3.5-11.6-1.5-16.6c-2.6-2.6-5.9-4-9-4.2l-254.4,248
				c-4,4-0.1,10.2,6.1,16.7C140.6,504.2,146.5,507.6,150.4,503.8z"/>
		</g>
		<path class="st3" d="M380.4,224l-21.3-25c0,0-2-2.7,1.1-6.5c8.2-10,24.7-24.6,24.7-24.6c2.4-1.8,4-1.3,6.6,1.2
			c13,12.5,46.2,44.5,48.2,46.6c2.5,2.6,3.7,4.3,2.9,8.7c-0.8,4.5-3.2,11.9,0.9,19.1l22.4,35.3c2.8,4.3,3.6,8.1,1.5,10.2
			c-1.1,1.1-4,2.4-9.8-1.6c-2.8-1.9-33.2-22.4-42.9-30.4c-5.7-4.7-10-8.9-10-8.9l-18.4-18C386.3,230,382.4,226.2,380.4,224z"/>
		<path class="st2" d="M457.5,285.1c6.4,4.3,6.3,4.9,5.5,4.8c-1.4-0.3-3.2-1.1-5.3-2.6c-2.8-1.9-33.2-22.4-42.9-30.4
			c-4-3.3-7.3-6.4-9-7.9c5,1.1,11.4,3.5,15.3,6.7C426.2,260.2,448.4,279,457.5,285.1z"/>
		<path class="st2" d="M380.4,224l-21.3-25c0,0-1.2-1.7-0.2-4.2l0,0c0,0,1.8-2,7.9,5.2c5.2,6,7.6,8.4,11.9,13.6
			c3.4,4,5.8,10.7,6.8,15.8C384.3,228.1,381.9,225.6,380.4,224z"/>
		<path class="st2" d="M421.4,231.3c-2,2-5.3,2-7.3,0l-10.9-10.9c-2-2-2-5.3,0-7.3l0,0c2-2,5.3-2,7.3,0l10.9,10.9
			C423.4,226,423.4,229.3,421.4,231.3L421.4,231.3z"/>
		<g>
			<path class="st4" d="M404.7,220.4c-2-2-2-5.3,0-7.3c0.8-0.8,1.8-1.3,2.9-1.4c-1.5-0.2-3.2,0.3-4.4,1.4c-2,2-2,5.3,0,7.3
				l10.9,10.9c1.2,1.2,2.8,1.7,4.4,1.4c-1.1-0.2-2.1-0.6-2.9-1.4L404.7,220.4z"/>
		</g>
		<g>
			<path class="st2" d="M409.5,224.4c-0.2,0.2-0.6,0.2-0.8,0l0,0c-0.2-0.2-0.2-0.6,0-0.8l5-5c0.2-0.2,0.6-0.2,0.8,0l0,0
				c0.2,0.2,0.2,0.6,0,0.8L409.5,224.4z"/>
			
				<ellipse transform="matrix(0.7062 -0.708 0.708 0.7062 -39.0936 357.1302)" class="st2" cx="410.7" cy="225.7" rx="0.5" ry="0.5"/>
			
				<ellipse transform="matrix(0.7064 -0.7078 0.7078 0.7064 -37.7222 353.5287)" class="st2" cx="407.3" cy="222.2" rx="0.5" ry="0.5"/>
			<path class="st2" d="M411.7,215.9l-1.7-1.7c-0.2-0.2-0.6-0.2-0.8,0c-0.2,0.2-0.2,0.6,0,0.8l0.3,0.3c0.1,0.1,0.1,0.3,0,0.4
				l-4.4,4.4c-0.2,0.2-0.2,0.6,0,0.8c0.2,0.2,0.6,0.2,0.8,0l4.4-4.4c0.1-0.1,0.3-0.1,0.4,0l0.3,0.3c0.2,0.2,0.6,0.2,0.8,0
				C411.9,216.4,411.9,216.1,411.7,215.9z"/>
			<path class="st2" d="M420.9,225.1c-0.2-0.2-0.5-0.3-0.8-0.1l-2.9,2.1l0,0c-0.1,0.1-0.3,0.1-0.4,0c-0.1-0.1-0.1-0.2-0.1-0.3l0,0
				l0.6-1.2c0.1-0.2,0.1-0.4-0.1-0.6c0,0,0,0,0,0c0,0,0,0,0,0c0,0,0,0,0,0c0,0,0,0,0,0c0,0,0,0,0,0c0,0,0,0,0,0
				c-0.2-0.1-0.4-0.2-0.6-0.1l-1.2,0.6l0,0c-0.1,0.1-0.3,0-0.4-0.1c-0.1-0.1-0.1-0.3,0-0.4l0,0l2.1-2.9c0.2-0.3,0.1-0.6-0.1-0.8
				c-0.3-0.2-0.6-0.1-0.8,0.1l-4.2,5.7c-0.2,0.2-0.1,0.5,0,0.7c0,0,0,0,0,0c0,0,0,0,0,0c0.2,0.2,0.4,0.2,0.6,0.1l2-1
				c0.1,0,0.2,0,0.3,0.1c0.1,0.1,0.1,0.2,0,0.4l-1,2c-0.1,0.2-0.1,0.5,0.1,0.6c0,0,0,0,0,0c0,0,0,0,0,0c0.2,0.2,0.5,0.2,0.7,0
				l5.7-4.1C421,225.7,421.1,225.3,420.9,225.1z"/>
		</g>
		<path class="st3" d="M183.1,235.2c-3.2-0.1-6.6,1.3-9.2,3.9c-4.7,4.7-5.3,11.6-1.4,15.4l104,106.5l17.7-17.7L183.1,235.2z"/>
		<g>
			<path class="st3" d="M436,481.6L304.8,353.8c-2.1,0.9-4,2.2-5.7,3.9c-6.8,6.8-7.4,17.6-1.6,25L414.8,503c3.9,3.9,10-0.2,16.4-6.6
				c1.1-1.1,2.1-2.1,3-3.2C437.6,488.7,438.9,484.5,436,481.6z"/>
		</g>
		<g>
			<path class="st3" d="M409.2,224.2c-0.2,0.2-0.6,0.2-0.8,0l0,0c-0.2-0.2-0.2-0.6,0-0.8l5-5c0.2-0.2,0.6-0.2,0.8,0l0,0
				c0.2,0.2,0.2,0.6,0,0.8L409.2,224.2z"/>
			
				<ellipse transform="matrix(0.7074 -0.7068 0.7068 0.7074 -39.2288 356.0828)" class="st3" cx="410.5" cy="225.4" rx="0.5" ry="0.5"/>
			
				<ellipse transform="matrix(0.7078 -0.7064 0.7064 0.7078 -37.8701 352.4438)" class="st3" cx="407.1" cy="222" rx="0.5" ry="0.5"/>
			<path class="st3" d="M411.5,215.6l-1.7-1.7c-0.2-0.2-0.6-0.2-0.8,0c-0.2,0.2-0.2,0.6,0,0.8l0.3,0.3c0.1,0.1,0.1,0.3,0,0.4
				l-4.4,4.4c-0.2,0.2-0.2,0.6,0,0.8c0.2,0.2,0.6,0.2,0.8,0l4.4-4.4c0.1-0.1,0.3-0.1,0.4,0l0.3,0.3c0.2,0.2,0.6,0.2,0.8,0
				C411.7,216.2,411.7,215.8,411.5,215.6z"/>
			<path class="st3" d="M420.6,224.8c-0.2-0.2-0.5-0.3-0.8-0.1l-2.9,2.1l0,0c-0.1,0.1-0.3,0.1-0.4,0c-0.1-0.1-0.1-0.2-0.1-0.4l0,0
				l0.6-1.2c0.1-0.2,0.1-0.4-0.1-0.6c0,0,0,0,0,0c0,0,0,0,0,0c0,0,0,0,0,0c0,0,0,0,0,0c0,0,0,0,0,0c0,0,0,0,0,0
				c-0.2-0.1-0.4-0.2-0.6-0.1l-1.2,0.6l0,0c-0.1,0.1-0.3,0-0.4-0.1c-0.1-0.1-0.1-0.3,0-0.4l0,0l2.1-2.9c0.2-0.2,0.1-0.6-0.1-0.8
				c-0.3-0.2-0.6-0.1-0.8,0.1l-4.2,5.7c-0.2,0.2-0.1,0.5,0,0.7c0,0,0,0,0,0c0,0,0,0,0,0c0.2,0.2,0.4,0.2,0.6,0.1l2-1
				c0.1,0,0.2,0,0.3,0.1c0.1,0.1,0.1,0.2,0,0.4l-1,2c-0.1,0.2-0.1,0.5,0.1,0.6c0,0,0,0,0,0c0,0,0,0,0,0c0.2,0.2,0.5,0.2,0.7,0
				l5.7-4.1C420.8,225.4,420.8,225.1,420.6,224.8z"/>
		</g>
		<path class="st2" d="M161.1,213.2c2,2,2,5.3,0,7.3l-10.9,10.9c-2,2-5.3,2-7.3,0l0,0c-2-2-2-5.3,0-7.3l10.9-10.9
			C155.8,211.2,159,211.2,161.1,213.2L161.1,213.2z"/>
		<g>
			<path class="st4" d="M143.8,225l10.9-10.9c1.9-1.8,4.8-2,6.8-0.4c-0.1-0.2-0.3-0.3-0.4-0.5c-2-2-5.3-2-7.3,0l-10.9,10.9
				c-2,2-2,5.3,0,7.3c0.2,0.2,0.3,0.3,0.5,0.4C141.8,229.8,142,226.9,143.8,225z"/>
		</g>
		<g>
			<path class="st2" d="M153.9,225.9c0.2,0.2,0.2,0.6,0,0.8l0,0c-0.2,0.2-0.6,0.2-0.8,0l-5-5c-0.2-0.2-0.2-0.6,0-0.8l0,0
				c0.2-0.2,0.6-0.2,0.8,0L153.9,225.9z"/>
			
				<ellipse transform="matrix(0.7058 -0.7084 0.7084 0.7058 -113.4945 176.0316)" class="st2" cx="155.2" cy="224.7" rx="0.5" ry="0.5"/>
			
				<ellipse transform="matrix(0.7068 -0.7074 0.7074 0.7068 -116.8609 174.2412)" class="st2" cx="151.8" cy="228.1" rx="0.5" ry="0.5"/>
			<path class="st2" d="M145.4,223.7l-1.7,1.7c-0.2,0.2-0.2,0.6,0,0.8c0.2,0.2,0.6,0.2,0.8,0l0.3-0.3c0.1-0.1,0.3-0.1,0.4,0l4.4,4.4
				c0.2,0.2,0.6,0.2,0.8,0c0.2-0.2,0.2-0.6,0-0.8l-4.4-4.4c-0.1-0.1-0.1-0.3,0-0.4l0.3-0.3c0.2-0.2,0.2-0.6,0-0.8
				C145.9,223.5,145.6,223.5,145.4,223.7z"/>
			<path class="st2" d="M154.6,214.5c-0.2,0.2-0.3,0.5-0.1,0.8l2.1,2.9l0,0c0.1,0.1,0.1,0.3,0,0.4c-0.1,0.1-0.2,0.1-0.4,0.1l0,0
				l-1.2-0.6c-0.2-0.1-0.4-0.1-0.6,0.1c0,0,0,0,0,0c0,0,0,0,0,0c0,0,0,0,0,0c0,0,0,0,0,0c0,0,0,0,0,0c0,0,0,0,0,0
				c-0.1,0.2-0.2,0.4-0.1,0.6l0.6,1.2l0,0c0.1,0.1,0,0.3-0.1,0.4c-0.1,0.1-0.3,0.1-0.4,0l0,0l-2.9-2.1c-0.2-0.2-0.6-0.1-0.8,0.1
				c-0.2,0.3-0.1,0.6,0.1,0.8l5.7,4.2c0.2,0.2,0.5,0.1,0.7,0c0,0,0,0,0,0c0,0,0,0,0,0c0.1-0.2,0.2-0.4,0.1-0.6l-1-2
				c0-0.1,0-0.2,0.1-0.3c0.1-0.1,0.2-0.1,0.4-0.1l2,1c0.2,0.1,0.5,0.1,0.6-0.1c0,0,0,0,0,0c0,0,0,0,0,0c0.2-0.2,0.2-0.5,0-0.7
				l-4.2-5.7C155.2,214.4,154.9,214.3,154.6,214.5z"/>
		</g>
		<g>
			<path class="st3" d="M153.9,225.4c0.2,0.2,0.2,0.6,0,0.8l0,0c-0.2,0.2-0.6,0.2-0.8,0l-5-5c-0.2-0.2-0.2-0.6,0-0.8l0,0
				c0.2-0.2,0.6-0.2,0.8,0L153.9,225.4z"/>
			
				<ellipse transform="matrix(0.7061 -0.7081 0.7081 0.7061 -113.0822 175.7433)" class="st3" cx="155.2" cy="224.1" rx="0.5" ry="0.5"/>
			<path class="st3" d="M152.1,227.2c0.2,0.2,0.2,0.6,0,0.8c-0.2,0.2-0.6,0.2-0.8,0c-0.2-0.2-0.2-0.6,0-0.8
				C151.6,226.9,151.9,226.9,152.1,227.2z"/>
			<path class="st3" d="M145.4,223.1l-1.7,1.7c-0.2,0.2-0.2,0.6,0,0.8c0.2,0.2,0.6,0.2,0.8,0l0.3-0.3c0.1-0.1,0.3-0.1,0.4,0l4.4,4.4
				c0.2,0.2,0.6,0.2,0.8,0c0.2-0.2,0.2-0.6,0-0.8l-4.4-4.4c-0.1-0.1-0.1-0.3,0-0.3l0.3-0.3c0.2-0.2,0.2-0.6,0-0.8
				C145.9,222.9,145.6,222.9,145.4,223.1z"/>
			<path class="st3" d="M154.6,214c-0.2,0.2-0.3,0.5-0.1,0.8l2.1,2.9l0,0c0.1,0.1,0.1,0.3,0,0.4c-0.1,0.1-0.2,0.1-0.4,0.1l0,0
				l-1.2-0.6c-0.2-0.1-0.4-0.1-0.6,0.1c0,0,0,0,0,0c0,0,0,0,0,0c0,0,0,0,0,0c0,0,0,0,0,0c0,0,0,0,0,0c0,0,0,0,0,0
				c-0.1,0.2-0.2,0.4-0.1,0.6l0.6,1.2l0,0c0.1,0.1,0,0.3-0.1,0.4c-0.1,0.1-0.3,0.1-0.4,0l0,0l-2.9-2.1c-0.2-0.2-0.6-0.1-0.8,0.1
				c-0.2,0.3-0.1,0.6,0.1,0.8l5.7,4.2c0.2,0.2,0.5,0.1,0.7,0c0,0,0,0,0,0c0,0,0,0,0,0c0.1-0.2,0.2-0.4,0.1-0.6l-1-2
				c0-0.1,0-0.2,0.1-0.3c0.1-0.1,0.2-0.1,0.4-0.1l2,1c0.2,0.1,0.5,0.1,0.6-0.1c0,0,0,0,0,0c0,0,0,0,0,0c0.2-0.2,0.2-0.5,0-0.7
				l-4.2-5.7C155.2,213.9,154.9,213.8,154.6,214z"/>
		</g>
	</g>
	<g>
		<g>
			<g>
				<path class="st5" d="M179.5,150.8c-9.8,0.9-19.2-5.7-19.5-16c-0.3-9.5-0.6-19-0.9-28.5c4.5-0.3,6.7-0.5,11.2-0.8
					c0.3,9.5,0.5,19,0.8,28.5c0.1,4.7,3.3,7,8,6.7c0.7,0,1-0.1,1.6-0.1c4.7-0.3,7.8-3,7.7-7.8c-0.2-9.5-0.5-19-0.7-28.5
					c4.5-0.3,6.7-0.4,11.2-0.6c0.2,9.5,0.4,19,0.6,28.5c0.2,10.4-8.4,18-18.4,18.5C180.5,150.8,180.2,150.8,179.5,150.8z"/>
				<path class="st5" d="M207.5,103.4c5.2-0.2,7.8-0.4,13-0.6c5.8,9.4,11.6,18.8,17.4,28.2c0.1,0,0.1,0,0.1,0
					c-0.1-9.6-0.2-19.2-0.3-28.8c4.5-0.1,6.7-0.2,11.2-0.3c0.1,15.1,0.3,30.1,0.4,45.2c-5.1,0.1-7.7,0.2-12.8,0.3
					c-5.8-9.4-11.5-18.8-17.4-28.2c-0.1,0-0.1,0-0.1,0c0.1,9.6,0.3,19.2,0.4,28.7c-4.4,0.2-6.6,0.3-11.1,0.5
					C208.1,133.5,207.8,118.4,207.5,103.4z"/>
				<path class="st5" d="M257.2,101.8c4.5-0.1,6.7-0.1,11.2-0.1c0.1,15.1,0.1,30.1,0.2,45.2c-4.4,0-6.6,0.1-11.1,0.1
					C257.3,131.9,257.2,116.9,257.2,101.8z"/>
				<path class="st5" d="M290.9,111.1c-5.8,0-8.6,0-14.4,0c0-3.8,0-5.7,0-9.5c13.4,0,26.7,0.1,40.1,0.4c0,3.8-0.1,5.7-0.1,9.5
					c-5.8-0.1-8.6-0.2-14.4-0.3c-0.1,11.9-0.1,23.8-0.2,35.7c-4.4-0.1-6.6-0.1-11.1-0.1C290.8,134.9,290.8,123,290.9,111.1z"/>
				<path class="st5" d="M324.6,102.2c10.1,0.3,20.2,0.7,30.3,1.1c-0.1,3.8-0.1,5.7-0.2,9.5c-7.6-0.4-11.4-0.5-19.1-0.8
					c0,3.3-0.1,4.9-0.1,8.2c6.2,0.2,9.3,0.3,15.5,0.6c-0.1,3.8-0.1,5.7-0.2,9.5c-6.2-0.3-9.3-0.4-15.5-0.6c0,3.4-0.1,5.1-0.1,8.5
					c7.9,0.3,11.9,0.4,19.8,0.8c-0.1,3.8-0.1,5.7-0.2,9.5c-10.3-0.5-20.6-0.8-30.8-1.1C324.3,132.3,324.5,117.2,324.6,102.2z"/>
				<path class="st5" d="M363.4,103.6c7.2,0.4,10.7,0.6,17.9,1c13,0.5,23.2,11.1,22.8,24.1c-0.4,12.8-11.3,22.2-24,21
					c-7.1-0.4-10.6-0.6-17.7-1C362.8,133.7,363.1,118.7,363.4,103.6z M380,140.3c7.7,0.5,12.5-3.7,12.7-12.4
					c0.2-8.6-4.5-13.4-12-13.8c-2.5-0.2-3.7-0.2-6.2-0.4c-0.2,8.7-0.4,17.5-0.6,26.2C376.3,140.1,377.5,140.1,380,140.3z"/>
			</g>
		</g>
	</g>
	<g>
		<g>
			<path class="st5" d="M65.5,50.8c5.8-0.7,8.7-1.1,14.6-1.8c2.6,12.8,5.2,25.6,7.8,38.5c0.1,0,0.1,0,0.2,0c3-13.5,6-26.9,9-40.4
				c5-0.5,7.5-0.8,12.5-1.3c2.9,12.8,5.8,25.7,8.7,38.5c0.1,0,0.1,0,0.2,0c2.8-13.4,5.7-26.8,8.5-40.1c5.7-0.5,8.6-0.8,14.4-1.2
				c-4.8,19.3-9.6,38.6-14.4,58c-6.7,0.6-10.1,0.9-16.8,1.6c-2.3-10.9-4.6-21.7-6.9-32.6c-0.1,0-0.1,0-0.2,0
				c-2.3,11.3-4.6,22.7-6.9,34c-6.8,0.7-10.2,1.1-17,1.9C74.7,87.5,70.1,69.1,65.5,50.8z"/>
			<path class="st5" d="M431.1,43.8c6.3,0.5,9.4,0.8,15.6,1.4c4.1,12.2,8.3,24.4,12.4,36.6c0.1,0,0.1,0,0.2,0
				c4.1-11.3,8.2-22.7,12.4-34c6.2,0.7,9.3,1,15.4,1.8c3.4,19.3,6.8,38.7,10.2,58c-5.7-0.7-8.6-1.1-14.3-1.7
				c-1.7-12.6-3.4-25.3-5-37.9c-0.1,0-0.1,0-0.2,0c-4.1,12-8.1,24-12.2,36c-5-0.5-7.5-0.8-12.5-1.3c-4.1-12.8-8.3-25.7-12.4-38.5
				c-0.1,0-0.1,0-0.2,0c-1.5,12.3-2.9,24.6-4.4,36.9c-5.8-0.5-8.8-0.8-14.6-1.2C424.7,81.1,427.9,62.4,431.1,43.8z"/>
			<path class="st5" d="M146.9,42.6c12.8-1,25.5-1.8,38.3-2.5c-0.3,4.8-0.4,7.2-0.7,11.9c-7.9,0.5-15.8,0.9-23.8,1.5
				c0,4.1,0,6.2,0,10.3c7.8-0.5,11.6-0.8,19.4-1.2c0,4.8,0,7.1,0,11.9c-7.8,0.4-11.6,0.7-19.4,1.2c0,4.3,0,6.4,0,10.7
				c8.3-0.6,16.6-1.1,24.9-1.5c0,4.8,0,7.1,0,11.9c-12.9,0.7-25.8,1.6-38.8,2.6C146.9,80.5,146.9,61.6,146.9,42.6z"/>
			<path class="st5" d="M250.6,49.8c-7.2,0.1-10.8,0.2-17.9,0.4c0-4.8,0-7.1,0-11.9c16.6-0.4,33.2-0.6,49.8-0.6c0,4.8,0,7.1,0,11.9
				c-7.2,0-10.8,0-18,0.1c0,15,0,29.9,0,44.9c-5.6,0-8.4,0.1-13.9,0.2C250.6,79.7,250.6,64.7,250.6,49.8z"/>
			<path class="st5" d="M305.6,37.7c5.6,0.1,8.4,0.1,13.9,0.2c0,7.6,0,15.1,0,22.7c8,0.2,16.1,0.4,24.1,0.7c0-7.6,0-15.1,0-22.7
				c5.6,0.2,8.3,0.3,13.9,0.5c0,18.9,0,37.8,0,56.8c-5.6-0.2-8.3-0.3-13.9-0.5c0-7.4,0-14.8,0-22.2c-8-0.3-16.1-0.5-24.1-0.7
				c0,7.4,0,14.8,0,22.2c-5.6-0.1-8.4-0.2-13.9-0.2C305.6,75.6,305.6,56.7,305.6,37.7z"/>
			<path class="st5" d="M399.2,86.3c-7.6-0.5-11.5-0.8-19.1-1.2c-1.4,4.7-2,7-3.4,11.7c-5.7-0.3-8.6-0.5-14.3-0.7
				c5.7-18.6,11.5-37.3,17.2-55.9c7.5,0.4,11.3,0.7,18.8,1.2c6.2,19.4,12.4,38.7,18.6,58.1c-5.7-0.4-8.6-0.7-14.3-1.1
				C401.3,93.6,400.6,91.2,399.2,86.3z M389.6,53.8c-2.1,6.8-4.2,13.6-6.2,20.4c5,0.3,7.5,0.5,12.6,0.8c-2.1-7.1-4.1-14.1-6.2-21.2
				C389.7,53.8,389.6,53.8,389.6,53.8z"/>
			<g>
				<path class="st5" d="M211.5,37.9c-10.4,0.4-22.1,6.8-22.2,18.4c-0.1,17.8,26.6,13,28.2,22.7c0.5,2.7-2.6,4.9-6.4,4.9
					c-7.1,0-12.8-1.4-18.6-4.4c-0.3,4.9-0.5,7.5-0.7,11.9c6,4,12.2,4.9,19,5.1c10,0.3,22-6.7,22.1-18.4
					c0.2-17.7-26.3-13.7-28.2-22.8c-0.5-2.4,2.4-4.7,6.7-4.9c6.5-0.4,11.3,1.2,14.8,2.7c0.3-5.6,0.4-6.5,0.7-11.9
					C223.7,39.5,218.8,37.7,211.5,37.9z"/>
			</g>
		</g>
	</g>
	<g>
		<path class="st5" d="M199.6,506.9l6.8,3l-9.5,21.8l11.3,4.9l-2.5,5.8l-18-7.9L199.6,506.9z"/>
		<path class="st5" d="M233,518.8c8.8,2.4,13.4,10.7,11.1,19c-2.3,8.5-10.6,13.4-19.4,11c-8.8-2.4-13.4-10.8-11-19.4
			C216,521.1,224.2,516.4,233,518.8z M226.5,542.4c4.3,1.2,8.9-1.6,10.2-6.5c1.3-4.8-1.2-9.3-5.6-10.5c-4.3-1.2-8.8,1.4-10.1,6.2
			C219.7,536.5,222.2,541.2,226.5,542.4z"/>
		<path class="st5" d="M251.2,523.8l7.4,0.8l6.9,14.9c1,2.1,2,5.4,2,5.4l0.1,0c0,0,0-3.3,0.2-5.2l1.4-14l7.3,0.7l-3.1,30l-7.4-0.8
			l-6.9-14.8c-1-2.1-2-5.4-2-5.4l-0.1,0c0,0,0,3.3-0.2,5.2l-1.4,14l-7.3-0.7L251.2,523.8z"/>
		<path class="st5" d="M281.7,526.5l10.7-0.6c9.5-0.5,15.8,4.7,16.3,14.2c0.5,9.5-5.2,15.4-14.7,16l-10.7,0.6L281.7,526.5z
			 M293.4,549.7c5.1-0.3,8-3.5,7.7-9.2c-0.3-5.7-3.7-8.5-8.7-8.2l-3,0.2l0.9,17.5L293.4,549.7z"/>
		<path class="st5" d="M324.5,521.1c8.9-2,16.9,3.2,18.7,11.6c1.9,8.6-3.1,16.8-12,18.8c-8.9,2-16.9-3.4-18.8-12
			C310.6,531.1,315.6,523.1,324.5,521.1z M329.8,545c4.4-1,7.1-5.5,6-10.6c-1.1-4.8-5.4-7.7-9.8-6.7c-4.4,1-7.2,5.4-6.1,10.2
			C321,542.9,325.4,545.9,329.8,545z"/>
		<path class="st5" d="M342.9,517.1l6.9-2.8l13,9.9c1.8,1.4,4.3,3.8,4.3,3.8l0.1,0c0,0-1.5-2.9-2.2-4.6l-5.3-13.1l6.8-2.8l11.3,28
			l-6.9,2.8l-13-9.9c-1.8-1.4-4.3-3.8-4.3-3.8l-0.1,0c0,0,1.5,2.9,2.2,4.6l5.3,13l-6.8,2.8L342.9,517.1z"/>
	</g>
</g>
</svg>
